<?xml version="1.0" standalone="no"?>
<!DOCTYPE svg PUBLIC "-//W3C//DTD SVG 20010904//EN"
 "http://www.w3.org/TR/2001/REC-SVG-20010904/DTD/svg10.dtd">
<svg version="1.0" xmlns="http://www.w3.org/2000/svg"
 width="274.000000pt" height="229.000000pt" viewBox="0 0 274.000000 229.000000"
 preserveAspectRatio="xMidYMid meet">

<g transform="translate(0.000000,229.000000) scale(0.100000,-0.100000)"
fill="#000000" stroke="none">
<path d="M736 2283 c-15 -3 -47 -15 -70 -27 -45 -26 -104 -29 -130 -7 -14 12
-18 9 -29 -18 -8 -18 -28 -41 -46 -52 -33 -20 -49 -50 -55 -103 -4 -30 -48
-76 -74 -76 -7 0 -18 -11 -24 -25 -6 -14 -14 -25 -18 -25 -4 0 -25 -35 -48
-79 -35 -67 -39 -81 -28 -97 16 -24 14 -137 -3 -157 -8 -11 -9 -22 -3 -34 5
-10 7 -24 5 -31 -3 -8 16 -34 41 -58 26 -24 52 -56 57 -72 5 -15 30 -40 55
-57 101 -67 101 -67 125 -55 18 10 77 15 129 10 8 -1 40 8 70 19 80 31 117 28
138 -9 16 -28 20 -30 57 -24 33 5 44 2 60 -16 18 -20 18 -24 4 -80 -17 -65
-14 -76 32 -125 29 -32 81 -140 71 -149 -3 -3 1 -24 8 -46 11 -35 11 -42 -3
-57 -19 -22 -47 -99 -47 -134 0 -14 17 -58 38 -96 26 -47 41 -89 46 -127 6
-58 10 -68 71 -186 18 -36 29 -69 24 -74 -10 -11 15 -62 36 -70 9 -3 36 1 62
10 25 9 54 13 65 11 37 -10 105 23 150 73 77 86 98 120 98 162 0 35 3 40 35
54 46 19 51 33 36 100 l-13 55 39 35 c21 19 52 41 70 48 17 8 37 25 44 37 13
26 13 150 -1 159 -14 9 -27 53 -25 87 1 18 -2 30 -6 27 -15 -9 -10 15 11 57
21 39 118 142 198 207 35 29 101 133 125 200 11 29 2 56 -15 45 -7 -4 -49 -15
-93 -25 -73 -15 -81 -15 -98 0 -10 9 -15 22 -13 29 3 7 -21 36 -54 65 -33 29
-60 61 -60 71 0 10 -11 29 -25 43 -16 16 -28 42 -32 69 -3 25 -14 52 -24 61
-11 9 -19 22 -19 28 0 6 -20 52 -45 101 -25 50 -45 95 -44 100 0 6 8 -6 17
-25 13 -26 23 -34 39 -32 16 2 28 -9 52 -48 17 -28 31 -55 31 -60 0 -6 4 -10
10 -10 13 0 40 -54 40 -79 0 -11 9 -28 20 -38 31 -30 80 -106 80 -127 0 -10 5
-36 12 -57 9 -31 16 -39 34 -39 13 0 26 5 29 10 3 6 15 10 26 10 10 0 27 4 37
9 34 18 90 41 100 41 6 0 17 9 25 20 8 11 28 23 45 26 17 4 37 13 43 20 6 8
15 14 20 14 14 0 49 39 49 55 0 7 6 18 13 22 6 4 20 18 31 30 16 20 17 25 5
39 -8 10 -29 23 -47 31 -23 10 -34 22 -38 42 l-6 29 -27 -29 c-16 -17 -37 -29
-56 -30 -52 -2 -56 -1 -49 25 3 13 1 27 -5 30 -7 5 -11 -2 -11 -15 0 -27 -9
-20 -15 12 -3 13 -13 31 -24 39 -23 19 -52 78 -40 82 15 5 -17 78 -45 105 -23
21 -27 31 -22 59 5 24 2 39 -11 53 -16 19 -29 21 -129 21 -121 0 -123 -1 -138
-72 -3 -14 -15 -47 -26 -73 l-20 -48 -50 7 c-29 4 -58 2 -70 -4 -28 -15 -113
6 -192 47 -36 18 -83 -1 -83 -34 -1 -37 -19 -47 -53 -29 -17 9 -37 16 -45 16
-7 0 -23 11 -35 25 -12 14 -28 26 -34 26 -51 5 -70 10 -93 25 -21 14 -23 19
-13 32 7 8 13 30 13 49 l0 33 -110 -2 c-60 0 -123 -3 -139 -5z"/>
<path d="M2188 1533 c7 -3 16 -2 19 1 4 3 -2 6 -13 5 -11 0 -14 -3 -6 -6z"/>
<path d="M2052 820 c-14 -36 -57 -79 -92 -92 -34 -11 -46 -41 -36 -89 4 -19 0
-39 -10 -54 -23 -35 -10 -123 20 -136 35 -16 73 4 81 43 4 18 19 67 32 108 14
41 25 89 26 107 1 17 6 31 12 30 13 -3 6 51 -10 83 l-13 25 -10 -25z"/>
</g>
</svg>
