<?xml version="1.0" standalone="no"?>
<!DOCTYPE svg PUBLIC "-//W3C//DTD SVG 20010904//EN"
 "http://www.w3.org/TR/2001/REC-SVG-20010904/DTD/svg10.dtd">
<svg version="1.0" xmlns="http://www.w3.org/2000/svg"
 width="523.000000pt" height="477.000000pt" viewBox="0 0 523.000000 477.000000"
 preserveAspectRatio="xMidYMid meet">

<g transform="translate(0.000000,477.000000) scale(0.100000,-0.100000)"
fill="#000000" stroke="none">
<path d="M1381 4761 c-45 -12 -36 -31 16 -32 26 0 42 -3 36 -6 -7 -2 -13 -8
-13 -13 0 -10 169 -42 182 -34 18 11 -23 41 -63 47 -23 3 -50 15 -60 26 -20
21 -52 25 -98 12z"/>
<path d="M1644 4685 c-13 -33 2 -42 58 -37 60 5 63 6 53 21 -3 6 -21 11 -40
11 -19 0 -37 5 -40 10 -9 15 -25 12 -31 -5z"/>
<path d="M1740 4604 c0 -18 -4 -25 -14 -21 -7 3 -19 0 -25 -6 -6 -6 -35 -10
-63 -10 -29 1 -69 -2 -88 -7 -19 -5 -51 -12 -70 -15 -61 -9 -69 -21 -35 -50
l30 -24 -87 -1 c-49 0 -88 -4 -88 -8 0 -14 33 -39 60 -45 14 -3 34 -13 45 -21
19 -14 19 -15 1 -16 -10 0 -45 7 -79 16 -35 9 -63 12 -66 6 -3 -5 -13 -11 -21
-14 -10 -4 -4 -8 15 -13 52 -12 63 -17 43 -22 -34 -9 -99 17 -108 43 -9 23
-12 24 -25 10 -20 -19 -19 -32 3 -48 9 -7 25 -30 34 -50 17 -37 19 -38 72 -38
51 0 57 -3 85 -37 38 -46 25 -55 -18 -13 -20 21 -39 30 -53 28 -20 -3 -23 -8
-20 -44 3 -35 0 -43 -22 -58 -22 -14 -33 -15 -66 -6 -46 12 -55 25 -11 15 25
-5 33 -2 47 21 20 30 25 16 -58 143 -27 39 -48 77 -48 85 0 18 -22 26 -71 26
-34 0 -39 -3 -39 -24 0 -13 -7 -29 -15 -36 -14 -12 -14 -15 0 -30 8 -9 15 -22
15 -28 0 -6 19 -21 42 -34 23 -13 40 -27 38 -33 -3 -5 -7 -9 -10 -8 -3 1 -22
4 -44 8 -37 7 -38 7 -26 -15 11 -20 8 -26 -29 -61 l-42 -38 16 -37 c17 -42 65
-270 65 -311 0 -14 8 -37 19 -51 39 -57 35 -78 -22 -107 -29 -14 -30 -25 -7
-62 23 -39 53 -43 86 -12 12 12 27 19 32 15 15 -9 24 -131 11 -160 -18 -38
-37 -39 -97 -5 -66 37 -104 34 -100 -8 3 -24 -1 -27 -44 -37 -36 -9 -52 -19
-71 -46 -13 -20 -30 -34 -39 -32 -28 4 -31 -17 -9 -59 12 -22 21 -48 21 -58 0
-47 10 -52 51 -26 63 41 119 26 119 -31 0 -32 -2 -34 -25 -28 -22 5 -25 3 -25
-20 0 -18 -4 -24 -15 -20 -8 4 -15 2 -15 -3 0 -11 80 -93 91 -93 4 0 10 -18
14 -40 4 -22 11 -40 17 -40 6 0 8 7 5 15 -11 27 15 27 44 -1 38 -36 37 -44 -6
-44 -38 0 -48 -22 -18 -38 10 -6 14 -16 9 -27 -4 -12 1 -26 15 -41 11 -12 23
-40 26 -62 5 -35 3 -40 -18 -45 -43 -12 -76 -7 -102 13 -14 11 -32 20 -41 20
-8 0 -20 10 -27 21 -15 29 -3 106 19 118 9 5 15 11 12 13 -3 2 -21 18 -41 34
-25 22 -52 33 -87 38 -33 4 -62 16 -88 37 -25 19 -45 28 -58 25 -11 -3 -35 4
-53 15 -19 12 -40 18 -49 15 -13 -5 -13 -10 5 -32 46 -58 14 -90 -83 -81 -34
3 -74 12 -91 21 -43 23 -126 21 -158 -4 -14 -11 -39 -20 -55 -20 -21 0 -31 -6
-35 -19 -4 -16 -15 -20 -53 -23 -42 -3 -49 -6 -52 -26 -2 -13 3 -25 12 -28 27
-10 19 -42 -11 -47 l-28 -4 33 -14 c23 -9 35 -23 40 -44 6 -22 15 -31 34 -33
15 -2 32 -10 38 -18 16 -18 49 -18 56 1 8 19 35 19 60 0 23 -18 48 -19 77 -3
12 7 33 13 47 14 l25 1 -3 -91 c-2 -56 -11 -115 -23 -153 l-21 -63 -39 6 c-21
4 -39 4 -39 0 0 -8 34 -85 62 -144 16 -32 24 -40 34 -31 21 18 69 -35 114
-127 23 -46 45 -84 49 -84 18 0 43 -55 51 -113 8 -52 14 -66 45 -93 19 -18 35
-39 35 -46 0 -7 20 -48 46 -91 31 -53 43 -84 39 -98 -8 -24 26 -167 40 -173
12 -4 155 51 195 75 8 5 43 23 77 39 51 25 62 34 65 57 3 31 40 54 92 58 25 2
30 7 28 23 -2 12 4 23 15 26 20 7 73 85 73 108 0 8 8 24 18 36 10 11 27 37 38
57 17 32 17 38 4 48 -8 7 -20 21 -26 32 -6 11 -20 21 -30 23 -36 6 -66 38 -83
91 l-17 53 -28 -51 c-33 -61 -49 -71 -101 -62 -38 6 -40 8 -43 46 -4 46 -22
74 -22 34 0 -14 -3 -28 -6 -32 -8 -8 -44 61 -44 84 0 9 -7 22 -16 30 -8 7 -26
34 -40 60 -13 26 -28 50 -34 54 -16 10 -12 22 15 39 39 26 69 7 101 -63 16
-34 33 -61 39 -61 7 0 36 -13 65 -29 l53 -29 28 20 c35 26 54 19 76 -29 17
-35 23 -38 93 -55 72 -17 123 -17 248 -2 32 4 42 2 42 -9 0 -22 108 -127 130
-127 11 0 20 -4 20 -10 0 -5 -9 -10 -20 -10 -28 0 -25 -11 13 -55 28 -32 37
-37 60 -31 19 4 29 15 35 39 l9 32 12 -44 c7 -23 10 -50 6 -59 -10 -26 33
-191 70 -267 18 -38 37 -88 41 -110 4 -22 19 -65 34 -95 16 -30 31 -71 35 -90
10 -50 28 -89 44 -95 18 -7 23 -1 53 55 13 25 28 52 32 59 14 23 21 178 11
237 -6 33 19 70 63 93 12 7 22 16 22 22 0 13 76 113 117 154 17 17 34 43 37
60 11 43 24 55 63 55 42 0 93 25 93 46 0 13 3 14 15 4 8 -7 18 -34 21 -61 8
-59 24 -83 56 -84 19 0 23 -5 23 -30 1 -20 6 -31 17 -33 22 -4 38 -53 38 -113
0 -44 2 -49 23 -49 28 0 67 26 67 45 0 8 5 17 10 20 15 9 48 -73 56 -139 4
-31 11 -59 15 -62 5 -3 9 -24 9 -48 0 -23 5 -47 12 -54 8 -8 8 -15 -2 -27 -9
-11 -10 -22 -3 -38 6 -12 7 -31 2 -42 -15 -40 -9 -65 24 -94 39 -35 77 -107
77 -148 0 -70 95 -213 133 -200 18 6 20 52 3 67 -11 8 -16 30 -16 69 -1 31 -6
65 -13 77 -20 35 -61 80 -80 87 -9 3 -29 32 -44 64 -16 32 -34 64 -41 72 -10
10 -12 27 -8 55 4 23 9 64 12 91 6 49 18 75 35 75 5 0 9 -8 9 -17 0 -11 16
-25 39 -36 27 -12 43 -29 56 -57 11 -23 32 -48 52 -60 30 -18 34 -24 28 -49
-10 -45 14 -50 47 -11 15 19 28 40 28 48 0 7 16 20 35 28 68 28 82 106 40 221
-17 49 -34 76 -60 96 -51 42 -95 112 -95 152 0 19 5 37 10 40 6 3 10 14 10 23
0 9 16 27 34 40 28 19 38 21 55 13 11 -6 21 -21 23 -33 2 -13 11 -24 20 -26
12 -2 17 5 20 29 3 29 7 33 53 44 27 7 51 18 53 24 2 6 12 11 23 11 33 0 97
40 131 83 44 56 55 82 62 146 3 29 12 63 19 75 15 23 27 84 20 104 -3 6 -13
12 -22 12 -26 0 -33 11 -16 24 24 18 8 83 -26 103 -15 9 -35 34 -45 55 -10 22
-30 50 -46 63 -15 13 -28 28 -28 34 0 21 34 81 46 81 7 0 17 8 23 17 7 14 3
19 -27 30 -47 16 -47 16 -68 -4 -16 -16 -18 -15 -40 10 -13 15 -27 27 -32 27
-10 0 -42 33 -42 43 0 3 10 7 23 9 13 2 23 11 25 23 2 12 14 34 27 50 20 25
27 28 42 19 14 -9 17 -22 15 -65 -3 -53 -2 -54 16 -33 28 32 57 44 91 38 38
-8 46 -19 46 -64 0 -31 3 -35 30 -38 39 -5 58 -21 51 -46 -3 -11 1 -31 9 -45
7 -14 17 -48 22 -75 9 -53 33 -76 33 -32 0 28 10 36 54 45 22 5 32 13 34 28 4
29 -53 116 -117 177 -51 49 -51 49 -33 70 30 33 33 43 22 70 -17 45 33 122 55
86 19 -30 85 5 85 46 0 10 7 42 16 69 9 31 13 67 9 95 -3 25 -1 51 4 59 10 15
-19 93 -44 121 -7 8 -17 29 -21 45 -22 93 -154 195 -190 148 -8 -11 -16 -14
-21 -8 -16 21 -63 45 -88 45 -29 0 -35 29 -10 50 8 7 15 25 15 41 0 15 5 31
10 34 6 3 10 24 10 45 0 21 5 42 12 46 6 4 54 8 105 8 68 0 94 4 98 13 3 11
10 11 24 3 11 -6 24 -10 28 -9 21 4 33 -3 33 -17 0 -12 6 -15 23 -10 12 3 39
9 59 12 38 7 43 24 7 24 -18 0 -20 6 -17 53 l3 52 37 3 c29 2 46 -3 74 -24 35
-27 37 -27 50 -9 17 23 18 37 3 52 -8 8 -7 13 2 18 20 13 70 -55 64 -85 -3
-14 -8 -47 -11 -75 -4 -27 -13 -55 -21 -62 -12 -9 -12 -19 -3 -53 12 -43 101
-148 217 -254 l54 -49 -5 87 c-3 69 -1 86 10 86 22 0 16 19 -13 45 -27 23 -27
24 -9 38 19 14 18 15 -10 33 -16 10 -37 29 -46 40 -10 12 -28 24 -41 28 -14 3
-29 20 -40 44 -20 46 -21 55 -4 49 6 -2 20 3 30 11 16 14 19 14 28 2 8 -13 11
-12 20 3 12 21 57 22 83 2 29 -22 34 -19 41 25 4 22 12 40 19 40 7 0 19 11 26
25 13 23 17 25 64 19 48 -7 50 -6 36 11 -18 22 -186 159 -299 246 -75 56 -92
65 -145 72 -97 13 -247 17 -241 6 4 -5 15 -9 25 -9 19 0 36 -17 27 -27 -11
-10 -107 29 -107 43 0 12 -3 12 -23 -1 -13 -8 -26 -13 -29 -10 -3 3 -48 6 -99
6 -83 1 -97 4 -121 24 -33 28 -150 50 -216 41 -53 -7 -192 22 -192 40 0 19
-70 23 -80 5 -8 -14 -9 -14 -15 0 -5 13 -25 19 -81 24 -51 5 -74 11 -74 20 0
13 -49 35 -76 35 -31 0 -11 -19 27 -25 l41 -7 -27 -18 c-27 -18 -27 -18 -6
-29 11 -7 21 -15 21 -19 0 -9 -166 -9 -176 1 -13 12 -26 8 -21 -7 11 -28 -27
-26 -91 4 -35 16 -75 30 -88 30 -26 0 -30 10 -12 28 6 6 10 13 7 15 -11 10
-160 16 -154 7 3 -6 13 -10 21 -10 8 0 14 -4 14 -8 0 -12 -120 -3 -165 13 -22
8 -82 15 -133 17 -52 1 -96 6 -98 10 -9 14 -44 9 -44 -6 0 -14 -48 -32 -58
-21 -7 7 45 52 71 60 20 7 23 38 5 52 -27 21 -109 36 -163 29 -46 -5 -55 -4
-55 10 0 11 -6 14 -20 9 -12 -4 -31 0 -45 9 -13 9 -40 16 -60 16 -31 0 -35 -3
-35 -26z m-480 -1489 c0 -17 4 -35 9 -40 6 -6 7 -29 4 -52 -6 -42 -6 -43 -45
-41 -32 1 -42 6 -54 29 -20 40 -17 66 11 91 14 12 25 27 25 34 0 6 11 11 25
10 21 -1 25 -6 25 -31z m-863 -937 c-3 -8 -6 -5 -6 6 -1 11 2 17 5 13 3 -3 4
-12 1 -19z"/>
<path d="M2760 4563 c1 -37 59 -54 151 -47 89 8 102 25 27 36 -26 3 -56 9 -67
13 -12 4 -21 2 -21 -4 0 -7 -8 -7 -26 -1 -30 12 -64 13 -64 3z"/>
<path d="M3030 4531 c0 -6 11 -11 24 -11 12 0 37 -5 55 -11 33 -12 71 -5 55
11 -15 14 -134 25 -134 11z"/>
<path d="M3910 3531 c0 -6 5 -13 10 -16 6 -3 10 -14 10 -23 0 -10 21 -42 47
-71 48 -54 107 -145 118 -181 4 -11 10 -20 15 -20 5 0 20 -25 34 -55 22 -50
46 -72 46 -44 0 6 9 8 23 4 17 -6 13 2 -20 36 -46 48 -66 99 -40 99 9 0 19 -4
22 -10 3 -5 12 -10 18 -10 7 0 -14 26 -46 58 -32 31 -94 99 -138 150 -75 85
-99 106 -99 83z"/>
<path d="M4200 3055 c0 -3 10 -26 22 -51 13 -29 17 -48 11 -52 -5 -4 -13 -20
-17 -36 -5 -22 -2 -33 13 -47 23 -21 37 -24 46 -9 4 6 -4 19 -17 30 l-23 19
30 0 c17 0 39 -6 49 -14 25 -19 36 -19 36 0 0 8 9 23 21 33 15 14 18 26 13 46
-5 22 -12 26 -44 26 -25 0 -50 9 -78 30 -39 28 -62 37 -62 25z"/>
<path d="M4282 2838 c-16 -16 -14 -69 3 -92 20 -26 19 -97 -1 -122 -11 -13
-17 -15 -20 -6 -11 24 -22 11 -28 -33 l-7 -45 -43 0 c-35 0 -48 -6 -79 -38
-55 -56 -22 -71 67 -31 52 23 76 20 76 -10 0 -26 17 -36 36 -20 10 8 13 21 9
36 -6 25 4 30 22 12 16 -16 63 -2 63 17 0 10 6 14 15 10 24 -9 28 17 11 68 -9
26 -16 63 -16 84 0 46 -32 117 -59 134 -12 7 -21 18 -21 25 0 18 -15 24 -28
11z"/>
<path d="M298 2533 c-24 -6 -23 -33 0 -33 19 0 42 18 42 32 0 8 -13 9 -42 1z"/>
<path d="M4166 2447 c-11 -8 -17 -22 -14 -37 3 -26 28 -40 28 -16 0 9 8 16 20
16 15 0 20 7 20 25 0 28 -24 34 -54 12z"/>
<path d="M4057 2434 c-11 -11 -8 -54 3 -54 6 0 10 5 10 10 0 6 6 10 13 10 8 0
12 -16 12 -44 0 -46 15 -73 34 -62 15 10 14 111 -2 124 -17 15 -61 25 -70 16z"/>
<path d="M3820 1950 c-17 -31 -15 -109 3 -127 13 -13 16 -11 24 18 9 29 10 69
5 117 -3 19 -20 14 -32 -8z"/>
<path d="M3391 1664 c-28 -35 -26 -52 4 -66 33 -15 53 3 62 55 5 35 4 37 -20
37 -16 0 -34 -10 -46 -26z"/>
<path d="M3867 1604 c-4 -4 -7 -31 -7 -61 0 -29 -4 -53 -10 -53 -26 0 3 -76
32 -85 10 -4 18 -15 18 -26 0 -10 4 -19 9 -19 5 0 22 -5 38 -12 15 -6 34 -10
41 -9 12 2 17 -23 13 -67 -2 -18 2 -23 16 -20 14 3 18 12 16 47 -2 51 -15 68
-57 79 -47 12 -60 48 -39 104 15 41 15 49 1 84 -11 28 -22 40 -40 42 -13 2
-27 0 -31 -4z"/>
<path d="M2767 1333 c-11 -10 -8 -103 3 -103 6 0 10 25 10 55 0 56 -1 60 -13
48z"/>
<path d="M3905 1308 c9 -39 11 -42 24 -33 18 11 12 44 -10 56 -20 10 -21 9
-14 -23z"/>
<path d="M4060 1264 c-6 -14 -10 -32 -10 -40 0 -8 -11 -19 -24 -24 -29 -11
-50 -64 -35 -91 15 -30 26 -23 45 29 22 60 22 59 39 36 8 -10 15 -17 15 -14
12 60 6 130 -11 130 -5 0 -14 -12 -19 -26z"/>
<path d="M3870 1260 c0 -5 5 -10 10 -10 6 0 10 5 10 10 0 6 -4 10 -10 10 -5 0
-10 -4 -10 -10z"/>
<path d="M3961 1228 c-1 -49 6 -57 27 -36 17 17 15 48 -2 48 -8 0 -17 8 -19
18 -3 9 -5 -4 -6 -30z"/>
<path d="M3850 1202 c0 -8 -19 -40 -42 -73 -41 -59 -46 -88 -8 -54 11 10 31
38 45 62 20 33 23 47 16 61 -7 11 -10 12 -11 4z"/>
<path d="M4050 1135 c0 -8 5 -15 10 -15 6 0 10 7 10 15 0 8 -4 15 -10 15 -5 0
-10 -7 -10 -15z"/>
<path d="M2266 1067 c2 -129 2 -127 27 -127 61 0 61 56 2 170 -23 43 -30 32
-29 -43z"/>
<path d="M4100 1112 c0 -26 -24 -45 -48 -38 -25 8 -87 -56 -78 -81 7 -17 8
-17 24 3 9 11 31 21 49 23 31 2 32 2 26 -32 -4 -28 -1 -37 18 -51 35 -24 41
-20 34 22 -6 33 -5 35 8 20 8 -10 17 -18 21 -18 12 0 6 66 -12 114 -18 51 -42
73 -42 38z"/>
<path d="M3733 932 c-12 -26 -32 -51 -45 -57 -12 -5 -34 -30 -48 -55 -17 -29
-34 -46 -49 -48 -20 -3 -30 -17 -45 -66 -6 -17 -8 -17 -32 -1 -20 13 -28 14
-40 4 -20 -17 -16 -103 7 -149 10 -19 21 -53 26 -75 7 -36 11 -40 36 -38 15 1
27 -2 27 -8 0 -5 19 -9 43 -9 46 0 59 -6 73 -33 10 -17 11 -17 36 2 15 12 30
39 38 68 7 26 20 59 29 73 9 14 18 43 21 65 4 35 9 40 33 43 32 4 34 13 7 37
-11 10 -20 28 -20 41 0 13 -4 26 -10 29 -15 9 -12 61 5 75 8 7 15 19 15 28 0
8 8 21 18 29 15 12 15 15 2 20 -8 4 -29 21 -46 40 -17 18 -37 33 -45 33 -8 -1
-24 -22 -36 -48z"/>
<path d="M2900 905 c0 -24 18 -56 55 -95 18 -19 36 -45 40 -58 3 -12 17 -34
31 -47 13 -13 24 -35 24 -47 0 -13 10 -36 22 -51 12 -15 36 -61 53 -102 41
-100 135 -214 171 -207 20 4 24 10 24 42 0 44 18 102 30 95 16 -10 16 30 0 57
-17 32 -35 36 -49 11 -8 -16 -12 -13 -26 20 -8 20 -20 37 -25 37 -6 0 -10 16
-10 35 0 22 -6 38 -15 41 -8 4 -15 14 -15 24 0 10 -9 22 -20 25 -11 3 -20 10
-20 15 0 5 -15 18 -34 29 -18 11 -61 55 -96 96 -38 46 -70 75 -82 75 -11 0
-28 5 -39 10 -15 9 -19 7 -19 -5z m430 -436 c0 -6 -4 -7 -10 -4 -5 3 -10 11
-10 16 0 6 5 7 10 4 6 -3 10 -11 10 -16z"/>
<path d="M2916 761 c-3 -5 1 -11 9 -15 8 -3 15 -1 15 4 0 13 -18 22 -24 11z"/>
<path d="M4214 685 c-3 -14 -4 -38 -1 -53 3 -16 2 -34 -3 -42 -6 -9 -5 -17 3
-22 22 -14 29 -8 23 16 -4 16 -1 28 8 33 7 4 17 23 21 41 5 25 3 32 -9 32 -9
0 -16 5 -16 10 0 21 -20 9 -26 -15z"/>
<path d="M4088 674 c-25 -26 -29 -27 -66 -16 -54 16 -69 15 -103 -9 -23 -16
-29 -28 -29 -58 0 -21 -3 -41 -7 -45 -4 -4 -13 -32 -19 -63 -10 -52 -10 -56 9
-61 18 -4 19 -11 13 -63 -5 -54 -4 -59 14 -59 18 0 20 7 20 64 0 35 3 71 6 80
10 26 24 18 24 -13 0 -17 5 -33 10 -36 6 -3 10 -17 10 -31 0 -25 0 -25 25 -7
28 20 27 52 -3 111 -16 32 -16 34 2 48 11 8 27 12 36 9 13 -4 17 2 18 25 1 37
-18 39 -67 9 -27 -16 -36 -18 -43 -7 -12 18 -21 58 -15 64 2 3 41 5 86 5 75 0
83 2 97 24 9 13 14 31 12 40 -2 12 -8 10 -30 -11z"/>
<path d="M3030 541 c0 -6 5 -13 10 -16 6 -3 10 1 10 9 0 9 -4 16 -10 16 -5 0
-10 -4 -10 -9z"/>
<path d="M4210 520 c0 -5 7 -10 15 -10 8 0 15 5 15 10 0 6 -7 10 -15 10 -8 0
-15 -4 -15 -10z"/>
<path d="M4080 510 c0 -5 9 -10 20 -10 11 0 20 5 20 10 0 6 -9 10 -20 10 -11
0 -20 -4 -20 -10z"/>
<path d="M4310 506 c0 -9 7 -16 16 -16 17 0 14 22 -4 28 -7 2 -12 -3 -12 -12z"/>
<path d="M3397 455 c-8 -18 11 -31 25 -17 11 11 3 32 -12 32 -4 0 -10 -7 -13
-15z"/>
<path d="M4240 429 c0 -17 4 -20 22 -16 11 3 33 0 48 -8 15 -8 30 -11 34 -8
21 22 -17 53 -65 53 -33 0 -39 -3 -39 -21z"/>
<path d="M4162 423 c2 -10 10 -18 18 -18 22 0 18 29 -3 33 -14 3 -18 -1 -15
-15z"/>
<path d="M4006 344 c-20 -19 -20 -28 -2 -43 16 -13 20 -9 30 32 7 30 -4 35
-28 11z"/>
<path d="M4475 269 c-9 -17 -14 -34 -10 -37 8 -8 32 19 40 46 10 33 -12 27
-30 -9z"/>
<path d="M3312 260 c-17 -28 -15 -40 7 -40 11 0 21 -4 23 -9 2 -5 32 -15 68
-22 36 -6 79 -17 95 -24 17 -7 58 -15 92 -18 50 -5 62 -4 67 10 8 20 -11 43
-35 43 -11 0 -19 4 -19 10 0 5 -17 18 -38 29 -34 17 -41 18 -53 5 -12 -11 -20
-12 -49 -1 -19 6 -39 18 -43 25 -5 7 -28 12 -55 12 -36 0 -50 -5 -60 -20z"/>
<path d="M3610 231 c0 -11 21 -19 38 -14 21 8 13 23 -13 23 -14 0 -25 -4 -25
-9z"/>
<path d="M4345 194 c-9 -14 -14 -29 -10 -32 7 -7 45 34 45 49 0 17 -18 9 -35
-17z"/>
<path d="M4143 193 c-18 -6 -16 -23 1 -23 17 0 30 16 19 23 -5 2 -14 2 -20 0z"/>
<path d="M3776 149 c-21 -17 -26 -18 -26 -5 0 22 -17 20 -29 -3 -9 -16 -7 -19
17 -23 35 -5 112 10 112 22 0 8 -31 30 -43 30 -2 0 -16 -9 -31 -21z"/>
<path d="M3680 150 c0 -5 7 -10 15 -10 8 0 15 5 15 10 0 6 -7 10 -15 10 -8 0
-15 -4 -15 -10z"/>
<path d="M3886 141 c-19 -20 -12 -31 19 -31 27 0 95 27 95 38 0 4 -22 8 -49 8
-36 2 -54 -3 -65 -15z"/>
<path d="M4020 150 c0 -5 5 -10 10 -10 6 0 10 5 10 10 0 6 -4 10 -10 10 -5 0
-10 -4 -10 -10z"/>
<path d="M4128 150 c-36 -11 -108 -71 -108 -91 0 -31 13 -27 75 20 35 27 69
51 76 53 7 2 9 10 5 16 -8 13 -10 14 -48 2z"/>
<path d="M3854 99 c-9 -15 38 -51 50 -39 10 10 1 27 -24 40 -13 7 -21 7 -26
-1z"/>
<path d="M3995 19 c-11 -17 1 -21 15 -4 8 9 8 15 2 15 -6 0 -14 -5 -17 -11z"/>
</g>
</svg>
