<?xml version="1.0" standalone="no"?>
<!DOCTYPE svg PUBLIC "-//W3C//DTD SVG 20010904//EN"
 "http://www.w3.org/TR/2001/REC-SVG-20010904/DTD/svg10.dtd">
<svg version="1.0" xmlns="http://www.w3.org/2000/svg"
 width="174.000000pt" height="138.000000pt" viewBox="0 0 174.000000 138.000000"
 preserveAspectRatio="xMidYMid meet">

<g transform="translate(0.000000,138.000000) scale(0.100000,-0.100000)"
fill="#000000" stroke="none">
<path d="M1065 1181 c-3 -11 -8 -45 -10 -76 -5 -58 -19 -95 -36 -95 -8 0 -35
15 -116 66 l-23 14 20 35 c11 20 20 37 20 38 0 2 -13 4 -30 5 -16 1 -42 7 -56
13 -16 5 -30 6 -33 1 -3 -5 -17 -12 -31 -15 -25 -6 -65 -59 -53 -71 14 -14
-32 -5 -48 10 -14 13 -22 13 -41 4 -34 -18 -58 -42 -52 -51 3 -5 -2 -9 -10 -9
-9 0 -16 -8 -16 -17 0 -14 -2 -15 -9 -4 -11 17 -31 6 -31 -18 0 -34 -34 -61
-101 -80 -122 -35 -166 -83 -132 -147 13 -26 9 -49 -7 -39 -4 3 2 -16 14 -42
35 -75 52 -160 37 -185 -10 -17 -9 -22 6 -34 33 -25 50 -25 98 1 37 19 56 23
85 19 31 -5 40 -3 49 14 12 23 29 31 91 44 87 18 115 19 154 5 36 -12 45 -23
83 -95 1 -2 15 11 32 30 31 34 38 29 21 -16 -5 -15 -6 -26 0 -26 4 0 10 8 13
18 3 15 5 15 12 -3 5 -11 17 -29 27 -39 10 -11 17 -25 16 -30 -3 -24 15 -45
45 -52 18 -3 37 -10 43 -15 6 -5 18 -3 29 5 16 12 22 12 41 0 18 -13 24 -12
45 5 14 10 36 21 49 23 16 2 26 11 28 23 5 34 45 129 65 157 26 35 38 101 30
170 -4 47 -11 62 -39 89 -19 18 -34 39 -34 46 0 7 -6 13 -13 13 -7 0 -21 16
-30 35 -9 19 -30 41 -47 50 -20 11 -33 26 -37 46 -3 16 -10 32 -14 35 -5 3 -9
16 -9 28 0 24 -18 46 -35 43 -5 -1 -11 7 -13 18 -5 32 -24 75 -33 75 -4 0 -10
-9 -14 -19z"/>
<path d="M738 1183 c6 -2 18 -2 25 0 6 3 1 5 -13 5 -14 0 -19 -2 -12 -5z"/>
<path d="M925 440 c-3 -5 1 -10 10 -10 9 0 13 5 10 10 -3 6 -8 10 -10 10 -2 0
-7 -4 -10 -10z"/>
<path d="M1140 256 c6 -30 32 -83 45 -91 21 -13 55 26 55 64 0 25 -3 26 -50
27 -28 0 -50 0 -50 0z"/>
</g>
</svg>
