<?xml version="1.0" standalone="no"?>
<!DOCTYPE svg PUBLIC "-//W3C//DTD SVG 20010904//EN"
 "http://www.w3.org/TR/2001/REC-SVG-20010904/DTD/svg10.dtd">
<svg version="1.0" xmlns="http://www.w3.org/2000/svg"
 width="200.000000pt" height="200.000000pt" viewBox="0 0 200.000000 200.000000"
 preserveAspectRatio="xMidYMid meet">

<g transform="translate(0.000000,200.000000) scale(0.100000,-0.100000)"
fill="#000000" stroke="none">
<path d="M900 1926 c0 -2 7 -9 15 -16 9 -7 15 -8 15 -2 0 5 -7 12 -15 16 -8 3
-15 4 -15 2z"/>
<path d="M1014 1900 c1 -33 24 -41 45 -16 9 10 6 17 -13 30 -33 21 -33 21 -32
-14z"/>
<path d="M1200 1917 c0 -3 24 -18 53 -35 60 -34 137 -113 137 -140 0 -49 106
-122 178 -122 39 0 41 13 6 63 -22 33 -25 47 -22 107 3 93 -3 98 -128 111
-181 18 -224 21 -224 16z"/>
<path d="M368 1889 c-10 -5 -18 -21 -18 -34 0 -28 -15 -33 -28 -9 -5 9 -15 15
-22 12 -21 -7 -19 -48 2 -59 10 -6 16 -14 13 -20 -8 -12 -45 -12 -45 1 0 6 -7
10 -15 10 -8 0 -15 -8 -15 -18 0 -10 -7 -27 -15 -38 -20 -26 -19 -36 7 -64 21
-22 21 -23 3 -36 -10 -8 -35 -14 -54 -14 -27 0 -32 -3 -21 -10 23 -15 102 -11
124 5 11 8 34 15 51 15 25 0 35 -6 48 -32 10 -18 31 -52 48 -75 18 -24 31 -53
31 -70 0 -39 11 -53 19 -23 4 18 8 5 13 -45 4 -38 11 -79 16 -90 5 -11 20 -46
34 -77 29 -64 33 -93 12 -85 -15 6 -42 -43 -67 -123 -12 -38 -13 -57 -2 -120
10 -62 18 -79 41 -100 16 -14 32 -33 35 -42 4 -10 17 -18 29 -18 13 0 43 -14
67 -30 24 -17 41 -30 37 -30 -11 0 -49 22 -64 37 -15 15 -48 18 -56 5 -3 -5 8
-37 25 -71 17 -35 28 -65 25 -68 -3 -3 4 -17 14 -31 11 -13 20 -32 20 -41 1
-9 14 -32 30 -51 30 -34 42 -22 15 14 -8 11 -15 27 -15 35 0 9 -15 40 -34 71
-40 67 -53 110 -32 110 18 0 46 -38 46 -62 0 -10 9 -26 20 -35 11 -10 20 -23
20 -30 0 -7 5 -13 10 -13 6 0 14 -8 17 -17 4 -10 26 -43 51 -73 36 -45 43 -59
39 -85 -3 -18 -2 -36 1 -41 12 -17 83 -54 104 -54 11 0 33 -9 49 -20 50 -36
83 -43 119 -25 29 15 32 15 59 -4 29 -21 29 -21 34 -1 3 11 11 20 19 20 10 0
9 -3 -2 -10 -23 -15 1 -44 39 -48 26 -3 33 1 42 25 7 20 7 29 -1 31 -8 3 -6
10 4 21 10 11 12 21 5 31 -8 13 -10 13 -19 0 -6 -10 -10 -11 -10 -3 0 10 -6
10 -25 1 -24 -11 -24 -12 -8 -30 9 -10 14 -20 12 -22 -2 -2 -12 7 -22 20 l-18
25 45 20 c42 18 51 29 47 53 -1 4 5 19 14 32 21 32 2 40 -46 20 -28 -12 -37
-22 -47 -60 -9 -35 -17 -46 -31 -46 -11 0 -31 -5 -45 -11 -20 -10 -29 -8 -55
11 -53 37 -73 89 -68 176 3 52 10 80 22 94 30 33 95 61 134 58 26 -2 36 1 36
12 0 17 60 32 95 23 14 -3 30 -5 37 -4 7 1 23 -16 37 -37 21 -33 64 -72 81
-72 19 0 -30 115 -60 140 -21 18 -19 29 15 80 38 58 48 105 26 129 -9 10 -16
28 -16 42 0 19 2 21 10 9 8 -12 10 -8 11 15 1 17 1 33 0 37 0 4 13 17 29 30
32 23 40 48 15 48 -21 0 -19 20 7 47 18 19 20 27 10 48 -16 36 -42 33 -42 -5
0 -24 -7 -35 -34 -51 -19 -11 -39 -33 -44 -49 -6 -15 -20 -31 -32 -35 -12 -4
-19 -9 -16 -13 10 -10 -36 -52 -57 -52 -15 0 -18 5 -14 26 3 16 0 28 -9 31 -8
3 -14 11 -14 19 0 19 -26 18 -34 -2 -4 -9 -4 -32 0 -50 7 -36 -5 -45 -26 -19
-19 23 -17 78 4 96 18 15 17 16 -15 16 -19 0 -39 -7 -45 -15 -16 -22 -54 -6
-51 21 2 19 -4 23 -38 28 -38 6 -38 6 -7 8 18 0 41 -4 52 -11 16 -10 23 -9 43
10 24 23 47 29 47 12 0 -5 7 -10 15 -10 8 0 19 -9 25 -20 8 -15 17 -19 31 -15
10 4 28 3 39 0 17 -6 20 -12 14 -41 -5 -29 -4 -33 9 -28 9 3 19 13 22 22 2 10
15 24 28 32 99 63 97 61 97 94 0 18 -5 37 -11 43 -19 19 28 102 70 121 20 9
37 26 40 37 2 11 10 25 19 31 13 9 12 13 -9 27 -16 12 -25 13 -30 6 -5 -8 -8
-8 -13 0 -4 6 -16 11 -28 11 -11 0 -40 18 -65 40 -49 43 -63 44 -56 6 8 -38
-17 -43 -45 -10 -14 16 -30 28 -35 26 -5 -1 -15 2 -21 7 -9 7 -22 7 -43 -1
-29 -11 -29 -13 -17 -37 8 -14 14 -34 14 -45 0 -10 11 -27 25 -38 29 -23 31
-39 9 -73 -15 -23 -15 -27 1 -51 12 -18 14 -29 6 -37 -13 -13 -61 17 -68 43
-3 12 -18 20 -49 25 -24 3 -46 10 -49 16 -4 5 -20 9 -37 9 -25 0 -29 3 -25 19
3 13 -1 21 -14 24 -28 8 -26 77 4 114 13 15 31 47 41 70 11 24 27 44 40 47 13
4 17 9 10 13 -7 5 -13 17 -15 28 -6 29 -40 33 -37 4 2 -12 -3 -24 -9 -26 -8
-3 -13 4 -13 16 0 14 -8 23 -25 27 -13 3 -27 15 -30 25 -7 20 -25 26 -25 8 0
-6 5 -19 11 -30 6 -12 8 -28 5 -36 -6 -14 -9 -14 -26 2 -18 16 -20 16 -20 2 0
-26 -32 -38 -52 -20 -13 11 -21 13 -30 5 -20 -15 -69 -12 -76 6 -7 21 -53 61
-69 62 -7 0 -17 9 -24 21 -9 17 -17 20 -41 15 -26 -5 -40 1 -84 34 -29 22 -55
48 -59 59 -6 20 -67 65 -100 75 -11 3 -28 1 -37 -5z m280 -736 c-10 -2 -26 -2
-35 0 -10 3 -2 5 17 5 19 0 27 -2 18 -5z m70 -10 c-10 -2 -26 -2 -35 0 -10 3
-2 5 17 5 19 0 27 -2 18 -5z m100 -10 c-16 -2 -40 -2 -55 0 -16 2 -3 4 27 4
30 0 43 -2 28 -4z m80 -10 c-10 -2 -26 -2 -35 0 -10 3 -2 5 17 5 19 0 27 -2
18 -5z m80 -10 c-10 -2 -28 -2 -40 0 -13 2 -5 4 17 4 22 1 32 -1 23 -4z m-175
-444 c12 -6 36 -25 54 -42 26 -25 35 -28 47 -18 12 11 21 4 51 -38 20 -27 41
-52 48 -55 9 -3 9 -5 0 -5 -7 -1 -17 5 -22 12 -6 6 -23 27 -37 45 -17 21 -32
31 -43 27 -11 -3 -27 5 -42 21 -33 36 -76 56 -102 49 -17 -5 -19 -4 -7 4 19
14 26 14 53 0z"/>
<path d="M790 1880 c-8 -5 -12 -11 -10 -14 3 -2 14 2 24 10 22 15 10 19 -14 4z"/>
<path d="M850 1850 c0 -7 -6 -10 -14 -7 -21 8 -27 -3 -11 -19 16 -16 25 -17
44 -5 12 8 12 12 -2 26 -10 10 -17 12 -17 5z"/>
<path d="M987 1841 c7 -29 17 -33 59 -25 32 6 34 8 21 21 -11 11 -20 13 -33 5
-14 -8 -23 -7 -36 5 -15 13 -16 13 -11 -6z"/>
<path d="M910 1842 c0 -5 7 -13 16 -16 10 -4 14 -1 12 6 -5 15 -28 23 -28 10z"/>
<path d="M747 1796 c-4 -9 -13 -16 -21 -16 -9 0 -12 -7 -9 -20 7 -24 4 -25 48
1 20 12 34 27 32 33 -6 17 -44 19 -50 2z"/>
<path d="M977 1783 c-2 -4 -1 -17 3 -28 7 -19 8 -19 15 -2 8 18 -9 46 -18 30z"/>
<path d="M932 1748 c1 -21 6 -38 10 -38 10 0 9 29 -2 55 -7 16 -9 12 -8 -17z"/>
<path d="M1027 1760 c-7 -28 2 -58 20 -64 8 -4 33 -1 54 4 36 10 43 8 74 -16
28 -21 35 -33 35 -60 0 -19 -4 -34 -10 -34 -5 0 -10 -5 -10 -10 0 -7 6 -7 18
-1 14 7 27 5 51 -10 38 -23 66 -25 58 -4 -4 8 -2 17 4 21 13 7 -18 44 -38 44
-7 0 -13 7 -13 15 0 9 9 15 25 15 18 0 25 5 25 20 0 16 -7 20 -37 20 -43 0
-58 8 -58 29 0 10 -23 22 -63 34 -58 17 -66 17 -81 3 -22 -20 -31 -20 -31 -1
0 22 -17 18 -23 -5z"/>
<path d="M864 1759 c-3 -6 -16 -9 -29 -7 -42 9 -67 -33 -35 -59 12 -11 13 -14
1 -22 -21 -14 0 -20 59 -16 30 1 57 3 59 4 2 0 -4 10 -13 20 -13 14 -16 28
-11 55 6 29 4 36 -8 36 -9 0 -19 -5 -23 -11z"/>
<path d="M314 1606 c-18 -14 -18 -15 -1 -21 23 -9 47 1 47 20 0 19 -20 19 -46
1z"/>
<path d="M243 1589 c-40 -12 -44 -32 -5 -23 45 10 52 13 52 24 0 12 -3 12 -47
-1z"/>
<path d="M1090 1546 c0 -8 5 -18 10 -21 6 -3 10 3 10 14 0 12 -4 21 -10 21 -5
0 -10 -6 -10 -14z"/>
<path d="M1601 1364 c-1 -16 6 -39 14 -50 14 -19 14 -19 30 3 8 12 21 20 29
17 7 -3 19 2 25 10 11 13 9 17 -14 26 -22 8 -31 7 -46 -6 -18 -16 -19 -15 -28
7 -9 23 -10 23 -10 -7z"/>
<path d="M450 1326 c0 -37 19 -51 22 -16 0 11 1 25 2 32 1 6 -5 13 -11 16 -9
2 -13 -8 -13 -32z"/>
<path d="M1482 1245 c-16 -34 -15 -35 7 -35 11 0 23 -9 26 -20 6 -18 8 -18 21
-5 9 8 23 15 32 15 12 0 13 -3 4 -12 -14 -14 -16 -38 -3 -38 9 0 17 16 32 63
7 24 6 27 -6 17 -22 -18 -60 -8 -63 18 -5 30 -36 28 -50 -3z"/>
<path d="M490 1248 c0 -4 9 -26 21 -48 21 -39 39 -52 39 -27 0 13 -59 87 -60
75z"/>
<path d="M1418 473 c12 -2 22 -9 22 -14 0 -5 11 -9 24 -9 14 0 28 -5 31 -10 4
-6 10 -8 15 -5 5 3 22 -3 37 -14 31 -23 93 -39 93 -24 0 5 -19 15 -42 22 -24
7 -62 24 -85 37 -26 15 -56 24 -80 23 -23 -1 -29 -3 -15 -6z"/>
<path d="M1365 460 c-3 -6 1 -7 9 -4 18 7 21 14 7 14 -6 0 -13 -4 -16 -10z"/>
<path d="M1699 382 c7 -5 10 -15 7 -21 -4 -6 -2 -11 4 -11 17 0 8 33 -10 37
-12 4 -13 3 -1 -5z"/>
<path d="M1727 362 c-6 -33 -1 -39 22 -25 9 6 31 9 47 6 27 -5 28 -4 14 11 -9
9 -30 20 -47 25 -29 8 -31 7 -36 -17z"/>
<path d="M1868 333 c7 -3 16 -2 19 1 4 3 -2 6 -13 5 -11 0 -14 -3 -6 -6z"/>
<path d="M1345 253 c-20 -5 -45 -30 -45 -45 0 -5 10 -13 23 -19 l22 -10 -22 5
c-13 2 -23 1 -23 -4 0 -4 13 -10 30 -12 22 -3 31 0 36 14 3 10 14 23 25 28 10
6 19 17 19 25 0 9 9 15 23 14 16 -1 18 -2 5 -6 -10 -2 -18 -11 -18 -18 0 -8
-9 -16 -19 -20 -34 -10 -36 -43 -5 -68 29 -22 58 -32 48 -16 -3 5 -9 7 -14 4
-5 -3 -11 -1 -15 5 -3 5 1 10 9 10 8 0 18 -4 21 -10 16 -25 25 -5 25 54 0 49
-4 65 -16 70 -17 7 -78 6 -109 -1z"/>
<path d="M1443 103 c-13 -2 -23 -9 -23 -14 0 -6 5 -7 10 -4 6 4 22 -1 35 -9
14 -9 25 -14 25 -10 0 4 6 2 13 -4 6 -5 27 -13 44 -17 27 -5 32 -4 27 9 -4 10
3 19 20 27 22 10 29 9 46 -6 11 -10 23 -15 28 -11 14 15 -32 37 -63 31 -80
-16 -101 -17 -114 -1 -8 9 -16 15 -20 15 -3 -1 -16 -4 -28 -6z"/>
</g>
</svg>
