<?xml version="1.0" standalone="no"?>
<!DOCTYPE svg PUBLIC "-//W3C//DTD SVG 20010904//EN"
 "http://www.w3.org/TR/2001/REC-SVG-20010904/DTD/svg10.dtd">
<svg version="1.0" xmlns="http://www.w3.org/2000/svg"
 width="202.000000pt" height="249.000000pt" viewBox="0 0 202.000000 249.000000"
 preserveAspectRatio="xMidYMid meet">

<g transform="translate(0.000000,249.000000) scale(0.100000,-0.100000)"
fill="#000000" stroke="none">
<path d="M927 2392 c-10 -2 -16 -9 -14 -15 2 -7 -2 -20 -11 -29 -14 -17 -13
-18 16 -18 22 0 32 6 37 20 8 26 -6 47 -28 42z"/>
<path d="M480 2365 c-14 -7 -42 -17 -62 -20 -21 -4 -38 -11 -38 -15 0 -5 -18
-27 -40 -49 -39 -39 -40 -41 -40 -111 0 -53 -4 -72 -15 -76 -27 -11 -86 -74
-100 -108 -19 -45 -19 -46 5 -46 27 0 25 -8 -6 -32 -35 -28 -26 -55 36 -117
27 -27 56 -66 64 -86 30 -71 93 -133 178 -176 58 -29 81 -47 89 -67 12 -32 4
-160 -16 -247 -8 -33 -16 -94 -19 -135 -3 -41 -6 -77 -7 -80 -1 -3 -2 -9 -3
-15 -1 -5 -7 -22 -14 -37 -31 -71 -36 -86 -43 -133 -4 -27 -10 -67 -14 -88 -6
-28 -4 -37 6 -37 33 -1 41 -16 30 -55 -7 -26 -7 -43 -1 -51 7 -8 5 -15 -5 -24
-8 -7 -15 -18 -15 -24 0 -7 -7 -21 -15 -32 -13 -16 -14 -16 -9 -2 8 24 -18 23
-40 -1 -16 -18 -16 -19 9 -25 20 -5 25 -11 20 -26 -5 -16 -1 -20 17 -21 15 -1
17 -3 7 -6 -10 -2 -19 -12 -22 -22 -6 -26 4 -81 15 -81 7 0 7 -4 0 -12 -14
-18 3 -59 27 -65 20 -5 38 -33 21 -33 -6 0 -10 -5 -10 -11 0 -7 10 -9 25 -7
21 4 24 2 20 -12 -8 -24 15 -37 30 -17 7 11 16 13 26 6 8 -5 10 -9 5 -9 -5 0
-3 -7 4 -15 10 -12 9 -15 -8 -15 -11 0 -22 -7 -26 -15 -4 -12 3 -15 33 -15
l38 0 6 52 c5 41 3 54 -11 65 -9 8 -11 12 -4 8 25 -13 31 6 15 41 l-17 34 32
30 c18 16 32 36 32 44 0 8 14 24 30 36 38 27 38 43 0 70 -33 24 -31 39 9 63
16 9 38 34 48 54 12 23 28 39 41 41 12 2 22 10 22 19 0 12 -7 14 -30 10 -27
-6 -30 -4 -30 19 0 25 2 26 36 20 41 -8 64 6 64 38 0 31 19 46 59 46 39 0 97
14 120 29 23 15 16 92 -12 114 l-22 19 25 -7 c14 -4 45 -9 70 -12 40 -4 50 -1
79 23 19 16 42 47 52 70 11 23 27 48 36 55 16 13 17 12 4 -3 -8 -11 -9 -18 -3
-18 6 0 28 21 49 46 29 36 39 58 43 97 5 48 7 51 55 75 96 48 107 52 146 52
38 0 79 23 79 45 0 7 11 22 25 35 14 13 25 31 25 41 0 9 7 32 15 52 10 23 12
51 8 86 -5 47 -4 51 16 51 13 0 26 9 32 24 6 13 31 40 55 60 47 39 53 61 33
113 -12 33 -26 43 -58 43 -13 0 -36 11 -53 25 -16 14 -39 25 -51 25 -50 1
-130 9 -134 14 -3 3 -16 0 -30 -5 -21 -8 -24 -7 -20 6 8 19 -56 50 -105 50
-21 0 -38 3 -38 7 0 5 -18 8 -40 8 -29 0 -40 -4 -40 -15 0 -9 -9 -15 -22 -15
-21 0 -20 3 15 36 42 40 45 49 17 64 -11 6 -20 20 -20 31 0 12 -17 30 -47 49
-38 25 -58 30 -105 30 -62 0 -101 14 -132 49 -10 11 -34 23 -52 27 -22 4 -31
10 -27 20 3 8 -1 14 -10 14 -9 0 -22 6 -29 13 -9 8 -45 13 -110 13 -96 0 -130
9 -170 42 -11 9 -18 10 -23 3 -3 -6 -3 -11 2 -12 4 -1 -3 -4 -17 -8 -20 -6
-25 -13 -23 -35 1 -17 -2 -26 -10 -23 -17 5 -9 59 11 74 15 11 15 12 -3 12
-11 0 -31 -6 -45 -14z m865 -405 c-3 -5 -12 -7 -20 -3 -21 7 -19 13 6 13 11 0
18 -4 14 -10z m-775 -1754 c0 -3 -4 -8 -10 -11 -5 -3 -10 -1 -10 4 0 6 5 11
10 11 6 0 10 -2 10 -4z"/>
<path d="M427 674 c-10 -11 -9 -64 2 -64 11 0 22 53 12 63 -4 4 -10 4 -14 1z"/>
</g>
</svg>
