<svg width="29" height="22" viewBox="0 0 29 22" fill="none" xmlns="http://www.w3.org/2000/svg">
<path d="M14.6196 4.1897L7.12961 2.19971L5.09961 3.16971L11.9396 7.73972" stroke="white" stroke-miterlimit="10"/>
<path d="M2.68967 11.2099L1.17969 8.0399L2.60968 7.35991L6.59967 10.2699C6.59967 10.2699 19.9997 3.89991 24.2197 1.88991C28.4497 -0.120092 29.5697 4.39991 27.3797 5.44991C26.7097 5.76991 24.5897 6.77989 21.9597 8.02989L16.7597 19.5399L13.4497 21.1099L14.3497 11.6499L9.56967 13.9199" stroke="white" stroke-miterlimit="10"/>
<path d="M17.3701 5.14992L24.2201 1.88991C28.4501 -0.120092 29.5701 4.39991 27.3801 5.44991" stroke="white" stroke-miterlimit="10"/>
<path d="M3.12988 12.1602L4.99988 16.0901L8.69989 14.3302" stroke="#009393" stroke-miterlimit="10"/>
</svg>
