<?xml version="1.0" encoding="utf-8"?>
<!-- Generator: Adobe Illustrator 27.2.0, SVG Export Plug-In . SVG Version: 6.00 Build 0)  -->
<svg version="1.1" id="Layer_1" xmlns="http://www.w3.org/2000/svg" xmlns:xlink="http://www.w3.org/1999/xlink" x="0px" y="0px"
	 viewBox="0 0 1000 1000" style="enable-background:new 0 0 1000 1000;" xml:space="preserve">
<style type="text/css">
	.st0{fill:#475674;}
	.st1{fill:#389646;}
	.st2{fill:#5AB947;}
</style>
<path id="Path_2260" class="st0" d="M277.9,439.1c-1-0.7-2.2-1.4-3.4-1.8c-1.2-0.5-2.4-0.9-3.7-1.2l-2.7-0.8
	c-1.8-0.5-3.5-1.3-5.1-2.4c-1-0.9-1.6-2.2-1.5-3.5c0-0.7,0.2-1.4,0.5-2c0.4-0.6,0.9-1,1.5-1.3c0.7-0.4,1.5-0.7,2.4-0.8
	c0.9-0.2,1.9-0.3,2.9-0.3c1.8,0,3.5,0.2,5.2,0.7c1.6,0.5,3.2,1.2,4.7,2l0.3,0.2l2-3l-0.3-0.2c-3.7-2.1-7.8-3.2-12-3.2
	c-1.4,0-2.7,0.2-4.1,0.5c-1.3,0.3-2.5,0.8-3.6,1.5c-1,0.6-1.9,1.5-2.5,2.5c-0.7,1.1-1,2.4-1,3.7c0,2.1,0.8,4.1,2.4,5.5
	c2,1.7,4.4,2.9,6.9,3.5l2.5,0.7c1.2,0.3,2.3,0.7,3.4,1.2c0.9,0.3,1.8,0.8,2.5,1.3c0.6,0.4,1.2,1,1.5,1.7c1.1,2.3,0.4,5-1.7,6.4
	c-2,1.1-4.2,1.6-6.4,1.5c-1.8,0-3.5-0.2-5.2-0.7c-1.7-0.5-3.3-1.2-4.9-2l-0.3-0.2l-2,3l0.3,0.2c1.8,1,3.7,1.8,5.7,2.4
	c2,0.5,4.1,0.8,6.3,0.8c3.3,0.2,6.5-0.7,9.3-2.3c2.2-1.7,3.5-4.3,3.4-7c0-1.3-0.3-2.6-1-3.7C279.8,440.6,279,439.7,277.9,439.1"/>
<path id="Path_2261" class="st0" d="M301.4,421.8H298L283.8,454l-0.2,0.5h4.2l4.4-10.1h15l4.4,9.9l0.2,0.2h4.2l-14.4-32.5
	L301.4,421.8z M305.8,440.9H294l5.9-13.4L305.8,440.9z"/>
<path id="Path_2262" class="st0" d="M344.4,441.2c0.2,2.8-0.7,5.6-2.5,7.7c-2.3,1.9-5.3,2.8-8.3,2.5c-3,0.3-6.1-0.6-8.5-2.5
	c-1.9-2.1-2.8-4.9-2.5-7.7v-19.5h-3.9v20c0,1.7,0.2,3.4,0.7,5c0.5,1.6,1.3,3,2.5,4.2c1.3,1.3,2.9,2.2,4.6,2.9
	c4.5,1.3,9.3,1.3,13.9,0c1.7-0.6,3.3-1.6,4.6-2.9c1.2-1.2,2-2.6,2.5-4.2c0.5-1.6,0.7-3.3,0.7-5v-20h-3.9v19.5H344.4z"/>
<path id="Path_2263" class="st0" d="M379.5,425.8c-1.9-1.5-4.1-2.5-6.4-3.2c-2.6-0.7-5.3-1-8-1h-8.3v32.7h8.3c2.7,0,5.4-0.3,8-1
	c2.3-0.6,4.5-1.7,6.4-3.2c1.8-1.4,3.3-3.2,4.2-5.2c2-4.5,2-9.6,0-14.1C382.7,428.9,381.2,427.2,379.5,425.8 M360.7,425.2h4.4
	c2.2,0,4.4,0.3,6.6,0.8c1.8,0.6,3.5,1.4,5.1,2.5c1.4,1.1,2.5,2.5,3.4,4c0.8,1.7,1.3,3.5,1.2,5.4c0,1.8-0.3,3.7-1,5.4l0,0
	c-0.7,1.6-1.7,3-3,4c-1.5,1.2-3.2,2.1-5.1,2.7c-2.3,0.6-4.7,0.9-7.1,0.8h-4.4L360.7,425.2L360.7,425.2z"/>
<rect id="Rectangle_916" x="391.5" y="421.8" class="st0" width="3.9" height="32.7"/>
<path id="Path_2264" class="st0" d="M215.6,480.3H188v3.5h11.8v28.4h3.7v-28.4h12L215.6,480.3z"/>
<path id="Path_2265" class="st0" d="M244.6,484.5c-1.6-1.5-3.5-2.6-5.6-3.4c-2.2-0.8-4.6-1.2-6.9-1.2c-2.4,0-4.7,0.4-6.9,1.2
	c-2,0.9-3.9,2-5.6,3.4c-1.6,1.5-2.8,3.2-3.7,5.2c-1.8,4.2-1.8,8.9,0,13.1c0.9,2,2.1,3.7,3.7,5.2c1.6,1.5,3.5,2.6,5.6,3.4
	c2.2,0.8,4.6,1.2,6.9,1.2c2.4,0,4.7-0.4,6.9-1.2c2-0.9,3.9-2,5.6-3.4c1.6-1.5,2.8-3.2,3.7-5.2c1.8-4.2,1.8-8.9,0-13.1
	C247.5,487.8,246.2,486,244.6,484.5 M232.3,483.3c1.8,0,3.5,0.3,5.2,0.8c1.6,0.6,3.1,1.5,4.4,2.5c1.2,1.2,2.2,2.5,3,4
	c0.8,1.7,1.2,3.5,1.2,5.4c0.1,1.9-0.3,3.7-1.2,5.4c-0.7,1.6-1.7,3-3,4c-1.2,1.2-2.7,2-4.4,2.5c-3.3,1.2-7,1.2-10.3,0
	c-1.6-0.6-3.1-1.5-4.4-2.5c-1.2-1.2-2.2-2.5-2.9-4c-0.7-1.7-1-3.5-1-5.4c0-1.8,0.3-3.7,1-5.4c1.4-3.1,4-5.5,7.3-6.5
	C228.8,483.6,230.6,483.3,232.3,483.3"/>
<path id="Path_2266" class="st0" d="M279.6,499.3c0.2,2.8-0.7,5.5-2.5,7.5c-2.2,1.9-5.1,2.8-8,2.5c-2.9,0.3-5.8-0.6-8-2.5
	c-1.8-2-2.7-4.7-2.5-7.4v-19.1h-3.7v19.3c0,1.6,0.2,3.3,0.7,4.9c0.5,1.5,1.3,3,2.4,4.2c1.2,1.3,2.7,2.2,4.4,2.9c2.1,0.7,4.4,1,6.6,1
	c2.2,0.1,4.5-0.3,6.6-1c1.7-0.6,3.2-1.6,4.4-2.9c1.1-1.2,2-2.6,2.4-4.2c0.5-1.6,0.7-3.2,0.7-4.9v-19.3h-3.7v19H279.6z"/>
<path id="Path_2267" class="st0" d="M310.4,496.9c1-0.5,2-1.3,2.7-2.2c0.7-0.8,1.1-1.7,1.3-2.7c0.2-0.9,0.3-1.8,0.3-2.7
	c0-1.2-0.2-2.4-0.7-3.5c-0.5-1.1-1.2-2.1-2.2-2.9c-1.1-0.9-2.3-1.5-3.7-1.8c-1.8-0.5-3.6-0.7-5.4-0.7h-11.2v31.7h3.7v-13.4h8
	l9.3,13.4h4.4l-9.6-14.1C308.4,497.9,309.4,497.5,310.4,496.9 M295.3,483.8h6.9c1.4,0,2.8,0.1,4.2,0.3c1,0.2,1.9,0.6,2.7,1.2
	c0.6,0.4,1.1,1,1.4,1.7c0.3,0.7,0.5,1.5,0.5,2.4c0,0.9-0.1,1.8-0.5,2.7c-0.4,0.8-1,1.4-1.7,1.8c-0.8,0.5-1.7,0.9-2.7,1
	c-1.3,0.2-2.6,0.3-3.9,0.3h-6.9L295.3,483.8z"/>
<rect id="Rectangle_917" x="321.7" y="480.3" class="st0" width="3.7" height="31.7"/>
<path id="Path_2268" class="st0" d="M352,497.1c-1-0.7-2.1-1.3-3.2-1.8c-1.2-0.5-2.3-0.9-3.5-1.2l-2.7-0.7c-1.7-0.4-3.4-1.2-4.7-2.3
	c-1-0.9-1.6-2.2-1.5-3.5c0-0.7,0.2-1.3,0.5-1.8c0.4-0.5,0.8-1,1.3-1.3c0.7-0.4,1.4-0.7,2.2-0.8c0.9-0.2,1.8-0.3,2.7-0.3
	c1.7,0,3.3,0.2,4.9,0.7c1.6,0.5,3.1,1.2,4.6,2l0.3,0.2l1.9-3l-0.3-0.2c-1.7-1-3.5-1.7-5.4-2.2c-1.9-0.5-3.9-0.7-5.9-0.7
	c-1.3,0-2.6,0.2-3.9,0.5c-1.2,0.3-2.3,0.8-3.4,1.3c-1,0.7-1.9,1.5-2.5,2.5c-0.7,1-1,2.3-1,3.5c0,2,0.8,4,2.2,5.4
	c1.9,1.7,4.2,3,6.8,3.5l2.4,0.7c1.1,0.3,2.2,0.7,3.2,1.2c0.9,0.3,1.7,0.8,2.4,1.3c0.6,0.4,1.1,1,1.4,1.7c1.1,2.3,0.4,5-1.7,6.4
	c-1.9,1.1-4.1,1.6-6.3,1.5c-1.7,0-3.3-0.2-4.9-0.7c-1.6-0.5-3.1-1.2-4.6-2l-0.3-0.2l-2,3l0.3,0.2c1.7,1.1,3.6,1.8,5.6,2.2
	c1.9,0.5,3.9,0.8,5.9,0.8c3.2,0.1,6.3-0.7,9-2.4c2.2-1.6,3.4-4.2,3.2-6.9c0-1.3-0.3-2.5-0.8-3.7C353.6,498.8,352.9,497.8,352,497.1"
	/>
<path id="Path_2269" class="st0" d="M390.7,480.3l-12,26.9l-12-26.9h-4.9v31.9h3.7V487l11.5,25.2h3.2l11.5-25.2v25.2h3.7v-31.9
	L390.7,480.3z"/>
<path id="Path_2270" class="st0" d="M133.9,539.4l-14.2,33.5h4.1l4.4-10.4h14.7l4.4,10.4h4.1l-14.2-33.5H133.9z M141.5,559h-11.7
	l5.9-13.8L141.5,559z"/>
<path id="Path_2271" class="st0" d="M179.5,559.3c0.2,2.9-0.7,5.7-2.5,7.9c-2.3,1.9-5.3,2.8-8.3,2.5c-3,0.3-6-0.6-8.3-2.5
	c-1.9-2.2-2.8-5-2.5-7.9v-20h-3.7v20.3c-0.1,1.7,0.2,3.4,0.7,5c0.5,1.6,1.4,3.1,2.5,4.4c1.3,1.3,2.9,2.3,4.6,3
	c2.2,0.7,4.6,1.1,6.9,1c2.3,0.1,4.6-0.3,6.8-1c1.8-0.6,3.3-1.6,4.6-3c1.2-1.2,2-2.7,2.4-4.4c0.5-1.6,0.7-3.3,0.7-5v-20.3h-3.7
	L179.5,559.3z"/>
<path id="Path_2272" class="st0" d="M187.7,542.9H200v30h3.7v-30h12.3v-3.5h-28.4L187.7,542.9z"/>
<path id="Path_2273" class="st0" d="M244.1,553.6h-19.4v-14.3H221v33.5h3.7v-15.6h19.4v15.6h3.7v-33.5h-3.7V553.6z"/>
<path id="Path_2274" class="st0" d="M284.7,543.7c-1.7-1.6-3.6-2.8-5.7-3.5c-4.6-1.8-9.6-1.8-14.2,0c-2.1,0.8-4.1,2-5.7,3.5
	c-1.6,1.5-2.8,3.4-3.7,5.4c-0.9,2.2-1.4,4.5-1.4,6.9c0,2.4,0.5,4.7,1.4,6.9c0.9,2,2.1,3.8,3.7,5.4c1.7,1.6,3.6,2.8,5.7,3.5
	c4.6,1.8,9.6,1.8,14.2,0c2.1-0.8,4.1-2,5.7-3.5c1.6-1.5,2.8-3.4,3.7-5.4c0.9-2.2,1.4-4.5,1.3-6.9c0-2.4-0.5-4.7-1.3-6.9
	C287.5,547.1,286.2,545.3,284.7,543.7 M285.9,556.1c0.1,2-0.3,3.9-1.2,5.7c-0.7,1.6-1.8,3.1-3,4.4c-4.1,3.6-9.9,4.7-15,2.7
	c-1.6-0.6-3.1-1.5-4.4-2.7c-1.3-1.2-2.4-2.7-3-4.4c-0.7-1.8-1.1-3.7-1.2-5.7c-0.1-2,0.3-3.9,1.2-5.7c0.7-1.7,1.7-3.2,3-4.4
	c1.3-1.2,2.8-2.1,4.4-2.7c3.5-1.3,7.3-1.3,10.8,0c1.6,0.6,3.1,1.5,4.4,2.7c1.3,1.2,2.4,2.7,3,4.4
	C285.6,552.3,285.9,554.2,285.9,556.1"/>
<path id="Path_2275" class="st0" d="M315.1,556.8L315.1,556.8c1.1-0.6,2-1.4,2.9-2.4c0.7-0.8,1.1-1.8,1.3-2.9
	c0.2-0.9,0.3-1.9,0.3-2.9c0-1.3-0.2-2.5-0.7-3.7c-0.5-1.2-1.2-2.2-2.2-3c-1.2-0.9-2.5-1.6-3.9-2c-1.8-0.5-3.7-0.7-5.6-0.7h-11.5
	v33.5h3.9v-14.3h8.3l9.6,14.3h4.6l-10-14.8C313.2,557.8,314.2,557.3,315.1,556.8 M299.7,542.9h7.1c1.5,0,3,0.1,4.4,0.5
	c1,0.2,1.9,0.6,2.7,1.2c0.6,0.5,1.2,1.1,1.5,1.8c0.4,0.8,0.5,1.6,0.5,2.5c0,1-0.1,1.9-0.5,2.9c-0.4,0.8-1,1.4-1.7,1.8
	c-0.9,0.5-1.9,0.9-2.9,1.2c-1.3,0.2-2.7,0.3-4.1,0.3h-7.1V542.9L299.7,542.9z"/>
<rect id="Rectangle_918" x="326.8" y="539.4" class="st0" width="3.9" height="33.6"/>
<path id="Path_2276" class="st0" d="M335.4,542.9h12.3v30h3.9v-30h12.2v-3.5h-28.4L335.4,542.9z"/>
<path id="Path_2277" class="st0" d="M391,539.4l-10.5,15.9l-10.3-15.8l-0.2-0.2h-4.4l13,20v13.6h3.7v-13.6l13-20H391z"/>
<path id="Path_2278" class="st0" d="M422.8,452c1.5,1.1,3.3,2,5.1,2.5c2.2,0.5,4.4,0.8,6.6,0.8H630v-38.2h-6.6v31.7h-8.3
	c0.2-1.1,0.3-2.2,0.3-3.4c0-2.7-0.3-5.3-1-7.9c-0.7-2.3-1.6-4.5-2.9-6.5c-0.7-1.1-1.6-2-2.5-2.9c-1-0.9-2.1-1.7-3.2-2.4
	c-1.2-0.7-2.5-1.2-3.9-1.5c-1.6-0.3-3.1-0.5-4.7-0.5c-2.4,0-4.8,0.3-7.1,1c-2.4,0.6-4.6,1.5-6.8,2.7l2.2,6c1.5-0.8,3-1.5,4.6-2
	c3.9-1.4,8.3-1.3,12.2,0.2c1.7,0.8,3.2,2.1,4.2,3.7c0.9,1.3,1.5,2.7,1.9,4.2c0.4,1.6,0.6,3.3,0.7,5c0,0.7,0,1.5-0.2,2.2
	c0,0.8-0.1,1.6-0.3,2.4h-4.4c0.2-0.5,0.2-1,0.3-1.7c0-0.7,0.2-1.2,0.2-1.8c0.1-1.5-0.2-3.1-0.7-4.5c-0.4-1.2-1.1-2.4-2-3.4
	c-0.9-1-2-1.8-3.2-2.2c-1.2-0.5-2.5-0.8-3.9-0.8c-2.7-0.1-5.3,0.9-7.3,2.9c-1.8,2.3-2.7,5.1-2.5,8.1c0,0.6,0,1.2,0.2,1.8
	c0.1,0.5,0.2,1,0.3,1.5h-13.2v-20h-6.6v20h-14v-20H544v20H441.7v-20h-7.6c-2.3,0-4.7,0.3-6.9,1c-1.9,0.6-3.6,1.6-5.1,2.9
	c-1.4,1.1-2.5,2.6-3.2,4.2c-0.7,1.7-1,3.5-1,5.4c-0.1,2,0.3,4,1.2,5.9C420.2,449.4,421.4,450.8,422.8,452 M591,441.4
	c1.3-1.6,3.7-1.8,5.3-0.5c0.2,0.1,0.3,0.3,0.5,0.5c0.7,1,1.1,2.3,1,3.5c0,0.7,0,1.4-0.2,2c0,0.7-0.2,1.2-0.2,1.5h-7.3
	c0-0.5-0.2-1-0.2-1.5c0-0.7-0.2-1.3-0.2-2C590,443.7,590.4,442.5,591,441.4 M425.5,439c0.4-0.8,1.1-1.5,1.9-2c0.8-0.5,1.6-1,2.5-1.3
	c0.9-0.3,1.9-0.5,2.9-0.5h2.5v13.4h-2.9c-1,0-2-0.2-2.9-0.5c-0.9-0.3-1.7-0.7-2.4-1.3c-0.7-0.5-1.3-1.2-1.7-2
	c-0.5-0.9-0.7-1.9-0.7-2.9C424.9,440.9,425.1,440,425.5,439"/>
<path id="Path_2279" class="st0" d="M427.9,422.8c0.9,0,1.8-0.3,2.5-0.8c0.7-0.6,1.1-1.6,1-2.5c0.1-0.9-0.3-1.8-1-2.4
	c-0.7-0.6-1.7-0.9-2.7-0.8c-1,0-1.9,0.3-2.7,0.8c-0.7,0.6-1,1.5-1,2.4c-0.1,1,0.3,1.9,1,2.5C425.9,422.4,426.8,422.7,427.9,422.8"/>
<path id="Path_2280" class="st0" d="M438.5,422.8c0.9,0,1.8-0.3,2.5-0.8c0.7-0.6,1.1-1.6,1-2.5c0.1-0.9-0.3-1.8-1-2.4
	c-0.7-0.6-1.7-0.9-2.7-0.8c-1,0-1.9,0.3-2.7,0.8c-0.7,0.6-1,1.5-1,2.4c-0.1,1,0.3,1.9,1,2.5C436.5,422.4,437.5,422.7,438.5,422.8"/>
<path id="Path_2281" class="st0" d="M552.3,421.4h-6.6v-1.3c0-0.6,0.1-1.2,0.5-1.7c0.6-0.5,1.3-0.7,2-0.7h2.5v-2.2h-2.9
	c-1.6-0.1-3.1,0.4-4.4,1.3c-1.2,1.2-1.7,2.9-1.5,4.5v3.5h10.3L552.3,421.4z"/>
<path id="Path_2282" class="st0" d="M559.9,459.4c-0.7,0.7-1,1.6-1,2.5c-0.1,1,0.3,1.9,1,2.5c1.5,1.1,3.6,1.1,5.1,0
	c0.7-0.6,1.1-1.6,1-2.5c0-0.9-0.3-1.9-1-2.5c-0.7-0.7-1.7-1.1-2.7-1C561.3,458.4,560.5,458.7,559.9,459.4"/>
<path id="Path_2283" class="st0" d="M570.2,459.4c-0.7,0.7-1,1.6-1,2.5c-0.1,1,0.3,1.9,1,2.5c1.5,1.1,3.6,1.1,5.1,0
	c0.7-0.6,1.1-1.6,1-2.5c0-0.9-0.3-1.9-1-2.5c-0.7-0.7-1.7-1.1-2.7-1C571.7,458.5,570.9,458.9,570.2,459.4"/>
<rect id="Rectangle_919" x="640.7" y="416.9" class="st0" width="6.6" height="38.2"/>
<path id="Path_2284" class="st0" d="M430.6,480.5c0.8-0.6,1.2-1.5,1.2-2.5c0.1-0.9-0.3-1.8-1-2.3c-0.8-0.6-1.7-0.9-2.7-0.8
	c-1,0-1.9,0.3-2.7,0.8c-0.7,0.6-1,1.5-1,2.3c-0.1,1,0.3,2,1.2,2.5c0.8,0.6,1.7,0.8,2.7,0.8C429.1,481.5,430,481.1,430.6,480.5"/>
<path id="Path_2285" class="st0" d="M438.3,481.5c1,0,1.9-0.3,2.7-0.8c0.8-0.6,1.2-1.5,1.2-2.5c0.1-0.9-0.3-1.8-1-2.3
	c-0.8-0.6-1.7-0.9-2.7-0.8c-1,0-1.9,0.3-2.7,0.8c-0.7,0.6-1,1.5-1,2.3c-0.1,1,0.3,2,1.2,2.5C436.6,481.2,437.5,481.5,438.3,481.5"/>
<path id="Path_2286" class="st0" d="M448.6,518.1c-0.7,0.7-1,1.6-1,2.5c-0.1,1,0.3,2,1.2,2.5c0.8,0.6,1.7,0.8,2.7,0.8
	c1,0,1.9-0.3,2.7-0.8c0.8-0.6,1.2-1.5,1.2-2.5c0-0.9-0.3-1.9-1-2.5c-0.7-0.7-1.7-1-2.7-1C450.6,517,449.5,517.4,448.6,518.1"/>
<path id="Path_2287" class="st0" d="M461.8,523.8c1,0,1.9-0.3,2.7-0.8c0.8-0.6,1.2-1.5,1.2-2.5c0-0.9-0.3-1.9-1-2.5
	c-1.6-1.3-3.9-1.3-5.4,0c-0.7,0.7-1,1.6-1,2.5c-0.1,1,0.3,2,1.2,2.5C460.1,523.6,461,523.9,461.8,523.8"/>
<path id="Path_2288" class="st0" d="M462.8,487.2h-6.8v20h-13.7v-20h-7.8c-2.3,0-4.7,0.3-6.9,1c-1.9,0.6-3.7,1.6-5.2,2.9
	c-1.4,1.1-2.5,2.6-3.2,4.2c-0.7,1.7-1.2,3.5-1.2,5.4c-0.1,2,0.3,4,1.2,5.9c0.8,1.6,2,3,3.4,4.2c1.6,1.1,3.4,2,5.2,2.5
	c2.1,0.6,4.4,0.9,6.6,0.8h28.1v-26.9L462.8,487.2z M435.6,507.2h-2.9c-1,0-2-0.2-2.9-0.5c-0.9-0.3-1.8-0.7-2.5-1.3
	c-0.7-0.5-1.3-1.2-1.7-2c-0.9-1.8-0.9-3.9,0-5.7c0.5-0.8,1.1-1.6,1.9-2.2c0.8-0.5,1.7-1,2.5-1.3c0.9-0.3,1.9-0.5,2.9-0.5h2.5v13.6
	L435.6,507.2z"/>
<path id="Path_2289" class="st0" d="M468.3,507.2v6.5h23.5v-13.6c0-1.8-0.2-3.6-0.7-5.4c-0.3-1.5-1.1-2.9-2.2-4
	c-1.2-1.2-2.6-2.1-4.2-2.7c-1.9-0.6-3.8-0.8-5.7-0.8h-2.2v6.5h2.9c0.8,0,1.6,0.2,2.4,0.5c0.7,0.3,1.2,0.8,1.7,1.3
	c0.5,0.5,0.8,1.1,1,1.8c0.2,0.8,0.3,1.7,0.3,2.5v7.2L468.3,507.2z"/>
<path id="Path_2290" class="st0" d="M520.8,513.9h59.8c1.8,0,3.6-0.3,5.2-1c1.7-0.7,3.2-1.7,4.4-3c0.5,0.8,1.1,1.6,1.9,2.2
	c0.7,0.5,1.5,1,2.4,1.3c0.8,0.4,1.7,0.6,2.5,0.7c0.9,0.1,1.8,0.2,2.7,0.2c3.9,0.3,7.8-1.3,10.3-4.4c0.3,0.5,0.6,0.9,1,1.3
	c0.5,0.5,1.1,0.9,1.7,1.3c0.8,0.4,1.7,0.7,2.5,0.8c0.7,0.2,1.5,0.2,2.4,0.3h11.5V482l0,0v-6.5h-6.8v31.7h-3.7
	c-2.5,0.2-4.9-0.5-6.8-2.2c0.1-0.7,0.2-1.3,0.2-2c0-0.7,0.2-1.3,0.2-2.2v-16.9h-6.8v17.8c0.1,1.6-0.5,3.2-1.5,4.4
	c-1.2,1.1-2.8,1.8-4.4,1.7c-1.6,0.1-3.3-0.5-4.4-1.7c-1.3-1.3-1.9-3.2-1.7-5v-11.4h-6.8v11.7c0,1-0.1,2-0.5,2.9
	c-0.4,0.7-0.9,1.4-1.5,1.8c-0.6,0.5-1.3,0.8-2,1c-0.7,0.2-1.5,0.3-2.2,0.3h-4.9v-17.6h-6.8v17.5h-18.4l5.7-14.9
	c-2.1-1.9-4.4-3.5-6.9-4.9c-2.4-1.2-5.1-1.8-7.8-1.8c-1.4,0-2.7,0.2-4.1,0.5c-1.3,0.3-2.5,0.8-3.7,1.3c-1.2,0.7-2.4,1.4-3.5,2.2
	c-1.2,0.8-2.4,1.7-3.6,2.7l5.9,14.9H521v-20h-7.6c-2.2,0-4.4,0.3-6.6,0.8c-1.9,0.6-3.7,1.5-5.2,2.7c-1.4,1.1-2.6,2.6-3.4,4.2
	c-0.8,1.7-1.2,3.6-1.2,5.5c0,2.1,0.4,4.2,1.4,6c0.8,1.7,2.1,3.1,3.5,4.2c1.6,1.1,3.4,1.9,5.2,2.3c2.1,0.5,4.3,0.7,6.4,0.7h0.8
	c-0.1,0.7-0.3,1.4-0.7,2c-0.3,0.5-0.7,0.9-1.2,1.2c-0.6,0.3-1.2,0.5-1.9,0.5c-0.7,0-1.5,0.2-2.5,0.2c-1.1,0-2.3-0.1-3.4-0.3
	c-1.2-0.2-2.4-0.5-3.7-0.8l0.5,6.7l2,0.5c0.5,0.2,1.2,0.2,1.7,0.3c0.6,0.1,1.1,0.2,1.7,0.2h1.9c1.8,0.1,3.7-0.1,5.4-0.7
	c1.4-0.4,2.7-1.2,3.7-2.2c1-0.9,1.8-2.1,2.2-3.4C520.5,516.6,520.7,515.2,520.8,513.9 M537.7,493.1c2.4-0.8,5-0.9,7.4-0.2
	c1.3,0.5,2.6,1.2,3.7,2l-4.4,12.2h-5.7l-4.4-12.3C535.5,494.2,536.7,493.6,537.7,493.1 M514.2,507.2h-2.9c-1,0-2.1-0.2-3-0.5
	c-0.9-0.2-1.8-0.7-2.5-1.3c-0.7-0.6-1.3-1.4-1.7-2.2c-0.4-0.9-0.6-1.9-0.7-2.9c0-0.9,0.2-1.9,0.7-2.7c0.4-0.8,1-1.5,1.7-2
	c0.8-0.6,1.6-1,2.5-1.3c0.9-0.3,1.9-0.5,2.9-0.5h2.9v13.4L514.2,507.2z"/>
<rect id="Rectangle_920" x="640.5" y="475.6" class="st0" width="6.8" height="38.2"/>
<path id="Path_2291" class="st0" d="M435.6,534.7c-0.7,0.6-1.1,1.4-1.2,2.4c-0.1,1,0.3,2,1.2,2.5c1.6,1.1,3.8,1.1,5.4,0
	c0.8-0.6,1.2-1.5,1.2-2.5c0.1-0.9-0.3-1.8-1-2.4c-0.8-0.6-1.7-0.9-2.7-0.8C437.5,533.6,436.4,533.9,435.6,534.7"/>
<path id="Path_2292" class="st0" d="M425.3,534.7c-0.7,0.6-1.1,1.4-1.2,2.4c-0.1,1,0.3,2,1.2,2.5c1.6,1.1,3.8,1.1,5.4,0
	c0.8-0.6,1.2-1.5,1.2-2.5c0.1-0.9-0.4-1.9-1.2-2.4c-0.8-0.6-1.7-0.9-2.7-0.8C427,533.7,426,534,425.3,534.7"/>
<path id="Path_2293" class="st0" d="M505.3,549.1c-1.2-1.2-2.6-2.1-4.2-2.7c-1.8-0.7-3.7-1-5.6-1c-1.9,0-3.9,0.3-5.7,0.8
	c-1.8,0.4-3.5,1.2-5.1,2.2l2.9,5.7c1.1-0.7,2.3-1.3,3.6-1.7c1.2-0.3,2.3-0.5,3.6-0.5c2.1-0.1,4.2,0.6,5.9,1.8
	c0.9,0.7,1.5,1.6,1.9,2.7c0.3,1,0.5,2,0.5,3c0,1.1,0,2.2-0.2,3.4c-0.1,1.1-0.3,2.3-0.7,3.4h-59.2v-20h-8c-2.4,0-4.8,0.3-7.1,1
	c-1.9,0.6-3.7,1.6-5.2,2.9c-1.4,1.1-2.6,2.6-3.4,4.2c-0.7,1.7-1.2,3.5-1.2,5.4c-0.1,2,0.3,4,1.2,5.9c0.8,1.7,2.1,3.1,3.6,4.2
	c1.6,1.2,3.5,2,5.4,2.5c2.2,0.5,4.5,0.8,6.8,0.8h72.3c0.2-0.7,0.5-1.5,0.8-2.5c0.3-1,0.5-2,0.8-3.2c0.2-1.2,0.5-2.3,0.7-3.5
	c0.1-1.2,0.2-2.5,0.2-3.7c0.1-2.2-0.3-4.4-1.2-6.4C507.7,552.1,506.6,550.5,505.3,549.1 M436,566.2h-3c-1,0-2.1-0.2-3-0.5
	c-0.9-0.2-1.8-0.7-2.5-1.3c-0.7-0.5-1.4-1.2-1.9-2c-0.9-1.8-0.9-3.9,0-5.7c0.5-0.8,1.1-1.5,1.9-2c0.9-0.5,1.8-1,2.7-1.3
	c1-0.3,2-0.5,3-0.5h2.7v13.4L436,566.2z"/>
<path id="Path_2294" class="st0" d="M549.4,576.1c-1,0-2,0.3-2.7,1c-0.7,0.6-1.1,1.6-1.2,2.5c-0.1,1,0.3,2,1.2,2.5
	c1.6,1.1,3.8,1.1,5.4,0c0.8-0.6,1.2-1.5,1.2-2.5c0-0.9-0.3-1.9-1-2.5C551.5,576.4,550.4,576.1,549.4,576.1"/>
<path id="Path_2295" class="st0" d="M538.7,576.1c-1,0-2,0.3-2.7,1c-0.7,0.6-1.1,1.6-1.2,2.5c-0.1,1,0.3,2,1.2,2.5
	c1.6,1.1,3.8,1.1,5.4,0c1.4-1.1,1.6-3.2,0.4-4.6c-0.1-0.2-0.3-0.3-0.4-0.4C540.7,576.4,539.7,576.1,538.7,576.1"/>
<path id="Path_2296" class="st0" d="M638.8,534.7v31.7h-10.3v-31.7h-6.8v31.7h-3.9c-2.5,0.2-5-0.5-6.9-2.2c0.1-0.7,0.2-1.3,0.2-2
	c0-0.7,0.2-1.3,0.2-2.2v-16.9h-6.9v17.8c0.1,1.6-0.5,3.2-1.5,4.4c-2.6,2.2-6.4,2.2-9,0c-1.3-1.3-1.9-3.2-1.7-5v-11.4h-6.9v11.7
	c0.1,1-0.1,2-0.7,2.9c-0.7,1.5-2.1,2.5-3.7,2.9c-0.7,0.2-1.5,0.3-2.2,0.3h-5.1v-17.6h-7v17.6h-18.9v-20h-6.9v20H525v-31.7h-6.9v38.3
	h60.7c1.8,0,3.7-0.3,5.4-1c1.7-0.6,3.2-1.7,4.4-3c0.5,0.9,1.2,1.6,2,2.2c0.7,0.5,1.5,1,2.4,1.3c0.8,0.4,1.8,0.6,2.7,0.7
	c0.9,0.1,1.9,0.2,2.9,0.2c4,0.4,7.9-1.3,10.5-4.4c0.3,0.5,0.7,1,1.2,1.3c0.5,0.5,1.1,0.9,1.7,1.3c0.8,0.4,1.7,0.7,2.5,0.8
	c0.7,0.2,1.5,0.2,2.5,0.3h28.9v-38.2H638.8z"/>
<path id="Path_2297" class="st1" d="M860.6,540.9v-2l-0.2-0.7c0-0.5-0.1-0.9-0.3-1.3c-0.2-0.5-0.3-0.8-0.5-1.3c-0.6-1.5-1.3-3-2-4.4
	c-0.9-1.6-1.7-3.3-2.4-5c-0.3-0.7-0.2-0.3,0.2,0.8c0.2,0.7,0.5,1.3,0.8,2.4c0.4,1.1,0.9,2.2,1.5,3.2c0.5,1.2,1.2,2.5,1.7,3.9
	c0.4,1.5,0.7,3,0.8,4.5c0.1,1.6-0.1,3.1-0.3,4.7c-0.3,1.4-0.7,2.8-1.2,4.2c-0.5,1.3-1.1,2.6-1.9,3.9c-0.4,0.6-0.8,1.2-1.3,1.7
	l-0.8,0.7l-0.8,0.7c0.3-0.2,0.5-0.5,0.8-0.7c0.2-0.2,0.5-0.3,0.7-0.5l0.8-0.8l0.3-0.3l0.3-0.3c0.2-0.2,0.3-0.5,0.7-0.8
	c0.8-1.1,1.4-2.3,1.9-3.5c0.3-1,0.7-2.2,1-3.5C860.6,544.4,860.7,542.7,860.6,540.9"/>
<path id="Path_2298" class="st1" d="M854.7,526.3c-0.2-0.3-0.2-0.7-0.3-0.8c0-0.2-0.2-0.5-0.2-0.7c-0.1-0.6-0.3-1.1-0.3-1.7
	c-0.1-0.4-0.2-0.8-0.3-1.2C853.7,523.4,854.1,524.9,854.7,526.3"/>
<path id="Path_2300" class="st1" d="M838.8,568.4c-0.7,0.5-1.3,1-2.2,1.7c-0.2,0-0.2,0.2-0.3,0.2l-0.3,0.3c-0.4,0.2-0.7,0.4-1,0.7
	c-0.8,0.4-1.5,0.8-2.2,1.3l0,0l2.2-1.3c0.4-0.3,0.8-0.5,1.2-0.7c0.3-0.2,0.6-0.4,0.8-0.7l3-2.4c0.2-0.2-3.2,2.7-1.9,1.5l6.1-4.9
	c-0.9,0.6-1.9,1.3-2.7,2C840.6,567,839.7,567.7,838.8,568.4"/>
<path id="Path_2301" class="st1" d="M833.2,550.4c0-0.7,0.2-1.2,0.2-1.8c0.2-1.1,0.3-2.2,0.3-3.4c0-1,0-1.9-0.2-2.9
	c-0.1-0.4-0.2-0.8-0.3-1.2c-0.1-0.1-0.1-0.2-0.2-0.3c0-0.1-0.1-0.2-0.2-0.3l-0.2-0.2v-0.2c0-0.2,0.2-0.2,0.2-0.3
	c0,0.2-0.2,0.2-0.2,0.3v0.2l0,0l0.2,0.2c0.2,0.2,0.2,0.3,0.3,0.5c0,0.2,0.2,0.3,0.2,0.5c0.4,0.7,0.5,1.5,0.5,2.4
	c0,2.1-0.2,4.3-0.5,6.4c-0.2,4.4-0.2,8.2-0.2,7.4c0.2-1.2,0.3-2.3,0.3-3.5c0-1.4,0-2.8,0.2-4.2c0.2-1.5,0.3-2.9,0.5-4.2
	c0.1-1.1,0.1-2.3-0.2-3.4c-0.1-0.4-0.2-0.8-0.3-1.2c0-0.2-0.2-0.3-0.3-0.5c0-0.2-0.2-0.2-0.2-0.3v-0.3c0.2-0.3,0.3-0.5,0.3-0.8
	c0-0.2,0.2-0.3,0.2-0.5c0.1-0.2,0.2-0.4,0.2-0.7v0.5c-0.1,0.3-0.1,0.6-0.2,0.8c0,0.2-0.2,0.3-0.2,0.5c0,0.2,0,0.2-0.2,0.3
	c0,0.2,0.2,0.2,0.2,0.3l0.5,1c0,0.2,0.2,0.3,0.2,0.5s0.2,0.3,0.2,0.5c0.1,0.5,0.2,1,0.2,1.5v-0.2c0.2,2.2-0.5,4.5-0.5,6.7
	c-0.3,7-0.5,13.9-0.7,21c1.1-0.5,2.1-1.1,3-1.8c6.1-4.7,12-9.2,17.9-14.1c4.7-3.9,6.6-13.3,4.6-19c-1.7-4.9-5.1-9.1-5.2-14.6
	c0-0.3-0.3-0.7-0.7-1c-0.8,0.5-1.5,1-2.5,1.7c-1.2-2.5-2.4-4.7-3.6-7c-0.3,0.7-0.8,1.2-1.3,2c-5.7-6.4-13.7-7.7-21-10.2
	c-7.1-3.2-14.8-4.9-22.7-5c-0.5,3.5-0.8,7.4-1.5,11.1c-1.3,8.7-4.4,17-9,24.5l-0.2,0.2c-0.3,0.5-0.5,0.7-0.2,0
	c0.7-1.2,1.4-2.4,2-3.7c0.3-0.8,0.3-0.7,0.3-1.2c0.1-0.4,0.3-0.8,0.5-1.2c0.3-0.7,0.7-1.5,1.4-3c-0.7,1.5-1.9,3.9-3,6
	c-1,1.9-2.1,3.6-3.4,5.4c-0.4,0.5-0.9,1.1-1.4,1.5c-0.7,0.7-1.5,1.3-2.4,1.8l-1.5,1c-0.3,0.2-0.5,0.3-0.8,0.5
	c-0.3,0.2-0.5,0.3-0.8,0.5c-0.5,0.3-1.1,0.5-1.7,0.7c-0.3,0.2-0.7,0.2-1,0.3l-1,0.2h-0.3c-0.2,0-0.3-0.2-0.5-0.2
	c-0.3-0.2-0.5-0.2-0.8-0.3H776c-0.1,0-0.2,0.1-0.3,0.2l-0.5,0.3c-0.1,0.1-0.3,0.2-0.5,0.2l-1,0.5c-0.6,0.3-1.2,0.5-1.9,0.7
	c-1.1,0.3-2.2,0.5-3.4,0.5c-0.8,0-1.7,0-2.5-0.2c-0.3-0.1-0.7-0.1-1-0.2c-1.3-0.1-2.5-0.4-3.7-0.7c-0.5-0.2-1.2-0.3-1.7-0.5
	l-1.5-0.5c-1.9-0.7-3.5-1.9-4.9-3.4c-1.3-1.4-2.3-3-3-4.7c-0.2-0.4-0.4-0.9-0.5-1.3c0-0.2-0.2-0.5-0.2-0.7l-0.2-0.5
	c0-0.2-0.2-0.3-0.2-0.5c-0.2-0.7-0.3-1.5-0.5-2.4c-0.2-0.8-0.3-1.5-0.5-2.4l-0.2,0.2l0,0l-0.2,0.2l-0.5,0.7
	c-0.3,0.4-0.6,0.8-0.8,1.3c-0.6,0.8-1.1,1.6-1.5,2.5c-0.1,0.3-0.2,0.5-0.2,0.8v0.5c-0.2,0.3-0.2,0.7-0.3,0.8
	c-0.2,0.3-0.3,0.5-0.3,0.8c-0.1,0.3-0.3,0.6-0.5,0.8c-1.5,2.5-3.5,4.8-5.7,6.7c-0.5,0.4-0.9,0.7-1.3,1.2c-0.2,0.2-0.5,0.3-0.7,0.5
	l-0.5,0.5c-0.7,0.6-1.4,1-2.2,1.3c-1,0.5-2.1,0.9-3.2,1.2c-0.8,0.2-1.4,0.2-1.5,0.3c-0.3,0-0.3,0-0.3,0.2c0,0,0.5,0,0.5,0.2
	c0.2,0-0.2,0.2-1.5,0.2c-1.5,0.1-2.9-0.2-4.2-0.8c-1.4-0.6-2.6-1.5-3.7-2.5c-0.3-0.2-0.5-0.5-0.8-0.7l-0.7-0.7
	c-0.3-0.5-0.7-1.2-1-1.7c-0.2-0.3-0.2-0.7-0.3-1c0-0.2,0-0.5-0.2-0.7v-0.8c0.2-1.6,0.4-3.2,0.8-4.7l-0.2,0.2c0,0-0.2,0.2-0.2,0l0,0
	c-0.3,0.5-0.8,0.8-1.2,1.3c-0.7,0.8-1.5,1.7-2.2,2.5c-0.5,0.7-1.1,1.4-1.7,2c-0.5,0.5-0.8,1-1.2,1.3c-0.8,0.9-1.8,1.6-2.9,2.2
	c-0.7,0.4-1.4,0.7-2.2,0.8c-0.2,0.1-0.4,0.1-0.7,0.2c0.1,0,0.2-0.1,0.3-0.2c0.2,0,0.2,0,0.3-0.2c0.2,0,0.3-0.2,0.5-0.2
	c-0.3,0.2-0.5,0.2-0.8,0.3l-0.5,0.2c-0.2,0-0.3,0.2-0.5,0.2c-0.7,0.3-1.4,0.7-2,1.2l-1.5,1.5l-0.7,0.7l-0.7,0.7
	c-1.8,1.8-4,3-6.4,3.5c-2.5,0.5-5.1,0.5-7.6-0.2c-2.5-0.7-4.9-1.7-7.1-3l-3-1.8l1.7,3.2l1,2c0.2,0.4,0.5,0.7,0.8,1l0.3,0.3l0.3,0.3
	c0.1,0,0.2,0.1,0.3,0.2c0.2,0,0.4,0,0.5,0.2c0.6,0.1,1.2,0.3,1.7,0.7c0.2,0.2,0.2,0.5,0.3,0.8c0,0.4,0,0.8,0.2,1.2
	c0,0.3,0,0.6,0.2,0.8c0.2,0.3,0.2,0.5,0.3,0.7c0.2,0.2,0.4,0.4,0.5,0.7c0.3,0.2,0.5,0.4,0.8,0.5c0.9,0.3,1.7,0.9,2.4,1.5l1,1
	c0,0.1,0.1,0.2,0.2,0.2c0,0,0,0,0,0l0.2,0.2v0.3c-0.1,1,0.1,2.1,0.5,3c0.5,0.9,1.2,1.6,2,2.2c0.8,0.5,1.7,0.8,2.4,1.2
	c0.2,0,0.3,0.2,0.5,0.2c0.2,0,0.3,0.2,0.5,0.2c0.3,0.2,0.6,0.4,0.8,0.7c1,1.1,1.7,2.4,2,3.9c0.4,1,0.9,1.9,1.5,2.7
	c0.8,0.8,1.8,1.3,2.9,1.5h1.2c0.4,0,0.7,0.1,1,0.3c0.7,0.2,1.4,0.5,2,1c0.7,0.3,1.3,0.8,1.9,1.3l1,0.8c0.3,0.3,0.7,0.5,1,0.8
	c1.3,1.2,2.7,2.3,4.2,3.2c0.9,0.5,1.9,0.8,2.9,0.8h1l-0.2,0.3l-1.4,1.8h5.2v0.2l0,0v0.2c0,0.1,0.1,0.2,0.2,0.3
	c0,0.2,0.2,0.2,0.2,0.3l0.2,0.2c0.3,0.1,0.6,0.3,0.8,0.5c0.2,0.1,0.4,0.2,0.7,0.2l0.5,0.2l0.5,0.2l1.2,0.5l2.4,0.8l0.5,0.2
	c0.2,0,0.3,0.2,0.5,0.2l1.2,0.5c0.8,0.4,1.7,0.7,2.5,0.8c0.5,0.1,1,0.2,1.5,0.2c0.3,0,0.7,0,1-0.2c0.2,0,0.2,0,0.3-0.2
	c0.2,0,0.2,0,0.2-0.2h0.7l0.2,0.2l0.2,0.3l0.2,0.2l0.2,0.2c0.1,0.3,0.4,0.5,0.7,0.7c0.5,0.4,1.1,0.7,1.7,0.8c0.8,0.1,1.6,0.1,2.4,0
	h0.8c0.2,0,0.3,0,0.3,0.2c0.6,0.4,1.2,0.8,1.9,1.2c0.8,0.4,1.7,0.6,2.5,0.7c0.5,0,0.9,0,1.3-0.2h0.7c0.6,0.2,1.1,0.5,1.7,0.8
	c0.8,0.5,1.5,0.9,2.4,1.2c0.3,0,0.5,0.2,0.8,0.2h0.8c0.3,0,0.6,0,0.8-0.2l0.3-0.2h0.2l0.2,0.2c0.6,0.4,1.3,0.7,2,0.8
	c1.3,0.3,2.7,0.3,4.1,0c0.5-0.2,1.1-0.3,1.7-0.3l0.8-0.2c0.2,0,0.4,0,0.5-0.2c0.2,0,0.3-0.2,0.5-0.2c0.2,0,0.5-0.2,0.7-0.3
	c2.5,2.4,5.1,0.8,7.3,0.3c0.8-0.2,1.3-1.5,2.2-2.2l-0.5-0.5c-2.2,0.3-4.4,0.8-6.9,1.2l0.2-0.2c0.2-0.2,0.4-0.4,0.5-0.7
	c0.2-0.2,0.2-0.5,0.3-0.7v-0.3c0-0.1,0.1-0.2,0.2-0.2c0,0,0,0,0,0c0-0.1,0.1-0.2,0.2-0.3c0.2-0.2,0.5-0.4,0.8-0.5
	c0.5-0.2,1-0.3,1.5-0.3c0.5-0.2,1-0.2,1.5-0.3c0.5-0.2,1.2-0.2,1.7-0.3c0.3,0,0.5-0.2,0.8-0.2l0.8-0.3c1-0.3,2.2-0.7,3.2-1
	c4.2-1.3,8.6-2.7,13-4l-2.7,0.8c-0.3,0.2,1.7-0.7,3.2-1.2c-2.7,0.8-5.2,1.5-7.8,2.4c2.4-0.8,4.7-1.5,7.3-2.4
	c1.2-0.3,2.4-0.7,3.5-1.2c1.2-0.5,2.4-0.8,3.6-1.3c1-0.5,2.9-1.3,5.1-2.2c2.2-1,4.7-2.2,7.6-3.5c1.4-0.7,2.7-1.3,4.2-2l2-1l0.3-0.2
	c0.2,0,0.2-0.2,0.2,0c0.2,0.4,0.3,0.9,0.3,1.3c0.3,0.8,0.5,1.7,0.8,2.3c0.7,1.5,1.4,2.9,1.9,3.9h1v-0.2c0-0.1,0.1-0.2,0.2-0.3
	c0.2-0.3,0.3-0.5,0.5-0.8v-11.9c0-2.4-0.2-4.4-0.2-5.9c0-3.2-0.2-5.2-0.2-7.2c0-2-0.2-4-0.2-7.4v-4.2c0-0.5,0.2-1,0.2-1.7
	c0.1-0.7,0.1-1.5,0-2.2c-0.2-0.7-0.2-1.3-0.3-2c-0.2-1.5-0.3-3-0.7-4.7c-0.7-4.7-1.4-9.6-2-14.8c-0.3-2.5-0.7-5.2-1.2-7.9
	c-0.2-0.7-0.2-1.3-0.3-2l-0.2-1c0-0.3,0-0.7-0.2-1v-2.9c3.2,0.3,6.3,0.7,9.5,1l0.3,1.2c0.2,0.7,0.3,1.2,0.5,1.8
	c0.2,0.7,0.3,1.2,0.5,1.8l0.5,2c0.5,1.4,0.8,2.9,0.8,4.4v2c-0.1,0.6-0.2,1.2-0.2,1.8c-0.1,0.8,0,1.7,0.2,2.5v0.3c0.3,2,0.5,4,0.5,6
	v0.7c0,0.2-0.2,0.5-0.2,0.7c0,0.2-0.2,0.5-0.2,0.7v0.3l-0.2,0.3l-0.2,0.7c0,0.2-0.2,0.2-0.2,0.3l0.2,0.3l0.3,0.7l0,0v0.2
	c0,0.2,0.2,0.2,0.2,0.3c0.2,0.5,0.3,1,0.3,1.5c0,2.2-0.2,4.5-0.5,6.7c0,2.4-0.2,4.5-0.2,6.5c-0.2,4.2-0.2,7.4-0.2,9.6v4.9
	c0,0.8,0,0.3,0.2-1c0-0.8,0.2-2.5,0.2-4.4c0.2-3.5,0.3-8.4,0.5-13.3C833,551.7,833,551.1,833.2,550.4 M819.9,510.8
	c-0.2-0.1-0.4-0.2-0.7-0.2c0,0.5-0.2,1.2-0.2,2.3v-2.5c0.5,0,0.8,0.2,1.4,0.2C820.6,510.7,821.3,510.8,819.9,510.8 M832.6,519.1
	c0.8,2.1,1.2,4.3,1,6.5c-0.1,2.3,0,4.6,0.3,6.9c-0.1-0.5-0.2-1-0.2-1.5c-0.2-0.7-0.2-1-0.2-0.8c0,0.2,0.2,1.7,0.3,3.7
	c-0.2-1.1-0.3-2.2-0.3-3.4c-0.1-0.9-0.2-1.9-0.2-2.9c0-0.8,0.2-1.7,0.2-2.4v-1.8c-0.1-0.9-0.3-1.8-0.5-2.7
	C832.8,519.9,832.8,519.4,832.6,519.1"/>
<path id="Path_2302" class="st1" d="M846.9,514.4l-0.2,0.3L846.9,514.4z"/>
<path id="Path_2303" class="st1" d="M797.9,522.3c0.5-1.3,0.8-3.2,1.4-4.9c0.3-1.8,0.7-3.5,1-4.9c0.3-2.4,0.7-4.9,1-7.4
	c0.2-0.7,0.2-1.3,0.3-2v-1h3.4c0.7,0,1.4,0,2,0.2c5.2,0.7,10.3,2,15.2,4c1.2,0.5,2.4,0.8,3.7,1.3c1.2,0.3,2.4,0.8,3.6,1.2
	c2.4,0.8,4.7,1.5,7.1,2.5c2.2,0.9,4.3,2.1,6.3,3.5c0.5,0.3,0.9,0.6,1.4,1l0.5,0.5l0.3,0.3c0.2,0.2,0.2,0.3,0.3,0.3l0.3-0.5l0.5-1
	l0.3-0.7l-0.5,0.5c-0.2,0.2-0.3,0.5-0.5,0.7l-0.3,0.3l0,0v-0.2L845,516l-0.2-0.2v-0.2l-0.2-0.2l-0.8-0.8c-0.3-0.3-0.7-0.5-1-0.8
	c-0.4-0.3-0.8-0.6-1.2-0.8c-1.7-1.1-3.5-2.1-5.4-2.9c-2-0.8-4.2-1.5-6.4-2.2c-2.2-0.7-4.4-1.3-6.6-2.2c-2.2-0.8-4.4-1.5-6.4-2.2
	c-3.7-1.1-7.5-1.9-11.3-2.4h-4.2v0.3c0,0.3-0.2,0.7-0.2,1c0,0.5-0.2,1-0.2,1.5c-0.2,1.8-0.5,3.5-0.7,5.4c-0.5,4.3-1.4,8.5-2.5,12.6
	c-0.2,0.8-0.4,1.6-0.7,2.4C797.2,524.6,797.5,523.6,797.9,522.3"/>
<path id="Path_2304" class="st1" d="M847.7,516.2c-0.1-0.3-0.2-0.6-0.3-0.8l-0.5-1l-0.2,0.2l0.5,1
	C847.6,515.6,847.7,515.9,847.7,516.2"/>
<path id="Path_2305" class="st1" d="M850.4,522.3c0.8-0.5,1.5-1,2.2-1.5l0.3-0.2l0.2,0.3c0.2,0.2,0.3,0.3,0.3,0.5
	c0.2,0.2,0.3,0.4,0.3,0.7l0,0l0,0v-0.2c0-0.2-0.2-0.3-0.2-0.5c-0.1-0.2-0.3-0.5-0.5-0.7l-0.2-0.3l-0.3,0.3c-0.7,0.4-1.4,0.8-2,1.3
	l0,0c-0.3-0.4-0.5-0.9-0.7-1.3l-0.8-1.7c-0.5-0.8-0.3-0.7,1,2.2C850.2,521.6,850.3,521.9,850.4,522.3"/>
<path id="Path_2306" class="st2" d="M744.6,459.9c-0.8,0.3-1.7,0.4-2.5,0.5c0,0,2.4-0.3-0.3,0.3c1-0.2,2.5-0.7,1.7-0.3
	C745.1,459.9,743.6,460.2,744.6,459.9"/>
<path id="Path_2307" class="st2" d="M746.3,459.4c0.8-0.2,1.6-0.4,2.4-0.7C747.8,459,747,459,746.3,459.4"/>
<path id="Path_2308" class="st2" d="M746.6,459.5l0.5-0.2l-1.2,0.3L746.6,459.5z"/>
<path id="Path_2309" class="st2" d="M751.4,458.2c0.3,0,0.5-0.2,0.7-0.2l-3,0.8l2.7-0.7C753.4,457.7,752.5,457.8,751.4,458.2"/>
<path id="Path_2310" class="st2" d="M748,459c0.3,0,0.6-0.1,0.8-0.2c0.5-0.2,1.2-0.3,1.7-0.5c-0.8,0.2-1.5,0.3-1.5,0.3L748,459z"/>
<path id="Path_2311" class="st2" d="M751.4,458.2c-0.3,0-0.7,0.2-1,0.2C750.7,458.3,751,458.2,751.4,458.2"/>
<path id="Path_2312" class="st2" d="M754.3,457.7h0.3l0.2-0.2C753.9,457.7,754.2,457.7,754.3,457.7"/>
<path id="Path_2313" class="st2" d="M759.7,457.5c0.5-0.2,1-0.4,1.5-0.5c-1.2,0.4-2.5,0.7-3.7,0.8c1.4-0.2,0.3,0,0.3,0.2
	C758.3,457.8,759,457.7,759.7,457.5"/>
<path id="Path_2314" class="st2" d="M762,456.8c-0.8,0.3-1.7,0.7-2.7,1C760.3,457.6,761.2,457.3,762,456.8"/>
<path id="Path_2315" class="st2" d="M766.3,454.2c-0.3,0.2-1.2,0.7-1.7,1l1.4-0.7C765.9,454.5,765.7,454.5,766.3,454.2"/>
<path id="Path_2316" class="st2" d="M739.9,406.7L739.9,406.7C739.9,406.5,739.7,406.7,739.9,406.7L739.9,406.7"/>
<path id="Path_2321" class="st2" d="M744.5,404.7h0.2C744.6,404.5,744.3,404.5,744.5,404.7c-0.1,0-0.2-0.1-0.2-0.2c0,0,0,0,0,0
	C744.4,404.5,744.4,404.6,744.5,404.7C744.5,404.7,744.5,404.7,744.5,404.7"/>
<path id="Path_2329" class="st2" d="M743.1,404.7C743.3,404.7,743.3,404.5,743.1,404.7L743.1,404.7"/>
<path id="Path_2330" class="st2" d="M785.7,462.2c0.2,0.7,0.2,1.2,0.3,1.8C785.8,463.4,785.7,462.8,785.7,462.2"/>
<path id="Path_2331" class="st2" d="M786,464.1c0.2,0.8,0.3,1.7,0.5,2.7C786.4,465.9,786.2,465.1,786,464.1"/>
<path id="Path_2332" class="st2" d="M785.7,462.2c-0.8-3.9-1.5-6.7-0.7-3.4c-1-4.2-1.2-4.4-1-4.2c0,0.2,0.2,0.7-0.7-2
	c1.2,4.5,2,8.1,2.7,12.1c0,0.2-0.5-2.9-0.7-4c-0.2-0.7-0.2-0.8,0,0C785.4,461.2,785.5,461.7,785.7,462.2"/>
<path id="Path_2333" class="st2" d="M780.6,439.4c0.8-1.8,1.7-3.7,2.2-4.7c-0.8,2-1.7,3.7-2.5,5.5c-0.2,0.5-0.4,0.9-0.7,1.3
	l-0.3,0.7c-0.1,0.1-0.2,0.3-0.2,0.5c0,0.2,0,0.4,0.2,0.5c0,0.2,0.2,0.3,0.3,0.5s0.2,0.3,0.3,0.7c0.2,0.2,0.2,0.3,0.3,0.5
	c-0.2-0.2-0.3-0.4-0.3-0.7c-0.2-0.2-0.2-0.5-0.3-0.7c-0.2-0.5-0.3-0.8-0.2-1.2C779.8,441.4,780.3,440.4,780.6,439.4"/>
<path id="Path_2334" class="st2" d="M780.6,444.9c-0.2-0.2-0.3-0.4-0.3-0.7c-0.2-0.3-0.3-0.5-0.3-0.8c0-0.2-0.2-0.3-0.2-0.5v-0.7
	l0.2-0.5l-0.3,0.7v0.3c0,0.2,0.2,0.3,0.2,0.5c0.2,0.2,0.2,0.3,0.3,0.7c0.3,0.8,1,1.5,1.5,2.5C781.2,446,780.9,445.5,780.6,444.9"/>
<path id="Path_2335" class="st2" d="M786.7,427.1c0.1-0.3,0.4-0.5,0.7-0.7l1.2,2.7c3.6,7.4,1.9,3.9-0.5-1.5c0.5,0.9,0.9,1.9,1.2,2.9
	l-1.2-2.7l-0.5-1c-0.2-0.2-0.2-0.3-0.3-0.5C787,426.6,786.9,426.8,786.7,427.1C786.5,427.2,786.5,427.3,786.7,427.1
	c-0.1,0.1-0.2,0.2-0.2,0.3l-0.2,0.5l-0.5,1l-1.9,4.2l1.9-4.2l0.5-1l0.2-0.5c0-0.2,0-0.2,0.2-0.2
	C786.5,427.3,786.5,427.2,786.7,427.1"/>
<path id="Path_2336" class="st2" d="M785.4,429.5c-0.3,0.8-0.7,1.5-1,2.2c-0.7,1.3-1,2.2-1.2,2.3l-1.9,4.2c0,0,0.7-1.3,1.7-3.7
	c0.5-1.2,1-2.3,1.7-3.7c0.4-0.6,0.6-1.3,0.8-2l0.5-1l0.2-0.5c-0.2,0.2-0.2,0.5-0.3,0.8C785.7,428.7,785.5,429,785.4,429.5"/>
<path id="Path_2339" class="st2" d="M786.5,427c0,0.1-0.1,0.2-0.2,0.2c0,0,0,0,0,0C786.5,427.1,786.5,427.1,786.5,427
	C786.5,427,786.5,427,786.5,427"/>
<path id="Path_2340" class="st2" d="M787.4,426.1c-0.2,0.3-0.5,0.5-0.8,0.8C786.7,426.6,787,426.5,787.4,426.1
	c0.2,0.2,0.2,0.5,0.3,0.7l0.3,0.8c-0.2-0.3-0.2-0.5-0.3-0.8C787.5,426.6,787.4,426.4,787.4,426.1"/>
<path id="Path_2341" class="st2" d="M796.7,442.2c0.2,0,0.3,0,0.3-0.2c-0.3,0-0.7,0.2-1,0c-0.3,0-0.6-0.1-0.8-0.3
	c-0.3-0.2-0.6-0.5-0.8-0.8c-0.3-0.5-0.3-0.7-0.5-0.7c-0.2-0.2,0.2,0.3,0,0.2c0.2,0.4,0.5,0.8,0.8,1c0.4,0.4,1,0.6,1.5,0.7
	C796.3,442.4,796.5,442.2,796.7,442.2"/>
<path id="Path_2342" class="st2" d="M805.6,451.5c-0.2-0.3-0.2-0.7-0.3-1c-0.1-0.4-0.2-0.8-0.3-1.2c-0.2-0.7-0.3-1.5-0.5-2.4
	c0.7,3,0.8,3.5,0.7,3.2c-0.2-0.5-0.4-1.1-0.5-1.7c0.2,0.5,0.2,1,0.3,1.7c0.2,0.7,0.3,1.2,0.5,1.8c0.4,1.4,0.8,2.7,1.4,4
	c0.8,2.7,1.7,5.4,2.2,6.9c-0.7-2.4-1.5-4.9-2.4-7.4C806.5,454.1,806.2,452.7,805.6,451.5"/>
<path id="Path_2343" class="st2" d="M807.8,459c0.7,1.8,1.4,3.9,2,6l-3.6-11.1C806.7,455.7,807.2,457.4,807.8,459"/>
<path id="Path_2344" class="st2" d="M795.8,462.7l0.8-0.3c0.3-0.2,0.5-0.2,0.8-0.3l1-0.5l0.5,1c0.7,1.3,1.3,2.7,1.9,3.9l-1.9-4
	l-0.5-1l-1.2,0.5l-0.8,0.3L795.8,462.7l0.2,1l0.3,1.7c0.2,1.2,0.2,0.3,0.5,2.5c-0.2-0.8-0.3-2.5-0.7-4.2L795.8,462.7z"/>
<path id="Path_2345" class="st2" d="M878.5,495.4c0.1-1.7,0.4-3.4,1-5c0.8-1.9,0.9-4,0.5-6c-1-3.4-1.9-6.7-2.9-10.2
	c-0.3-0.8-0.4-1.6-0.3-2.3c0.6-1.7-0.3-3.6-2-4.3c-0.6-0.2-1.3-0.3-1.9-0.1c-0.8,0.3-1.5,0.8-2,1.5c-0.2-0.3-0.2-0.7-0.3-1
	c-0.2-0.7-0.3-1.2-0.5-1.7h-0.2c-0.7-1.8-1.4-3.7-2.2-5.5c-0.2-0.3-0.2-0.7-0.3-1c-0.3-0.8-0.7-1.8-1-2.9c-0.2-0.5-0.2-1.1,0-1.7
	c0.2-0.5,0.2-1,0.3-1.5l1,1.5c0,0.1,0.1,0.2,0.2,0.3c0,0.1,0.1,0.2,0.2,0.2c0,0,0,0,0,0c0.3,0.8,0.7,1.8,1,2.7
	c0.3,0.9,0.9,1.8,1.7,2.4l0.3,0.2l0.3,0.2h0.2v0.5c0,0.5,0.2,0.8,0.2,1.3c0,0.5,0.2,0.8,0.2,1.3v0.3l0,0v0.2l0,0
	c0.2,0.2,0.3,0.2,0.7,0.3l0,0l0.5-0.5c0.2-0.2,0.5-0.3,0.7-0.7c0.2-0.2,0.3-0.5,0.3-0.8l0,0c-0.2-1.3-0.6-2.6-1.4-3.7
	c-0.4-0.8-0.9-1.6-1.5-2.4c-0.3-0.3-0.7-0.8-1-1.2c-0.2-0.2-0.4-0.4-0.7-0.5l-0.3-0.3c-0.2-0.2-0.2-0.2-0.3-0.2l-0.2-0.2v-0.2l0,0
	c0-0.2-0.2-0.5-0.2-0.7c-0.2-0.5-0.2-1-0.3-1.7c-0.1-0.6-0.3-1.1-0.5-1.7c-0.2-0.6-0.5-1.1-0.8-1.5c-0.8-0.8-1.6-1.4-2.5-2
	c-0.4-0.2-0.7-0.4-1-0.7c-0.3-0.5-0.7-0.8-1-1.3l0,0l-0.2,0.2v-0.5c0.1,0,0.2,0.1,0.2,0.2c0,0,0,0,0,0l0.2,0.2l-0.2-0.2l0.2,0.2l0,0
	l-0.2-0.2c0-0.1-0.1-0.2-0.2-0.2c0,0,0,0,0,0v-0.2l0,0c0-0.3-0.2-0.5-0.2-0.7v-0.5c-0.1-1-0.5-2-1-2.9v-0.2l0,0
	c-0.2-0.2-0.3-0.4-0.3-0.7c-0.2-0.6-0.6-1.2-1-1.7c0-0.2-0.3,0-0.3-0.2v-0.2l-0.3-0.3c0-0.3-0.3-0.5-0.7-0.8
	c-0.2-0.2-0.3-0.2-0.5-0.3c-0.2-0.2-0.3-0.3-0.5-0.3c-0.2-0.2-0.4-0.3-0.7-0.3h-0.8c-0.2,0-0.2,0.2-0.3,0.3l-0.2,0.2
	c0,0.2-0.2,0.2-0.2,0.3c-0.2,0.2-0.2,0.3-0.3,0.5c-0.2,0.2-0.2,0.3-0.3,0.5v0.5c0.1,0.2,0.2,0.3,0.3,0.5l0.3,0.3
	c0,0.1,0.1,0.2,0.2,0.2c0,0,0,0,0,0c0.2,0.2,0.2,0.3,0.3,0.5c0.2,0.3,0.4,0.6,0.7,0.8c0.7,0.7,1.2,1.5,1.7,2v0.2
	c0.1,0,0.2,0.1,0.2,0.2c0,0,0,0,0,0l0,0c0,0.2,0.2,0.3,0.3,0.3v0.2l0.3,0.3c0,0.1,0.1,0.2,0.2,0.3l0,0c0.3,0.4,0.5,0.8,0.5,1.3
	c0.3,0.2,0.5,0.5,0.7,0.7l0,0v0.3c-0.8-1-1.7-2.2-2.5-3.4c-0.3-0.3-0.5-0.8-0.8-1.2l-1-1.5l-1.5-2l-0.2-0.3l0,0v0.2
	c-0.2,0.2-0.2,0.3-0.3,0.7s-0.3,0.8-0.5,1.2l-0.3,0.7l-0.2,0.7c-0.2,0.3-0.2,0.7-0.3,1c-0.2,0.7-0.5,1.2-0.7,1.8
	c-0.5,1.3-0.8,2.5-1.2,3.7c-0.1,0.7-0.4,1.4-0.7,2l-0.5,1.5c-0.2,0.5-0.5,1-0.7,1.5c-0.2,0.5-0.4,0.9-0.7,1.3
	c-0.2,0.3-0.3,0.5-0.3,0.8c-0.2,0.3-0.5,0.8-0.7,1.2c-0.3,0.4-0.5,0.8-0.7,1.2c-0.3,0.3-0.5,0.7-0.8,1l-0.5,0.5l-0.3,0.3l-0.7,0.7
	l-0.3,0.3l0,0v-0.2c0-0.3-0.2-0.5-0.2-0.8l-0.2-0.3l-0.2-0.5c-0.2-0.3-0.3-0.8-0.5-1.2c-0.2-0.5-0.6-0.9-1-1.2
	c-0.5-0.3-1-0.4-1.5-0.3c-0.5,0-0.8,0.2-1.3,0.2c-1.5,0.5-3,1-4.4,1.5c-1.5,0.5-3,1.1-4.4,1.8c-1.5,0.7-2.9,1.2-4.4,1.8
	c-0.3,0.1-0.5,0.4-0.7,0.7c-0.2,0.3-0.2,0.5-0.3,0.8c-0.1,0.6-0.1,1.1,0,1.7c0.2,1,0.3,2,0.3,3c0.2,2,0.5,4,0.7,6l0.5,3v0.3
	c0,0.2,0,0.3,0.2,0.3c0,0.2,0.2,0.3,0.3,0.5c0,0.2,0.2,0.3,0.2,0.5c0.5,0.6,1.1,1,1.9,1.2c0.2,0,0.3,0.2,0.5,0.2
	c0.3,0.1,0.6,0.2,0.8,0.2c0.4,0.1,0.8,0.2,1.2,0.3c0.7,0.2,1.5,0.3,2.2,0.3c0.3,0.1,0.6,0.2,0.8,0.3c1.5,0.5,3,1.2,4.7,1.8
	c0.5,0.2,1.2,0.5,2.7,1.2l0,0l3.5,1.5c2.9,1.3,5.6,2.8,8.3,4.5c2.9,1.5,5.7,3.2,8.3,5.2l5.1,3.5c1.3,1.2,2.5,2.6,3.4,4.2
	c0.9,1.3,1.9,2.5,3,3.7l0.8,0.8c0.3,0.2,0.5,0.5,1,0.7c0.4,0.2,0.9,0.3,1.4,0.3c0.5,0,0.9-0.2,1.2-0.7c0.3-0.3,0.4-0.8,0.3-1.2v-1
	c0-0.6,0.2-1.2,0.5-1.7v-0.2c0-0.2,0.2-0.2,0.2-0.3s0.2-0.3,0.2-0.5c0.2-0.2,0.2-0.5,0.3-0.7c0-0.2,0.2-0.3,0.2-0.5v-0.5
	c0-0.3,0-0.7-0.2-1c-0.2-1.3-0.3-2.7-0.5-4 M862.4,447.2L862.4,447.2c0.3,0.5,0.7,0.8,0.8,1.2c-0.2,0-0.2,0.2-0.3,0.2l-1.5-2
	C861.7,446.8,862,447,862.4,447.2 M860.7,445.1L860.7,445.1c0.3,0.2,0.7,0.3,0.7,0.7l0,0l-0.2,0.2c-0.2-0.3-0.4-0.6-0.7-0.8l0,0
	C860.7,445.3,860.7,445.3,860.7,445.1L860.7,445.1v0.2l0,0C860.5,445.3,860.7,445.3,860.7,445.1"/>
<path id="Path_2346" class="st2" d="M871.1,463c0.2,2,0.2,0.2,0.3,1.5c-0.1-0.5-0.2-1-0.2-1.5v-0.5l0,0V462
	C871,462.4,871.2,462.7,871.1,463C871.2,463.4,871.2,463.5,871.1,463"/>
<path id="Path_2350" class="st2" d="M874.4,462.4v1c-0.1,0.4-0.2,0.8-0.5,1.2c-0.2,0.3-0.5,0.5-0.7,0.8l0.7-0.7
	c0.2-0.4,0.4-0.8,0.5-1.2C874.5,463.2,874.5,462.8,874.4,462.4"/>
<path id="Path_2351" class="st2" d="M873.3,465.7c0.2-0.2,0.4-0.4,0.7-0.5c0.2-0.2,0.2-0.3,0.3-0.5
	C874,465.1,873.6,465.4,873.3,465.7"/>
<path id="Path_2352" class="st2" d="M873.2,459.2l-0.3-0.7c0.7,1,1.3,2.2,1.7,3.4c-0.3-1.1-0.8-2.2-1.5-3.2c-0.7-0.8-0.8-1-0.7-0.8
	C872.4,458,872.9,458.5,873.2,459.2"/>
<path id="Path_2353" class="st2" d="M874.6,463.4L874.6,463.4v-0.5c0-0.3,0-0.6-0.2-0.8c-0.2-0.7-0.5-1.2-0.7-1.8
	c0.3,0.6,0.5,1.2,0.7,1.8C874.6,462.5,874.6,462.9,874.6,463.4"/>
<path id="Path_2354" class="st2" d="M873.3,459.2c0.2,0.4,0.4,0.8,0.5,1.2C873.6,460,873.4,459.6,873.3,459.2"/>
<path id="Path_2355" class="st2" d="M871.2,456.2l-0.3-0.3h-0.2C871.4,456.5,871.2,456.2,871.2,456.2"/>
<path id="Path_2356" class="st2" d="M869.2,453.3c0-0.6-0.2-1.2-0.3-1.8c-0.1-0.7-0.4-1.3-0.8-1.8c0.6,1.3,1,2.8,1.2,4.2
	C868.9,452.1,869.2,453.1,869.2,453.3"/>
<path id="Path_2357" class="st2" d="M868.7,450.1c0.2,0.5,0.3,1.2,0.5,1.7c-0.1-0.5-0.2-0.9-0.3-1.3l-0.5-1
	c-0.2-0.2-0.2-0.3-0.3-0.5c-0.2-0.2-0.3-0.3-0.3-0.5c0.3,0.2,0.5,0.5,0.7,0.8C868.4,449.6,868.5,449.9,868.7,450.1"/>
<path id="Path_2358" class="st2" d="M863.3,445.3c-0.2-0.2-0.2,0-0.5-0.3c0.6,0.5,1.2,0.9,1.9,1.2L863.3,445.3z"/>
<path id="Path_2359" class="st2" d="M859.7,437.9L859.7,437.9c0.2-0.2,0-0.3,0.2-0.3c-0.2-0.2-0.2,0-0.2,0
	C859.6,437.6,859.6,437.8,859.7,437.9C859.7,437.9,859.7,437.9,859.7,437.9"/>
<path id="Path_2360" class="st2" d="M859.4,437.4c0-0.1-0.1-0.2-0.2-0.2c0,0,0,0,0,0C859.3,437.2,859.4,437.3,859.4,437.4
	C859.4,437.4,859.4,437.4,859.4,437.4"/>
<path id="Path_2361" class="st2" d="M859.7,437.2l-0.2-0.2v0.3L859.7,437.2z"/>
<path id="Path_2362" class="st2" d="M859.2,436.7l0.3,0.3L859.2,436.7L859.2,436.7"/>
<path id="Path_2363" class="st2" d="M859.2,436.9v0.2h0.2C859.4,437.2,859.4,437,859.2,436.9"/>
<path id="Path_2365" class="st2" d="M858.9,435.9c0-0.2-0.2-0.2-0.3-0.3C858.6,435.7,858.7,435.7,858.9,435.9L858.9,435.9"/>
<path id="Path_2366" class="st2" d="M858.5,435.4c0.2,0,0.2,0.2,0.3,0.3C858.9,435.4,858.7,435.4,858.5,435.4"/>
<path id="Path_2367" class="st2" d="M858,435.2l-0.2-0.3h-0.2C857.9,434.9,858,435,858,435.2"/>
<path id="Path_2368" class="st2" d="M825.1,457.7c0.2,0.3,0.5,0.5,0.8,0.5h0.5c0.2,0,0.2,0.2,0.3,0.2c0.3,0.2,0.7,0,1-0.3
	c0,0.1,0.1,0.2,0.2,0.2c0,0,0,0,0,0c0-0.2,0-0.2-0.2-0.2c0.1,0,0.2-0.1,0.2-0.2c0,0,0,0,0,0l0,0v0.2l0,0l0.2-0.5
	c0.1,0,0.2-0.1,0.2-0.2c0,0,0,0,0,0v-0.2l0,0v0.2c0-0.1,0.1-0.2,0.2-0.2c0,0,0,0,0,0l0,0V457l0,0v-0.2l0,0v-0.2l0,0v-0.2h-0.2v-0.3
	h-0.7V456l-0.2-0.2c0-0.5-0.7-0.7-0.8-1c-0.2-0.2-0.4-0.4-0.5-0.7c-0.2-0.3-0.5-0.5-0.7-0.7h-0.2c-0.2,0-0.2-0.3-0.3-0.3l-0.2-0.2
	v-0.3l-0.3,0.2l0,0v-0.2l0,0c-0.2-0.2-0.3-0.3-0.5-0.3l0,0l-0.8-0.7v1.3h-0.2l0.2,0.2l-0.2,0.3c0.2,0,0.3,0.2,0.3,0
	c0,0.3,0,0.6,0.2,0.8l0,0l0.2,0.2v0.2c0,0.2,0,0.2,0.2,0.2v0.2c0,0.2,0.2,0.2,0.2,0.3v0.2l0,0c0,0.3,0.2,0.8,0,1
	c0.3,0,0.3,0.3,0.5,0.5C824.6,457.4,824.9,457.5,825.1,457.7 M828.3,457.9L828.3,457.9 M828.3,458L828.3,458 M828.5,456.8
	L828.5,456.8"/>
<path id="Path_2369" class="st2" d="M828.5,456.2L828.5,456.2c0-0.2,0-0.2,0.2-0.3c-0.2-0.2-0.2,0.2-0.2,0
	C828.5,456,828.3,456.2,828.5,456.2"/>
<path id="Path_2371" class="st2" d="M828.5,455.7h-0.2v0.2L828.5,455.7z"/>
<path id="Path_2373" class="st2" d="M828.1,455.7c0-0.1-0.1-0.2-0.2-0.2c0,0,0,0,0,0L828.1,455.7z"/>
<path id="Path_2375" class="st2" d="M828,454.8c0-0.1-0.1-0.2-0.2-0.2c0,0,0,0,0,0C827.8,454.7,827.9,454.8,828,454.8
	C827.9,454.8,827.9,454.8,828,454.8L828,454.8"/>
<path id="Path_2377" class="st2" d="M827.6,454.2L827.6,454.2C827.4,454.3,827.6,454.3,827.6,454.2z"/>
<path id="Path_2378" class="st2" d="M666.2,474.8c-0.2,0.4-0.3,0.9-0.3,1.3c0.3-0.2,0.8-0.2,1.2-0.3
	C666.7,475.5,666.4,475.2,666.2,474.8"/>
<path id="Path_2379" class="st2" d="M665.7,476.1c-0.8,0.3-1.9,0.5-2.2,1.2c-0.7,0.8-0.3,2.5-0.7,4.2c0.4,0.2,0.8,0.4,1.2,0.5
	C664.7,480,665.2,478.1,665.7,476.1"/>
<path id="Path_2380" class="st2" d="M701.9,472.3c-2.6-1.4-5.8-0.6-7.4,1.8c-1.4,2.2-0.7,4.4,2.2,6c3,1.4,6,2.5,9.1,3.5
	C706.4,478.3,705.6,474.6,701.9,472.3"/>
<path id="Path_2381" class="st2" d="M844,425.6c-0.2-0.2-0.2-0.3-0.3-0.5v-0.5c-0.2-0.4-0.3-0.9-0.3-1.3c-0.1-1-0.3-2-0.5-3
	c-0.2-0.6-0.5-1.1-1-1.5c-0.3-0.2-0.5-0.4-0.8-0.5c-0.2-0.2-0.5-0.2-0.7-0.3c0.1,0,0.2-0.1,0.2-0.2c0,0,0,0,0,0
	c-1.5-1.1-3.1-2-4.7-2.9c-0.7-0.5-1.4-0.8-1.9-1.2c-0.2-0.2-0.2-0.2-0.3-0.2h-0.2c-0.1,0-0.2-0.1-0.3-0.2c-0.5-0.1-0.9-0.3-1.4-0.5
	c-0.2,0.2-0.3,0.5-0.5,0.7l0.3,0.3l0.7,0.7l0.7,0.7l0.2,0.2h0.2l0.8,0.7l0.5,0.3l0,0l-0.2,0.2c-2-1.2-4.2-2.5-6.3-3.7
	c-1.2-0.7-2.2-1.3-3.4-2c-0.5-0.4-1.1-0.7-1.7-1l-0.7-0.3l-0.3-0.2h-0.2c0.2-0.2,0.2-0.3,0.3-0.7l0,0v-0.2c0-0.2,0-0.2,0.2-0.3v-0.7
	c-0.1-0.4-0.2-0.8-0.5-1.2l-0.2-0.2l-0.3-0.2c-0.2-0.2-0.3-0.2-0.7-0.3c-0.4-0.2-0.9-0.3-1.3-0.3c-0.2,0.2-0.2,0.3-0.3,0.5l-0.2,0.2
	l-0.2,0.3l-0.2,0.2l-0.3,0.5H818l-0.3-0.2c-1.2-0.7-2.2-1.2-3.4-1.8s-2.4-1.2-3.6-1.8c-0.6-0.3-1.2-0.5-1.9-0.7
	c-0.7-0.3-1.2-0.5-1.9-0.8c-1.3-0.6-2.7-0.9-4.1-0.8c-0.7,0.1-1.4,0.3-2,0.5c-0.7,0.2-1.2,0.5-1.9,0.7c-1.2,0.5-2.4,0.8-3.6,1.3
	c-9.6,3.5-18.8,6.7-27.2,9.9c-3.2,1.2-6.4,2.2-9.6,3.4c-1.5,0.5-3.2,1.2-4.7,1.7l-2,0.7h-0.2v-1.8c0.2-0.7,0.7-1.3,1.4-1.7
	c0.4-0.2,0.8-0.4,1.2-0.5l1.2-0.3c1.5-0.5,3.2-1.2,4.7-1.7c3.2-1.2,6.4-2.2,9.5-3.2c3.2-1,6.3-2.2,9.5-3.2c3-1.2,6.3-2.2,9.3-3.4
	c1.5-0.5,3-1.2,4.6-1.7c0.8-0.3,1.9-0.7,2.7-1c0.2-0.2,0.5-0.2,0.7-0.3l0.5-0.3l1.2-0.5c0.2,0,0,0,0-0.2l-0.2-0.2l-0.3-0.2l-0.5-0.5
	c-0.2-0.2-0.3-0.3-0.5-0.3c-0.2,0-0.3-0.2-0.5-0.2c-0.3-0.2-0.8-0.2-1.3-0.3h-1.5c-0.8,0-1.5-0.2-2.2-0.5c-0.2,0-0.3-0.2-0.5-0.3
	c-0.2-0.2-0.3-0.2-0.5-0.3c-0.2-0.2-0.3-0.2-0.3-0.3l-0.2-0.2c0-0.2-0.2-0.2-0.2-0.3c-0.2-0.3-0.3-0.7-0.7-0.7h-0.5
	c-0.2,0-0.3,0.2-0.5,0.2c-0.3,0.2-0.5,0.3-0.8,0.3c-0.2,0-0.5,0.2-0.7,0c-0.5,0-1-0.1-1.5-0.3c-0.5-0.2-1-0.5-1.5-0.7
	c-0.5-0.1-0.9-0.1-1.4,0.2l-1,0.5c-0.3,0.2-0.7,0.5-0.8,0.5s-0.2,0.2-0.3,0.2h-3.5c-1,0.1-2,0.1-3,0c-1,0-2-0.3-2.9-0.8l-0.3-0.2
	c-0.1-0.1-0.3-0.2-0.5-0.2c-0.3-0.1-0.6-0.2-0.8-0.2c-0.6,0-1.1,0-1.7,0.2c-1.8,0.3-3.6,0.8-5.4,1.3l-1.9,0.3l-4.1,1
	c-1,0.3-2,0.4-3,0.3h-1.2c-0.8,0-1.6,0.2-2.4,0.5c-1.2,0.6-2.3,1.2-3.4,2c-0.5,0.4-1.1,0.8-1.7,1.2c-0.2,0.2-0.3,0.2-0.5,0.3h-0.5
	c-0.2,0-0.3-0.2-0.7-0.2c-0.2,0-0.5-0.2-0.7-0.2c-0.5-0.2-0.8-0.2-1.3-0.3h-0.7c-0.2,0-0.5,0.2-0.7,0.2c-0.8,0.2-1.6,0.5-2.4,0.8
	c-1.5,0.5-2.7,1.2-3.9,1.7c-0.4,0.2-0.9,0.4-1.4,0.5c-0.2,0.2-0.3,0.2-0.5,0.3l-0.2,0.2l-0.2,0.2l0.2,0.2c0.2,0.3,0.3,0.3,0.3,0.5
	c0.1,0.1,0.1,0.2,0.2,0.3c0.2,0.2,0.4,0.5,0.5,0.8c0,0.2,0.2,0.2,0.3,0.3l4.1-0.5c0,0.2,0.2,0.3,0.2,0.5l-5.6,2.5
	c-0.2-0.5-0.5-0.9-0.8-1.3c0.2,0,0.2-0.2,0.3-0.2c0.2,0,0.3,0.2,0.5,0.2v-0.3h0.2v-0.3c0.2-0.2,0.3-0.2,0.5-0.3l0.3-0.2l-0.3-0.2
	c-0.2,0-0.3-0.2-0.5-0.2v-0.3h-0.2v-0.3l-0.7,0.3c-0.5-0.2-1-0.2-1.5,0c-0.8,0.1-1.5,0.4-2.2,0.7c-0.7,0.4-1.3,0.7-2,1
	c-0.2,0.2-0.5,0.2-0.8,0.3c-0.3,0.1-0.6,0.4-0.8,0.7c-0.2,0.4-0.3,0.8-0.3,1.2c0.1,0.5,0.3,0.9,0.7,1.2l0.2,0.2v0.7
	c0,0.2,0,0.4-0.2,0.5c0,0.2-0.2,0.3-0.3,0.5c-0.5,0.2-0.8,0.5-1.4,0.7c-0.5,0.2-1.1,0.5-1.5,0.8l-0.2,0.2c-0.2,0.2-0.3,0.2-0.7,0.3
	c-2,1-3.9,1.8-5.7,2.9l0,0c1.9-1.3,3.7-2.9,5.6-4.2h0.2l0.2-0.2l0.2-0.2v-0.2c-0.2-0.2-0.2-0.5-0.3-0.7l-0.2-0.3h-0.3
	c-0.2,0-0.2,0-0.3,0.2l0,0c-0.1,0-0.2,0.1-0.2,0.2c0,0,0,0,0,0c-1.5,0.2-2.9,0.7-4.2,1.3c-1.3,0.8-2.7,1.8-4.1,2.7
	c-1.3,1-2.5,1.8-3.7,2.9c-0.3,0.2-0.6,0.4-0.8,0.7l-0.2,0.2c-0.2,0-0.2,0.2-0.3,0.2c-0.2,0-0.2,0.2-0.2,0.3c0,0.2-0.2,0.2-0.2,0.3
	v1.3c0,0.5,0.2,1,0.2,1.3c0.3,0,0.7-0.2,1-0.2c0.3,0,0.7,0,1-0.2c0.5,0,1-0.2,1.5-0.2c0.5-0.1,1-0.3,1.5-0.5
	c0.5-0.2,0.8-0.3,1.4-0.5c1.5-0.7,3-1.3,4.4-2c-1.9,1.7-4.1,3.2-6.4,4.4c-0.9,0.6-1.7,1.2-2.5,1.8c-0.9,0.7-1.6,1.4-2.2,2.3
	l-0.2,0.2h-0.3c-0.3,0-0.6,0.1-0.8,0.2h-2.4c0.3-0.3,0.8-0.7,1-1.2c0.4-0.6,0.5-1.3,0.3-2c-0.1-0.7-0.4-1.3-0.8-1.8
	c-0.3-0.8-1.4-0.3-1.9-0.3h-0.7l0.2,0.7c0.2,0.5,0.2,1,0.3,1.5v0.5l0,0c-0.2,0-0.4,0-0.5,0.2l-0.7,0.2c-0.3,0-0.7,0.2-1,0.2
	c-0.7,0.1-1.3,0.4-1.9,0.8c-0.8,0.8-1.5,1.8-2,2.9c-0.2,0.2-0.2,0.5-0.3,0.7v0.5c0,0.2,0,0.2-0.2,0.3c0,0.2-0.2,0.2-0.3,0.2
	s-0.3,0.2-0.7,0.2c-0.2,0.2-0.5,0.2-0.7,0.3c-0.5,0.2-1,0.5-1.4,0.8c-0.9,0.6-1.7,1.4-2.4,2.2c-0.3,0.4-0.6,0.8-0.8,1.3
	c-0.3,0.4-0.5,0.9-0.7,1.3c-0.6,0.8-1.2,1.6-1.9,2.4c-1.6,1.4-2.9,3.2-3.9,5l-0.3,0.7c0,0.2-0.2,0.5-0.3,0.7
	c-0.2,0.4-0.5,0.8-0.8,1.2c-0.3,0.4-0.6,0.9-0.8,1.3c-0.2,0.2-0.2,0.5-0.3,0.7c0,0.1-0.1,0.2-0.2,0.3v0.5l-0.2,0.2l-0.2,0.2
	l-0.2,0.2c-0.5,0.2-0.7,0.5-1.2,0.7c-0.9,0.5-1.7,1.1-2.5,1.7c-0.5,0.3-0.8,0.5-1.4,0.8c-0.5,0.2,0,0.2,0.3,0.3l0.7,0.2
	c0.8,0.3,1.7,0.5,2.5,0.7h-0.2l-0.2,0.2c-0.2,0.2-0.5,0.3-0.7,0.5c-0.2,0.2-0.4,0.3-0.7,0.3l-0.3,0.2l-0.5,0.3
	c-0.7,0.4-1.3,0.8-1.9,1.3c-0.3,0.3-0.5,0.6-0.7,1l-0.2,0.2l-0.2,0.3c0,0.2-0.2,0.3-0.2,0.7c-0.1,0.4-0.3,0.8-0.5,1.2h0.7l0.8,0.2
	l0.8,0.2l0,0v0.7c0,0.2-0.2,0.7-0.2,1v1.3c0,0.2,0,0.4,0.2,0.5v0.5c0.1,0.7-0.1,1.4-0.3,2c-0.5,1.4-1.2,2.7-2,3.9l-1,2
	c-0.1,0.4-0.2,0.8-0.3,1.2c0,0.3-0.2,0.8-0.2,1v0.3c-0.1,0-0.2,0.1-0.2,0.2c0,0,0,0,0,0h-0.3c-0.2,0-0.2,0-0.3,0.2
	c-0.2,0.2-0.3,0.2-0.5,0.3c-0.3,0.3-0.6,0.7-0.7,1.2c-0.1,0.4-0.2,0.8-0.2,1.2v2.2c0,0.3,0,0.7-0.2,1c0,0.3-0.1,0.6-0.3,0.8
	c-0.8,1.1-1.5,2.3-2,3.5c-0.4,1.3-0.6,2.6-0.7,3.9v4.9c0,0.3,0,0.7,0.2,1c0.2,0.7,0.3,1.2,0.5,1.8c0.2,0.5,0.3,1.1,0.3,1.7
	c0,0.3,0,0.5-0.2,0.7l-0.3,0.8c-0.5,1.2-0.7,2.4-0.5,3.7c0,1.2,0.3,2.4,0.7,3.5c0.2,0.5,0.3,1.1,0.3,1.7c0.2,0.6,0.3,1.2,0.3,1.8
	v0.5l0,0c0,0.3,0,0.6,0.2,0.8c0,0.6,0.1,1.1,0.3,1.7c0.2,1.2,0.5,2.2,0.7,3.4c0.2,0.5,0.2,1,0.3,1.7c0,0.5,0.2,1,0.2,1.7
	c0,0.6,0,1.1,0.2,1.7c0,0.6,0.2,1.2,0.5,1.7l1,3c0.3,1,0.8,2,1.2,3s0.8,2,1.2,3l0.5,1.5l0.2,0.3v0.2l0,0v-2.7c0-0.5,0-1,0.2-1.5
	c0-0.2,0.1-0.5,0.2-0.7c0-0.2,0.1-0.5,0.2-0.7c1.4-6.6,5.3-12.3,10.8-16.1c-0.4,1.3-0.8,2.7-1,4c-1.2,4-0.3,8.4,2.4,11.6
	c6.6,6.3,16.7,6.8,24,1.3c5.4-4.9,10.6-10.1,15.9-15.2c0.8-0.8,1.7-1.3,2.9-2.4c-0.5,2-0.8,3.5-1.4,5.2c-1.1,4.9,2,9.8,7,10.9
	c0.4,0.1,0.8,0.1,1.2,0.2c7.1,0.2,11.3-4.7,15.6-9.4c2.9-3.2,5.2-6.5,8-10.1c0.3,0.3,0.5,0.5,0.5,0.7v0.7l0,0v0.7
	c0,1,0.2,1.8,0.2,2.7v0.3c0.3,2,1.1,3.8,2.4,5.4c0.2,0,0.2,0.2,0.3,0.2c1.4,1.4,3,2.6,4.7,3.5c7.4,3.1,15.7,3.4,23.3,0.8
	c0.8-0.2,1.6-0.5,2.4-0.8c0.4-0.2,0.8-0.5,1.2-0.8c0.4-0.3,0.7-0.7,0.8-1.2c0.3-0.9,0.5-1.9,0.5-2.9c-0.2-3.9-0.5-8.1-0.7-12.4
	c-0.2-2.2-0.3-4.4-0.3-6.5c-0.2-2.2-0.3-4.4-0.5-6.7c-0.2-2.2-0.5-4.5-0.7-6.7c-0.3-2.2-0.5-4.5-0.8-6.7c-0.3-2.2-0.7-4.5-1.2-6.7
	c-0.2-1.2-0.3-2.2-0.5-3.4c-0.2-1.2-0.2-2.2-0.3-3.4c-0.5-4.4-1.3-8.8-2.4-13.1c-0.7-2.5-1.2-4.7-1.9-6.9c-0.4-1-0.6-2.1-0.8-3.2
	c-0.6-1.1-1.2-2.2-2-3.2c-0.4-0.5-0.6-1.1-0.7-1.7v-0.5c0-0.1,0.1-0.2,0.2-0.3l0.3-0.8l1.5-3.4c1-2,2-4.7,3.2-7l1.5-3.5
	c0.2-0.5,0.5-1,0.8-1.3c0.3-0.3,0.6-0.6,0.8-1c0.1,0.4,0.3,0.8,0.5,1.2c1.5,3.5,3.4,7.5,5.4,11.9c0.3,0.5,0.5,1.2,0.8,1.7
	c0.2,0.3,0.3,0.5,0.5,0.8c0.2,0.3,0.5,0.5,0.8,0.7c0.4,0.1,0.8,0.2,1.2,0.2c0.3,0,0.7-0.2,1-0.2c0.7-0.2,1.2-0.5,1.9-0.7
	c0.7-0.2,1.2-0.5,1.9-0.7c0.6-0.2,1.2-0.1,1.7,0.3c0.4,0.5,0.7,1.1,0.8,1.7l0.5,2l1,4l0.5,2c0.2,0.7,0.5,1.3,0.7,2
	c0.8,2.7,1.7,5.5,2.7,8.2c0.5,1.3,0.8,2.7,1.3,4l0.3,0.8c0,0.1,0.1,0.2,0.2,0.3l-0.3,0.2c-0.7,0.2-1.2,0.3-1.9,0.5
	c-2.7,0.8-5.2,1.5-7.8,2.4c-1-2-1.9-4-2.9-5.9l-0.2-0.3l-0.3,0.2c-0.3,0.2-0.5,0.2-0.8,0.3l-0.3,0.2v0.3c0.5,3.2,1.2,6.4,1.7,9.2
	c0.7,0.2,1.5,0.2,2.2,0.3c3.9,0.7,7.8,1.2,11.8,1.8c0.7,0.2,1.2,0.2,1.9,0.3h0.7v-0.2l-0.2-1c-0.2-1.2-0.3-2.2-0.5-3.4l-1-6
	c-0.7-4-1.4-8.2-2-12.6c-0.3-2.2-0.7-4.4-1.2-6.5c-0.2-1.1-0.4-2.2-0.7-3.4c-0.3-1.2-0.7-2.2-1-3.2c-0.3-0.8-0.5-1.7-0.8-2.7
	c-0.3-0.9-0.5-1.9-0.7-2.9c0-0.5-0.2-1,0-1.3c0-0.2,0.2-0.3,0.2-0.7c0.2-0.2,0.2-0.5,0.3-0.7c0.5-1,0.8-2,1.4-3c1-2,2-4,3.2-6.2
	c0.6-1,1.2-2.1,1.9-3c0.5-0.7,1-1.5,1.5-2.2c2.4,4.7,4.9,9.6,7.4,14.4l0.5,1c0.2,0.4,0.5,0.7,0.8,1c0.4,0.3,0.9,0.5,1.3,0.5
	c0.5,0,0.9,0,1.4-0.2c1.4-0.5,2.8-1,4.2-1.3c2.7-1,5.6-1.8,8.3-2.9c0.9-0.3,1.7-0.7,2.5-1.2l1.3-0.7l0.8-0.3l0.5-0.2l0.2-0.2l0,0
	c0.5,2.5,0.2,2.2,0,1.8 M696.3,435c0.2-0.3,0.2-0.7,0.3-1s0.2-0.7,0.3-1c0.8-0.8,1.5-1.5,2.4-2.2c0.4-0.4,0.9-0.7,1.4-1l0,0v1.3l0,0
	c0,0.3-0.1,0.6-0.3,0.8c-0.3,0.6-0.7,1.1-1.2,1.5l-0.3,0.3l-0.5,0.3l-0.3,0.2l-0.3,0.2c-0.2,0.1-0.4,0.2-0.7,0.2
	c-0.2,0-0.2,0-0.3,0.2L696.3,435L696.3,435z M707.8,486.6c-0.2-0.2-0.3-0.3-0.3-0.5c-1.2,0.5-2.4,1.3-3.4,2.2
	c-4.5,3.9-9.7,6.9-15.4,8.7c-1.6,0.1-3.2,0-4.7-0.5c6.8-3.4,13-6.5,19.3-9.6c-0.2-0.3-0.2-0.5-0.3-0.8c-1.7-0.5-3.5-0.8-5.2-1.3
	c-0.3-0.2-0.5-0.2-0.8-0.3c-0.2,0-0.3-0.2-0.5-0.2c-0.2,0-0.2-0.2-0.3-0.2c-0.2-0.2-0.3-0.2-0.5-0.3c-0.1,0-0.2-0.1-0.2-0.2
	c0,0,0,0,0,0c-0.2-0.2-0.3-0.3-0.5-0.3l0,0l-0.5-0.5l0,0c-0.5-0.5-1-1-1.4-1.7l0,0c-0.2-0.4-0.4-0.9-0.5-1.3l0,0
	c-0.4-1.7-0.1-3.4,0.8-4.9c1.3-2.5,3.3-4.5,5.7-5.9c4.4-2.4,8.3,0.3,9,5.9c0.3,1.8,0,3.7,0.2,5.5c0.1,1.1,0.4,2.1,0.7,3.2
	c0.3,0.2,0.5,0.2,0.8,0.3C709,484.8,708.4,485.7,707.8,486.6 M742,406c0-0.2,0-0.2,0.2-0.3l0.2-0.2l0,0c0.2-0.2,0.5-0.5,0.7-0.5
	c-0.2-0.3,0.2-0.3,0.2-0.5c0-0.2,0-0.5,0.2-0.7c0.2-0.2,0.2-0.2,0.2-0.3l0.2-0.2l0,0l0.2-0.2l0.3-0.2h0.2l0.5,0.5v0.2h0.2l0.3,0.3
	c0,0.2,0.2,0.2,0.2,0.3c-0.1,0-0.2,0.1-0.3,0.2c0,0,0.2,0.2,0,0.2H745l-0.2,0.2c-0.5,0-0.7,0.3-1,0.3c-0.2,0-0.3,0.2-0.7,0.3
	c-0.3,0-0.5,0.3-0.7,0.3v0.2C742.3,406,742,406.1,742,406L742,406 M738.6,405.7L738.6,405.7c0.2-0.2,0.2-0.2,0.2-0.5l0,0V405h0.2
	c0.3,0.1,0.6,0.4,0.8,0.7v0.2l0,0l0.2,0.2c0,0.2,0,0.2,0.2,0.3c0.1,0.1,0.2,0.2,0.2,0.3l0,0c-0.2,0.2-0.2,0.3-0.3,0.5v0.2l0,0
	l-0.2,0.3l0,0v-0.2h-0.3c-0.3,0-0.5-0.1-0.7-0.3h-0.3l-0.2-0.2v-0.2l0,0c0-0.2,0.2-0.3,0.3-0.5c-0.2-0.2,0-0.3,0-0.5L738.6,405.7z
	 M779.2,464.4c0.5,1.7,1,4.2,1.2,4.7c1.5,6,2.7,11.7,3.7,16.6c0.5,2.5,1,4.9,1.4,7.2c0.3,2.2,0.8,4.5,1.2,6.7
	c-2.2-0.2-4.4-0.2-6.6-0.3h-0.5l-0.3-0.2h-3.2c-1-0.1-2-0.2-3-0.2c-0.8-0.2-0.3-0.2-0.8-0.2c-1.4-0.2-2.9-0.3-4.2-0.5
	c-0.8-0.2-1.7-0.3-2.5-0.3l0,0c-1.1-0.1-2.3-0.2-3.4-0.2c-3.4,0-6.4-0.2-8.3-0.2c-2.5,0.3-5.6,0.2-8.5,0.3c-3.4,0.2-7.4,0.5-10,0.7
	c-2.4,0.2-4.6,0.5-6.6,0.7c-1.7,0.2-3.2,0.5-4.6,0.7h-1c-0.8,0.2-1.7,0.3-2.5,0.3c-0.8,0.2-1.6,0.1-2.4-0.2c-0.2,0-0.3-0.2-0.5-0.2
	c-1-0.7-1.2-2-0.5-3.9c1.7-3.9,3.6-7.5,5.4-11.4c2-3.9,4.2-7.7,6.1-11.6c0.2-0.3,0.3-0.8,0.5-1.2v-0.2c0.5-1.7,0.8-3.5,1.4-5.2
	c0-0.2,0.2-0.3,0.2-0.7c0.1-0.5,0.4-1,0.7-1.5c0.4-0.8,1-1.4,1.7-1.8c0.8-0.5,1.6-0.9,2.5-1c0.8-0.2,1.9-0.3,2.7-0.5
	c1.8-0.3,3.6-0.8,5.4-1.3c0.9-0.4,1.8-0.6,2.7-0.8c0.5-0.2,1-0.2,1.5-0.3c1-0.4,2.1-0.7,3.2-0.8c1-0.2,2.2-0.5,3.6-0.7h2.2
	c0.8,0,1.6-0.1,2.4-0.3c1.5-0.4,2.9-1,4.2-1.8c1.2-0.6,2.4-1.4,3.6-2.2c0.7-0.3,1.2-0.7,1.9-1c0.6-0.4,1.3-0.6,2-0.8
	c0.7-0.2,1.3-0.5,2.2-0.7c0.7-0.2,1.2-0.3,1.9-0.5c0.1,0.3,0.2,0.5,0.2,0.8c0.8,3,2.4,7.9,3.4,12.1c0,0.6,0.1,1.2,0.3,1.8
	 M839.2,421.3c-0.5-0.5-1-0.9-1.5-1.3c0.5-0.3,1-0.8,1.5-1.2V421.3"/>
</svg>
