<?xml version="1.0" encoding="utf-8"?>
<!-- Generator: Adobe Illustrator 27.9.0, SVG Export Plug-In . SVG Version: 6.00 Build 0)  -->
<svg version="1.1" id="Layer_1" xmlns="http://www.w3.org/2000/svg" xmlns:xlink="http://www.w3.org/1999/xlink" x="0px" y="0px"
	 viewBox="0 0 1000 1000" style="enable-background:new 0 0 1000 1000;" xml:space="preserve">
<style type="text/css">
	.st0{fill:#006937;}
	.st1{fill-rule:evenodd;clip-rule:evenodd;fill:#263778;}
</style>
<g>
	<g>
		<g>
			<path class="st0" d="M183.6,544.8l-7,4.5l-6.3-7c4.2-2.3,8.5-4.7,12.6-7.1c7-4.1,13.9-8.4,20.9-12.4c-0.2-0.2-0.4-0.2-0.6-0.4
				c-12.5-7-25.3-13.9-38.9-18.6c-10.7-4.2-22.5-5.1-33.9-5.4l39.8,43.9c-0.2,0.2-1.5,1.1-3.7,2.4c-13.2,7.8-21.2,8.8-31.8,9.7
				c9.8,2,14,4.8,28.4,1.5c5.1-1.1,13.2-6.4,13.5-6.6l33.5,37l-2.1-56.6C199.9,534.6,191.7,539.6,183.6,544.8"/>
			<path class="st0" d="M162.5,498.7c15.8,3.5,30.5,10.4,45,17.5l-1.4-35.8L96.6,458.4c-0.9-0.2-1.4,0.8-0.8,1.5l34.8,38.4
				C141.2,496.4,151.9,496.3,162.5,498.7"/>
			<path class="st0" d="M330.3,458.3l-109.5,21.9l-1.4,35.8c14.4-7,29.2-14,45-17.5c10.6-2.3,21.3-2.2,31.9-0.3l34.8-38.4
				C331.7,459.3,331.2,458.2,330.3,458.3"/>
			<path class="st0" d="M224.5,473.4c0,0,3.9-14,0.2-28.3c3.2,2.6,7,6.4,10,11.5c4.2,7.1,5.3,12.6,5.3,12.6s1.7-8.3-1-15.8
				c-0.9-2.5-3.1-8.9-7.6-13.2c3.5,1.7,7.6,4,11.9,7.6c7.2,6,11.4,11.5,11.4,11.5s-1.4-9.3-6.6-16c-6-7.6-14.1-10.7-20-11.9
				c3.6-0.5,7.9-0.5,12.5,0.5c9.3,2.2,15.5,7,15.5,7s-5.5-8.8-14.7-12.8c-6.8-3-13.5-3-18.6-2.3c0.5-0.8,1-1.6,1.7-2.2
				c1.6-1.5,3.4-2.3,3.4-2.3s-3.9-1-7.2,0.3c-1.7,0.7-3.1,1.6-4.1,2.5c-0.2-0.9-0.3-1.9-0.5-2.9c-0.4-1.6-2.3-5.1-2.4-5.4
				c-0.2,0.3-2,3.7-2.5,5.4c-0.2,1.1-0.5,2-0.5,2.9c-1.1-0.9-2.4-1.9-4.1-2.5c-3.3-1.3-7.2-0.3-7.2-0.3s1.8,0.8,3.4,2.3
				c0.7,0.6,1.2,1.4,1.7,2.2c-5.2-0.8-11.9-0.8-18.6,2.3c-9.1,4-14.7,12.8-14.7,12.8s6.2-4.8,15.5-7c4.6-1.1,8.8-1.1,12.5-0.5
				c-5.8,1.3-14,4.3-20,11.9c-5.2,6.7-6.6,16-6.6,16s4.2-5.4,11.4-11.5c4.2-3.6,8.4-6,11.9-7.6c-4.5,4.2-6.7,10.7-7.6,13.2
				c-2.7,7.5-1,15.8-1,15.8s1.1-5.4,5.3-12.6c2.9-5.1,6.8-8.8,10-11.5c-3.9,14.2,0.2,28.3,0.2,28.3s2.4-10.8,6-20
				c1.5-3.9,3.3-6.8,5-9c1.7,2.2,3.5,5.1,5,9C222.1,462.6,224.5,473.4,224.5,473.4"/>
			<path class="st0" d="M223.6,522.3c-0.2,0.2-0.4,0.2-0.6,0.4c7,4.1,13.9,8.3,20.9,12.4c4.2,2.4,8.4,4.8,12.6,7.1l-6.3,7l-7-4.5
				c-8.1-5.1-16.2-10.2-24.4-15.1l-2.1,56.6l33.5-37c0.3,0.2,8.4,5.4,13.5,6.6c14.4,3.3,18.6,0.5,28.4-1.5
				c-10.7-0.8-18.7-1.9-31.8-9.7c-2.2-1.3-3.6-2.3-3.7-2.4l39.8-43.9c-11.4,0.4-23.1,1.2-33.9,5.4
				C248.9,508.5,236.1,515.3,223.6,522.3"/>
		</g>
		<polygon class="st0" points="375.3,472 417.9,472 417.9,486.2 375.3,486.2 375.3,500.4 417.9,500.4 417.9,528.7 403.6,542.9 
			361.1,542.9 361.1,528.7 403.6,528.7 403.6,514.5 361.1,514.5 361.1,486.2 		"/>
		<polygon class="st0" points="426.7,500.4 426.7,500.4 426.7,542.9 455.1,542.9 469.3,528.7 440.9,528.7 440.9,500.4 469.3,500.4 
			469.3,542.9 483.4,542.9 483.4,486.2 440.8,486.2 		"/>
		<polygon class="st0" points="660.7,486.2 646.5,500.4 646.5,542.9 674.9,542.9 689.1,528.7 660.7,528.7 660.7,500.4 689.1,500.4 
			689.1,542.9 703.2,542.9 703.2,486.2 		"/>
		<polygon class="st0" points="600.5,486.2 572,486.2 557.9,500.4 557.9,543 586.3,543 600.5,528.7 572,528.7 572,500.4 
			600.5,500.4 600.5,543 614.6,543 614.6,457.8 600.5,457.8 		"/>
		<polygon class="st0" points="534.8,528.7 506.5,528.7 506.5,486.2 492.3,486.2 492.3,543 534.8,543 549.1,528.7 549.1,528.7 
			549.1,486.2 534.8,486.2 		"/>
		<rect x="623.5" y="457.8" class="st0" width="14.2" height="14.2"/>
		<rect x="623.5" y="486.2" class="st0" width="14.2" height="56.7"/>
	</g>
	<path class="st1" d="M880.7,455.7L880.7,455.7c11,11.2,18.2,26.2,19.5,43c2.6,37.3-25.4,69.6-62.7,72.1
		c-17.5,1.2-33.9-4.3-46.6-14.4l-0.1,0.1c13.2,12.3,31.4,19.4,50.8,18c37.2-2.6,65.3-34.8,62.7-72.1
		C903,483.6,894,467.1,880.7,455.7 M761.1,532.7c-2.2,1.2-2.7,3-1.5,5.8c1,2.6,2.6,3.6,4.3,3c1.3-0.5,1.6-1.7,1-4.7l-0.2-1.2
		c-0.5-3-0.6-4.3-0.3-5.6c0.3-1.4,1.1-2.4,2.5-2.9c3.1-1.2,5.9,0.7,7.7,5c1.8,4.6,0.8,8.1-2.8,9.6l-0.9-2.3c2.6-1,3.2-3.5,1.8-6.9
		c-1-2.8-2.9-4-4.7-3.2c-1.5,0.6-1.8,1.9-1.3,5.1l0.2,1.3l0.2,1.1c0.4,2.3,0.5,3.2,0.2,4.1c-0.3,1.2-1,2.2-2.4,2.7
		c-2.9,1.1-5.6-0.5-7.2-4.4c-1.6-4.2-0.7-7.4,2.5-8.7L761.1,532.7z M759.1,508.2l10.2-8.6v3.2l-8.7,7.2l2.8,3.1l6.1-0.1v2.6
		l-17.4,0.4l-0.1-2.5l6.9-0.1h0.9h0.9l-0.6-0.6l-0.6-0.6l-7.7-8.4l-0.1-3.3L759.1,508.2z M766.8,481.2l6.7,2.4l-0.8,2.4l-6.8-2.4
		l-12,3.6l1-2.9l7.5-2l0.9-0.2c0.4-0.1,0.6-0.2,1.2-0.3c-0.6-0.7-0.7-0.8-1.3-1.7l-4.6-6.2l0.9-2.8L766.8,481.2z M778.6,449.2
		l-3.7,4.5l11,9l-2.7,3.2l-11-9l-3.7,4.5l-2.5-2l9.9-12.2L778.6,449.2z M802.1,432.7l-8.8,5.1l1.8,3.2l8.1-4.7l1.5,2.6l-8.1,4.7
		l2.2,3.7l8.9-5.2l1.6,2.8l-12.6,7.4l-8.8-15.1l12.4-7.3L802.1,432.7z M835.9,439.4l-4.5,0.3l-2.3-3.8l-7.1,1.1l-1,4.3l-4.3,1.1
		l4.6-19.1l4.3-0.7L835.9,439.4z M825.9,430.4c-0.9-1.5-1.3-2.3-1.8-3.6c-0.2,1.2-0.3,2.2-0.7,4l-0.7,3.4l5-0.8L825.9,430.4z
		 M863.8,445.1l-3.7-1.4l1.4-5.2c0.1-0.6,0.4-1.4,0.7-2.5c0.3-1.1,0.5-1.9,0.7-2.6c0.2-0.7,0.4-1.4,0.7-2.2l0.4-1.2
		c-1,1.7-1.4,2.4-2.4,3.8c-0.4,0.6-0.7,1.1-1,1.5l-4.9,7l-3.2-0.8l-1-8.3c-0.1-0.4-0.1-1-0.2-1.8c-0.1-1.1-0.1-1.9-0.1-2.5
		c0-0.5,0-1.1,0-2.2l-0.4,2.2c-0.5,2.3-0.7,3.3-1.4,6l-1.4,5.6l-3.9-0.6l4.4-17l5.8,1.1l0.8,8.1c0.2,1.8,0.2,3.5,0.2,5.7
		c0.6-1.3,0.9-1.7,1.6-2.9c0.5-0.8,0.9-1.4,1.3-2l4.6-6.6l5.5,1.8L863.8,445.1z M830.5,478.6c-2.2,1.8-6.2,5.8-10.3,9.7l-4.6,4.4
		c-3.7-0.6-7.4-1-11.3-1c-8.5,0-16.3,2.4-19.8,5.9c-1.3,1.4-2,2.9-1.9,4.5c0.1,4.1,4.8,6.1,6.2,6.8c7.6,2.8,13.8,1.9,20.5-2.7
		c3.7-2.6,8.1-6.7,11.6-10c2.7,0.6,5.7,1.4,9,2.4l3.1,0.9c-3.9,3.9-8,7.9-11.7,11.2l-0.3,0.3c-5.2,4.5-8.9,7.9-14.3,9
		c-3.8,0.8-6.6,0-7.4-0.5l-0.2,0.2c3.2,2.6,6,4,11.2,3.6c4.9-0.4,10.5-3.5,16.2-8.8l7.7-7.6l5.4-5.4l11,3.2l0.2,0.1l-6.8,6.6
		l-5.8,5.8c-5.9,5.8-9.2,8.8-12.7,11.3c-5.7,4.1-10.7,6.2-15.1,6.6c-2.3,0.1-5.5,0-8.2-1.5l-0.3,0.1c3,2.5,6.6,5.5,12.8,5.3
		c7.1-0.2,13.2-3.6,22.9-12.5c4.4-4.1,8.8-8.6,12.7-12.6l7.2-7.3c4.7,1,9,1.5,13.6,1.4c6.9-0.2,12.7-3.4,12.7-7.2
		c0.1-2.8-2.2-4.3-3.6-5.1c-1.1-0.7-4.2-2.5-8.4-2.5c-5.1,0-10.5,2.3-15.9,6.8l-3.6,3.2l-1.3-0.4l-10-2.9c3-2.8,5.4-5.1,7.8-7.2
		c5.5-4.9,11.6-6.9,15.1-7.1c2.6-0.2,7.1,0,8.9,1.3l0.2-0.2c-4.9-4.2-9.2-4.8-12.7-4.8c-3.5,0-9,1.1-15.9,6.4
		c-2.8,2.2-6.4,5.8-10.1,9.6l-5-1.5l-1.2-0.4l-5.3-1.6l3.1-2.9c3.6-3.5,7-6.9,9.6-9.1c9.6-8.1,15.7-9.1,19.9-9.2
		c4.6,0,8.3,0.9,10.9,2.9l0.2-0.2c-5.4-4.9-9.3-6.5-16-6.6C844.5,469.3,837.4,472.5,830.5,478.6 M792.7,507.5
		c-3.1-0.2-4.6-1.4-4.6-3.9c0-0.3,0.2-8,17.7-8.8c1.9-0.1,4.2-0.2,7.6,0.2l-1.9,1.7l-1.1,1C806.1,501.5,799.1,507.9,792.7,507.5
		 M863.4,501.3c5-3.4,9.2-5.2,11.8-5.1c1.5,0,3.4,0.5,3.4,2.5s-1.8,3.6-5.5,4.9c-3.2,1.1-8.1,1.4-13.4,0.8
		C861.2,502.9,862.4,502,863.4,501.3 M871,431.1c0.6-1.4,2.3-2.2,3.8-1.5c1.4,0.6,2.2,2.3,1.5,3.8c-0.6,1.4-2.3,2.2-3.8,1.4
		C871,434.2,870.4,432.6,871,431.1 M875.7,433.4c0.6-1.1,0.2-2.7-0.9-3.3c-1.2-0.6-2.7-0.2-3.3,0.9c-0.6,1.2-0.2,2.7,0.9,3.3
		C873.6,435,875.1,434.6,875.7,433.4 M874.1,434.2l-0.5-0.2l-0.1-1.7l-0.5-0.3l-0.7,1.2l-0.4-0.2l1.5-2.8l1.2,0.6
		c0.5,0.3,0.9,0.7,0.6,1.2c-0.3,0.5-0.8,0.5-1.3,0.3L874.1,434.2z M873.7,431.8c0.3,0.2,0.9,0.6,1.1,0.1c0.1-0.3-0.2-0.5-0.5-0.7
		l-0.7-0.4l-0.4,0.7L873.7,431.8z"/>
</g>
</svg>
