<svg width="114" height="108" viewBox="0 0 114 108" fill="none" xmlns="http://www.w3.org/2000/svg">
<path d="M30.3349 0.152244C30.2013 0.250129 29.9252 0.326262 29.7382 0.326262C29.3463 0.326262 29.2573 0.4459 29.3998 0.772184C29.4977 1.00058 29.5423 1.00058 30.4062 0.946202C30.896 0.902697 31.5105 0.848317 31.751 0.815688C32.1607 0.772184 32.1429 0.78306 31.5373 0.97883C30.7802 1.22898 30.7713 1.22898 30.8515 1.47913C30.896 1.60965 30.9762 1.64227 31.181 1.58789C31.3324 1.55527 31.5818 1.58789 31.751 1.6749C31.9113 1.76191 32.3566 1.8598 32.7396 1.9033C33.1315 1.94681 33.7193 2.04469 34.0577 2.1317C34.8504 2.31659 35.269 2.10995 34.8504 1.71841C34.7613 1.64227 34.6455 1.47913 34.5921 1.35949C34.503 1.1746 34.3962 1.14197 33.9241 1.14197C33.6124 1.14197 33.2651 1.07672 33.1671 1.01146C33.0602 0.935326 32.8109 0.848317 32.6149 0.804812C32.3388 0.750432 32.2676 0.696051 32.3032 0.554661C32.3655 0.239253 32.1429 0.130492 31.3502 0.0543592C30.7535 -2.14577e-05 30.5398 0.0217307 30.3349 0.152244Z" fill="#C6C6C6"/>
<path d="M35.9989 1.64223C35.7673 1.751 35.5892 2.22954 35.6604 2.56671C35.7317 2.88211 35.9989 2.98 36.3729 2.82773C36.5332 2.76248 36.9875 2.71897 37.3882 2.72985C38.1809 2.76248 38.4481 2.63196 38.2967 2.28393C38.2076 2.08816 37.7445 1.97939 36.8093 1.92501C36.5867 1.91414 36.4264 1.85976 36.4264 1.78362C36.4264 1.59873 36.2393 1.53347 35.9989 1.64223Z" fill="#C6C6C6"/>
<path d="M37.8605 3.36069C37.7892 3.50208 37.7892 3.66523 37.8516 3.861C37.9763 4.27429 37.9763 4.27429 37.5488 4.19816C37.2103 4.1329 37.1569 4.15466 37.1123 4.35043C37.0767 4.51357 36.9966 4.56795 36.7472 4.56795C36.578 4.56795 36.2395 4.62232 35.9902 4.68758C35.6339 4.77459 35.5003 4.76372 35.2777 4.6332C34.8858 4.38305 34.0041 4.4048 33.8705 4.65495C33.7903 4.82897 33.6122 4.87247 32.8641 4.93774C32.2673 4.98124 31.8666 5.06824 31.6795 5.19876C31.5192 5.29665 31.252 5.40541 31.0828 5.43803C30.6019 5.52505 30.7088 5.74257 31.4302 6.18849C31.7953 6.40601 32.0803 6.62354 32.0536 6.68879C32.0358 6.75405 31.7419 6.78667 31.35 6.76492C30.9848 6.74317 30.6197 6.73229 30.5484 6.74317C30.4772 6.75405 29.9428 6.7758 29.3639 6.79755C28.7939 6.80843 28.2952 6.85194 28.2684 6.88456C28.1705 7.0042 28.4109 7.38486 28.6069 7.4175C28.7316 7.43925 28.8206 7.548 28.8563 7.72202C28.9097 7.97218 28.9453 7.99393 29.3283 7.9613C29.5866 7.93954 29.827 7.98305 29.9873 8.09181C30.1209 8.1897 30.4594 8.36372 30.7266 8.48335C30.9938 8.60299 31.1986 8.70087 31.1719 8.70087C31.1452 8.71175 30.8245 8.71175 30.4594 8.71175C29.7023 8.71175 29.0522 8.61387 28.9809 8.47247C28.9542 8.4181 28.8028 8.37459 28.6514 8.37459C28.4911 8.37459 28.1616 8.2767 27.9033 8.15707C27.4045 7.92867 27.2086 8.01568 27.4669 8.36372C27.6628 8.62474 27.645 8.73351 27.4402 8.59212C27.173 8.42897 26.6208 8.45072 26.6831 8.63562C26.7633 8.87489 27.1195 9.01628 27.6272 8.98366C28.0369 8.96191 28.1616 8.99453 28.3664 9.21205C28.5 9.35345 28.5891 9.50571 28.5623 9.53834C28.5 9.60359 26.4961 9.16855 26.2111 9.02716C26.0953 8.97278 26.0063 8.83139 26.0063 8.71175C26.0063 8.35284 25.8192 7.97218 25.5877 7.84166C25.2492 7.65677 25.1513 7.70027 25.365 7.95042C25.5877 8.1897 25.552 8.37459 25.2938 8.37459C25.1958 8.37459 25.08 8.47247 25.0266 8.58124C24.9553 8.76614 24.9909 8.85314 25.2225 9.12505C25.3828 9.30994 25.5609 9.4622 25.6233 9.4622C25.8014 9.4622 26.0063 9.78849 26.0063 10.093C26.0152 10.2779 26.1488 10.5716 26.3536 10.8652L26.7009 11.3329L27.7697 11.3547C28.6603 11.3764 28.8741 11.409 29.0878 11.5831C29.2303 11.7027 29.4263 11.8441 29.5242 11.9093C29.6222 11.9746 29.7113 12.116 29.7291 12.2356C29.7736 12.5293 29.925 12.725 30.1655 12.8447C30.4683 12.9861 30.4148 13.1601 30.0764 13.1601C29.7558 13.1601 29.542 12.9534 29.4352 12.5184C29.3906 12.3553 29.2125 12.1812 28.883 11.9963C28.4377 11.7462 28.3308 11.7244 27.8855 11.8114C27.5292 11.8767 27.3778 11.9637 27.36 12.0942C27.3422 12.1921 27.4045 12.3009 27.5025 12.3444C27.645 12.3879 27.6895 12.5293 27.7163 12.9752C27.7608 13.5734 27.6895 13.7692 27.3867 13.9323C27.2888 13.9867 27.1106 14.1172 26.9859 14.2368C26.7811 14.4326 26.7098 14.4326 25.935 14.313C25.4808 14.2368 25.0622 14.1172 25.0088 14.0519C24.9464 13.9758 24.8306 13.9214 24.7416 13.9214C24.6525 13.9214 24.5813 13.867 24.5813 13.8127C24.5813 13.6713 24.8128 13.6713 25.0444 13.8235C25.1423 13.8888 25.4452 13.9758 25.7123 14.0193C26.2289 14.1063 26.2734 14.0737 26.692 13.2145C26.9058 12.7794 26.9147 12.7142 26.7722 12.5184C26.692 12.4096 26.6297 12.2574 26.6475 12.1704C26.6653 12.0942 26.5139 11.9311 26.318 11.8006C26.122 11.6701 25.8727 11.3982 25.7658 11.1915C25.6589 10.9849 25.4897 10.7238 25.4006 10.6042C25.3027 10.4846 25.2047 10.2562 25.1691 10.093C25.1423 9.94076 24.9108 9.58184 24.6614 9.30994C24.412 9.03803 24.2339 8.76614 24.2695 8.70087C24.3586 8.52686 24.1538 7.97218 23.9756 7.87429C23.8866 7.83079 23.4056 7.74377 22.898 7.67852C22.0875 7.56976 21.9539 7.56976 21.8025 7.72202C21.6511 7.87429 21.6422 7.92867 21.7402 8.1897C21.8916 8.60299 21.7402 8.98366 21.375 9.08154C21.0544 9.16855 21.0277 9.49483 21.3394 9.54922C21.5531 9.58184 21.8203 10.093 21.8203 10.4846C21.8203 10.8 22.043 10.9849 22.4259 10.9849C22.5684 10.9849 22.7555 11.0827 22.8445 11.2024C22.9336 11.322 23.0939 11.4199 23.2008 11.4199C23.4323 11.4199 23.6906 11.7353 23.6906 12.0072C23.6906 12.2247 23.6906 12.2247 22.5952 11.9202C22.2567 11.8223 21.9094 11.7027 21.8203 11.6374C21.4997 11.4199 21.473 11.5395 21.7313 12.0398C21.8827 12.3226 21.9984 12.638 21.9984 12.7359C21.9984 12.8556 21.8025 13.0622 21.4908 13.2797C20.8763 13.7148 20.3063 14.3238 20.3063 14.5414C20.3063 14.6392 20.4309 15.009 20.5734 15.3788C20.7248 15.7377 20.9208 16.3794 21.0188 16.8036C21.3928 18.3915 21.9984 21.8175 21.9984 22.3613C21.9984 22.742 22.043 22.9704 22.1409 23.0682C22.3636 23.2858 22.7555 24.0471 22.9247 24.5692C23.0583 24.9933 23.0583 25.0695 22.9336 25.2979C22.8534 25.4501 22.6219 25.6133 22.3636 25.7112C21.3038 26.0918 21.1791 26.342 21.6422 27.2229C22.0073 27.9299 22.5595 28.2562 23.0494 28.0821C23.2631 27.9951 23.5392 27.7667 23.7708 27.4622L24.1448 26.9728L24.3586 27.2338C24.5278 27.4405 24.5813 27.6254 24.5813 27.9625C24.5813 28.2127 24.6258 28.7347 24.6792 29.1154C24.7327 29.496 24.7505 30.0725 24.7148 30.3988C24.6614 30.9317 24.6169 31.0405 24.2784 31.3776L23.8955 31.7583L23.1919 31.3994C22.8 31.1927 22.2923 30.8991 22.043 30.7468C21.4017 30.3335 20.9119 30.2682 20.4844 30.5184L20.137 30.725L20.3152 31.0731C20.4666 31.3559 20.4755 31.4537 20.3864 31.6386C20.2617 31.867 19.9856 31.9432 19.0148 32.0411C18.3023 32.1172 18.1598 32.2368 17.857 32.9547C17.7413 33.2266 17.5453 33.5637 17.4206 33.716C17.2247 33.9335 17.1534 33.9553 17.0288 33.8465C16.7527 33.6072 16.6547 33.5855 16.5122 33.7269C16.4053 33.8356 16.3786 33.9988 16.4142 34.4012C16.4498 34.858 16.5033 34.9994 16.8239 35.3474C17.1713 35.7389 17.1891 35.7933 17.1891 36.3915C17.198 36.7939 17.2603 37.1746 17.3583 37.403L17.5186 37.7728L17.7056 37.4465C17.857 37.1855 17.9817 37.1093 18.3202 37.055C18.6497 37.0115 18.7833 36.9353 18.9703 36.6417L19.2108 36.2936L19.6116 36.522C19.95 36.7287 20.0391 36.7395 20.2973 36.6199C20.5556 36.5003 20.6002 36.5111 20.7159 36.696C20.7872 36.8266 20.8406 37.1637 20.8406 37.5335C20.8406 37.8815 20.8852 38.1969 20.9297 38.2296C21.1523 38.4036 20.9742 38.4471 20.5022 38.3492C20.2083 38.2948 19.9144 38.284 19.8342 38.3166C19.6472 38.4036 19.6383 38.893 19.8164 38.98C19.9945 39.0562 19.9856 39.3716 19.8075 39.3716C19.7363 39.3716 19.5938 39.3172 19.4958 39.2519C19.3622 39.1758 19.282 39.1758 19.193 39.2628C19.0238 39.4368 19.1752 39.8066 19.4156 39.8066C19.5047 39.8066 19.6027 39.9045 19.6383 40.0133C19.665 40.1329 19.7897 40.296 19.9055 40.3939C20.0302 40.4918 20.1281 40.6441 20.1281 40.7311C20.1281 40.829 20.2083 40.8942 20.333 40.8942C20.4577 40.8942 20.5645 40.9921 20.618 41.1335C20.6803 41.3075 20.7872 41.3837 20.9742 41.3837C21.2147 41.3945 21.2414 41.4272 21.3038 41.8731C21.3928 42.5148 21.7402 43.5154 21.8559 43.4719C21.9539 43.4284 21.9717 43.0912 21.9005 42.6888C21.8738 42.5365 21.9361 42.4495 22.1142 42.3734C22.3458 42.2755 22.3903 42.2973 22.7198 42.7758C22.9158 43.0586 23.1384 43.287 23.2008 43.287C23.2631 43.287 23.3878 43.3631 23.4591 43.461C23.5659 43.5915 23.5838 43.6785 23.5036 43.8525C23.4234 44.0374 23.3522 44.0592 23.085 44.0048C22.898 43.9613 22.5863 43.9069 22.3814 43.8743L21.9984 43.809V44.255C21.9984 44.6682 22.0163 44.7118 22.2745 44.777C22.6041 44.8531 22.6753 45.0272 22.5417 45.4622C22.4259 45.8864 22.4705 46.006 22.8534 46.3105C23.1741 46.5716 23.272 46.7782 23.4769 47.7244C23.7173 48.8338 23.7708 48.7794 22.3814 48.8121C21.2147 48.8447 21.1613 48.8338 20.9386 48.5837C20.5378 48.1377 20.2795 47.9637 19.9945 47.9637C19.6205 47.9637 19.3622 47.7136 19.2909 47.2894C19.1306 46.3323 19.1306 46.2235 19.2909 45.919C19.3889 45.7559 19.478 45.4513 19.5047 45.2447C19.5492 44.8858 19.567 44.864 19.8877 44.8749C20.4488 44.8966 20.2172 44.4072 19.5759 44.2223C19.4423 44.1897 19.193 43.9395 19.0148 43.6785C18.6675 43.1565 18.7388 43.1891 17.2158 42.9716C16.3964 42.8628 15.6305 42.4713 14.9803 41.8187C14.5973 41.438 14.1431 41.3184 14.0273 41.5468C13.9116 41.7643 13.4573 41.6556 13.1545 41.3293C12.6469 40.7855 11.9789 40.6115 11.6138 40.9377C11.4267 41.1118 11.4178 41.09 11.8631 41.4272C12.1214 41.6121 12.2194 41.7861 12.3173 42.1776C12.4777 42.8411 12.3975 43.0151 11.8186 43.3305C11.4445 43.5263 11.213 43.5698 10.5984 43.5589C10.1798 43.548 9.73453 43.4827 9.59203 43.4175C9.45844 43.3414 9.16453 43.2979 8.94188 43.3087C8.59453 43.3305 8.49656 43.287 8.33625 43.0477C8.09578 42.6888 7.73063 42.6018 6.32344 42.5909C5.33484 42.58 5.16563 42.6127 4.83609 42.8193C4.63125 42.9607 4.40859 43.1673 4.32844 43.2979C4.20375 43.5154 4.14141 43.5263 3.58922 43.4719C3.25078 43.4392 2.92125 43.3957 2.85 43.374C2.67188 43.3305 2.62734 43.7329 2.79656 43.8525C3.20625 44.1353 2.7075 44.3528 1.54078 44.3963C1.03313 44.4181 0.587813 44.4834 0.543281 44.5377C0.507656 44.603 0.445313 44.8314 0.418594 45.0598C0.365156 45.4622 0.374063 45.484 0.765938 45.6797C1.21125 45.919 1.27359 46.1909 0.970781 46.5607C0.846094 46.713 0.730313 46.7673 0.596719 46.713C0.115781 46.5281 0 46.5281 0 46.6803C0 46.9522 0.320625 47.2133 0.730313 47.2785C1.17563 47.3547 1.33594 47.4743 1.33594 47.7462C1.33594 47.855 1.41609 47.9637 1.52297 47.9963C1.68328 48.0507 1.69219 48.0834 1.59422 48.2791C1.49625 48.464 1.50516 48.5293 1.63875 48.7142C1.77234 48.8882 1.91484 48.9426 2.28 48.9426C2.7075 48.9426 2.77875 48.9752 2.95688 49.2689C3.135 49.5625 3.19734 49.5951 3.64266 49.5951C4.10578 49.5951 4.15031 49.5625 4.29281 49.2689C4.51547 48.7903 4.83609 48.7359 5.37938 49.1057C5.62875 49.2689 5.89594 49.4755 5.97609 49.5516C6.18984 49.7909 6.91125 49.6169 7.35656 49.2362C7.68609 48.9534 7.76625 48.9317 8.00672 49.0296C8.22047 49.1275 8.35406 49.1166 8.59453 48.9861C8.87063 48.8556 8.90625 48.8556 8.90625 48.9861C8.90625 49.0731 8.86172 49.1818 8.80828 49.2253C8.74594 49.2689 8.71922 49.7583 8.71922 50.5631C8.72813 52.2163 8.64797 53.2821 8.50547 53.5541C8.43422 53.6846 8.31844 54.0979 8.23828 54.4894C8.08688 55.2181 7.89984 55.7402 7.75734 55.8489C7.71281 55.8815 7.32094 55.8598 6.89344 55.7945C6.46594 55.7402 6.09188 55.7075 6.07406 55.7293C6.02953 55.7945 6.64406 57.3824 6.75094 57.4695C6.80438 57.5021 6.91125 57.7957 6.9825 58.1111C7.05375 58.4266 7.25859 58.8834 7.41891 59.1118C7.58813 59.351 7.73953 59.6447 7.75734 59.7643C7.81969 60.1232 8.08688 60.0906 8.28281 59.6882C8.4075 59.438 8.46094 59.1444 8.46094 58.6985C8.46094 58.3613 8.49656 58.0785 8.54109 58.0785C8.67469 58.0785 8.73703 58.4048 8.63906 58.6223C8.54109 58.8507 8.52328 59.5903 8.60344 59.8622C8.63016 59.9601 8.74594 60.0362 8.85281 60.0362C9.13781 60.0362 9.405 60.3081 9.75235 60.9389C9.92156 61.2544 10.2422 61.7982 10.4559 62.1571C10.6697 62.516 10.8745 62.9837 10.9013 63.2012C10.928 63.4078 11.0348 63.6797 11.1328 63.7885C11.2308 63.8973 11.3109 64.0495 11.3109 64.1365C11.3109 64.2127 11.4178 64.3323 11.5514 64.3976C12.1036 64.6477 12.6736 65.6157 12.7092 66.3444C12.7627 67.6713 12.825 67.9758 13.1634 68.6066C13.4217 69.0852 13.5553 69.2374 13.7513 69.2592C14.1431 69.3136 14.4994 69.8247 14.6241 70.4991C14.6864 70.8689 14.8022 71.1516 14.9358 71.2713C15.0427 71.38 15.1406 71.5323 15.1406 71.6084C15.1406 71.6846 15.3188 72 15.5414 72.3154C15.7641 72.6308 15.9422 72.9788 15.9422 73.0985C15.9422 73.2181 16.0402 73.3595 16.1559 73.4247C16.3697 73.5444 16.5656 73.9359 16.5656 74.2296C16.5656 74.3166 16.4855 74.4362 16.3875 74.5015C16.1559 74.6537 16.1559 75.0344 16.3964 75.5891C16.4944 75.8284 16.6013 76.2308 16.628 76.4809C16.6636 76.742 16.7348 77.0574 16.8061 77.1879C16.8863 77.3402 16.913 77.5468 16.8773 77.7861C16.8239 78.1124 16.8506 78.1885 17.0466 78.3408C17.3939 78.6235 17.7145 78.5692 18.712 78.0362C19.2197 77.7752 19.7273 77.5468 19.8431 77.5468C20.1103 77.5468 20.5913 77.2966 20.7427 77.0791C20.8317 76.9486 20.903 76.9269 21.0188 77.003C21.2236 77.1335 21.562 76.9921 21.8025 76.6658C22.0163 76.3939 23.2008 75.7087 23.468 75.6979C23.5659 75.6979 23.8598 75.5782 24.127 75.426L24.608 75.154L24.5634 74.6755C24.5189 74.2187 24.5278 74.1861 24.8663 73.9142C25.0622 73.7619 25.3917 73.5988 25.5877 73.5661C25.7925 73.5226 26.1131 73.403 26.3002 73.2834C26.5495 73.1311 26.6742 73.1093 26.7989 73.1963C27.0216 73.3377 27.3155 73.3377 27.3867 73.1963C27.4223 73.1311 27.3778 72.9571 27.2977 72.8048C27.0928 72.4133 27.1819 72.2501 27.6272 72.1631C28.0903 72.0652 28.2328 71.9456 28.2328 71.6302C28.2328 71.4888 28.402 71.1951 28.6336 70.9124C29.0255 70.4447 29.3016 69.7377 29.3016 69.2048C29.3016 69.0199 29.355 68.9547 29.5064 68.9547C29.738 68.9547 29.925 68.7698 29.925 68.5305C29.925 68.4435 30.0942 68.1607 30.2991 67.8997C30.6108 67.519 30.6642 67.3667 30.6731 66.9752C30.682 66.6272 30.6464 66.5075 30.5484 66.5075C30.3258 66.5075 29.9072 65.9202 29.9695 65.6809C30.0141 65.5287 29.9695 65.4525 29.7914 65.3655C29.6667 65.3111 29.4708 65.2568 29.3639 65.2568C28.9453 65.2568 28.5267 65.0066 28.0814 64.5063C27.6717 64.0495 27.6005 63.919 27.5559 63.4513C27.5203 63.1577 27.4223 62.8096 27.3244 62.6791C27.1641 62.4725 27.1641 62.4398 27.2977 62.342C27.3778 62.2876 27.4313 62.1571 27.4223 62.0483C27.3778 61.809 27.1641 61.7003 27.1641 61.9178C27.1641 62.0048 27.0483 62.2441 26.8969 62.4398C26.7544 62.6465 26.6297 62.864 26.6297 62.9293C26.6297 62.9945 26.5495 63.1359 26.4516 63.2447C26.3536 63.3534 26.2734 63.5275 26.2734 63.6253C26.2734 63.8973 25.8192 64.3649 25.3561 64.5607C24.9731 64.7238 24.9286 64.713 24.6792 64.5389C24.4655 64.3867 24.3853 64.3649 24.2963 64.4737C24.1716 64.626 23.9222 64.6477 23.7084 64.5063C23.6283 64.4519 23.4858 64.3758 23.3967 64.3432C23.2542 64.2888 23.2453 64.1909 23.2988 63.3643C23.3611 62.4398 23.3611 62.4398 23.1206 62.3093C22.9959 62.2332 22.8623 62.2115 22.8267 62.255C22.7911 62.2985 22.7733 62.6139 22.7822 62.9728C22.7911 63.3208 22.7644 63.6362 22.7198 63.6689C22.5863 63.7776 22.3369 63.3969 22.3903 63.1577C22.417 63.0054 22.3458 62.8423 22.1677 62.6356C21.9628 62.3963 21.8916 62.2115 21.8559 61.809C21.8292 61.4284 21.7669 61.2326 21.6155 61.1021C21.2147 60.7323 20.8406 60.1776 20.5913 59.5903C20.1459 58.5462 19.9856 58.2634 19.7897 58.1764C19.4958 58.035 19.5492 57.8827 20.0391 57.513C20.2884 57.3281 20.4844 57.1323 20.4844 57.0888C20.4844 56.9148 20.8317 56.9909 20.9208 57.1758C20.9831 57.3281 21.0277 57.3389 21.1345 57.2302C21.2592 57.0997 21.5531 57.154 21.5531 57.3063C21.5531 57.3389 21.7134 57.6326 21.9094 57.9371C22.0964 58.2525 22.3814 58.8616 22.5328 59.2966C22.6842 59.7317 22.8534 60.1232 22.9158 60.1667C22.9781 60.2102 23.1741 60.2537 23.3522 60.2537C23.5303 60.2537 23.6995 60.2973 23.7263 60.3516C23.8153 60.5148 24.7416 61.1238 24.9108 61.1238C24.9998 61.1238 25.2047 61.2217 25.365 61.3414C25.7658 61.635 25.8638 61.6241 26.2823 61.1565C26.603 60.8084 26.7009 60.754 27.0928 60.754C27.4847 60.754 27.5738 60.7976 27.7964 61.1021C27.9834 61.3522 28.0547 61.5698 28.0547 61.8417C28.0547 62.3746 28.4466 62.7988 28.9631 62.8205C29.5955 62.8531 30.7444 63.0815 31.1719 63.2664C31.6439 63.4731 31.92 63.4731 32.9977 63.2991C33.443 63.2229 33.9061 63.1686 34.0486 63.1794C34.1822 63.1794 34.5206 63.2012 34.8056 63.2121C35.1797 63.2338 35.3934 63.1903 35.5627 63.0489C36.008 62.69 36.48 62.8531 36.3731 63.3426C36.3286 63.5927 36.3553 63.6471 36.6403 63.7885C36.8541 63.8973 37.0144 64.093 37.1391 64.3867C37.237 64.626 37.4419 64.8979 37.5933 64.9957C37.7447 65.0828 38.0475 65.3655 38.2702 65.6048C38.6798 66.0725 39.2409 66.2791 39.615 66.116C39.9089 65.9855 39.9267 66.1921 39.6595 66.4531C39.4814 66.6163 39.3389 66.6707 39.143 66.6272C39.0005 66.5945 38.8134 66.6163 38.7422 66.6707C38.6353 66.7577 38.7689 66.9643 39.4458 67.7583C39.9 68.2912 40.3275 68.7371 40.3809 68.7371C40.4433 68.7371 40.6927 68.661 40.942 68.574C41.4497 68.3891 41.5922 68.1063 41.5298 67.4211C41.5031 67.171 41.5298 66.9969 41.6189 66.9099C41.7347 66.7903 41.7792 66.8447 41.9039 67.258C41.9841 67.519 42.0286 67.7909 41.993 67.8562C41.9663 67.9214 42.0197 68.1063 42.1177 68.2586C42.3403 68.6066 42.3581 68.9764 42.1711 69.3244C42.0019 69.629 42.0553 69.9226 42.5184 71.5105C42.7411 72.2827 42.8391 72.7831 42.8391 73.2181C42.8391 73.751 42.8747 73.8924 43.0973 74.1969C43.2309 74.3927 43.4803 74.8713 43.6406 75.2628C43.8009 75.6544 44.0325 76.1111 44.1572 76.2743C44.3888 76.5679 44.4244 76.7093 44.7005 78.6127C44.7539 78.9389 44.8608 79.1782 45.0745 79.4284C45.4486 79.8417 46.1344 81.7776 46.2056 82.5716C46.2323 82.9196 46.3125 83.1589 46.455 83.322C46.5708 83.4525 46.6688 83.6592 46.6688 83.7571C46.6688 84.0072 46.927 84.1812 47.3189 84.1812C47.595 84.1812 47.6395 84.1377 47.782 83.6918C47.8622 83.409 48.067 83.061 48.2363 82.8979C48.4144 82.7238 48.5391 82.5063 48.5391 82.3649C48.5391 82.2344 48.5836 82.093 48.6281 82.0604C48.6816 82.0169 48.6994 81.8973 48.6727 81.7776C48.6281 81.6145 48.6638 81.571 48.833 81.571C49.1803 81.571 49.2961 81.3099 49.1714 80.8205C49.0289 80.2115 49.0467 79.635 49.2605 78.8737C49.4119 78.3299 49.4297 78.1341 49.3495 77.8948C49.305 77.7317 49.2605 77.3728 49.2605 77.1009C49.2605 76.829 49.2159 76.3939 49.1625 76.1329C49.0022 75.4042 49.2694 74.8278 49.7681 74.8278C49.8928 74.8278 49.9552 74.7299 49.9997 74.4906C50.0442 74.1969 50.0798 74.1643 50.2669 74.2187C50.543 74.3057 50.8992 73.9577 51.0328 73.4682C51.0863 73.2616 51.2377 72.9897 51.3713 72.8592C51.5048 72.7395 51.6295 72.5329 51.6563 72.4024C51.683 72.261 51.7898 72.1522 51.8967 72.1305C52.0125 72.1087 52.1995 71.8803 52.3688 71.554C52.6627 70.9994 53.6869 69.8247 53.8739 69.8247C53.9363 69.8247 54.0788 69.7051 54.1945 69.5528C54.3727 69.3353 54.4172 69.1831 54.4172 68.7045C54.4172 68.2695 54.4617 68.0737 54.5775 67.9432C54.6666 67.8344 54.7734 67.7583 54.818 67.7583C54.8625 67.7583 54.9694 67.6713 55.0584 67.5734C55.2009 67.4211 55.2455 67.4102 55.2989 67.5299C55.3523 67.6386 55.4236 67.6495 55.5305 67.5625C55.6195 67.5081 55.8422 67.4864 56.0292 67.5081C56.4478 67.5843 56.8219 67.4755 56.8219 67.2797C56.8219 67.1818 56.8931 67.1492 57.0356 67.1818C57.1514 67.2145 57.2761 67.1818 57.3028 67.1166C57.3384 67.0513 57.4453 66.9969 57.5344 66.9969C57.6591 66.9969 57.7125 66.8991 57.7303 66.5945C57.7481 66.2682 57.7927 66.1812 57.9352 66.1812C58.2202 66.1812 58.5319 67.0948 58.5497 67.9649C58.5586 68.6175 58.5942 68.7371 58.9059 69.2266C59.093 69.5202 59.2622 69.7921 59.2711 69.803C59.2889 69.8247 59.4225 69.7595 59.5739 69.6507C59.9123 69.4115 60.2241 69.5528 60.4289 70.0314C60.5536 70.3359 60.5536 70.3686 60.3844 70.4773C60.037 70.7057 60.2508 71.2278 60.6159 71.0537C60.8475 70.945 61.1592 71.4344 61.3641 72.2284C61.5422 72.8809 61.5511 73.055 61.462 73.403C61.3284 73.9577 61.3373 74.4471 61.4888 74.5994C61.56 74.6755 61.845 74.7081 62.2102 74.6864C62.7445 74.6537 62.8425 74.6102 63.0117 74.3601C63.1097 74.1969 63.2611 74.0664 63.3502 74.0664C63.4659 74.0664 63.5016 73.9685 63.5016 73.6314C63.5016 73.0876 63.7153 72.9244 63.9647 73.2942C64.0538 73.4356 64.125 73.6205 64.125 73.7184C64.125 73.8163 64.2319 74.0229 64.3566 74.1861C64.5347 74.4145 64.6059 74.6429 64.6594 75.1758C64.695 75.5565 64.793 76.0568 64.882 76.296C64.98 76.5679 65.0156 76.8507 64.98 77.1009C64.9355 77.4272 64.9711 77.525 65.1581 77.7099C65.363 77.9166 65.3808 78.0036 65.3897 78.9172C65.4075 79.7982 65.4253 79.9178 65.5856 80.0048C65.8439 80.1353 65.8706 80.4725 65.648 80.6574C65.4075 80.864 65.3986 81.4513 65.6302 81.7994C65.7994 82.0495 65.7994 82.0604 65.5945 82.4954C65.452 82.8 65.3808 83.1371 65.363 83.5831C65.3452 84.2247 65.3452 84.2356 65.5767 84.203C65.7638 84.1812 65.9241 84.3118 66.3605 84.8556C66.6544 85.2362 66.9661 85.6821 67.0374 85.867C67.1086 86.0411 67.2778 86.3238 67.4025 86.4979C67.5895 86.7371 67.6519 86.9547 67.7142 87.6398C67.7588 88.0966 67.7855 88.5969 67.7855 88.7383C67.7766 88.8797 67.8923 89.1516 68.0349 89.3474C68.1774 89.5432 68.3822 90.0326 68.4891 90.435C68.6405 90.9788 68.7384 91.1855 68.9166 91.2834C69.0502 91.3595 69.3263 91.6205 69.5311 91.8707C69.7449 92.1208 70.1011 92.3927 70.3327 92.4906C70.7067 92.6429 70.7691 92.6429 70.9561 92.5015C71.1075 92.3818 71.1609 92.2296 71.1609 91.9468C71.1609 91.577 71.0719 91.4139 70.5909 90.9462C70.4752 90.8374 70.4484 90.5764 70.4484 89.6411C70.4484 88.6405 70.4128 88.4012 70.2347 87.9118C70.11 87.6072 69.9141 87.2701 69.7983 87.1722C69.6736 87.0743 69.5578 86.9003 69.5311 86.7915C69.5044 86.661 69.4064 86.574 69.3084 86.574C69.1927 86.574 69.0947 86.4652 69.0413 86.2586C68.97 86.0302 68.8631 85.9105 68.6049 85.8127C68.0349 85.606 67.8834 85.4755 67.7231 85.0622C67.643 84.8447 67.4559 84.4314 67.3045 84.1486C67.162 83.8658 67.0106 83.4743 66.9839 83.2785C66.9394 83.0392 66.8592 82.9196 66.7167 82.8761C66.5653 82.8326 66.4584 82.6695 66.3427 82.2997C66.1467 81.6906 66.2002 81.2773 66.5742 80.4072C66.7613 79.9831 66.7969 79.7547 66.7969 78.9498C66.7969 78.0906 66.8147 77.9818 66.9928 77.8296C67.0997 77.7317 67.2867 77.6556 67.3936 77.6556C67.5806 77.6556 67.5984 77.6991 67.5806 78.1124L67.5539 78.5692L67.9903 78.6562C68.2931 78.7105 68.498 78.8193 68.6405 79.0042C68.7563 79.1565 68.9433 79.287 69.0591 79.287C69.1927 79.287 69.2995 79.3849 69.3619 79.5589C69.4153 79.7111 69.5044 79.8308 69.5578 79.8308C69.6023 79.8308 69.6469 80.0266 69.6469 80.2658C69.6469 80.6139 69.6825 80.7009 69.8072 80.7009C69.8963 80.7009 70.0388 80.8423 70.1189 81.0272C70.2436 81.2773 70.3416 81.3534 70.5642 81.3534C70.7602 81.3643 70.9561 81.484 71.1788 81.7232C71.4994 82.0604 71.5083 82.093 71.4103 82.4628C71.2856 82.974 71.3836 83.6374 71.5884 83.6374C71.7933 83.6374 71.918 83.5178 72.0427 83.2241C72.0961 83.0936 72.203 82.9849 72.2742 82.9849C72.4345 82.9849 73.1203 81.9299 73.1203 81.6797C73.1203 81.4078 73.2806 81.2882 73.7348 81.2012C74.2692 81.1033 74.3761 81.0163 74.8036 80.342C75.1688 79.7547 75.1688 79.7329 75.1866 78.8411C75.1955 77.7317 75.1064 77.1444 74.8927 76.7963C74.7947 76.655 74.7234 76.4157 74.7234 76.2743C74.7234 75.9698 74.5275 75.4695 74.3316 75.2737C74.2514 75.1867 74.1891 75.0127 74.1891 74.8604C74.1891 74.6755 74.1 74.545 73.913 74.4145C73.7616 74.3166 73.4677 74.0664 73.2628 73.8707C73.0669 73.6749 72.7997 73.4356 72.6839 73.3269C72.203 72.8918 71.9625 72.5547 71.9625 72.2827C71.9625 72.0761 71.918 72 71.7844 72C71.6864 72 71.6063 71.9565 71.6063 71.9021C71.6063 71.8477 71.535 71.7172 71.4548 71.6193C71.3747 71.5105 71.2767 71.1408 71.2322 70.7818C71.1609 70.151 71.1699 70.1075 71.4281 69.7486C71.6152 69.4985 71.6953 69.2701 71.6953 69.009C71.6953 68.6936 71.7309 68.6284 71.8913 68.6284C71.9981 68.6284 72.1852 68.5087 72.3099 68.3673C72.6483 67.9976 73.2628 67.7257 73.4766 67.867C73.5656 67.9214 73.7348 67.9649 73.8506 67.9432C74.0377 67.9214 74.0555 67.954 74.0288 68.3238C74.002 68.7154 74.1267 69.1504 74.3138 69.3027C74.4741 69.4332 74.8748 69.4006 74.9817 69.2374C75.0441 69.1504 75.0619 68.9003 75.0263 68.5957C74.9461 67.8997 75.0619 67.7583 75.6942 67.7583C75.997 67.7583 76.3444 67.6713 76.5849 67.5408C76.7986 67.4211 77.0213 67.3232 77.0925 67.3232C77.1549 67.3232 77.2795 67.2036 77.3597 67.0513C77.4844 66.8229 77.5467 66.7903 77.8763 66.8447C78.2681 66.9099 78.6244 66.7577 79.0786 66.3335C79.1944 66.2139 79.4259 66.1269 79.5952 66.1269C79.8267 66.1269 79.9158 66.0725 79.9692 65.8767C80.0138 65.7462 80.2542 65.4308 80.5036 65.1698C80.753 64.9087 80.9578 64.626 80.9578 64.5389C80.9578 64.4519 81.1003 64.2779 81.2695 64.1583C81.4833 63.9951 81.5813 63.8537 81.5813 63.6689C81.5813 63.5166 81.6703 63.3426 81.795 63.2447C81.9999 63.0815 82.0088 63.0054 82.0177 62.0483C82.0177 61.3849 82.0622 60.9172 82.1423 60.7214C82.2136 60.5583 82.2938 60.2755 82.3294 60.1124C82.365 59.9275 82.4719 59.7752 82.6055 59.7099C82.7213 59.6556 82.8459 59.4924 82.8638 59.3619C82.9439 58.8616 83.0063 57.6652 82.9528 57.5021C82.9172 57.3933 82.7123 57.3172 82.2849 57.2628C81.608 57.1758 81.5278 57.0344 82.0355 56.8278C82.267 56.7299 82.3472 56.632 82.365 56.4036C82.3828 56.2405 82.3561 56.0447 82.3116 55.9794C82.267 55.9033 82.2047 55.6314 82.1691 55.3704C82.0889 54.7395 81.9731 54.4894 81.7505 54.4894C81.323 54.4894 80.8688 54.0326 80.5481 53.2821C80.1384 52.325 79.7198 51.7486 79.2745 51.4985C78.7045 51.1939 78.7045 51.1178 79.3814 49.6604C79.5417 49.3015 79.6486 49.2145 79.9781 49.1166C80.2809 49.0296 80.4056 48.9208 80.4947 48.6924C80.6817 48.2139 80.5749 48.029 80.1652 48.116C79.9336 48.1595 79.7288 48.1269 79.5684 48.0181C79.0875 47.7136 78.3483 47.8658 78.2592 48.2791C78.2325 48.4096 78.1524 48.5075 78.0722 48.5075C77.8941 48.5075 77.2439 47.8006 77.1727 47.5178C77.137 47.3764 77.0302 47.3111 76.852 47.3111C76.5314 47.3111 75.7922 46.626 75.7922 46.3323C75.7922 46.18 75.8813 46.1474 76.3444 46.1365C76.7184 46.1256 76.9322 46.0713 77.0302 45.9516C77.1638 45.7885 77.1638 45.7667 77.0213 45.6362C76.7986 45.4405 76.8164 45.3208 77.1192 45.0489C77.2617 44.9184 77.422 44.6574 77.4755 44.4616C77.5556 44.1571 77.6447 44.0701 77.9742 43.9504C78.4284 43.7873 78.5531 43.8525 78.7758 44.3746C78.8827 44.6356 78.8827 44.7009 78.7224 45.0272C78.5709 45.3208 78.5531 45.4296 78.6422 45.6906C78.7045 45.8537 78.7224 46.1365 78.6867 46.3214C78.5888 46.8979 78.9005 46.7456 79.3547 45.9951C79.4438 45.8429 79.7109 45.6253 79.9514 45.5166C80.3255 45.3426 80.4413 45.3317 81.0469 45.4513C81.412 45.5275 81.7772 45.6362 81.8574 45.6906C82.0711 45.8211 82.1334 46.2562 82.0266 46.8C81.9553 47.1263 81.9553 47.3547 82.0177 47.5613C82.1067 47.855 82.1334 47.8658 82.7123 47.8441C83.4694 47.8115 83.8434 47.9963 83.8791 48.4423C83.8969 48.6163 83.8702 48.8012 83.8167 48.8664C83.6386 49.084 83.7099 49.4646 83.977 49.693C84.2442 49.9323 84.4313 50.5631 84.4313 51.2592C84.4313 52.1728 84.6895 52.7492 85.0992 52.7492C85.3753 52.7492 85.4377 52.6187 85.3219 52.2598C85.117 51.6072 85.402 51.3462 86.4352 51.2374C86.9874 51.1831 87.0675 51.1395 87.1655 50.9003C87.308 50.5196 87.1833 49.867 86.8894 49.4972C86.7647 49.3341 86.6578 49.1275 86.6578 49.0405C86.6578 48.9534 86.2036 48.3335 85.6514 47.6592C84.8855 46.7347 84.5827 46.4411 84.4045 46.4411C84.1463 46.4411 84.0216 46.267 84.0572 45.9734C84.075 45.8537 84.0305 45.7885 83.9058 45.7885C83.8078 45.7885 83.6742 45.6797 83.6208 45.5492C83.5317 45.3426 83.5406 45.2882 83.7188 45.1468C83.8345 45.0489 84.0572 44.8205 84.2175 44.6247C84.5738 44.2223 84.6183 43.7438 84.3422 43.2326C84.1284 42.8411 84.1195 42.5692 84.3066 42.4821C84.3867 42.4386 84.4313 42.3408 84.3956 42.2537C84.3689 42.1667 84.3956 42.0906 84.458 42.0906C84.5203 42.0906 84.6094 41.9383 84.6539 41.7426C84.7074 41.5577 84.8231 41.3402 84.9211 41.264C85.0725 41.1444 85.1527 41.1661 85.4911 41.438C86.1234 41.9601 86.5599 41.8731 87.2456 41.09C87.495 40.8072 87.5217 40.7202 87.4861 40.3069C87.4505 39.9915 87.4861 39.7522 87.5752 39.5782C87.6464 39.4368 87.7355 39.1432 87.7711 38.9365C87.7978 38.7299 87.8958 38.3492 87.967 38.0882C88.0828 37.6966 88.0917 37.5118 88.0027 36.8701C87.8602 35.8151 87.878 35.5649 88.1006 35.2713C88.2609 35.0537 88.2788 34.9776 88.1897 34.8253C88.1363 34.7275 87.9581 34.325 87.8156 33.9335C87.6642 33.542 87.4059 33.0525 87.2456 32.8459C86.8805 32.3891 86.7024 31.9649 86.5599 31.258C86.4886 30.8773 86.355 30.6054 86.0878 30.29C85.8919 30.0507 85.5891 29.6266 85.4377 29.3329C85.2595 29.0284 85.0814 28.8217 84.9834 28.8217C84.8855 28.8217 84.6806 28.713 84.5114 28.5716C84.1552 28.2779 83.1399 27.8646 82.837 27.8864C82.6322 27.8972 82.5342 28.0278 82.4363 28.4084C82.365 28.713 82.0889 28.6368 81.9197 28.2779C81.795 28.0169 81.7059 27.9516 81.4655 27.9516C81.2517 27.9516 81.1003 27.8646 80.9133 27.6254C80.6728 27.3208 80.6105 27.2991 80.0405 27.2991C79.4438 27.2991 79.4259 27.2882 79.4794 27.0489C79.5061 26.9184 79.5328 26.7226 79.5328 26.6247C79.5328 26.5051 79.6575 26.3637 79.8445 26.2767C80.0761 26.1571 80.1563 26.0483 80.1563 25.8634C80.1563 25.722 80.1919 25.548 80.2364 25.461C80.2898 25.3631 80.2809 25.2326 80.2275 25.1238C80.0939 24.8737 80.2008 24.58 80.4234 24.58C80.5392 24.58 80.6016 24.5039 80.6016 24.3625C80.6016 24.2429 80.6461 24.0471 80.7084 23.9275C80.7886 23.7643 80.7886 23.6664 80.6995 23.4598C80.6016 23.2423 80.6105 23.1335 80.753 22.7746L80.9133 22.3504H82.1602C82.8459 22.3395 83.4605 22.3069 83.5228 22.2525C83.5852 22.209 83.7188 22.209 83.8345 22.2634C83.9414 22.3069 84.2353 22.3504 84.4758 22.3613C84.7252 22.3722 85.0013 22.3939 85.0992 22.4157C85.2417 22.4483 85.2684 22.4048 85.2506 22.2308C85.2417 22.1003 85.2863 21.9371 85.3575 21.8719C85.4733 21.7522 85.5534 21.774 85.8028 21.9698C86.0611 22.1547 86.1947 22.1873 86.5331 22.122C86.9963 22.035 87.2189 22.2199 87.1299 22.6223C87.0853 22.8181 87.1299 22.8399 87.495 22.8399C87.7266 22.8399 87.9849 22.7963 88.0739 22.742C88.163 22.6767 88.2788 22.6767 88.35 22.7311C88.4391 22.7963 88.537 22.7746 88.635 22.655C88.733 22.5571 88.9824 22.4809 89.303 22.4701C89.7038 22.4592 89.8284 22.4157 89.8463 22.2743C89.873 22.0894 89.6681 22.0024 88.9734 21.948C88.7063 21.9154 88.6617 21.8719 88.635 21.6108C88.6172 21.4368 88.6528 21.2302 88.7241 21.1323C88.7953 21.0235 88.8309 20.7299 88.8042 20.2731L88.7775 19.577H89.2139C89.4455 19.5879 89.873 19.5553 90.1491 19.5117C90.6478 19.4465 90.6567 19.4574 91.0308 19.8924C91.2445 20.1426 91.5028 20.3383 91.6097 20.3383C91.7166 20.3383 91.8234 20.4145 91.8591 20.5015C91.9392 20.7734 92.2598 20.6973 92.3756 20.3601C92.438 20.1969 92.5538 19.9468 92.6428 19.8054C92.8655 19.4465 92.8477 19.3921 92.4469 19.142C92.2509 19.0223 92.0906 18.8809 92.0906 18.8266C92.0906 18.7178 92.7853 18.5655 92.9011 18.6634C92.9456 18.696 93.1416 18.9788 93.3375 19.2834C93.5334 19.5988 93.7828 19.9794 93.8897 20.1426L94.0856 20.4471L93.8808 20.7081C93.6314 21.0235 93.5245 21.6326 93.5156 22.655C93.5156 23.5686 93.4177 23.8187 93.0703 23.8187C92.7764 23.8187 92.7586 23.8513 92.8922 24.145C92.9456 24.2646 92.9991 24.5692 93.008 24.8193C93.0436 25.4936 93.6759 26.4398 94.9584 27.6906C95.5374 28.2562 96.0984 28.887 96.2053 29.0936C96.3211 29.3003 96.6595 29.6374 96.9802 29.855C97.3097 30.0942 97.8441 30.6272 98.2538 31.1492C99.0553 32.1607 99.1533 32.1498 99.1088 31.0405C99.082 30.5184 99.0197 30.29 98.8327 29.9855C98.6991 29.7679 98.5922 29.5722 98.5922 29.5395C98.5922 29.5178 98.6991 29.4743 98.8416 29.4525C99.1978 29.409 99.2245 28.9087 98.895 28.4846C98.5833 28.0821 98.6545 27.8646 99.1444 27.8211C99.6431 27.7776 99.7055 27.4948 99.2869 27.2338C99.1266 27.1359 98.8059 26.8531 98.5744 26.603C98.1291 26.1462 98.138 25.9939 98.6189 25.9939C98.7614 25.9939 98.8861 25.9178 98.9217 25.8199C98.993 25.5915 98.5299 25.1347 98.2181 25.1238C98.0578 25.1238 97.9153 25.0151 97.7728 24.7867C97.3097 24.0253 96.9891 23.6882 96.802 23.7426C96.3923 23.8731 95.7422 23.3293 95.7422 22.8507C95.7422 22.6985 95.6264 22.4374 95.475 22.2417C95.1633 21.8501 95.1811 21.4586 95.5106 21.5891C95.9649 21.774 96.143 21.7087 96.232 21.3389C96.3389 20.893 96.615 20.893 96.7931 21.3389C96.9534 21.7522 97.1227 21.7196 97.3186 21.2302C97.4433 20.9257 97.5413 20.8169 97.7372 20.7951C98.2359 20.719 98.7703 20.893 99.0642 21.1976C99.367 21.513 99.8836 21.7087 99.9727 21.5347C99.9994 21.4803 99.9638 21.2846 99.8836 21.0997C99.7589 20.806 99.7589 20.7625 99.8836 20.7081C99.9548 20.6755 100.017 20.5232 100.017 20.371C100.017 19.925 100.178 19.6858 100.471 19.6858C100.667 19.6858 100.756 19.6205 100.819 19.4247C100.863 19.2725 100.979 19.0985 101.086 19.0332C101.184 18.9679 101.264 18.8157 101.264 18.7069C101.264 18.4785 101.478 18.4133 101.576 18.5982C101.603 18.6525 101.816 18.7069 102.048 18.7069C102.279 18.7069 102.6 18.7504 102.751 18.8048C102.912 18.8592 103.152 18.8701 103.286 18.8266C103.526 18.7504 103.482 18.696 102.333 17.6519C100.908 16.3577 98.1647 14.0846 96.0539 12.4531L94.5399 11.2785L93.5156 11.2676C92.6874 11.2568 92.4291 11.2133 92.1797 11.0501C91.8413 10.8217 91.1377 10.8 90.2559 10.9631C89.9442 11.0284 89.677 11.0066 89.4188 10.9196C88.92 10.7347 87.967 10.6912 87.9314 10.8435C87.8691 11.0501 88.2877 11.3111 88.6617 11.3111C89.0803 11.3111 89.4188 11.5613 89.4188 11.8658C89.4188 12.1377 89.1159 12.1377 88.6617 11.855C88.4658 11.7353 88.1541 11.6374 87.967 11.6374C87.78 11.6374 87.4683 11.5287 87.2724 11.3873C86.9695 11.1806 86.925 11.1154 86.9784 10.8543C87.023 10.5933 87.0052 10.5607 86.8627 10.626C86.7736 10.6586 86.5866 10.8108 86.453 10.9522C86.1502 11.2459 86.1324 11.2459 84.5738 11.0284C83.6653 10.8979 83.2823 10.887 83.0775 10.974C82.9261 11.0392 82.5431 11.0936 82.2403 11.0936C81.7238 11.0936 81.6436 11.061 81.3408 10.7238C80.8598 10.2127 80.7441 10.1583 79.613 9.86462C78.2592 9.50571 76.5759 9.40782 76.0416 9.63622C75.5784 9.84287 75.0173 9.78849 74.4563 9.47308C74.2336 9.35345 73.913 9.24468 73.7438 9.24468C73.5745 9.24468 73.2005 9.16855 72.9244 9.09241C72.6483 9.00541 72.3989 8.96191 72.3722 8.99453C72.3544 9.02716 72.2831 9.01628 72.2297 8.97278C72.1584 8.9184 72.1584 8.85314 72.2386 8.74438C72.292 8.65737 72.3277 8.57036 72.3099 8.54861C72.292 8.51598 71.9714 8.45072 71.5974 8.38547C71.2322 8.32021 70.8581 8.24408 70.778 8.20058C70.6622 8.14619 70.5909 8.2332 70.493 8.52686C70.3327 8.98366 70.0477 9.08154 70.11 8.64649C70.1813 8.21145 69.9853 8.11356 68.9522 8.08093C68.4267 8.05918 67.5628 7.97218 67.0195 7.87429C66.0933 7.72202 66.0309 7.72202 65.9241 7.90692C65.8617 8.01568 65.737 8.09181 65.6391 8.07006C65.55 8.04831 65.452 8.09181 65.4164 8.15707C65.3273 8.34196 65.5411 8.59212 65.7994 8.59212C65.9241 8.59212 66.1111 8.71175 66.2269 8.87489L66.4406 9.1468L65.1314 9.11417C64.4011 9.10329 63.5906 9.12505 63.3234 9.17943C62.8781 9.25556 62.7713 9.24468 62.3616 8.98366C62.1122 8.83139 61.8806 8.70087 61.8539 8.70087C61.7559 8.70087 61.8183 8.96191 61.9608 9.15768C62.0855 9.33169 62.0944 9.3752 61.9786 9.51659C61.7916 9.74499 60.6516 9.56009 60.3309 9.25556C60.1973 9.13592 60.0281 9.02716 59.9569 9.02716C59.8767 9.02716 59.5561 8.86402 59.2355 8.66825C58.7545 8.38547 58.5497 8.32021 58.0955 8.33109C57.4008 8.34196 57.2583 8.12444 57.8016 7.86341C58.327 7.61327 58.2469 7.36311 57.6234 7.2761C57.3563 7.24348 57.0623 7.17822 56.9822 7.13471C56.902 7.09121 56.7328 7.12383 56.5992 7.19997C56.4033 7.33048 56.2697 7.3196 55.5483 7.10208C54.7823 6.86281 54.3281 6.85194 54.3281 7.04771C54.3281 7.16734 54.9159 7.5045 55.1119 7.5045C55.3078 7.5045 55.6463 7.78728 55.5661 7.87429C55.5394 7.91779 55.2989 7.87429 55.0317 7.79816C54.7645 7.71115 54.0164 7.64589 53.3663 7.63502C52.2441 7.61327 52.155 7.59151 51.6474 7.28698C51.1486 6.99332 51.0506 6.97157 49.9373 6.94982C49.1714 6.93894 48.6816 6.97157 48.5569 7.05858C48.3877 7.16734 48.3164 7.14559 48.0581 6.90631C47.7197 6.5909 47.6217 6.56915 47.4703 6.79755C47.3189 7.02595 46.9983 7.0042 46.7311 6.74317C46.4372 6.4604 45.6891 6.5474 45.6891 6.86281C45.6891 6.96069 45.7603 7.08033 45.8494 7.10208C45.9473 7.13471 45.9206 7.15646 45.7692 7.16734C45.6356 7.16734 45.3595 7.25435 45.1547 7.34136C44.6025 7.58064 44.4244 7.55888 44.46 7.26523C44.4778 7.12383 44.558 7.0042 44.6648 6.98244C44.7628 6.96069 44.9677 6.79755 45.1102 6.62354C45.2616 6.4604 45.5198 6.25375 45.6891 6.17761C46.4016 5.88396 46.7578 5.47066 46.4817 5.27489C46.4372 5.23139 46.357 5.07912 46.3125 4.94861C46.2502 4.75284 46.1433 4.6767 45.8939 4.62232C45.7069 4.5897 45.2348 4.43743 44.843 4.29604C44.0681 3.99151 43.4536 3.95889 42.4383 4.14378C41.3695 4.33955 41.3695 4.33955 41.3963 3.98064C41.4319 3.66523 41.4319 3.66523 41.0311 3.73048C40.4611 3.82837 39.9891 3.70872 39.9089 3.4477C39.8466 3.25193 39.7397 3.23018 38.8936 3.18667C38.0208 3.14317 37.9495 3.15405 37.8605 3.36069ZM26.8256 36.8701C26.888 36.9897 26.9859 37.0876 27.0483 37.0876C27.1106 37.0876 27.1997 36.9897 27.2531 36.8701C27.3066 36.7504 27.4045 36.6525 27.4758 36.6525C27.6361 36.6525 27.6361 36.7395 27.4758 37.0876C27.2442 37.577 27.3066 38.0229 27.645 38.3383C28.0636 38.719 28.0992 38.9039 27.8231 39.2084C27.6361 39.4151 27.6005 39.5456 27.6183 39.9589C27.6361 40.2308 27.6272 40.4701 27.6005 40.4918C27.5827 40.5244 27.3956 40.5679 27.1997 40.6115C26.9058 40.6658 26.8167 40.6441 26.7722 40.5027C26.7277 40.3613 26.6297 40.3395 26.2289 40.4048C25.748 40.4701 25.7391 40.4701 25.7391 40.1982C25.7391 40.035 25.6678 39.8719 25.5609 39.8066C25.3917 39.6979 25.3739 39.6 25.4006 38.7951L25.4273 37.9033L25.6856 37.8707C25.8459 37.8489 25.9528 37.751 25.9795 37.6205C26.0063 37.5118 26.1042 37.4139 26.2022 37.4139C26.3358 37.4139 26.3625 37.3595 26.318 37.1963C26.2556 36.9462 26.407 36.6525 26.5941 36.6525C26.6653 36.6525 26.7633 36.7504 26.8256 36.8701Z" fill="#C6C6C6"/>
<path d="M34.476 3.46938C34.4136 3.52376 34.3869 3.62164 34.4136 3.6869C34.4849 3.82829 34.8233 3.65427 34.8233 3.48025C34.8233 3.34974 34.6452 3.33886 34.476 3.46938Z" fill="#C6C6C6"/>
<path d="M60.1524 4.62246C60.1168 4.70947 60.2059 4.95962 60.3306 5.16627C60.5354 5.48168 60.6245 5.54694 60.9095 5.54694C61.1054 5.54694 61.3459 5.63394 61.4617 5.74271C61.8001 6.05811 61.9515 6.09074 62.4503 5.93848C63.2073 5.6992 63.9198 5.63394 64.2404 5.75358C64.5521 5.8841 65.2023 5.68833 65.2646 5.44905C65.3181 5.2424 65.0954 4.99225 64.8906 5.02488C64.5343 5.07926 62.8332 4.77473 62.4948 4.60071C62.1207 4.40494 61.9871 4.48107 62.1474 4.78561C62.281 5.05751 62.2899 5.05751 61.5774 4.73123C60.9006 4.41582 60.2326 4.37231 60.1524 4.62246Z" fill="#C6C6C6"/>
<path d="M59.3154 4.94856C59.3154 5.13346 59.5114 5.43799 59.6361 5.43799C59.8587 5.43799 59.7518 4.95944 59.5203 4.91593C59.4045 4.89418 59.3154 4.90506 59.3154 4.94856Z" fill="#C6C6C6"/>
<path d="M65.8174 5.32919C65.8174 5.53584 66.0935 5.65548 66.5833 5.65548C66.9396 5.65548 67.2691 5.73161 67.5185 5.873C67.9638 6.11227 68.8366 6.16666 69.0058 5.96001C69.2374 5.67723 69.1216 5.54672 68.6318 5.54672C68.3735 5.54672 68.0172 5.47058 67.8391 5.38357C67.5363 5.23131 65.8174 5.17693 65.8174 5.32919Z" fill="#C6C6C6"/>
<path d="M63.8574 6.47138C63.8574 6.59102 63.9554 6.63452 64.1959 6.63452C64.5076 6.62365 64.5165 6.61277 64.3562 6.47138C64.1246 6.26473 63.8574 6.26473 63.8574 6.47138Z" fill="#C6C6C6"/>
<path d="M64.7043 6.96061C64.6152 7.08025 64.5618 7.19988 64.5796 7.22164C64.5974 7.24339 65.016 7.31952 65.4969 7.38478C65.9868 7.45003 66.4766 7.53704 66.6013 7.58055C66.7705 7.62405 66.8061 7.6023 66.7794 7.45003C66.7438 7.22164 66.0491 6.9171 65.3366 6.80834C64.9358 6.74309 64.8468 6.76484 64.7043 6.96061Z" fill="#C6C6C6"/>
<path d="M87.2631 10.7781C87.0493 10.9304 87.0671 11.05 87.2987 11.1371C87.5659 11.2132 87.7173 11.0283 87.5481 10.8217C87.4501 10.7129 87.3699 10.702 87.2631 10.7781Z" fill="#C6C6C6"/>
<path d="M101.977 27.1578C101.977 27.2992 102.449 27.843 102.573 27.843C102.814 27.843 102.68 27.5494 102.315 27.2666C102.048 27.0708 101.977 27.0382 101.977 27.1578Z" fill="#C6C6C6"/>
<path d="M103.401 27.4514C103.401 27.6036 103.722 27.9517 103.873 27.9517C103.909 27.9517 103.856 27.7994 103.74 27.6254C103.526 27.2665 103.401 27.2121 103.401 27.4514Z" fill="#C6C6C6"/>
<path d="M85.2686 27.8973C85.233 28.0061 85.2953 28.1801 85.4378 28.365C85.6071 28.5717 85.6605 28.7348 85.616 28.9088C85.5803 29.1046 85.705 29.3221 86.2661 30.0508C86.6402 30.5402 87.1122 31.0732 87.3081 31.2363C87.6555 31.53 88.2522 32.5414 88.2611 32.8351C88.2611 32.9112 88.4214 33.1614 88.6174 33.3789C88.84 33.6291 89.0627 34.0206 89.1963 34.423C89.3655 34.9559 89.4546 35.0865 89.6683 35.1517C89.891 35.2278 89.9355 35.304 89.9889 35.6629C90.0156 35.9022 90.176 36.3155 90.3541 36.5874C90.5233 36.8701 90.6658 37.1529 90.6658 37.2399C90.6658 37.4357 90.9597 37.7402 91.1378 37.7402C91.2358 37.7402 91.2892 37.6532 91.2892 37.4683C91.2892 37.1529 91.4228 37.1203 91.886 37.3269C92.0997 37.4248 92.2066 37.4248 92.2778 37.3378C92.3491 37.2508 92.2867 37.1529 92.0374 37.0007C91.503 36.6635 90.4877 35.478 90.4877 35.1843C90.4877 35.0538 90.4075 34.8146 90.3096 34.6623C90.0958 34.336 90.0869 34.1946 90.265 34.1076C90.461 34.0206 90.7905 34.2055 91.0399 34.5318C91.1824 34.7167 91.3071 34.7928 91.405 34.7384C91.6277 34.6405 91.5921 34.5209 91.2714 34.249C91.1111 34.1185 90.7727 33.7704 90.5144 33.4768C90.265 33.194 90.0067 32.9547 89.9444 32.9547C89.7128 32.9547 89.2586 32.4001 88.9825 31.7692C88.751 31.2254 88.6352 31.084 88.4303 31.0297C88.2878 30.997 88.1275 30.8774 88.0741 30.7686C88.0296 30.649 87.9316 30.562 87.8692 30.562C87.798 30.562 87.6555 30.3445 87.5486 30.0726C87.3527 29.5723 86.6046 28.713 86.3641 28.713C86.2839 28.713 86.1325 28.5717 86.0167 28.3976C85.901 28.2345 85.705 28.0061 85.5714 27.8973C85.3399 27.7233 85.3221 27.7233 85.2686 27.8973Z" fill="#C6C6C6"/>
<path d="M109.138 29.8115C109.075 29.9529 109.253 30.127 109.458 30.127C109.61 30.127 109.877 29.9421 109.815 29.8768C109.699 29.7572 109.191 29.7137 109.138 29.8115Z" fill="#C6C6C6"/>
<path d="M110.26 30.2901C110.26 30.4858 110.474 30.6164 110.607 30.5185C110.75 30.4097 110.616 30.1269 110.429 30.1269C110.34 30.1269 110.26 30.2031 110.26 30.2901Z" fill="#C6C6C6"/>
<path d="M113.786 30.8556C113.688 30.9752 113.733 31.1057 113.866 31.1057C113.938 31.1057 114 31.0622 114 31.0078C114 30.8664 113.858 30.7686 113.786 30.8556Z" fill="#C6C6C6"/>
<path d="M98.0847 31.9431C97.9422 32.0083 97.9333 32.302 98.058 32.302C98.156 32.302 98.2895 31.9975 98.2272 31.9322C98.2094 31.9105 98.1381 31.9213 98.0847 31.9431Z" fill="#C6C6C6"/>
<path d="M98.4762 32.3565C98.2892 32.5849 98.2001 32.9547 98.2981 33.0743C98.4584 33.2701 98.8592 32.9873 98.8592 32.6937C98.8592 32.3239 98.6543 32.139 98.4762 32.3565Z" fill="#C6C6C6"/>
<path d="M98.5562 33.5856C98.5295 33.6509 98.5473 33.7379 98.6008 33.7705C98.7343 33.8793 98.8234 33.7379 98.7076 33.5965C98.6453 33.5204 98.5918 33.5204 98.5562 33.5856Z" fill="#C6C6C6"/>
<path d="M97.2922 37.9142C97.1942 38.0883 97.1675 38.2188 97.2298 38.2949C97.3545 38.4472 97.6128 38.2949 97.6128 38.0556C97.6128 37.9469 97.6573 37.849 97.7019 37.849C97.7553 37.849 97.7909 37.7946 97.7909 37.7402C97.7909 37.5227 97.4347 37.6423 97.2922 37.9142Z" fill="#C6C6C6"/>
<path d="M96.1345 38.7843C95.9742 39.0671 95.9297 39.6327 96.0455 39.774C96.1434 39.8937 96.4106 39.6435 96.4373 39.4043C96.4551 39.2737 96.5442 39.0889 96.6422 38.9801C96.8916 38.7082 96.8559 38.5015 96.5442 38.5015C96.3572 38.5015 96.2325 38.5885 96.1345 38.7843Z" fill="#C6C6C6"/>
<path d="M91.4675 38.7734C91.3695 38.9148 91.4051 39.0018 91.6812 39.3063C91.8861 39.5565 92.0019 39.7849 92.0019 39.9589C92.0019 40.1112 92.0464 40.2417 92.0909 40.2417C92.1889 40.2417 92.3225 40.5897 92.3759 40.9595C92.3937 41.1009 92.3492 41.1661 92.2156 41.177C91.895 41.1988 91.8148 41.3184 91.9217 41.5686C92.0019 41.7426 91.984 41.8513 91.8326 42.1015C91.7258 42.2646 91.6456 42.4713 91.6456 42.5583C91.6456 42.7649 91.8326 42.9607 92.0286 42.9607C92.1176 42.9607 92.3047 43.113 92.4383 43.287C92.6609 43.5915 92.6965 43.6133 92.9905 43.4936C93.1597 43.4175 93.3289 43.3196 93.3734 43.2761C93.4981 43.1456 93.1864 42.7758 92.848 42.6344C92.5719 42.5257 92.3848 42.2429 92.4917 42.1124C92.5184 42.0797 92.6431 42.1124 92.7678 42.1885C92.9637 42.2973 93.035 42.2864 93.1597 42.145C93.3734 41.9057 93.4981 41.9384 93.9078 42.3408C94.6915 43.1239 94.9409 43.1347 94.9409 42.3843C94.9409 41.8405 95.0389 41.6882 95.4308 41.6338C95.6267 41.6121 95.7069 41.5359 95.7247 41.351C95.7425 41.2097 95.7158 41.0356 95.6623 40.9595C95.6089 40.8834 95.5911 40.6658 95.6178 40.481C95.689 40.035 95.6 39.7414 95.4486 39.8936C95.3862 39.9589 95.0656 40.0459 94.745 40.0894C94.2017 40.1547 94.1037 40.1329 93.5694 39.8284C93.2398 39.6435 92.75 39.2955 92.4739 39.0453C91.9484 38.5885 91.6545 38.5015 91.4675 38.7734Z" fill="#C6C6C6"/>
<path d="M93.4267 43.6568C93.2575 43.7329 93.115 43.8525 93.115 43.9287C93.115 43.9939 93.0527 44.1027 92.9814 44.1571C92.8745 44.2332 92.8745 44.2876 92.9636 44.3963C93.017 44.4616 93.0705 44.7335 93.0705 44.9728C93.0705 45.4187 93.2664 45.7885 93.4891 45.7885C93.596 45.7885 93.6939 46.5498 93.7028 47.4525C93.7117 47.8876 93.6672 48.1486 93.5692 48.2791C93.4891 48.3879 93.4267 48.5293 93.4267 48.5945C93.4267 48.7685 93.0794 48.9752 92.9191 48.8991C92.8389 48.8556 92.8033 48.7468 92.83 48.6163C92.8835 48.377 92.732 48.2791 92.5183 48.4205C92.4025 48.4858 92.358 48.6489 92.358 48.9534C92.358 49.1927 92.2956 49.5625 92.2244 49.7692C92.1531 49.9867 92.1175 50.2803 92.1442 50.4217C92.2066 50.7263 92.1888 50.7371 91.788 50.5087C91.5119 50.3456 91.405 50.3347 90.7816 50.4761C90.1047 50.6175 90.0691 50.6392 89.597 51.2374C89.3299 51.5855 89.027 51.8791 88.938 51.9009C88.7153 51.9444 88.6708 52.1075 88.8222 52.3577C89.0003 52.6513 89.9622 52.6948 90.2561 52.4121C90.3719 52.3033 90.55 52.2054 90.648 52.2054C90.737 52.2054 90.9152 52.1184 91.031 51.9988C91.1735 51.8682 91.4495 51.7812 91.8949 51.7486L92.5361 51.6942V52.151C92.5361 52.6187 92.6697 52.858 93.017 53.0102C93.213 53.0972 93.6049 52.8145 93.6049 52.5861C93.6049 52.5099 93.6761 52.3577 93.7563 52.2489C93.8988 52.0749 93.8899 52.0531 93.6583 51.8247C93.5158 51.6834 93.4356 51.5202 93.4624 51.455C93.5692 51.2483 93.8453 51.3244 93.9967 51.6181C94.1481 51.8791 94.1749 51.89 94.7894 51.8139C95.4663 51.7377 95.7245 51.5963 95.5642 51.4006C95.297 51.0743 95.6444 50.7589 95.9294 51.0743C96.1075 51.2701 96.1164 51.2701 96.2856 51.0199C96.5083 50.6827 96.4994 50.4326 96.2322 50.0519C96.0897 49.8453 95.965 49.4755 95.9116 49.084C95.8581 48.7359 95.7602 48.29 95.6889 48.0834C95.5731 47.7571 95.582 47.6918 95.7067 47.5178C95.8403 47.3329 95.8403 47.2785 95.6533 46.6912C95.2792 45.5383 95.0566 45.0815 94.6825 44.7226C94.4866 44.5269 94.2461 44.3746 94.166 44.3963C94.0324 44.4181 94.0056 44.3528 94.0056 43.9939C94.0056 43.5045 93.9077 43.4392 93.4267 43.6568Z" fill="#C6C6C6"/>
<path d="M6.94715 50.5196C6.88481 50.6066 6.70669 50.6828 6.54637 50.6828C6.22575 50.6828 5.91403 51.0199 5.99419 51.2809C6.02981 51.3897 6.1634 51.4441 6.39497 51.4441C7.05403 51.4441 7.82887 50.4761 7.24997 50.3782C7.152 50.3565 7.0095 50.4217 6.94715 50.5196Z" fill="#C6C6C6"/>
<path d="M91.2352 52.3685C91.1996 52.4664 91.066 52.5316 90.8968 52.5316C90.6652 52.5316 90.594 52.5969 90.4693 52.9449C90.3357 53.293 90.3268 53.4126 90.4158 53.7063C90.594 54.2609 91.1907 54.3262 91.0749 53.7824C90.9948 53.3908 91.2085 53.2495 91.6004 53.4126C91.9833 53.5866 92.0902 53.467 92.0902 52.8253C92.0902 52.4881 92.0546 52.4011 91.8587 52.3141C91.5291 52.1618 91.2887 52.1836 91.2352 52.3685Z" fill="#C6C6C6"/>
<path d="M88.3676 53.0537C88.1806 53.2494 88.1093 53.3908 88.1628 53.4561C88.2073 53.5213 88.2607 53.6845 88.2786 53.8367C88.3142 54.2174 88.5725 54.2392 88.7239 53.8694C88.8575 53.5213 89.1246 53.467 89.2761 53.7497C89.3473 53.8911 89.3473 53.9999 89.2671 54.1522C89.1959 54.2827 89.1959 54.3914 89.2582 54.4676C89.3117 54.5328 89.3117 54.6416 89.2315 54.783C89.1425 54.9679 89.1514 55.044 89.2671 55.2615C89.3562 55.4029 89.4186 55.5987 89.4186 55.7074C89.4186 55.8923 89.7392 56.2295 89.9084 56.2295C90.0153 56.2186 90.3982 55.5117 90.3982 55.305C90.3982 55.218 90.3537 55.1201 90.3003 55.0875C90.2468 55.044 90.2112 54.7612 90.2201 54.4458C90.2379 53.6518 90.2468 53.6736 89.9886 53.3038C89.8193 53.0537 89.6857 52.9667 89.4631 52.9667C89.2939 52.9667 89.1336 52.9123 89.1068 52.8579C89.0089 52.6621 88.6704 52.7491 88.3676 53.0537Z" fill="#C6C6C6"/>
<path d="M85.3214 53.1299C85.2591 53.2169 85.2235 53.3256 85.2502 53.3474C85.3303 53.4561 85.8647 53.2604 85.8291 53.1407C85.7757 52.945 85.455 52.945 85.3214 53.1299Z" fill="#C6C6C6"/>
<path d="M89.9445 56.9475C89.8466 57.0997 89.8555 57.1106 90.0425 57.078C90.1583 57.0671 90.2651 56.9801 90.2919 56.904C90.3364 56.7191 90.087 56.7408 89.9445 56.9475Z" fill="#C6C6C6"/>
<path d="M89.5076 59.4924C89.1958 59.8731 89.2938 60.0036 89.7569 59.8622C89.9796 59.7861 90.0241 59.438 89.8193 59.3401C89.7391 59.3075 89.6055 59.3728 89.5076 59.4924Z" fill="#C6C6C6"/>
<path d="M26.6031 61.1022C26.4606 61.298 26.4606 61.3197 26.5942 61.4502C26.7724 61.6351 27.0306 61.472 27.0306 61.1675C27.0306 60.8847 26.7902 60.852 26.6031 61.1022Z" fill="#C6C6C6"/>
<path d="M88.8488 61.5806C88.7508 61.7547 88.733 61.8525 88.8132 61.9613C88.9468 62.1679 89.0626 62.1353 89.0626 61.896C89.0626 61.7873 89.1249 61.6568 89.2051 61.6241C89.2763 61.5915 89.3119 61.5154 89.2852 61.4501C89.1961 61.2652 88.9913 61.3305 88.8488 61.5806Z" fill="#C6C6C6"/>
<path d="M22.0879 61.8199C22.0879 61.9069 22.1235 62.0048 22.168 62.0374C22.2571 62.1136 22.3729 61.8308 22.2927 61.7329C22.1948 61.6133 22.0879 61.6676 22.0879 61.8199Z" fill="#C6C6C6"/>
<path d="M83.4336 63.4839C83.1664 63.8755 82.8992 65.0392 82.9348 65.6483C82.9794 66.29 83.3802 67.1383 83.6117 67.0839C83.683 67.0622 83.7898 66.8229 83.8522 66.5293C83.9145 66.2356 84.0036 65.9528 84.0659 65.8767C84.2084 65.7027 84.1906 65.409 84.0214 65.2024C83.8967 65.061 83.8878 64.974 83.9769 64.7564C84.2886 63.919 83.8522 62.8857 83.4336 63.4839Z" fill="#C6C6C6"/>
<path d="M74.2689 69.9335C73.592 70.3686 73.307 71.1081 73.6098 71.6411C73.8681 72.0979 75.0794 72.087 75.0794 71.6302C75.0794 71.5432 75.1417 71.4235 75.213 71.3474C75.2931 71.2713 75.3287 71.119 75.302 71.0102C75.2664 70.8797 75.2931 70.7818 75.3822 70.7383C75.5247 70.6731 75.5692 70.2163 75.4712 69.89C75.3911 69.6399 74.6786 69.6725 74.2689 69.9335Z" fill="#C6C6C6"/>
<path d="M84.1816 71.7063C84.0035 71.9565 83.9768 72.4024 84.0658 73.2072C84.1193 73.6532 84.1905 74.1317 84.2172 74.284C84.2707 74.5124 84.2529 74.5341 84.1549 74.4145C83.9946 74.2405 83.763 74.2513 83.6294 74.4471C83.5493 74.5667 83.5938 74.7516 83.8699 75.3716C84.0836 75.8501 84.2707 76.1547 84.3865 76.1873C85.1079 76.3613 85.0811 76.3396 85.0366 76.7093C84.9654 77.2749 85.0188 77.3293 85.6422 77.3293C86.1677 77.3293 86.2211 77.351 86.4082 77.6556C86.6397 78.0471 86.8001 78.0689 86.8624 77.7426C86.9158 77.5142 86.9247 77.5142 87.1029 77.7099C87.2899 77.9166 87.3433 78.1994 87.1919 78.1994C87.0494 78.1994 87.094 78.5039 87.2543 78.6235C87.3968 78.7214 87.3968 78.7432 87.2365 79.113C87.1385 79.3196 87.0851 79.5154 87.1029 79.5371C87.1296 79.5698 87.3344 79.6241 87.5749 79.6568L87.9935 79.7329V79.3414C87.9935 79.1238 88.038 78.8519 88.0915 78.7214C88.1716 78.5474 88.1538 78.4604 88.0024 78.2973C87.8955 78.1776 87.8154 77.9492 87.8154 77.7643C87.8154 77.4163 87.3968 76.9595 87.1652 77.0683C87.094 77.1009 87.0138 77.0465 86.9871 76.9595C86.9426 76.829 86.8001 76.7855 86.4349 76.7855C86.0074 76.7855 85.9451 76.7637 85.9451 76.568C85.9451 76.4592 85.8738 76.3069 85.7758 76.2525C85.669 76.1764 85.5977 75.9698 85.5621 75.6544C85.5086 75.2411 85.5532 75.067 85.8738 74.3383L86.2301 73.49L85.9629 72.8266C85.8115 72.4568 85.6511 72.0326 85.6066 71.8803C85.5176 71.6193 85.473 71.5976 84.8941 71.5867C84.4933 71.5758 84.2351 71.6193 84.1816 71.7063Z" fill="#C6C6C6"/>
<path d="M60.2684 77.8078C60.0725 78.047 60.0012 79.5371 60.1616 80.0048C60.2506 80.2767 60.3397 80.3745 60.4466 80.3528C60.5801 80.3202 60.6069 80.1461 60.6336 78.9824C60.6603 77.8513 60.6425 77.6555 60.5356 77.6555C60.4555 77.6555 60.3397 77.7208 60.2684 77.8078Z" fill="#C6C6C6"/>
<path d="M84.877 77.7862C84.877 77.8515 84.9749 78.0364 85.0996 78.2212C85.3312 78.5584 85.3846 78.8956 85.2332 79.0152C85.0729 79.1348 85.1352 79.2871 85.349 79.2871C85.4648 79.2871 85.6251 79.2001 85.7052 79.0913C85.8923 78.8412 85.9012 78.1669 85.723 77.982C85.5449 77.7971 84.877 77.6557 84.877 77.7862Z" fill="#C6C6C6"/>
<path d="M25.5875 78.591C25.5251 78.6237 25.4717 78.7433 25.4717 78.8629C25.4717 79.0261 25.534 79.0696 25.7834 79.0696C25.9526 79.0696 26.0951 79.0261 26.0951 78.9717C26.0951 78.9173 26.1931 78.8521 26.3178 78.8303C26.7275 78.7759 26.5939 78.5802 26.1396 78.5584C25.8992 78.5475 25.6409 78.5584 25.5875 78.591Z" fill="#C6C6C6"/>
<path d="M88.5461 79.0368C88.4926 79.2108 88.3947 79.5806 88.3412 79.8851C88.1809 80.7443 88.0651 80.8966 87.5753 80.9401C87.1656 80.9727 87.1478 80.9836 87.1033 81.3643C87.0676 81.5709 86.9786 81.8646 86.8984 82.006C86.6758 82.3866 86.7114 82.6368 87.0231 82.9957C87.4417 83.4743 87.5842 83.4199 87.8959 82.5933C88.0473 82.2017 88.2165 81.6906 88.27 81.4513C88.3323 81.212 88.4303 80.9727 88.4837 80.9184C88.5906 80.8096 88.653 80.9401 88.8311 81.5927C88.8934 81.832 89.223 81.8537 89.3031 81.6144C89.3298 81.5274 89.312 81.3317 89.2586 81.2011C89.1873 81.0054 89.1962 80.8857 89.2942 80.7117C89.4367 80.4724 89.4011 79.7546 89.223 79.1782C89.0626 78.667 88.6886 78.5909 88.5461 79.0368Z" fill="#C6C6C6"/>
<path d="M86.2657 79.0478C86.2301 79.1239 86.2479 79.3632 86.3014 79.6025C86.3637 79.8961 86.3637 80.1245 86.3014 80.3203C86.1678 80.7554 86.1945 81.2121 86.3548 81.2883C86.5329 81.3753 87.2543 80.8315 87.3078 80.5705C87.379 80.2768 87.1207 79.9288 86.8535 79.9614C86.6576 79.994 86.6131 79.9396 86.5685 79.6677C86.4884 79.2001 86.337 78.9064 86.2657 79.0478Z" fill="#C6C6C6"/>
<path d="M84.3777 79.2328C84.2886 79.5047 84.4133 79.7439 84.6271 79.7004C84.8765 79.6569 84.921 79.472 84.7429 79.2436C84.5647 79.0261 84.4401 79.0261 84.3777 79.2328Z" fill="#C6C6C6"/>
<path d="M83.8971 80.9075C83.8971 81.0924 83.8526 81.2664 83.808 81.299C83.7546 81.3425 83.6032 81.5709 83.4785 81.8211C83.3449 82.0712 83.0065 82.5715 82.7215 82.9304C82.2316 83.5504 82.098 83.8767 82.2851 84.018C82.4276 84.1159 82.9887 83.7244 83.0421 83.4851C83.0688 83.3546 83.2024 83.1806 83.3449 83.0827C83.5319 82.9522 83.621 82.789 83.6655 82.5171C83.7012 82.2779 83.7813 82.1147 83.8882 82.0821C83.9773 82.0603 84.1198 81.8646 84.2088 81.6471C84.3424 81.299 84.3424 81.2338 84.2088 80.9292C84.0307 80.5051 83.8971 80.4942 83.8971 80.9075Z" fill="#C6C6C6"/>
<path d="M60.1621 81.0272C60.1888 81.0816 60.2779 81.136 60.3492 81.136C60.4204 81.136 60.4738 81.0816 60.4738 81.0272C60.4738 80.962 60.3937 80.9185 60.2868 80.9185C60.1888 80.9185 60.1354 80.962 60.1621 81.0272Z" fill="#C6C6C6"/>
<path d="M88.3324 82.017C88.1364 82.1475 88.1275 82.6152 88.3146 82.7022C88.3858 82.7348 88.5461 82.6804 88.6708 82.5825C89.0983 82.2454 88.7688 81.6907 88.3324 82.017Z" fill="#C6C6C6"/>
<path d="M49.3405 82.2779C49.2514 82.4084 49.2514 82.4846 49.3672 82.6912C49.5097 82.9631 49.4919 83.7136 49.3227 84.0942C49.2781 84.2139 49.2781 84.377 49.3405 84.5075C49.4117 84.6598 49.4028 84.7794 49.3227 84.9317C49.2336 85.1057 49.2336 85.2253 49.3227 85.519C49.385 85.7148 49.4295 86.0302 49.4295 86.2042C49.4295 86.6501 49.572 86.7915 50.0263 86.7915C50.3558 86.7915 50.4627 86.7262 50.7744 86.3565C51.1217 85.9432 51.1395 85.8997 51.0772 85.4646C51.0416 85.2036 50.9614 84.9208 50.908 84.8338C50.7031 84.5293 50.3202 83.6157 50.3202 83.4199C50.3202 83.3111 50.2578 83.1698 50.1777 83.0827C50.0975 83.0066 49.9728 82.7673 49.8927 82.5607C49.7234 82.1256 49.5186 82.0169 49.3405 82.2779Z" fill="#C6C6C6"/>
<path d="M89.4807 82.4084C89.4451 82.441 89.4184 82.6259 89.4184 82.8217C89.4184 83.235 89.3026 83.4199 88.8573 83.7244C88.4565 84.0072 88.3496 84.018 88.3496 83.8114C88.3496 83.5612 88.1893 83.5069 87.8598 83.6374C87.6638 83.7135 87.4946 83.8875 87.4145 84.0833C87.3343 84.2573 87.2185 84.3987 87.1562 84.3987C87.0938 84.3987 86.9335 84.4966 86.7999 84.6271C86.6218 84.8011 86.5684 84.9425 86.5684 85.2688C86.5684 85.8235 86.8355 86.0519 87.0493 85.6821C87.1295 85.5516 87.1918 85.3558 87.1918 85.247C87.1918 84.986 87.3165 84.9208 87.5748 85.0404C87.7351 85.1165 87.842 85.1057 87.9577 84.9969C88.1537 84.8229 89.0265 84.7794 89.1066 84.9425C89.1334 84.9969 89.0621 85.1057 88.9374 85.1709C88.6435 85.3341 88.5812 85.5842 88.7059 86.128C88.786 86.4869 88.8751 86.6174 89.2759 86.8893C90.0507 87.4331 90.2555 87.3135 89.9527 86.4978C89.8548 86.2259 89.7924 85.8996 89.828 85.7909C89.8993 85.4863 90.1665 85.5951 90.2021 85.9431C90.2377 86.2912 90.4337 86.5196 90.6207 86.4217C90.7276 86.3782 90.7543 86.1606 90.7543 85.4537C90.7543 84.6271 90.7365 84.5183 90.5316 84.2899C90.3713 84.1051 90.3268 83.9637 90.3624 83.7896C90.4159 83.5286 90.211 83.0283 89.8637 82.5715C89.6677 82.3214 89.5787 82.2779 89.4807 82.4084Z" fill="#C6C6C6"/>
<path d="M97.6748 84.91C97.5858 85.0079 97.5947 85.5952 97.6837 85.5952C97.755 85.5952 97.8262 85.4429 98.04 84.91C98.0845 84.8121 97.755 84.8013 97.6748 84.91Z" fill="#C6C6C6"/>
<path d="M61.5156 85.3993C61.4711 85.5734 61.6047 85.9214 61.7293 85.9214C61.854 85.9214 61.7917 85.3558 61.667 85.3014C61.6047 85.2797 61.5423 85.3232 61.5156 85.3993Z" fill="#C6C6C6"/>
<path d="M81.8666 85.8779C81.7508 85.9758 81.6706 86.1606 81.6706 86.3238C81.6706 86.4978 81.537 86.8132 81.3233 87.1177C81.1362 87.3896 80.967 87.7159 80.9403 87.8247C80.9136 87.9987 80.8334 88.0422 80.5662 88.0422C80.2901 88.0422 80.21 88.0857 80.1476 88.2815C80.1031 88.4229 80.0141 88.5316 79.9339 88.5316C79.8626 88.5316 79.7291 88.6948 79.6489 88.8906C79.3372 89.5975 78.8919 90.3806 78.7316 90.4893C78.6425 90.5546 78.3842 90.5981 78.1705 90.5981C77.7875 90.5981 77.7608 90.6199 77.5381 91.0767C77.4134 91.3486 77.3066 91.7075 77.3066 91.8924C77.3066 92.3057 77.1641 92.4144 76.9503 92.1751C76.8523 92.0664 76.7187 92.0229 76.6119 92.0555C76.505 92.099 76.3892 92.0446 76.2823 91.9032C76.0775 91.6205 75.9884 91.6313 75.6678 91.9576C75.4362 92.186 75.4006 92.3057 75.365 92.9147C75.3383 93.415 75.365 93.7087 75.4808 93.9588C75.5876 94.2199 75.5966 94.3504 75.5253 94.4591C75.4541 94.5679 75.4808 94.6658 75.6322 94.8724C76.1844 95.5903 76.2378 95.7208 76.2734 96.4277C76.3001 96.8736 76.3714 97.189 76.4605 97.3087C76.5495 97.4174 76.5851 97.5806 76.5584 97.7329C76.5228 97.8742 76.5495 97.9939 76.6119 98.0156C76.7098 98.0591 77.3956 97.9612 77.6539 97.8742C77.7341 97.8525 77.8053 97.9395 77.8409 98.1026C77.8855 98.331 77.9478 98.3745 78.2417 98.3854C78.4376 98.3963 78.6959 98.3419 78.8206 98.2658C79.0076 98.1461 79.0967 98.1461 79.355 98.2875C79.5242 98.3745 79.7825 98.4507 79.925 98.4616C80.1476 98.4833 80.2011 98.5486 80.2812 98.9183C80.4148 99.4948 80.6197 99.5165 81.163 99.0162C81.6884 98.5486 82.1159 97.5588 82.1159 96.8084C82.1159 96.3625 82.1516 96.2863 82.5701 95.8295L83.0333 95.3292L83.0422 94.4918C83.06 93.4368 83.158 93.2736 83.728 93.3498C83.9951 93.3933 84.2 93.3606 84.298 93.2736C84.4405 93.1431 84.4316 93.1105 84.1555 92.7298C83.9951 92.5014 83.7725 92.273 83.6656 92.2295C83.4964 92.1425 83.4697 92.0773 83.5142 91.6966C83.5587 91.3268 83.532 91.2289 83.3361 91.0114C83.0244 90.6525 82.9086 89.7171 83.1401 89.4017C83.2292 89.2821 83.3539 89.1842 83.4073 89.1842C83.4697 89.1842 83.6122 89.0972 83.7191 88.9884L83.9239 88.7818L83.728 88.6187C83.5498 88.4664 83.5409 88.4338 83.6745 88.2706C83.7547 88.1727 83.915 88.0966 84.0219 88.0966C84.1376 88.0966 84.2801 88.0205 84.3425 87.9335C84.4405 87.7921 84.4226 87.7159 84.2534 87.4984C84.1376 87.3461 83.9684 87.2265 83.8794 87.2265C83.7191 87.2265 83.2025 86.8458 83.0778 86.6283C83.0422 86.5739 83.0422 86.4869 83.06 86.4434C83.0867 86.389 82.9798 86.2042 82.8284 86.0301C82.5078 85.6603 82.1783 85.6168 81.8666 85.8779Z" fill="#C6C6C6"/>
<path d="M86.5862 86.3783C86.6396 86.5741 86.7821 86.5958 86.9692 86.4109C87.1384 86.2587 87.1295 86.2587 86.8534 86.2478C86.6575 86.2478 86.5684 86.2913 86.5862 86.3783Z" fill="#C6C6C6"/>
<path d="M85.9632 86.8024C85.8474 86.8568 85.7851 86.9438 85.8118 87.009C85.8831 87.1504 86.1859 87.1504 86.266 86.9982C86.3551 86.8133 86.1859 86.6936 85.9632 86.8024Z" fill="#C6C6C6"/>
<path d="M63.1814 87.2809C63.0834 87.5745 63.2349 88.2054 63.4931 88.5643C63.6267 88.7492 63.7959 89.0211 63.8494 89.1625C63.9117 89.3038 64.1344 89.5105 64.3481 89.6193C64.5619 89.728 64.7845 89.9347 64.8469 90.0761C64.9092 90.2174 65.025 90.3915 65.123 90.4676C65.2209 90.5655 65.2833 90.7504 65.2833 90.9896C65.2833 91.5335 65.4169 91.7727 65.782 91.8597C66.1739 91.9467 66.2897 92.1751 66.4945 93.2519C66.6459 94.0023 66.6905 94.122 66.9131 94.209C67.0467 94.2742 67.1536 94.3612 67.1536 94.4156C67.1536 94.47 67.2427 94.6223 67.3495 94.7528C67.4564 94.8833 67.6345 95.2966 67.7414 95.6664C67.8483 96.0362 68.0353 96.5474 68.16 96.8084C68.2847 97.0694 68.4895 97.5262 68.6053 97.8307C68.7211 98.1244 68.9081 98.4724 69.0239 98.5921C69.1308 98.7117 69.2733 98.9401 69.3445 99.1032C69.4158 99.2773 69.6028 99.473 69.7631 99.56C70.0749 99.7232 70.9833 100.778 70.9833 100.985C70.9833 101.05 71.0634 101.202 71.1525 101.3C71.3128 101.474 71.3395 101.474 71.6067 101.311C71.865 101.148 71.9006 101.148 72.1144 101.311C72.4439 101.572 72.4974 101.409 72.4974 100.071C72.4974 99.0271 72.5152 98.9075 72.7289 98.5703L72.9516 98.2114L72.5686 97.6676C72.3281 97.3304 72.1144 97.1238 71.9986 97.1238C71.7581 97.1238 71.2505 96.2102 71.2505 95.7969C71.2505 95.4815 71.0634 95.2422 70.8497 95.2966C70.5736 95.3619 70.4934 95.0247 70.6538 94.4483C70.7784 93.9588 70.7784 93.9045 70.6538 93.7304C70.5736 93.6108 70.3866 93.5347 70.2084 93.5347C69.9145 93.5347 69.9056 93.5238 69.9591 93.1758C70.0303 92.7081 69.8344 92.4471 69.4247 92.4471C69.1486 92.4471 69.1219 92.4144 69.0952 92.0881C69.0684 91.7727 69.0417 91.7401 68.7924 91.7619C68.5786 91.7836 68.4717 91.7292 68.3649 91.5226C68.2758 91.3486 68.1333 91.2507 67.9908 91.2507C67.8483 91.2507 67.6702 91.1202 67.5277 90.9353C67.3941 90.7504 67.1625 90.4458 67.0111 90.2392C66.8508 90.0325 66.6816 89.7606 66.6281 89.6301C66.5658 89.5105 66.4589 89.4017 66.3877 89.4017C66.1917 89.4017 65.6395 88.8362 65.6395 88.6295C65.6395 88.5316 65.5059 88.2706 65.3456 88.0531C65.0606 87.6833 65.025 87.6616 64.4639 87.6616C63.9652 87.6616 63.8316 87.618 63.6089 87.3896C63.2972 87.0742 63.2438 87.0634 63.1814 87.2809Z" fill="#C6C6C6"/>
<path d="M96.4551 88.5861C96.4551 88.6731 96.5352 88.7927 96.6332 88.858C96.7757 88.9559 96.8291 88.945 96.8648 88.8145C96.8915 88.7275 96.8915 88.597 96.8559 88.5317C96.7757 88.3686 96.4551 88.4012 96.4551 88.5861Z" fill="#C6C6C6"/>
<path d="M90.9686 88.9123C90.9063 89.0972 91.0042 89.3147 91.12 89.2385C91.2269 89.1515 91.2269 88.7491 91.1111 88.7491C91.0577 88.7491 90.9953 88.8253 90.9686 88.9123Z" fill="#C6C6C6"/>
<path d="M63.4925 90.7722C63.4034 90.9136 63.4034 90.9571 63.5103 91.0441C63.5815 91.0985 63.7062 91.142 63.7864 91.142C63.8665 91.142 63.9912 91.1746 64.0714 91.2072C64.2673 91.3051 64.2584 91.0006 64.0536 90.7831C63.8487 90.5547 63.6439 90.5438 63.4925 90.7722Z" fill="#C6C6C6"/>
<path d="M92.5448 91.1856C92.4557 91.3161 92.4557 91.4249 92.527 91.6315C92.6695 92.0231 92.7585 92.0122 92.7853 91.588C92.8209 91.153 92.6962 90.9572 92.5448 91.1856Z" fill="#C6C6C6"/>
<path d="M92.0639 91.8817C91.9748 91.9904 91.8501 92.3167 91.77 92.5995C91.6364 93.0563 91.6364 93.1433 91.77 93.5348C91.9659 94.1439 91.9481 94.3723 91.672 94.7747L91.4404 95.1119L91.7432 95.1445C91.9125 95.1663 92.1173 95.2641 92.1975 95.3511C92.3221 95.4925 92.3845 95.4925 92.4825 95.3838C92.5982 95.275 92.5982 95.2206 92.4379 94.9596C92.3221 94.7747 92.2687 94.5354 92.2865 94.3397C92.3043 94.0786 92.3578 94.0134 92.5804 93.9916C93.0436 93.9373 93.0881 93.8937 92.9723 93.6327C92.9011 93.4587 92.9011 93.3391 92.9812 93.1542C93.0346 93.0237 93.0703 92.7735 93.0525 92.5995C93.0257 92.2841 92.9189 92.2297 92.6071 92.3928C92.4825 92.4472 92.4468 92.4146 92.4468 92.2515C92.4468 91.9687 92.3578 91.6859 92.2687 91.6859C92.2331 91.6859 92.144 91.7729 92.0639 91.8817Z" fill="#C6C6C6"/>
<path d="M89.4012 92.3927C89.3477 92.5449 89.2498 92.6646 89.1785 92.6646C89.1162 92.6646 89.0182 92.7842 88.9737 92.9365C88.8935 93.1866 88.8579 93.2084 88.2434 93.1866C87.8871 93.1866 87.5131 93.1322 87.4151 93.067C87.3171 93.0017 86.9787 92.8821 86.667 92.806C86.097 92.6646 86.0881 92.6646 85.8832 92.9256C85.7674 93.0779 85.5181 93.2628 85.3221 93.328C84.9748 93.4585 84.859 93.6543 84.8946 94.0785C84.9302 94.6114 84.859 95.2748 84.7432 95.4053C84.672 95.4815 84.5562 95.612 84.476 95.6881C84.387 95.786 84.3424 96.0253 84.3424 96.4168C84.3424 96.8084 84.2801 97.1238 84.1554 97.3848C84.0485 97.6132 83.9862 97.9069 84.004 98.1244C84.0307 98.4507 84.0574 98.4833 84.3157 98.4615C84.8768 98.4072 85.0371 99.2011 84.6898 100.332C84.5918 100.669 84.5295 101.007 84.5562 101.094C84.6185 101.3 85.3667 101.322 85.4646 101.126C85.5092 101.05 85.5448 100.245 85.5448 99.3208C85.5626 97.6241 85.6071 97.3957 85.9099 97.4718C86.0524 97.5044 86.0792 97.6132 86.0792 98.2658C86.0792 98.9727 86.0881 99.0162 86.3018 99.0815C86.4621 99.1359 86.5156 99.212 86.4977 99.3643C86.4799 99.473 86.4532 99.7123 86.4532 99.8972C86.4354 100.18 86.471 100.223 86.6759 100.256C86.8718 100.289 86.9431 100.234 87.0143 100.006C87.0856 99.7667 87.1479 99.7232 87.3884 99.7558C87.6377 99.7884 87.6823 99.7449 87.709 99.5274C87.7357 99.3643 87.6556 99.1685 87.4952 98.9618C87.2726 98.6791 87.2637 98.6247 87.3706 98.3745C87.4774 98.1244 87.4596 98.07 87.0677 97.5044C86.5868 96.8301 86.5779 96.5582 87.041 96.3733C87.1924 96.2972 87.4596 96.0905 87.6199 95.8948C87.7802 95.699 88.0029 95.5467 88.1098 95.5467C88.3413 95.5467 88.4304 95.1552 88.2434 94.9812C88.0831 94.818 87.1924 94.9377 87.1924 95.1226C87.1924 95.2096 87.0499 95.2748 86.8184 95.2966C86.5156 95.3183 86.4354 95.3727 86.4354 95.5359C86.4354 95.8404 86.1771 96.0035 85.9901 95.8186C85.9099 95.7425 85.8654 95.612 85.8921 95.5359C85.9188 95.4597 85.8476 95.3075 85.7318 95.1987C85.5893 95.0682 85.5092 94.8507 85.4735 94.5461C85.4112 93.9044 85.5181 93.8174 86.2484 93.9806C86.7382 94.0893 86.8807 94.0893 87.1835 93.9479C87.3884 93.8501 87.5754 93.8174 87.6467 93.8718C87.8248 94.0023 89.036 93.9915 89.2498 93.8609C89.4279 93.7413 89.9534 92.5667 89.9534 92.2839C89.9534 92.0011 89.517 92.0773 89.4012 92.3927Z" fill="#C6C6C6"/>
<path d="M43.2576 93.5565C43.1953 93.8501 43.2487 93.9806 43.4179 93.8936C43.5871 93.8175 43.596 93.3172 43.4268 93.3172C43.3645 93.3172 43.2843 93.4259 43.2576 93.5565Z" fill="#C6C6C6"/>
<path d="M71.3749 94.4157C71.3482 94.481 71.3571 94.5788 71.4106 94.6441C71.5442 94.8072 71.8203 94.6985 71.8559 94.481C71.8826 94.3505 71.8292 94.2961 71.6599 94.2961C71.5353 94.2961 71.4106 94.3505 71.3749 94.4157Z" fill="#C6C6C6"/>
<path d="M65.8796 94.5787C65.7549 94.731 65.8172 94.9594 65.9776 94.9268C66.0577 94.905 66.129 94.818 66.129 94.7419C66.129 94.5679 65.9687 94.47 65.8796 94.5787Z" fill="#C6C6C6"/>
<path d="M94.4594 95.2424C94.3792 95.3403 94.397 95.6013 94.4861 95.6013C94.593 95.6013 94.682 95.2968 94.593 95.2315C94.5485 95.1989 94.495 95.1989 94.4594 95.2424Z" fill="#C6C6C6"/>
<path d="M66.1108 95.4599C65.8258 95.5796 66.1375 96.2539 66.4671 96.2539C66.6452 96.2539 66.6452 96.2648 66.5205 95.8406C66.4225 95.4926 66.2978 95.3838 66.1108 95.4599Z" fill="#C6C6C6"/>
<path d="M87.7888 95.9056C87.5751 96.1884 87.6018 96.2537 87.9313 96.2537C88.2787 96.2537 88.5191 96.0905 88.3944 95.9491C88.1985 95.7207 87.9313 95.7099 87.7888 95.9056Z" fill="#C6C6C6"/>
<path d="M91.7518 96.058C91.6271 96.2102 91.6093 96.5365 91.725 96.6344C91.7696 96.667 91.8408 96.6344 91.8675 96.5692C91.9032 96.5148 92.0635 96.4713 92.2327 96.493C92.393 96.5039 92.5355 96.4822 92.5355 96.4386C92.5355 96.3951 92.5355 96.319 92.5355 96.2755C92.5355 96.1667 92.1436 95.9275 91.9744 95.9275C91.9121 95.9275 91.8141 95.9818 91.7518 96.058Z" fill="#C6C6C6"/>
<path d="M72.2741 96.2645C72.0425 96.4386 71.9 96.6778 71.8822 96.928C71.8733 96.9715 72.0247 97.015 72.2028 97.0367C72.4789 97.0585 72.5413 97.1238 72.5947 97.3739C72.666 97.7111 73.1736 98.3963 73.2627 98.2875C73.2983 98.2549 73.3428 98.0156 73.3606 97.7546C73.4052 97.3304 73.3785 97.2651 73.1736 97.1346C73.0489 97.0476 72.9421 96.8845 72.9421 96.7757C72.9421 96.5038 72.7996 96.1884 72.6571 96.1232C72.5947 96.0905 72.4255 96.1558 72.2741 96.2645Z" fill="#C6C6C6"/>
<path d="M88.9471 96.3518C88.9293 96.4714 88.9471 96.6128 89.0005 96.678C89.1252 96.8303 89.6418 96.8303 89.8734 96.678C90.0515 96.5693 90.0515 96.5584 89.9001 96.3518C89.6863 96.0581 89.0095 96.0581 88.9471 96.3518Z" fill="#C6C6C6"/>
<path d="M93.9071 96.4061C93.8269 96.678 93.9338 96.8955 94.1832 96.9716C94.4593 97.0586 94.6908 96.8411 94.6552 96.5366C94.6374 96.3626 94.5572 96.2973 94.29 96.2756C94.0585 96.2538 93.9427 96.2864 93.9071 96.4061Z" fill="#C6C6C6"/>
<path d="M67.1088 97.0259C67.0197 97.189 67.1177 97.2761 67.2869 97.189C67.3671 97.1564 67.4027 97.0803 67.376 97.015C67.3047 96.8736 67.18 96.8736 67.1088 97.0259Z" fill="#C6C6C6"/>
<path d="M90.4606 97.0912C90.3537 97.2108 90.3893 97.3413 90.5318 97.3413C90.6031 97.3413 90.6654 97.2652 90.6654 97.1782C90.6654 97.0041 90.5585 96.9606 90.4606 97.0912Z" fill="#C6C6C6"/>
<path d="M74.1086 97.5153C73.9305 97.7437 73.9127 97.8198 73.9929 98.0482C74.1086 98.3528 74.171 98.3745 74.4916 98.2005C74.8122 98.0156 74.8389 97.7111 74.5539 97.4609C74.3135 97.2543 74.3135 97.2543 74.1086 97.5153Z" fill="#C6C6C6"/>
<path d="M92.5533 97.7873C92.3841 97.8634 92.3485 97.9504 92.3752 98.2876L92.4019 98.7009L93.0788 98.6682C93.7022 98.6356 93.7735 98.6465 94.0317 98.9184C94.3791 99.2773 94.7888 99.2664 94.8333 98.8966C94.9046 98.3093 94.3613 97.8525 93.5597 97.8308C93.3192 97.8199 93.0342 97.7873 92.9363 97.7546C92.8383 97.7111 92.6691 97.7329 92.5533 97.7873Z" fill="#C6C6C6"/>
<path d="M90.6928 98.0809C90.6394 98.1244 90.6127 98.2875 90.6394 98.4615C90.7017 98.8531 91.1203 99.1358 91.3786 98.9727C91.5745 98.8422 91.6191 98.4071 91.4499 98.2331C91.2895 98.0809 90.8175 97.983 90.6928 98.0809Z" fill="#C6C6C6"/>
<path d="M87.7801 99.8972C87.7534 99.9842 87.6554 100.06 87.5752 100.06C87.0498 100.06 86.836 100.8 87.2279 101.246C87.5574 101.627 87.7801 101.474 87.8424 100.854C87.8691 100.517 87.9493 100.289 88.074 100.18C88.2254 100.039 88.2432 99.9734 88.1541 99.8646C88.0116 99.6906 87.8424 99.7015 87.7801 99.8972Z" fill="#C6C6C6"/>
<path d="M96.4549 101.137C96.3925 101.29 96.3925 101.377 96.4638 101.42C96.5796 101.507 96.5974 101.485 96.6686 101.17C96.7488 100.876 96.5885 100.844 96.4549 101.137Z" fill="#C6C6C6"/>
<path d="M97.8885 101.278C97.8439 101.42 97.7282 101.616 97.6302 101.735C97.4164 101.964 97.2116 102.605 97.3007 102.779C97.3986 102.975 97.6836 102.899 97.8618 102.627C97.9508 102.475 98.1022 102.138 98.1824 101.855C98.3071 101.463 98.316 101.322 98.2358 101.202C98.0844 100.974 97.9775 100.996 97.8885 101.278Z" fill="#C6C6C6"/>
<path d="M85.3222 101.637C85.1797 101.844 85.2688 102.138 85.4558 102.062C85.5983 101.986 85.6429 101.637 85.5093 101.54C85.4647 101.507 85.3846 101.55 85.3222 101.637Z" fill="#C6C6C6"/>
<path d="M72.4345 101.703C72.3811 101.79 72.3098 101.986 72.2742 102.16C72.2297 102.377 72.1584 102.453 71.9981 102.453C71.8111 102.453 71.7844 102.486 71.8378 102.747C71.9269 103.182 71.9625 103.225 72.1495 103.16C72.2386 103.128 72.3989 103.084 72.4879 103.041C72.6215 102.997 72.7017 103.073 72.8086 103.323C72.9333 103.617 72.9778 103.65 73.245 103.595C73.4231 103.552 73.6636 103.584 73.8773 103.693C74.0911 103.802 74.474 103.867 74.9461 103.867C75.4092 103.867 75.7833 103.922 75.9436 104.019C76.8253 104.552 76.9945 104.607 77.8673 104.618C78.3928 104.618 78.9004 104.694 79.132 104.792C79.6308 104.998 79.7733 104.922 79.8979 104.4C79.9959 104.03 79.987 103.943 79.8445 103.758C79.7109 103.573 79.5862 103.541 79.1944 103.563C78.7134 103.595 78.7134 103.595 78.6154 103.215C78.5264 102.899 78.4551 102.834 78.1523 102.758C77.9564 102.703 77.7515 102.584 77.6892 102.497C77.6179 102.377 77.5111 102.344 77.3597 102.388C77.1904 102.442 77.1281 102.41 77.1281 102.29C77.1281 102.018 76.8876 102.105 76.6828 102.453C76.469 102.823 76.3444 102.856 75.9436 102.595C75.7833 102.497 75.4626 102.41 75.2133 102.399C74.8303 102.388 74.7679 102.344 74.7412 102.149C74.6967 101.801 74.5008 101.714 73.4676 101.638C72.7284 101.572 72.5147 101.583 72.4345 101.703Z" fill="#C6C6C6"/>
<path d="M78.669 102.616C78.5978 102.856 78.8917 103.215 79.1678 103.215C79.4439 103.215 79.8001 102.943 79.8001 102.736C79.8001 102.432 78.767 102.334 78.669 102.616Z" fill="#C6C6C6"/>
<path d="M94.9227 103.323C94.424 104.106 94.3438 104.259 94.3794 104.378C94.4596 104.661 94.7446 104.509 95.1276 103.965C95.3413 103.66 95.5372 103.399 95.5551 103.367C95.6174 103.301 95.368 102.997 95.2522 102.997C95.1899 102.997 95.0385 103.138 94.9227 103.323Z" fill="#C6C6C6"/>
<path d="M90.4341 103.617C90.2738 103.639 90.0778 103.758 89.9977 103.867C89.8552 104.063 89.8552 104.085 89.9888 104.15C90.1936 104.248 90.7191 104.106 90.8438 103.922C90.9417 103.769 90.8972 103.519 90.7725 103.563C90.7369 103.563 90.5855 103.595 90.4341 103.617Z" fill="#C6C6C6"/>
<path d="M82.3381 104.639C81.7949 105.085 81.6613 105.303 81.8483 105.444C81.9908 105.553 83.6919 105.172 83.8789 104.998C84.0927 104.802 83.9145 104.476 83.5761 104.433C83.4336 104.411 83.2822 104.346 83.2377 104.291C83.0863 104.117 82.8814 104.193 82.3381 104.639Z" fill="#C6C6C6"/>
<path d="M80.0674 104.433C80.0674 104.509 80.1386 104.683 80.2277 104.824C80.3791 105.063 80.3969 105.063 80.673 104.9C80.8422 104.791 80.958 104.639 80.958 104.509C80.958 104.335 80.8957 104.302 80.5127 104.302C80.2188 104.302 80.0674 104.346 80.0674 104.433Z" fill="#C6C6C6"/>
<path d="M81.1809 104.737C80.8959 105.292 80.9048 105.357 81.2254 105.412C81.5549 105.477 81.6707 105.325 81.7331 104.737C81.7776 104.346 81.7598 104.302 81.5906 104.302C81.4748 104.302 81.3323 104.454 81.1809 104.737Z" fill="#C6C6C6"/>
<path d="M84.8052 104.65C84.1194 105.172 84.1996 105.422 85.0902 105.531C85.5177 105.586 85.678 105.553 85.9808 105.357C86.1857 105.237 86.5508 105.096 86.7913 105.063C87.2188 105.009 87.2366 104.998 87.2366 104.683C87.2366 104.313 87.2455 104.313 86.5508 104.574C86.0521 104.759 86.0432 104.759 85.8027 104.531C85.4821 104.226 85.3574 104.237 84.8052 104.65Z" fill="#C6C6C6"/>
<path d="M87.7439 104.433C87.5569 104.661 87.6281 104.846 87.9042 104.846C88.1091 104.846 88.1714 104.792 88.1714 104.639C88.1714 104.531 88.1091 104.4 88.0289 104.367C87.8508 104.28 87.8686 104.28 87.7439 104.433Z" fill="#C6C6C6"/>
<path d="M89.9617 104.618C89.3115 104.781 89.1779 104.857 88.9642 105.172C88.8217 105.368 88.4565 105.716 88.1537 105.934C87.646 106.282 87.5926 106.358 87.5659 106.706C87.5125 107.413 87.9578 107.5 88.4298 106.869C88.5545 106.717 88.7148 106.586 88.8039 106.586C88.884 106.586 89.0087 106.477 89.0889 106.336C89.1601 106.206 89.3917 105.988 89.6054 105.858C90.3357 105.422 91.0126 105.064 91.1017 105.064C91.2709 105.064 91.2085 104.759 91.0037 104.585C90.8968 104.487 90.781 104.411 90.7543 104.422C90.7276 104.422 90.3714 104.509 89.9617 104.618Z" fill="#C6C6C6"/>
<path d="M83.8705 105.76C83.7993 105.966 84.0575 106.369 84.2535 106.369C84.3425 106.369 84.5028 106.488 84.6186 106.641C84.8947 106.989 85.1263 106.989 85.1975 106.641C85.2688 106.282 85.1886 106.042 84.9927 106.042C84.9036 106.042 84.7878 105.955 84.7255 105.836C84.6008 105.596 83.9418 105.531 83.8705 105.76Z" fill="#C6C6C6"/>
<path d="M86.9788 107.511C86.774 107.695 86.8541 108 87.1035 108C87.3172 108 87.6646 107.608 87.5933 107.456C87.5132 107.304 87.1747 107.326 86.9788 107.511Z" fill="#C6C6C6"/>
</svg>
