<svg width="114" height="107" viewBox="0 0 114 107" fill="none" xmlns="http://www.w3.org/2000/svg">
<path d="M85.7667 0.0543365C85.6954 0.0816116 85.5619 0.217972 85.4817 0.363434C85.3837 0.54525 85.259 0.636154 85.1255 0.636154C85.0097 0.636154 84.8583 0.68161 84.787 0.727066C84.6623 0.808884 84.6445 0.927063 84.6178 1.8907C84.6089 2.00889 84.5109 2.33616 84.3951 2.61797C84.2794 2.8998 84.1369 3.2998 84.0745 3.49979C84.0122 3.6907 83.8875 3.91798 83.7984 3.99979C83.6203 4.15434 82.8276 5.69979 82.8276 5.8907C82.8276 5.9907 82.8989 6.00889 83.0859 5.97252C83.647 5.85434 83.6203 6.50889 83.0503 6.94525C82.7831 7.16343 82.7564 7.21798 82.8009 7.52707C82.8276 7.70889 82.89 7.8998 82.9256 7.95434C83.0592 8.09979 83.0147 8.30888 82.7831 8.65434C82.6584 8.83616 82.4981 9.27252 82.409 9.61797C82.2665 10.2362 82.2665 10.2543 82.4536 10.5271C82.6762 10.8452 82.7029 11.318 82.5248 11.7543C82.4001 12.0634 82.4714 13.0089 82.6495 13.4089C82.7742 13.6816 82.7742 13.8362 82.6673 14.0907C82.1062 15.4089 81.7945 16.5725 81.8925 16.9725C81.9192 17.1089 81.8925 17.2816 81.8123 17.3998C81.7411 17.5089 81.6342 17.7816 81.5808 18.0089C81.4383 18.4998 81.1533 19.1634 81.0375 19.2362C80.8504 19.3543 80.4675 20.0725 80.3606 20.4998C80.1469 21.3453 80.0845 21.4271 79.4878 21.718C78.6328 22.1362 77.3948 22.2543 77.3948 21.918C77.3948 21.8634 77.1989 21.7543 76.9495 21.6634C76.709 21.5725 76.3617 21.3725 76.1925 21.2089C76.0144 21.0452 75.7739 20.9089 75.6581 20.9089C75.3909 20.9089 75.0792 20.4725 75.0792 20.0998C75.0792 19.9271 75.0258 19.7907 74.9456 19.7634C74.8744 19.7362 74.7942 19.6362 74.7675 19.5452C74.7408 19.4453 74.5537 19.3362 74.2954 19.2725C74.0639 19.1998 73.7967 19.0998 73.6987 19.0271C73.6008 18.9634 73.4048 18.9089 73.2534 18.9089C72.8615 18.9089 72.149 18.6089 71.7572 18.2725C71.579 18.118 71.2673 17.7634 71.0714 17.4907C70.7597 17.0725 70.6439 16.9816 70.2075 16.8543C69.9314 16.7725 69.6197 16.6089 69.5128 16.4907C69.4059 16.3725 69.2723 16.2725 69.2278 16.2725C69.1744 16.2725 68.9873 16.1725 68.8092 16.0452C68.5776 15.8816 68.4351 15.8362 68.3372 15.8998C68.159 15.9998 67.8562 15.9271 67.7137 15.7543C67.6603 15.6816 67.3397 15.4362 67.0012 15.1998C66.6183 14.9271 66.3867 14.6998 66.3689 14.5725C66.3511 14.4453 66.1819 14.2816 65.9236 14.1271C65.692 13.9907 65.3803 13.7725 65.2378 13.6452C65.0864 13.518 64.739 13.2907 64.4719 13.1452C63.7683 12.7907 63.5723 12.318 63.9909 12.0362C64.1156 11.9543 64.1958 11.8634 64.1779 11.8362C64.1245 11.7816 64.4006 11.2725 64.4897 11.2725C64.5253 11.2725 64.5965 11.1543 64.6589 10.9998C64.7212 10.8543 64.8815 10.6816 65.024 10.618C65.2289 10.5271 65.2823 10.4453 65.2823 10.2271C65.2823 10.0816 65.3625 9.82706 65.4604 9.68161C65.5584 9.52707 65.6386 9.31798 65.6386 9.20889C65.6386 9.09979 65.6831 8.98161 65.7276 8.95434C65.8612 8.87252 65.8345 8.63615 65.692 8.63615C65.6208 8.63615 65.5495 8.69979 65.5139 8.77252C65.4872 8.84525 65.4248 8.90888 65.3803 8.90888C65.3269 8.90888 65.309 8.84525 65.3358 8.77252C65.3714 8.69979 65.3447 8.63615 65.2912 8.63615C65.2378 8.63615 65.1933 8.51797 65.1933 8.36343C65.1933 8.17252 65.2289 8.10889 65.318 8.14525C65.5139 8.21798 65.5851 8.00889 65.4159 7.81798C65.318 7.70889 65.3001 7.63615 65.3625 7.59071C65.4159 7.56343 65.4604 7.56343 65.4604 7.60889C65.4604 7.64525 65.505 7.61797 65.5495 7.54525C65.603 7.45434 65.6386 7.44525 65.6386 7.51797C65.6386 7.58161 65.6831 7.63615 65.7276 7.63615C65.7811 7.63615 65.8167 7.57253 65.8167 7.49979C65.8167 7.31798 65.9592 7.32706 66.0304 7.50889C66.075 7.61797 66.1195 7.59979 66.2976 7.3907C66.4758 7.1907 66.5381 7.15434 66.6272 7.24525C66.7162 7.33616 66.7162 7.36343 66.6361 7.36343C66.5737 7.36343 66.5292 7.44525 66.5292 7.54525C66.5292 7.76343 66.6895 7.7907 66.7697 7.58161C66.7964 7.50889 66.8765 7.46343 66.9389 7.4907C67.0101 7.51797 67.0636 7.48161 67.0636 7.40888C67.0636 7.33616 67.1259 7.24525 67.1972 7.19979C67.2773 7.16343 67.3486 7.03616 67.3575 6.92707C67.3664 6.7998 67.4287 6.72707 67.5356 6.72707C67.6514 6.72707 67.687 6.68161 67.6514 6.58161C67.6247 6.49979 67.598 6.41798 67.598 6.3998C67.598 6.38161 67.5534 6.36343 67.5 6.36343C67.4465 6.36343 67.3397 6.2907 67.2595 6.20889C67.117 6.07253 67.1259 6.06343 67.3575 6.12707C67.589 6.18161 67.598 6.17252 67.5445 5.94525C67.4911 5.73616 67.5089 5.70889 67.6336 5.75434C67.7226 5.7907 67.7761 5.76343 67.7761 5.67252C67.7761 5.48161 68.3906 4.72707 68.542 4.72707C68.7469 4.72707 68.6845 4.48161 68.3906 4.1907C68.1323 3.91798 67.687 3.7998 67.687 3.99979C67.687 4.04525 67.6514 4.09071 67.598 4.09071C67.5534 4.09071 67.5089 4.00889 67.5089 3.90888C67.5089 3.7998 67.4465 3.62707 67.3753 3.50889C67.2506 3.31798 67.2506 3.2907 67.3842 3.23616C67.4822 3.19979 67.5089 3.14525 67.4555 3.09071C67.3486 2.98161 67.0547 3.11797 66.4847 3.52707C66.0304 3.85434 65.977 4.07253 66.3422 4.14525C66.6004 4.19979 66.6094 4.20889 66.4936 4.4907C66.3956 4.74525 66.3422 4.77252 66.0215 4.77252C65.6386 4.77252 65.6386 4.78161 65.7811 4.28161C65.8345 4.09071 65.8256 4.07253 65.6386 4.13615L65.4337 4.19979L65.6386 3.91798C65.8612 3.59071 65.8167 3.43616 65.5673 3.66343C65.4783 3.75434 65.3358 3.81798 65.2556 3.81798C65.1755 3.81798 65.0151 3.90888 64.9172 4.00889C64.7658 4.16343 64.7123 4.18161 64.65 4.08161C64.5698 3.94525 65.0686 3.36343 65.2645 3.36343C65.318 3.36343 65.3714 3.31798 65.3714 3.26343C65.3714 3.14525 65.0151 3.21798 64.6233 3.41798C64.4808 3.4907 64.2937 3.52707 64.2047 3.49979C64.1245 3.47252 64.0265 3.48161 63.9998 3.53616C63.9731 3.58161 63.8751 3.59979 63.7861 3.57253C63.697 3.55434 63.5189 3.63615 63.3675 3.77252C62.9756 4.10889 62.6995 4.16343 62.5392 3.92706C62.468 3.81798 62.3344 3.72707 62.2453 3.72707C62.1473 3.72707 62.0761 3.66343 62.0761 3.59071C62.0761 3.51797 62.0405 3.45434 61.987 3.45434C61.9425 3.45434 61.898 3.3998 61.898 3.32706C61.898 3.09071 61.7109 3.06343 61.4615 3.24525C61.0786 3.53616 60.8915 3.56343 60.5175 3.36343C60.2859 3.24525 60.1523 3.21798 60.1256 3.28161C60.1078 3.33616 60.0455 3.28161 59.992 3.16343C59.9386 3.05434 59.8495 2.95434 59.805 2.95434C59.7515 2.95434 59.6625 2.91798 59.609 2.88161C59.5467 2.84525 59.4131 2.85434 59.3062 2.90888C59.1726 2.98161 59.0925 2.9907 59.0212 2.91798C58.9589 2.85434 58.9767 2.80888 59.0747 2.76343C59.1548 2.73616 59.2261 2.65434 59.2261 2.59071C59.2261 2.44525 58.754 2.30888 58.7095 2.44525C58.6917 2.49979 58.6026 2.54525 58.5047 2.54525C58.4156 2.54525 58.3355 2.58161 58.3355 2.63615C58.3355 2.76343 58.193 2.74525 58.0415 2.59979C57.9614 2.51797 57.8812 2.49979 57.8278 2.55434C57.7744 2.60889 57.6764 2.57252 57.5695 2.46343C57.4448 2.35434 57.3023 2.30888 57.1064 2.34525C56.857 2.38161 56.8125 2.35434 56.67 2.03616C56.5008 1.63615 56.1267 1.18161 55.9842 1.18161C55.9308 1.18161 55.7883 1.30888 55.6725 1.45434C55.4676 1.72707 55.2183 1.81798 55.2183 1.62707C55.2183 1.4907 54.675 0.817978 54.5592 0.817978C54.5058 0.817978 54.4078 0.727066 54.3365 0.627068C54.2475 0.472519 54.203 0.454338 54.1495 0.54525C54.0872 0.645248 54.0248 0.654343 53.8289 0.563431C53.535 0.427063 53.4815 0.472519 53.6151 0.727066C53.6686 0.827065 53.6953 0.963432 53.6686 1.02707C53.6508 1.09071 53.624 1.07252 53.624 0.9907C53.6151 0.836159 53.2589 0.54525 53.0808 0.54525C53.0362 0.54525 52.9917 0.636154 52.9828 0.745247C52.9828 0.863434 52.9561 0.899796 52.9294 0.836159C52.867 0.672523 52.7512 0.699791 52.5464 0.927063C52.3148 1.18161 52.3237 1.2907 52.5731 1.26343C52.7601 1.23616 53.2589 1.63615 53.2589 1.80888C53.2589 1.96343 53.535 1.99979 53.7309 1.87252C54.0694 1.65434 54.4701 1.60889 54.6126 1.77252C54.675 1.85434 54.8175 2.02707 54.9333 2.15434C55.0936 2.33616 55.1114 2.40888 55.0312 2.50889C54.9511 2.60889 54.9511 2.66343 55.0401 2.77252C55.147 2.8998 55.0847 3.70889 54.9778 3.59979C54.9511 3.57253 54.7997 3.63615 54.6483 3.75434C54.3365 3.98161 54.0961 4.03616 54.0159 3.8998C53.9803 3.84525 53.8378 3.8998 53.6597 4.03616C53.3212 4.30888 53.152 4.32706 52.9917 4.13615C52.8937 4.01797 52.8492 4.01797 52.5731 4.13615C51.8784 4.43616 51.1926 4.26343 51.1125 3.78161C51.059 3.52707 50.872 3.49979 50.8364 3.74525C50.8097 3.95434 50.7384 3.96343 50.1862 3.88161C50.1417 3.87252 50.0883 3.94525 50.0883 4.04525C50.0794 4.14525 50.0704 4.2998 50.0615 4.38161C50.0526 4.48161 50.0081 4.51797 49.919 4.48161C49.7676 4.42706 49.4025 4.70889 49.4826 4.82706C49.5005 4.87252 49.3847 4.84525 49.2065 4.76343C49.0284 4.6907 48.8592 4.64525 48.8236 4.67252C48.788 4.69979 48.7434 4.86343 48.7345 5.05434C48.7078 5.44525 48.6544 5.55434 48.5119 5.52707C48.4495 5.51797 48.3248 5.53616 48.218 5.57253C48.0755 5.62707 48.0398 5.69979 48.0665 5.85434C48.12 6.13615 47.9419 6.47252 47.7548 6.44525C47.4164 6.41798 47.3808 6.45434 47.3808 6.86343C47.3808 7.15434 47.4342 7.33616 47.5589 7.47252C47.7905 7.73616 47.7815 7.7907 47.4609 8.09979C47.1581 8.3907 46.8909 8.43616 46.8108 8.21798C46.7662 8.09071 46.7395 8.09071 46.6059 8.23616C46.5169 8.31798 46.4456 8.43616 46.4456 8.4907C46.4278 8.75434 46.2764 9.32706 46.2051 9.42707C46.1517 9.4907 46.1428 9.60889 46.1695 9.6907C46.2408 9.88161 46.0715 10.0998 45.9023 10.0271C45.8311 9.99979 45.7776 10.0271 45.7776 10.0816C45.7776 10.1362 45.6975 10.1816 45.5906 10.1816C45.4837 10.1816 45.4214 10.2271 45.4481 10.2907C45.4659 10.3543 45.3947 10.5816 45.2789 10.7998C45.1631 11.0089 45.0651 11.2362 45.0651 11.2998C45.0651 11.4271 45.3769 11.7271 45.5105 11.7271C45.5639 11.7271 45.5995 11.7634 45.5995 11.818C45.5995 11.8634 45.7509 11.9089 45.938 11.9089C46.2319 11.918 46.2497 11.9271 46.1161 12.0362C45.9112 12.1907 45.9112 12.2634 46.1606 12.5271C46.3476 12.7362 46.3476 12.7452 46.1784 12.7089C46.027 12.6907 45.9914 12.7452 45.9558 13.0907C45.9112 13.4725 45.9023 13.4907 45.7955 13.2998C45.6708 13.0634 45.2522 12.818 44.985 12.818C44.7801 12.818 44.6733 13.0907 44.7623 13.3816C44.8158 13.5634 44.8069 13.5725 44.6733 13.4634C44.5931 13.3998 44.5308 13.2907 44.5308 13.218C44.5308 13.0362 44.1656 12.818 43.8628 12.818C43.7203 12.818 43.4086 12.7543 43.177 12.6907C42.8564 12.5907 42.6872 12.5816 42.4467 12.6543C42.1172 12.7634 42.1083 12.7816 42.2864 13.2634C42.322 13.3543 42.2686 13.3725 42.0637 13.3271C41.7253 13.2452 41.5472 13.4362 41.6273 13.818C41.6808 14.1089 41.565 14.1907 41.4314 13.9453C41.3423 13.7816 41.4403 13.0998 41.565 13.0089C41.6986 12.9271 41.7876 12.4543 41.6808 12.4543C41.5205 12.4543 40.9594 11.9907 40.523 11.5089C40.0153 10.9362 39.7125 10.6271 39.4809 10.4453C39.3829 10.3634 39.285 10.2452 39.2672 10.1907C39.2226 10.0543 38.3855 9.95434 38.3855 10.0816C38.3855 10.1362 38.3498 10.1816 38.2964 10.1816C38.2519 10.1816 38.2073 10.118 38.2073 10.0362C38.2073 9.84525 37.8511 9.55434 37.6106 9.54525C37.5037 9.54525 37.3167 9.59071 37.192 9.64525C36.9783 9.74525 36.9783 9.76343 37.094 10.0089C37.2187 10.2452 37.2098 10.2634 37.0495 10.318C36.9159 10.3634 36.8803 10.4271 36.9159 10.5543C36.9605 10.6816 36.9426 10.7089 36.8358 10.6725C36.7378 10.6362 36.6933 10.6725 36.6933 10.8089C36.6933 10.9271 36.6487 10.9816 36.5686 10.9453C36.3726 10.8725 36.3281 10.5543 36.4973 10.4634C36.6131 10.3998 36.622 10.3452 36.5508 10.2725C36.4795 10.1998 36.4172 10.2089 36.3103 10.3089C36.2301 10.3907 36.1322 10.4543 36.0787 10.4543C35.9273 10.4543 35.6334 10.918 35.6869 11.0634C35.7225 11.1634 35.7047 11.1907 35.6423 11.1452C35.58 11.1089 35.5354 10.9543 35.5354 10.7998C35.5354 10.4907 35.2237 10.1452 35.0189 10.2271C34.9565 10.2543 34.8586 10.2725 34.8051 10.2725C34.7517 10.2725 34.7339 10.3271 34.7606 10.3998C34.7873 10.4725 34.7695 10.5452 34.7161 10.5634C34.6448 10.5907 34.6537 10.6634 34.725 10.8089C34.7962 10.9271 34.8853 10.9907 34.9655 10.9634C35.1614 10.8816 35.2326 11.1907 35.0545 11.3271C34.9565 11.3907 34.9209 11.4907 34.9655 11.5543C35.0011 11.618 34.9655 11.718 34.8675 11.7816C34.7339 11.8816 34.725 11.9271 34.823 12.0452C34.912 12.1543 34.9031 12.1907 34.7695 12.2452C34.6715 12.2725 34.5736 12.3452 34.538 12.3998C34.4934 12.4543 34.4667 12.418 34.4667 12.2998C34.4667 12.0998 34.1995 11.9453 33.9323 11.9816C33.8165 11.9998 33.8255 11.9907 33.9412 11.8907C34.1728 11.6998 34.1639 11.6362 33.8967 11.4998C33.5494 11.3089 33.4603 11.3998 33.5315 11.8725C33.585 12.2271 33.5672 12.2725 33.4069 12.2725C33.3178 12.2725 33.2198 12.3271 33.1931 12.3816C33.1664 12.4725 33.1308 12.4725 33.0239 12.3907C32.8814 12.2634 32.7567 12.3725 32.3559 12.9634C32.1778 13.2362 32.1778 13.2452 32.3292 13.4543C32.445 13.6089 32.4628 13.7089 32.4094 13.7816C32.347 13.8634 32.3826 13.918 32.5251 13.9634C32.6409 13.9998 32.7567 14.0362 32.8012 14.0452C32.8369 14.0452 32.8636 14.0725 32.8636 14.1089C32.8636 14.1543 32.8636 14.218 32.8636 14.2543C32.8636 14.4089 32.3737 14.3089 32.2847 14.1362C32.1511 13.8725 31.8305 13.8907 31.8572 14.1543C31.875 14.318 31.8394 14.3634 31.6701 14.3634C31.4297 14.3634 31.1447 14.6452 31.3317 14.6998C31.3851 14.7271 31.4386 14.7998 31.4386 14.8725C31.4386 14.9816 31.3673 14.9907 31.1269 14.9453C30.8419 14.8907 30.8151 14.9089 30.8151 15.0998C30.8151 15.5452 30.7172 15.718 30.4856 15.6998C30.3609 15.6907 30.2362 15.7452 30.1917 15.818C30.1561 15.8907 30.0848 16.0452 30.0314 16.1452C29.9156 16.3816 30.0225 16.9271 30.2273 17.1362C30.3075 17.218 30.3698 17.3271 30.3698 17.3725C30.3698 17.5271 30.5212 17.4543 30.6192 17.2452C30.6994 17.0725 30.7083 17.0907 30.6637 17.3634C30.6103 17.7089 30.4589 17.9543 30.4589 17.6998C30.4589 17.618 30.3965 17.5452 30.3253 17.5452C30.254 17.5452 30.1917 17.6271 30.1917 17.718C30.1917 17.818 30.1561 17.918 30.1026 17.9543C30.0581 17.9816 30.0403 18.0634 30.0759 18.1362C30.1026 18.2089 30.0937 18.3725 30.067 18.4998C29.9958 18.7725 29.7019 18.8089 29.6306 18.5543C29.6039 18.4453 29.4792 18.3634 29.2655 18.3271C29.0784 18.2907 28.8647 18.2362 28.7934 18.2089C28.6865 18.1634 28.6598 18.1907 28.7044 18.2907C28.7311 18.3816 28.7044 18.4634 28.6242 18.4907C28.4105 18.5725 28.3837 18.5543 28.4372 18.3634C28.4906 18.1452 28.17 17.8634 28.0186 17.9907C27.9651 18.0362 27.8405 18.0816 27.7514 18.0998C27.5198 18.1452 27.502 18.518 27.7158 18.6725C27.8761 18.7907 27.8672 18.7998 27.6356 18.8634C27.3951 18.918 27.3862 18.9271 27.5644 19.0634C27.7425 19.1998 27.7425 19.1998 27.5465 19.1452C27.2972 19.0634 27.1992 19.2452 27.3773 19.4453C27.4575 19.5362 27.5198 19.6543 27.5198 19.7089C27.5198 19.7725 27.5911 19.818 27.6801 19.818C27.8494 19.8271 28.2323 20.118 28.2323 20.2452C28.2323 20.2907 28.2858 20.3816 28.3392 20.4362C28.4015 20.4998 28.455 20.6725 28.4639 20.818C28.4728 21.0543 28.4639 21.0634 28.3125 20.9725C28.2145 20.9089 28.1433 20.8362 28.1433 20.7998C28.1433 20.7543 28.0631 20.7271 27.974 20.7271C27.7514 20.7271 27.6712 20.9634 27.8048 21.2089C27.9117 21.4089 27.9117 21.5634 27.8226 21.9907C27.7781 22.1907 27.7692 22.1998 27.6 22.0452C27.5109 21.9543 27.3684 21.7634 27.2972 21.618C27.2259 21.4816 27.1012 21.2362 27.0211 21.0816C26.9409 20.9271 26.8251 20.7816 26.7539 20.7543C26.6826 20.7271 26.6292 20.6362 26.6292 20.5452C26.6292 20.4453 26.5847 20.3453 26.5401 20.318C26.4867 20.2816 26.4689 20.1816 26.4956 20.0816C26.5312 19.9725 26.5134 19.9089 26.4333 19.9089C26.3709 19.9089 26.2373 19.8453 26.1483 19.7725C25.988 19.6452 25.988 19.6362 26.1394 19.3907C26.2462 19.2271 26.264 19.1362 26.2017 19.1089C26.1394 19.0907 26.0948 19.018 26.0948 18.9543C26.0948 18.7543 25.6495 19.018 25.5961 19.2543C25.5605 19.3634 25.4803 19.4907 25.409 19.5362C25.3289 19.5725 25.2398 19.7725 25.2131 19.9634C25.1686 20.2362 25.1151 20.318 24.9815 20.318C24.6876 20.3271 24.563 20.4543 24.6164 20.6907C24.6609 20.8453 24.6431 20.8907 24.554 20.8543C24.3848 20.7907 23.9217 21.3453 23.699 21.8725C23.4942 22.3362 23.4497 23.0816 23.6189 23.2543C23.6723 23.3089 23.7347 23.618 23.7436 23.9271C23.7703 24.4634 23.8683 24.6725 24.0019 24.4634C24.0998 24.2907 24.3136 24.3543 24.3136 24.5543C24.3136 24.7816 23.0756 26.0271 22.9153 25.9543C22.755 25.8998 22.4967 26.4362 22.6125 26.5816C22.7283 26.718 22.6481 26.818 22.4344 26.818C22.2295 26.818 22.1315 26.9725 22.2562 27.1271C22.3097 27.1907 22.3186 27.2816 22.274 27.3271C22.2295 27.3725 22.1494 27.5725 22.087 27.7725C21.9 28.3907 21.3122 29.3271 20.8669 29.7089C20.0297 30.418 18.0703 31.3543 17.153 31.4907C17.0639 31.4998 16.8947 31.6089 16.7789 31.718C16.5919 31.8998 16.5384 31.9089 16.2 31.818C15.6656 31.6725 15.1312 31.7271 14.9175 31.9453C14.8195 32.0543 14.6592 32.2907 14.5612 32.4907C14.4098 32.7907 14.0625 33.0543 13.8755 33.018C13.8398 33.0089 13.6528 33.0543 13.4747 33.1271C13.1362 33.2543 12.682 33.3816 12.5039 33.3998C12.4059 33.4089 11.7558 33.9634 11.7558 34.0452C11.7558 34.1816 11.257 34.6362 11.1056 34.6362C10.9987 34.6362 10.7494 34.718 10.5356 34.8271C10.117 35.0362 9.70733 35.0089 9.70733 34.7634C9.70733 34.5907 9.42233 34.6634 9.06608 34.918C8.84342 35.0725 8.54951 35.1543 8.54951 35.0543C8.54951 35.0271 8.58514 34.9089 8.63858 34.7816C8.77217 34.4089 8.5317 34.4816 8.27342 34.8816C8.15764 35.0725 7.97061 35.2634 7.86373 35.318C7.74795 35.3634 7.65889 35.4543 7.65889 35.518C7.65889 35.5816 7.58764 35.6362 7.48967 35.6362C7.40061 35.6362 7.27592 35.6907 7.22248 35.7634C7.16014 35.8362 7.04436 35.8725 6.9553 35.8452C6.83061 35.8089 6.76827 35.8634 6.73264 36.0634C6.68811 36.2271 6.54561 36.3907 6.33186 36.5271C6.12702 36.6634 5.9578 36.8634 5.88655 37.0452C5.83311 37.218 5.70842 37.3816 5.61936 37.4089C5.5303 37.4362 5.32545 37.6543 5.15623 37.8907C4.8178 38.3725 4.55061 38.6271 4.38139 38.6362C4.31905 38.6362 4.13201 38.7362 3.9717 38.8634C3.81139 38.9907 3.63326 39.0907 3.57983 39.0907C3.5353 39.0907 3.28592 39.2543 3.03655 39.4543C2.69811 39.7271 2.58233 39.8816 2.58233 40.0543C2.58233 40.218 2.51998 40.3089 2.4042 40.3362C2.27061 40.3725 2.23498 40.4362 2.27952 40.5634C2.30623 40.6543 2.28842 40.7816 2.24389 40.8453C2.19936 40.9089 2.12811 41.1634 2.09248 41.4271C2.04795 41.7634 1.99451 41.8816 1.91436 41.8543C1.85202 41.8271 1.74514 41.8907 1.67389 41.9907C1.50467 42.2362 1.4067 42.1362 1.52248 41.8362C1.59373 41.6543 1.57592 41.5725 1.41561 41.3998C1.24639 41.2089 1.22858 41.118 1.2642 40.5543C1.29092 40.1998 1.29092 39.8907 1.2642 39.8725C1.19295 39.7907 0.899046 39.9907 0.74764 40.2271C0.67639 40.3453 0.560609 40.7453 0.489359 41.1089C0.427015 41.4725 0.293421 41.9816 0.195452 42.2453C-0.00048504 42.7634 0.0262337 43.1453 0.257796 43.2271C0.542796 43.318 0.836702 44.1816 0.631859 44.318C0.578421 44.3453 0.578421 44.4725 0.622952 44.618C0.809984 45.218 0.792171 45.5362 0.587327 45.7907C0.159827 46.318 -0.071735 47.6453 0.10639 48.5543C0.168734 48.8634 0.284515 49.0725 0.578421 49.3634C0.801077 49.5907 0.979202 49.8362 0.979202 49.918C0.979202 50.0089 1.02373 50.1089 1.06826 50.1362C1.1217 50.1634 1.15733 50.2634 1.15733 50.3543C1.15733 50.4453 1.23748 50.5907 1.33545 50.6907C1.63827 50.9816 1.6917 51.0362 1.86983 51.2634C1.9678 51.3816 2.04795 51.5271 2.04795 51.5816C2.04795 51.6362 2.2528 51.9089 2.49326 52.1725C2.74264 52.4453 2.93858 52.7089 2.93858 52.7453C2.93858 52.7816 2.99201 52.818 3.06326 52.818C3.14342 52.818 3.17905 52.9816 3.18795 53.4089C3.19686 53.7362 3.24139 54.0907 3.30373 54.1907C3.38389 54.3543 3.36608 54.418 3.22358 54.5725C2.9653 54.8362 2.81389 54.6816 2.56451 53.8998C2.36858 53.2725 2.16373 53.0998 2.20827 53.5998C2.22608 53.8816 2.10139 54.1725 1.99451 54.0634C1.95889 54.0271 1.94108 53.7998 1.94998 53.5543C1.95889 53.1362 1.94108 53.0907 1.46014 52.5998C1.18405 52.3089 0.943577 52.0998 0.925765 52.118C0.899046 52.1362 0.863421 52.2998 0.827796 52.4816C0.792171 52.7362 0.836702 52.8816 1.05936 53.2089C1.21076 53.4362 1.33545 53.6634 1.33545 53.7089C1.33545 53.8634 1.86092 54.3543 2.09248 54.418C2.34186 54.4816 2.35967 54.4998 2.43983 54.8362C2.48436 55.018 2.44873 55.1362 2.31514 55.2725C2.08358 55.5089 1.9767 55.4998 1.90545 55.2271C1.87873 55.0998 1.81639 55.018 1.78077 55.0453C1.73623 55.0725 1.6828 54.9725 1.64717 54.818C1.61155 54.6725 1.55811 54.5453 1.51358 54.5453C1.46905 54.5453 1.30873 54.3634 1.14842 54.1453C0.836702 53.6998 0.622952 53.6816 0.622952 54.0907C0.622952 54.2998 0.587327 54.3362 0.444827 54.2998C0.204359 54.2362 0.222171 54.3998 0.480452 54.6089C0.596234 54.6998 0.712015 54.8634 0.74764 54.9543C0.774359 55.0543 0.970296 55.2543 1.18405 55.4089C1.8342 55.8816 2.21717 56.2816 2.90295 57.1998C3.64217 58.2089 3.85592 58.6453 3.80248 59.0453C3.75795 59.3453 4.1142 60.2725 4.27451 60.2725C4.41701 60.2725 5.22748 61.0725 5.44123 61.418C5.5392 61.5907 5.61045 61.7998 5.58373 61.8816C5.56592 61.9907 5.72623 62.218 6.05577 62.5453C6.6703 63.1453 6.9553 63.6816 7.05327 64.4089C7.23139 65.7271 7.37389 66.4543 7.47186 66.4543C7.50748 66.4543 7.58764 66.6453 7.64998 66.8816C7.78358 67.3453 8.28233 68.2634 8.50498 68.4543C8.57623 68.518 8.76326 68.7998 8.92358 69.0816C9.08389 69.3543 9.44014 69.8998 9.72514 70.2725C10.1705 70.8725 10.2506 71.0453 10.3753 71.6725C10.4733 72.1271 10.4911 72.418 10.4376 72.4725C10.3842 72.5271 10.3931 72.6453 10.4733 72.7998C10.6158 73.0816 10.6336 73.2907 10.5178 73.4089C10.3575 73.5907 10.3664 73.8816 10.5623 74.4543C10.8651 75.3543 10.8919 75.6362 10.7315 76.2089C10.5178 76.9543 9.92998 77.3453 9.61826 76.9543C9.41342 76.7089 9.28873 76.7907 9.31545 77.1543C9.41342 78.2816 9.63608 79.0816 9.93889 79.3725C10.1437 79.5725 10.1526 79.5725 10.3308 79.4089C10.5 79.2543 10.5267 79.2543 10.9987 79.4362C11.6044 79.6725 12.2278 80.0998 12.4772 80.4453C12.6019 80.618 12.7176 80.6907 12.8334 80.6634C12.9225 80.6362 13.3055 80.7271 13.6795 80.8543C14.107 81.0089 14.4276 81.0725 14.5523 81.0362C14.6503 80.9998 14.8462 80.9725 14.9798 80.9816C15.1134 80.9907 15.2381 80.9634 15.2648 80.918C15.2915 80.8725 15.3895 80.8543 15.4786 80.8816C15.5587 80.8998 15.7992 80.8816 15.9951 80.8362C16.2 80.7907 16.4226 80.7816 16.485 80.818C16.5562 80.8543 16.7165 80.9089 16.8412 80.9453C17.0283 80.9816 17.0906 80.9634 17.1262 80.8271C17.1619 80.6634 17.2064 80.6543 17.4825 80.7453C17.812 80.8453 18.0792 80.7998 18.0792 80.6362C18.0792 80.5907 18.008 80.5453 17.9278 80.5453C17.6784 80.5453 17.8476 80.4543 18.1772 80.418C18.3998 80.3998 18.48 80.3453 18.48 80.218C18.48 80.0998 18.5512 80.0362 18.7294 80.018C18.9253 79.9907 18.9698 79.9453 18.9698 79.7271C18.9698 79.5271 19.0411 79.4271 19.3083 79.2634C19.6912 79.0271 19.7892 78.9089 19.7269 78.7543C19.709 78.6998 19.8515 78.5634 20.0386 78.4634C20.3236 78.318 20.4394 78.2907 20.6353 78.3725C20.9025 78.4725 21.1519 78.418 21.0628 78.2634C21.0272 78.2089 21.0628 78.1816 21.1608 78.1998C21.2765 78.218 21.33 78.1725 21.3211 78.0634C21.3122 77.9453 21.3478 77.918 21.4636 77.9543C21.6595 78.018 21.802 77.8271 21.6328 77.7271C21.4458 77.5998 21.6773 76.9816 22.0158 76.7271C22.4878 76.3634 22.6303 76.318 23.2448 76.2907C23.5655 76.2725 23.9039 76.2089 24.0108 76.1362C24.2869 75.9543 25.8989 75.5998 26.4065 75.6089C27.3595 75.6362 27.4753 75.6271 27.6178 75.4907C27.7514 75.3725 27.7781 75.3725 27.9117 75.4998C27.9919 75.5816 28.0542 75.6725 28.0542 75.7089C28.0542 75.7453 28.0898 75.8271 28.1344 75.8998C28.1967 75.9998 28.2501 75.9998 28.4194 75.9089C28.5351 75.8453 28.6687 75.7362 28.7133 75.6634C28.7667 75.5634 28.8736 75.5453 29.0784 75.5816C29.2744 75.6271 29.399 75.5998 29.4792 75.4998C29.5415 75.4271 29.7197 75.3634 29.8711 75.3543C30.0225 75.3543 30.2273 75.318 30.3253 75.2816C30.539 75.1907 30.8151 75.318 30.8151 75.4998C30.8151 75.6998 31.0467 75.6634 31.305 75.418C31.4386 75.2907 31.5989 75.218 31.7058 75.2453C31.875 75.2907 32.543 74.7634 32.4628 74.6362C32.4361 74.5998 32.543 74.4271 32.6855 74.2634C32.828 74.0907 32.9705 73.8089 32.9972 73.6362C33.1842 72.4271 33.487 72.0271 34.3687 71.818C34.6626 71.7453 34.9744 71.5907 35.1703 71.418C35.5622 71.0634 36.1411 70.6816 36.4083 70.5998C36.5151 70.5634 36.8803 70.2998 37.2187 70.018C37.9936 69.3725 38.3409 69.2543 39.1069 69.3634C39.953 69.4907 41.4136 69.2634 42.1261 68.9089C42.2953 68.818 42.7495 68.6362 43.1325 68.5089C43.8984 68.2453 44.6911 67.8543 45.3947 67.3998C45.7955 67.1362 46.0181 67.0816 47.3184 66.8725C48.2803 66.718 49.1531 66.6362 49.83 66.6362C50.7562 66.6362 50.9165 66.6089 51.3084 66.418L51.7448 66.1907L52.5108 66.5543C53.25 66.8998 54.0605 67.4453 54.3187 67.7634C54.479 67.9634 55.4053 67.9543 55.334 67.7543C55.2539 67.5362 55.9308 67.6362 56.3315 67.8998C56.5275 68.0271 56.7234 68.1362 56.759 68.1362C56.8036 68.1362 56.8837 68.1998 56.9372 68.2725C57.0797 68.4634 57.9525 68.4907 58.2108 68.318C58.3889 68.1998 58.4245 68.2089 58.567 68.4089C58.6561 68.5362 58.7808 68.6362 58.8342 68.6362C58.8876 68.6362 58.9945 68.6998 59.0569 68.7907C59.1548 68.9089 59.1548 68.9453 59.0747 68.9725C58.9589 69.018 58.9055 69.5453 59.0123 69.5453C59.039 69.5453 59.2083 69.4816 59.3775 69.3998C59.6714 69.2543 59.6892 69.2543 59.8495 69.418C59.9386 69.5089 60.0365 69.6816 60.0722 69.7907C60.1256 69.9816 60.0989 69.9998 59.8139 69.9998C59.4844 69.9998 59.4398 70.0453 59.5823 70.2725C59.6269 70.3543 59.6269 70.4453 59.5734 70.518C59.4576 70.6543 59.5467 70.818 59.7159 70.818C59.7961 70.818 59.8228 70.8725 59.7872 70.9634C59.7515 71.0543 59.7872 71.1453 59.8762 71.1998C59.9653 71.2453 60.0276 71.3362 60.0276 71.3998C60.0276 71.5543 60.2236 71.6362 60.4462 71.5816C60.6689 71.518 61.3369 71.8725 61.4705 72.118C61.5239 72.218 61.5684 72.4634 61.5684 72.6543C61.5684 72.9634 61.6219 73.0634 62.0315 73.4362C62.5481 73.9089 62.7262 74.1907 62.6906 74.4816C62.6728 74.5907 62.7084 74.7634 62.7619 74.8634C62.8865 75.118 62.9845 75.818 62.8865 75.818C62.842 75.818 62.7619 75.7543 62.6995 75.6816C62.5392 75.4816 62.468 75.5089 62.3433 75.818C62.2186 76.1271 62.272 76.2634 62.459 76.0998C62.557 76.0271 62.6194 76.0362 62.7351 76.1634C62.8153 76.2543 62.8509 76.3543 62.8242 76.3816C62.7975 76.418 62.8509 76.4634 62.9489 76.4907C63.1359 76.5543 63.5901 77.0998 63.5901 77.2634C63.5901 77.4089 63.6881 77.3907 63.8751 77.2089C64.0265 77.0725 64.0533 77.0725 64.3026 77.318C64.5965 77.5998 64.6055 77.5907 64.6945 76.9271C64.7479 76.5634 64.739 76.5362 64.5609 76.5634C64.454 76.5816 64.3472 76.5362 64.3294 76.4725C64.3026 76.418 64.3472 76.3634 64.4273 76.3634C64.5164 76.3634 64.5609 76.2907 64.5431 76.1634C64.5253 75.9998 64.5698 75.9543 64.7479 75.9543C64.9172 75.9543 64.9795 75.8998 64.9973 75.7271C65.0151 75.5998 65.1309 75.3998 65.2556 75.2816C65.3803 75.1634 65.5317 74.9362 65.603 74.7725C65.6653 74.6089 65.8345 74.4089 65.9681 74.318C66.1017 74.2271 66.262 74.0998 66.3065 74.0362C66.3778 73.9453 67.304 73.5089 67.785 73.3362C67.9631 73.2725 68.355 72.5725 68.5064 72.0543C68.6578 71.5362 69.1031 71.0816 69.3792 71.1543C69.5306 71.1998 69.5751 71.1816 69.5395 71.0816C69.5217 71.0089 69.5484 70.7907 69.6019 70.5907L69.7087 70.2271L69.7622 70.6816C69.7978 70.918 69.8869 71.1907 69.9581 71.2816C70.0917 71.418 70.0739 71.4453 69.7711 71.6271C69.5039 71.7907 69.4594 71.8634 69.5128 72.0271C69.7711 72.8998 69.78 72.8362 69.3436 73.3271C68.8983 73.8089 68.6667 74.1998 68.6667 74.4725C68.6667 74.5634 68.6133 74.6634 68.542 74.6907C68.4529 74.7271 68.4351 74.8453 68.4619 75.1089C68.4975 75.3543 68.4797 75.4998 68.3995 75.5453C68.3015 75.6089 68.3015 75.6816 68.3906 75.9816C68.5509 76.4634 68.3728 77.318 68.1412 77.2271C68.0611 77.1907 67.8295 77.1543 67.6158 77.1453C67.2773 77.1271 67.215 77.1543 67.0992 77.3816C67.028 77.5271 66.9923 77.6725 67.0101 77.718C67.0369 77.7634 66.9834 77.8634 66.8855 77.9543C66.547 78.2634 66.7786 78.7362 67.1259 78.4453C67.2061 78.3725 67.3486 78.3271 67.4376 78.3453C67.5356 78.3634 67.687 78.3089 67.785 78.218C67.874 78.1362 67.9542 78.0907 67.9542 78.1271C67.9542 78.1543 68.0433 78.1271 68.159 78.0543C68.3283 77.9362 68.3906 77.9362 68.64 78.0634C69.014 78.2453 69.1387 78.1453 69.299 77.5634C69.3614 77.3271 69.4683 77.0362 69.5306 76.9089C69.5929 76.7816 69.6464 76.5089 69.6464 76.3089C69.6464 76.0816 69.7087 75.8453 69.8156 75.718C69.9047 75.5907 70.0026 75.3998 70.0205 75.2907C70.0294 75.1725 70.0917 75.0998 70.1362 75.1089C70.1897 75.1271 70.2164 75.1725 70.1986 75.2089C70.1897 75.2453 70.2431 75.2998 70.3144 75.3271C70.3856 75.3634 70.448 75.4907 70.448 75.618C70.448 75.7453 70.5014 75.918 70.5726 75.9907C71.0001 76.4907 71.107 77.1543 70.9289 78.2271C70.8755 78.5816 70.4301 79.1816 70.2164 79.1816C70.1629 79.1816 70.065 79.2907 70.0026 79.418C69.8334 79.7271 69.9492 79.7907 70.6261 79.7725C71.0358 79.7634 71.205 79.7089 71.3653 79.5634L71.5701 79.3634L71.9442 79.5543C72.4608 79.818 73.3692 80.8543 73.7165 81.5725C74.0461 82.2271 74.3044 83.2634 74.2242 83.518C74.1886 83.6089 74.0639 83.7725 73.9481 83.8725C73.7522 84.0453 73.7344 84.0907 73.8323 84.2725C73.8858 84.3816 73.9125 84.5543 73.8947 84.6543C73.8412 84.8543 74.4201 85.9089 74.5805 85.9089C74.6339 85.9089 74.7319 86.018 74.7942 86.1634C75.3998 87.4816 75.7383 87.818 76.433 87.818C76.8248 87.818 76.9139 87.8543 77.3147 88.2453C77.6353 88.5453 77.7422 88.7089 77.7065 88.8362C77.662 88.9543 77.6976 88.9998 77.8312 88.9998C77.9292 88.9998 78.0272 89.0362 78.0539 89.0816C78.143 89.2271 78.4547 89.0816 78.4814 88.8725C78.517 88.5998 78.9979 88.6362 79.4076 88.9543C79.6392 89.1362 79.7728 89.1816 79.9776 89.1362C80.2626 89.0725 80.7436 89.3362 81.1265 89.7634C81.2512 89.8907 81.4204 89.9998 81.5006 89.9998C81.5897 89.9998 81.8034 90.1271 81.9637 90.2725C82.1329 90.4271 82.3556 90.5453 82.4536 90.5453C82.5604 90.5453 82.6851 90.6271 82.7386 90.7271C82.8633 90.9634 82.9969 90.9543 83.3086 90.6816C83.4511 90.5543 83.6025 90.4543 83.6381 90.4543C83.6737 90.4543 83.9142 90.2725 84.1725 90.0453C84.4308 89.818 84.689 89.6362 84.7336 89.6362C84.787 89.6362 84.9295 89.5543 85.0542 89.4543C85.4817 89.118 85.8647 89.2453 86.2565 89.8543C86.4258 90.118 86.782 90.1725 86.8711 89.9543C86.8978 89.8816 87.0136 89.818 87.1294 89.818C87.2986 89.818 87.3609 89.7543 87.4054 89.5362C87.45 89.2998 87.4945 89.2634 87.6994 89.2907C87.8953 89.3089 87.9576 89.3725 87.9754 89.5634C88.0022 89.7634 87.9754 89.8089 87.8686 89.7634C87.7706 89.7271 87.7261 89.7634 87.7261 89.8907C87.7261 89.9907 87.6815 90.0907 87.6192 90.1089C87.548 90.1362 87.637 90.2816 87.833 90.4907C88.0467 90.7089 88.2159 90.818 88.305 90.7907C88.4386 90.7271 88.7058 91.1271 88.7058 91.3998C88.7058 91.6089 88.9017 91.6816 89.0264 91.5089C89.1154 91.3725 89.16 91.3725 89.3203 91.4725C89.4272 91.5362 89.5073 91.6543 89.5073 91.7362C89.5073 91.9453 89.7745 92.4543 89.8725 92.4543C90.015 92.4543 90.1842 92.2453 90.202 92.0453C90.202 91.9453 90.2376 91.7271 90.2733 91.5725C90.3178 91.3362 90.3 91.2725 90.1931 91.2725C90.1219 91.2725 90.0417 91.3362 90.0061 91.4089C89.9348 91.6089 89.8369 91.5725 89.7211 91.3271C89.632 91.1362 89.6409 91.0998 89.7834 91.0634C89.8725 91.0362 89.9615 91.0453 89.9972 91.0725C90.0684 91.1543 91.0659 91.0907 91.0926 90.9998C91.1105 90.9543 91.1728 90.9362 91.2262 90.9634C91.2886 90.9816 91.823 90.618 92.4108 90.1543C93.0075 89.6907 93.6309 89.2362 93.809 89.1543C94.2811 88.918 95.0826 88.7998 95.6437 88.8634C95.9198 88.8907 96.4275 88.9362 96.7659 88.9543C97.1133 88.9816 97.5586 89.018 97.7634 89.0453C98.1731 89.0907 98.6362 88.9362 98.8945 88.6453C98.9925 88.5362 99.1706 88.4543 99.322 88.4543C99.4912 88.4543 99.5714 88.4089 99.5892 88.2907C99.5892 88.2089 99.607 88.0907 99.6159 88.0453C99.6337 87.9907 99.6426 87.8634 99.6515 87.7543C99.6605 87.6089 99.6961 87.5634 99.8029 87.6089C99.9187 87.6543 99.9365 87.6271 99.8742 87.4453C99.6872 86.8543 99.8119 86.118 100.213 85.5271C100.302 85.3998 100.373 85.1998 100.373 85.0998C100.373 84.9907 100.426 84.8089 100.498 84.6998C100.569 84.5907 100.694 84.2089 100.774 83.8634C100.863 83.5089 100.987 83.1907 101.05 83.1543C101.121 83.118 101.175 83.0362 101.175 82.9816C101.175 82.9362 101.299 82.7362 101.442 82.5453C101.593 82.3543 101.709 82.1634 101.709 82.118C101.709 82.0634 101.789 81.9543 101.887 81.8634C101.985 81.7725 102.065 81.6543 102.065 81.5907C102.065 81.4089 102.386 81.1725 102.555 81.2362C102.653 81.2816 102.769 81.218 102.92 81.0453C103.036 80.8998 103.134 80.7816 103.134 80.7725C103.134 80.7634 103.089 80.618 103.027 80.4543C102.947 80.1998 102.956 80.1362 103.072 80.0453C103.205 79.9453 103.392 79.5634 103.365 79.4453C103.365 79.418 103.401 79.3362 103.455 79.2634C103.517 79.1907 103.588 78.9998 103.624 78.8362C103.659 78.6543 103.802 78.4453 103.998 78.2907C104.675 77.7453 104.799 77.5907 105.004 76.9362C105.138 76.4998 105.262 76.2543 105.378 76.218C105.467 76.1907 105.539 76.118 105.539 76.0634C105.539 75.9998 105.645 75.8271 105.77 75.6816C105.904 75.5271 106.1 75.2634 106.207 75.0907C106.554 74.5362 106.883 74.2907 107.32 74.2362C107.56 74.2089 107.756 74.1271 107.827 74.0271C108.041 73.6998 108.335 73.4634 108.585 73.3998C108.87 73.3362 109.003 73.0998 109.057 72.5089C109.092 72.1089 109.324 71.7271 109.609 71.5998C109.778 71.518 109.849 71.418 110.116 70.8453C110.197 70.6907 110.295 70.5362 110.348 70.4998C110.464 70.4271 110.704 69.8453 110.704 69.6362C110.704 69.5543 110.784 69.4089 110.882 69.318C110.98 69.2271 111.06 69.0998 111.06 69.0271C111.06 68.9634 111.114 68.8271 111.176 68.7271C111.265 68.5725 111.256 68.5271 111.158 68.4634C110.971 68.3362 111.167 67.4543 111.479 67.0362C111.586 66.8816 111.684 66.7089 111.684 66.6634C111.684 66.6089 111.746 66.518 111.817 66.4543C111.889 66.3907 111.951 66.2543 111.951 66.1453C111.951 66.0453 112.031 65.8543 112.129 65.7271C112.227 65.5998 112.307 65.4543 112.307 65.3907C112.307 65.2907 112.361 65.1453 112.672 64.4089C112.717 64.3089 112.762 64.0998 112.77 63.9543C112.779 63.7998 112.868 63.5634 112.966 63.4089C113.064 63.2634 113.153 63.0816 113.171 63.018C113.18 62.9453 113.305 62.7543 113.447 62.5998C113.741 62.2725 113.964 61.6362 113.804 61.5362C113.732 61.4907 113.741 61.318 113.839 60.918C113.964 60.4362 113.964 60.3453 113.848 60.118C113.777 59.9816 113.706 59.5907 113.688 59.2543C113.67 58.9089 113.625 58.5907 113.59 58.5271C113.545 58.4634 113.527 58.3089 113.536 58.1816C113.545 58.0453 113.474 57.8543 113.376 57.7453C113.278 57.6453 113.198 57.4907 113.198 57.418C113.198 57.3453 113.162 57.2543 113.109 57.2271C113.055 57.1907 113.064 57.1089 113.136 56.9907C113.225 56.8453 113.216 56.7998 113.118 56.7362C113.029 56.6816 113.029 56.6453 113.109 56.5907C113.162 56.5543 113.234 56.5543 113.26 56.5816C113.385 56.7089 113.536 56.4362 113.474 56.1998C113.403 55.9725 113.412 55.6362 113.501 54.3089C113.527 53.9543 113.625 53.5816 113.768 53.2907C114.035 52.7453 114.044 52.7271 113.866 52.7271C113.795 52.7271 113.732 52.6543 113.732 52.5543C113.732 52.4634 113.634 52.318 113.51 52.2362C113.26 52.0725 113.207 51.6725 113.394 51.3362C113.536 51.0725 113.483 50.6089 113.305 50.4998C113.145 50.4089 113.091 50.3907 112.886 50.3725C112.815 50.3725 112.753 50.2907 112.753 50.1998C112.753 50.1089 112.69 49.9453 112.601 49.8271C112.521 49.7089 112.459 49.4725 112.468 49.2907C112.485 48.8907 112.37 48.6725 112.058 48.5271C111.72 48.3634 111.239 47.5998 111.239 47.218C111.239 46.8453 111.069 46.4543 110.909 46.4543C110.847 46.4543 110.767 46.3362 110.74 46.1907C110.677 45.8816 110.33 45.7362 110.107 45.9271C109.992 46.018 109.938 45.9998 109.76 45.7725C109.644 45.618 109.546 45.4543 109.546 45.3998C109.546 45.3453 109.448 45.2543 109.333 45.1907C109.217 45.118 109.092 44.9634 109.065 44.8271C109.039 44.6998 108.941 44.4907 108.843 44.3634C108.7 44.1816 108.656 44.1634 108.531 44.2634C108.406 44.3725 108.389 44.3543 108.389 44.1543C108.389 44.0271 108.344 43.818 108.291 43.6907C108.21 43.518 108.21 43.4271 108.291 43.3362C108.362 43.2453 108.362 43.1362 108.291 42.9271C108.21 42.6907 108.228 42.5271 108.38 42.0543C108.54 41.5452 108.549 41.4089 108.46 40.9634C108.406 40.6816 108.326 40.4543 108.291 40.4543C108.246 40.4543 108.21 40.3907 108.21 40.318C108.21 40.2453 108.121 40.1453 108.023 40.0816C107.783 39.9543 107.658 40.1089 107.703 40.4725C107.721 40.618 107.712 40.7271 107.694 40.7271C107.667 40.7271 107.498 40.5816 107.311 40.4089C107.115 40.2362 106.919 40.0907 106.875 40.0907C106.821 40.0907 106.785 40.018 106.785 39.9271C106.785 39.6725 106.527 39.1816 106.394 39.1816C106.144 39.1816 105.939 39.5543 105.948 39.9725C105.957 40.3816 105.957 40.3816 105.832 40.1453C105.717 39.9089 105.539 39.8271 105.539 39.9998C105.539 40.0452 105.494 40.0907 105.432 40.0907C105.378 40.0907 105.36 40.0634 105.387 40.0271C105.423 39.9998 105.378 39.8634 105.298 39.7362C105.031 39.318 104.746 37.818 104.933 37.818C104.977 37.818 104.969 37.7362 104.915 37.6453C104.853 37.5271 104.853 37.4453 104.915 37.4089C105.058 37.318 105.022 37.0907 104.862 37.0907C104.79 37.0907 104.755 37.0452 104.782 36.9998C104.808 36.9453 104.799 36.9089 104.755 36.9089C104.71 36.9089 104.648 36.7543 104.612 36.5543C104.586 36.3634 104.505 36.1543 104.434 36.0998C104.336 36.018 104.327 35.9271 104.381 35.7725C104.452 35.5816 104.407 35.4998 104.078 35.1543C103.864 34.9271 103.606 34.718 103.499 34.6816C103.392 34.6453 103.321 34.5998 103.348 34.5634C103.383 34.5362 103.312 34.418 103.205 34.2998C103.098 34.1907 103.045 34.0634 103.072 34.0271C103.107 33.9998 103.089 33.918 103.027 33.8452C102.867 33.6453 103.08 33.4725 103.312 33.618C103.41 33.6725 103.552 33.7271 103.633 33.7271C103.766 33.7271 103.766 33.7089 103.642 33.518C103.57 33.4089 103.481 33.1816 103.446 33.0089C103.41 32.8271 103.321 32.6907 103.214 32.6634C103.125 32.6362 103.045 32.5543 103.045 32.4907C103.045 32.418 102.982 32.3634 102.911 32.3634C102.84 32.3634 102.778 32.2907 102.778 32.1907C102.778 31.9453 102.341 31.8725 102.252 32.1089C102.19 32.2725 102.19 32.2725 102.047 32.118C101.967 32.0271 101.887 31.8725 101.878 31.7816C101.86 31.6907 101.762 31.5634 101.664 31.5089C101.566 31.4543 101.46 31.3634 101.424 31.3089C101.388 31.2543 101.264 31.2271 101.148 31.2453C100.907 31.2907 100.756 31.1453 100.711 30.818C100.676 30.518 100.284 30.4362 100.284 30.718C100.284 31.0271 100.124 30.9362 100.026 30.5634C99.9722 30.3816 99.9276 30.1907 99.9276 30.1453C99.9276 29.9725 99.4734 29.0907 99.3844 29.0907C99.3309 29.0907 99.3309 29.1543 99.3933 29.2725C99.4823 29.4362 99.4645 29.4543 99.2419 29.4543C98.7431 29.4543 98.6006 29.3543 98.5026 28.9907C98.4047 28.618 98.2889 28.5362 98.1998 28.7725C98.1286 28.9634 97.897 28.9453 97.7723 28.7271C97.71 28.6271 97.6031 28.5452 97.5319 28.5452C97.3181 28.5452 96.8283 28.1816 96.5344 27.8089L96.2583 27.4453L96.4097 26.8998C96.4898 26.5907 96.5433 26.3362 96.5255 26.318C96.5076 26.3089 96.4097 26.2452 96.2939 26.1907C96.1781 26.1271 96.0534 25.9907 96.0089 25.8816C95.9555 25.7725 95.8308 25.5634 95.7239 25.4271L95.519 25.1725L95.7239 24.7907C95.8308 24.5816 95.9376 24.2816 95.9555 24.1362C95.9733 23.9816 96.0178 23.718 96.0534 23.5362C96.089 23.3271 96.0801 23.1816 96.0178 23.1452C95.9644 23.1089 95.9198 22.9453 95.9198 22.7725C95.9198 22.5998 95.8842 22.4453 95.8397 22.418C95.7951 22.3907 95.7328 22.2089 95.6972 22.0271C95.6615 21.8362 95.5903 21.6271 95.5458 21.5634C95.4745 21.4816 95.4745 21.3816 95.5547 21.218C95.7061 20.8816 95.6794 20.818 95.3944 20.818C95.1895 20.818 95.0915 20.7452 94.9401 20.4998C94.8333 20.3271 94.7175 20.1816 94.6819 20.1816C94.5928 20.1816 94.1386 19.2998 94.1386 19.1271C94.1386 19.0543 94.192 18.9725 94.2544 18.9453C94.3256 18.918 94.3612 18.7543 94.3523 18.4725C94.3256 17.8362 94.3256 17.8453 94.2098 17.7089C94.1119 17.6089 94.0851 17.4271 94.0495 16.6089C94.0406 16.5271 94.005 16.4543 93.9515 16.4543C93.8269 16.4543 93.8536 15.9634 94.005 15.7634C94.1742 15.5362 94.1742 15.3271 94.005 15.3998C93.809 15.4725 93.8358 15.0725 94.0495 14.7907L94.2276 14.5634L94.005 14.418C93.8803 14.3362 93.7912 14.2271 93.809 14.1725C93.8179 14.118 93.6844 14.0271 93.5151 13.9725C93.3192 13.8998 93.1233 13.7362 92.9897 13.518C92.8739 13.3362 92.7225 13.1816 92.6512 13.1816C92.5889 13.1816 92.5355 13.1362 92.5355 13.0907C92.5355 13.0362 92.4642 12.9998 92.3662 12.9998C92.1079 12.9998 91.9655 12.7725 92.0901 12.5543C92.1525 12.4271 92.1525 12.3634 92.0901 12.3634C92.0456 12.3634 92.0011 12.2907 92.0011 12.1998C91.9922 12.0362 91.8051 11.7271 91.6983 11.7271C91.6626 11.7271 91.5201 11.818 91.3687 11.9271C91.1461 12.0998 91.0748 12.1089 90.9234 12.018C90.7453 11.8998 90.5315 11.9543 90.6206 12.0907C90.7186 12.2543 90.2733 12.5543 89.9615 12.5271C89.5697 12.4907 89.347 12.1907 89.2758 11.5907C89.249 11.3362 89.1244 10.918 88.9997 10.6543C88.7859 10.1816 88.7859 10.1725 88.9373 9.63616C89.0442 9.24525 89.062 9.06343 88.9908 8.97252C88.8483 8.7998 88.7503 7.4907 88.875 7.41798C89.0887 7.28162 88.964 7.15434 88.6612 7.20889C88.3139 7.26343 88.2961 7.23616 88.4831 6.90888C88.6701 6.57253 88.6434 6.40888 88.394 6.2907C88.2515 6.21798 88.1714 6.10889 88.1714 5.97252C88.1714 5.72707 87.922 5.45434 87.6994 5.45434C87.6192 5.45434 87.5658 5.3998 87.5836 5.33616C87.6103 5.28161 87.6459 5.11797 87.6726 4.97252C87.7083 4.83616 87.8151 4.63615 87.9131 4.53616L88.0912 4.35434L87.8864 4.18161C87.7617 4.07253 87.6103 4.02707 87.4767 4.06343C87.352 4.09071 87.2095 4.05434 87.1026 3.95434C86.9512 3.81798 86.9245 3.67252 86.9334 3.00889C86.9334 2.2907 86.9067 1.98161 86.782 1.38161C86.7553 1.26343 86.595 1.02707 86.408 0.85434C86.1497 0.617973 86.1051 0.527069 86.1942 0.436157C86.2744 0.35434 86.2654 0.290703 86.1497 0.163429C86.0695 0.0725174 85.9805 0.00888824 85.9537 0.00888824C85.927 0.0179749 85.838 0.0361557 85.7667 0.0543365ZM32.062 15.2816C32.062 15.4453 32.0442 15.4543 31.9284 15.3634C31.7948 15.2543 31.8215 15.0907 31.9819 15.0907C32.0264 15.0907 32.062 15.1816 32.062 15.2816ZM30.8151 18.5452C30.8151 18.5907 30.7261 18.6362 30.6192 18.6271C30.4233 18.6271 30.4233 18.618 30.5925 18.5452C30.6905 18.4998 30.7795 18.4634 30.7973 18.4634C30.8062 18.4543 30.8151 18.4907 30.8151 18.5452ZM69.6019 69.9907C69.6286 70.0362 69.6108 70.0998 69.5573 70.1362C69.5128 70.1634 69.4683 70.1271 69.4683 70.0543C69.4683 69.8907 69.5217 69.8634 69.6019 69.9907ZM102.813 80.8634C102.778 80.9362 102.742 80.9998 102.724 80.9998C102.706 80.9998 102.689 80.9362 102.689 80.8634C102.689 80.7907 102.724 80.7271 102.778 80.7271C102.822 80.7271 102.84 80.7907 102.813 80.8634ZM86.8354 88.1271C86.8354 88.1907 86.8889 88.3634 86.9601 88.4998C87.0759 88.718 87.067 88.7725 86.8889 89.0453C86.684 89.3907 86.4792 89.4998 86.2031 89.4089C86.0784 89.3634 86.0428 89.2998 86.0873 89.1998C86.1229 89.1089 86.1497 88.9634 86.1586 88.8634C86.1675 88.7089 86.114 88.6816 85.8112 88.6998L85.455 88.718L85.8112 88.4998C86.0072 88.3725 86.212 88.2725 86.2654 88.2725C86.3189 88.2725 86.4169 88.2089 86.4792 88.1362C86.6217 87.9634 86.8354 87.9543 86.8354 88.1271Z" fill="#C6C6C6"/>
<path d="M68.1052 79.3635C67.7757 79.3998 67.4551 79.4725 67.4016 79.5271C67.3393 79.5907 67.1434 79.6362 66.9652 79.6362C66.422 79.6362 66.0212 79.8635 65.9499 80.1998C65.8965 80.4362 65.9143 80.518 66.0746 80.618C66.1726 80.6907 66.2616 80.7998 66.2616 80.8635C66.2616 80.9725 67.0365 80.9635 67.5085 80.8453C67.8024 80.7725 67.9627 80.7998 68.1498 80.9725C68.2923 81.0998 68.3279 81.0998 68.5327 80.9635C68.6574 80.8816 68.7554 80.7544 68.7554 80.6816C68.7554 80.4544 69.076 80.3453 69.459 80.4544C70.0468 80.618 70.3051 80.3453 69.8954 79.9907C69.6816 79.7907 69.4145 79.7635 69.3521 79.9271C69.3165 80.018 69.2898 80.018 69.2185 79.9271C69.174 79.8544 69.0582 79.818 68.9692 79.8362C68.8266 79.8544 68.8088 79.818 68.8266 79.5635C68.8445 79.4089 68.8266 79.2816 68.7821 79.2816C68.7465 79.2907 68.4348 79.3271 68.1052 79.3635Z" fill="#C6C6C6"/>
<path d="M83.6288 93.2636C83.6288 93.3091 83.5665 93.4091 83.4952 93.4818C83.3349 93.6454 83.2459 94.9 83.3795 95.0636C83.4418 95.1454 83.5309 95.1272 83.7446 94.9727C83.9049 94.8636 84.0474 94.7636 84.0563 94.7545C84.0741 94.7454 84.1098 94.4545 84.1276 94.1091C84.1632 93.5182 84.1543 93.4636 83.9405 93.3272C83.6912 93.1636 83.6288 93.1454 83.6288 93.2636Z" fill="#C6C6C6"/>
<path d="M93.23 94.7C93.1409 94.7273 93.0696 94.7818 93.0696 94.8364C93.0696 94.8909 92.9984 94.9909 92.9182 95.0545C92.7668 95.1727 92.7668 95.1909 92.9182 95.3091C93.0073 95.3818 93.0518 95.4909 93.0162 95.5818C92.9895 95.6636 92.9984 95.7273 93.0518 95.7273C93.132 95.7273 93.2656 96.0818 93.2834 96.3636C93.2923 96.4636 93.3992 96.5 93.6931 96.5H94.0939L94.1384 96.0091C94.1829 95.5818 94.1651 95.5091 94.0226 95.4727C93.9336 95.4545 93.7821 95.2727 93.6931 95.0818C93.4971 94.6909 93.4437 94.6545 93.23 94.7Z" fill="#C6C6C6"/>
<path d="M85.0991 96.8272C85.0545 96.8908 85.0278 97.0817 85.0367 97.2453C85.0545 97.409 85.0189 97.5453 84.9655 97.5453C84.823 97.5453 84.6805 97.9999 84.7785 98.1272C84.8319 98.1817 84.8675 98.3726 84.8675 98.5453C84.8675 98.9999 84.9299 99.3999 85.0367 99.609C85.0902 99.709 85.1436 99.8817 85.1614 100.009C85.1792 100.127 85.3039 100.409 85.4286 100.636C85.5622 100.864 85.7047 101.154 85.7581 101.291C85.8561 101.554 85.8116 101.818 85.6691 101.818C85.5533 101.818 85.6245 103.254 85.7492 103.382C85.8116 103.445 85.8561 103.591 85.8561 103.709C85.8561 104.036 86.052 104.636 86.1322 104.582C86.2124 104.536 86.6577 105.409 86.6577 105.609C86.6577 105.673 86.72 105.727 86.8002 105.727C86.8714 105.727 86.916 105.764 86.8803 105.809C86.8536 105.854 86.8714 105.918 86.9249 105.954C86.9694 105.982 87.0139 106.118 87.0139 106.254C87.0139 106.5 87.0228 106.5 87.6017 106.509C88.0827 106.518 88.2252 106.554 88.341 106.7C88.5814 107 89.1514 107.054 89.1514 106.773C89.1514 106.718 89.2227 106.591 89.3206 106.509C89.472 106.364 89.4899 106.364 89.5433 106.509C89.5789 106.591 89.6235 106.636 89.6591 106.609C89.6858 106.573 89.7838 106.591 89.8728 106.645C90.0064 106.718 90.0599 106.682 90.1756 106.464C90.2469 106.318 90.2825 106.127 90.2558 106.054C90.2202 105.954 90.2558 105.909 90.3538 105.909C90.4785 105.909 90.5052 105.854 90.4606 105.6C90.4161 105.318 90.4339 105.273 90.6744 105.191C90.906 105.109 90.9327 105.073 90.8792 104.845C90.8169 104.618 90.8258 104.6 90.9594 104.718C91.0752 104.809 91.0841 104.882 91.0128 105.009C90.906 105.218 90.9594 105.682 91.1197 105.873C91.1999 105.973 91.2533 105.982 91.3513 105.9C91.4403 105.818 91.5027 105.818 91.5739 105.891C91.761 106.082 91.8411 106.009 91.8144 105.636C91.7966 105.445 91.8144 105.254 91.85 105.218C91.948 105.118 91.9213 104.773 91.8144 104.664C91.6808 104.527 91.8055 104.336 91.9747 104.409C92.135 104.464 92.4467 104.218 92.4467 104.027C92.4467 103.845 92.1796 103.764 92.0816 103.918C92.0192 104.018 92.0014 104.018 92.0014 103.927C92.0014 103.864 92.0638 103.745 92.135 103.664C92.2063 103.591 92.2508 103.491 92.2152 103.445C92.1885 103.391 92.2152 103.291 92.2775 103.218C92.331 103.145 92.3577 103.064 92.331 103.027C92.233 102.936 92.5625 102.454 92.7228 102.454C92.8475 102.454 92.8653 102.509 92.8297 102.7C92.7406 103.154 92.7585 103.218 92.9277 103.254C93.0524 103.282 93.0791 103.254 93.0435 103.145C93.0167 103.073 93.0256 102.982 93.0791 102.945C93.1236 102.918 93.1592 102.7 93.1592 102.473C93.1414 101.873 93.2305 101.118 93.3285 100.918C93.3819 100.827 93.3908 100.673 93.3641 100.564C93.3374 100.445 93.3819 100.264 93.471 100.127C93.5867 99.9453 93.6046 99.8363 93.5333 99.6817C93.4621 99.5272 93.4799 99.4181 93.6135 99.1908C93.8094 98.8544 93.7292 98.5635 93.3017 98.1544C93.0078 97.8817 92.803 97.8363 92.803 98.0453C92.803 98.2544 92.5536 98.3181 92.3042 98.1817C92.1083 98.0726 92.0638 98.0817 91.8322 98.309C91.6095 98.5272 91.5561 98.5453 91.3958 98.4453C91.2533 98.3544 91.182 98.3544 91.0841 98.4363C91.0128 98.4999 90.8881 98.5272 90.8169 98.4908C90.6655 98.4363 89.6947 98.609 89.5522 98.7272C89.383 98.8544 88.5547 98.7635 88.2964 98.5817C88.1539 98.4817 87.9313 98.3544 87.7977 98.2908C87.6552 98.2363 87.5483 98.1272 87.5483 98.0453C87.5483 97.9726 87.4949 97.909 87.4236 97.909C87.3524 97.909 87.2366 97.8544 87.1653 97.7817C87.103 97.709 86.9427 97.6363 86.8269 97.6181C86.7111 97.609 86.6042 97.5272 86.6042 97.4544C86.5953 97.3817 86.5864 97.2635 86.5775 97.1999C86.5686 97.0453 86.3905 97.0635 86.3905 97.2272C86.3905 97.2999 86.3103 97.3635 86.2124 97.3635C85.9986 97.3635 85.4108 97.0363 85.2683 96.8363C85.1881 96.7272 85.1614 96.7181 85.0991 96.8272ZM86.1233 102.273L86.2391 102.5L86.061 102.318C85.963 102.218 85.9006 102.1 85.9185 102.064C85.9719 101.973 85.9808 101.982 86.1233 102.273ZM91.4136 105.045C91.4403 105.118 91.4225 105.182 91.378 105.182C91.3245 105.182 91.2889 105.118 91.2889 105.045C91.2889 104.973 91.3067 104.909 91.3245 104.909C91.3424 104.909 91.378 104.973 91.4136 105.045ZM89.7749 106.045C89.7125 106.118 89.6235 106.182 89.5789 106.182C89.5255 106.182 89.5344 106.118 89.5967 106.045C89.6591 105.973 89.7481 105.909 89.7927 105.909C89.8461 105.909 89.8372 105.973 89.7749 106.045Z" fill="#C6C6C6"/>
</svg>
