<svg width="115" height="108" viewBox="0 0 115 108" fill="none" xmlns="http://www.w3.org/2000/svg">
<path d="M49.8853 6.55459C49.8482 6.68675 49.876 6.87177 49.9594 6.9775C50.0706 7.1493 50.1633 7.1493 50.5155 7.00393C51.0067 6.80569 51.0531 6.67354 50.6731 6.56781C50.5248 6.52816 50.3023 6.44887 50.1818 6.40922C50.0057 6.34314 49.9316 6.38279 49.8853 6.55459Z" fill="#C6C6C6"/>
<path d="M77.9448 6.54062C77.3145 7.00317 77.3794 7.12211 78.2784 7.1089C78.9179 7.1089 79.1033 7.06925 79.1775 6.89744C79.474 6.23666 78.6862 6.01199 77.9448 6.54062Z" fill="#C6C6C6"/>
<path d="M44.6299 6.26405C44.5464 6.58123 44.7596 7.10986 44.9728 7.10986C45.084 7.10986 45.3899 6.97771 45.6494 6.81912L46.1313 6.52837L45.6216 6.29049C44.9728 6.01296 44.704 5.99974 44.6299 6.26405Z" fill="#C6C6C6"/>
<path d="M42.5489 6.07172C41.7518 6.11136 41.6406 6.15101 41.6406 6.34925C41.6406 6.4814 41.6962 6.70607 41.7704 6.83823C41.8909 7.07611 41.9279 7.07611 42.1504 6.90431C42.3636 6.74572 42.4284 6.74572 42.688 6.94396C42.9567 7.15541 43.0402 7.15541 43.4943 6.99682C43.967 6.82501 44.0041 6.77215 44.0041 6.42854C44.0041 5.99242 44.0412 5.99242 42.5489 6.07172Z" fill="#C6C6C6"/>
<path d="M74.6045 6.28705C74.5118 6.41921 74.5489 6.5778 74.7343 6.84211C74.9474 7.14608 75.5962 7.19894 76.2728 6.96105C76.6992 6.80247 76.8475 6.63066 76.7177 6.44564C76.625 6.3267 74.6787 6.18132 74.6045 6.28705Z" fill="#C6C6C6"/>
<path d="M48.7256 6.69981C48.7256 6.95091 49.0871 7.22844 49.2075 7.05663C49.2632 6.97734 49.2261 6.8584 49.0871 6.71302C48.8183 6.44871 48.7256 6.44871 48.7256 6.69981Z" fill="#C6C6C6"/>
<path d="M51.7669 6.67374C51.6279 6.85876 51.7113 7.10986 51.9152 7.10986C52.184 7.10986 52.3879 6.91163 52.3138 6.72661C52.2396 6.56802 51.8596 6.52837 51.7669 6.67374Z" fill="#C6C6C6"/>
<path d="M54.0889 5.98309C53.4586 6.20776 53.0693 6.41921 53.0693 6.55137C53.0693 6.63066 53.2269 6.78925 53.4215 6.93462C53.7737 7.17251 53.783 7.17251 53.9776 6.90819C54.0889 6.76282 54.2928 6.59101 54.4318 6.55137C54.8025 6.41921 54.9323 6.14168 54.7006 5.96987C54.5986 5.89058 54.506 5.83772 54.4874 5.83772C54.4689 5.85093 54.2928 5.91701 54.0889 5.98309Z" fill="#C6C6C6"/>
<path d="M30.0373 0.14516C29.9354 0.369828 30.1115 0.898458 30.3803 1.16277C30.7325 1.5196 30.751 1.99537 30.4174 2.31254C30.1949 2.524 30.1578 2.524 29.8705 2.29933C29.7037 2.16717 29.5183 1.91607 29.4534 1.74427C29.2681 1.25528 28.9066 0.990968 28.4524 1.00418C27.9519 1.00418 27.8222 1.16277 27.9705 1.54603C28.1002 1.91607 28.0168 2.31254 27.7758 2.41827C27.5812 2.51078 27.3031 2.2729 26.4134 1.32136C26.1909 1.09669 25.9685 0.92489 25.9221 0.977753C25.8758 1.0174 25.7275 1.34779 25.5977 1.70462C25.4031 2.2729 25.329 2.36541 25.1251 2.32576C24.9397 2.29933 24.8099 2.11431 24.5875 1.57246C24.1889 0.620927 24.1055 0.568064 23.2528 0.7663C22.224 1.0174 21.8069 1.36101 22.0479 1.7707C22.1406 1.92929 22.2704 1.95572 22.6133 1.88964C23.0489 1.79713 23.0767 1.82356 23.3826 2.28611C23.5587 2.55043 23.707 2.82796 23.707 2.89404C23.707 2.96012 23.8923 3.01298 24.1148 3.01298C24.467 3.01298 24.5597 3.06584 24.7265 3.40945C24.9675 3.89843 25.2363 3.91165 25.6626 3.47553C26.3856 2.72223 26.9139 2.56364 27.229 3.01298C27.5441 3.46231 27.4422 4.07024 27.0436 4.07024C26.7378 4.07024 25.746 4.58565 25.746 4.74424C25.746 4.90283 26.1075 5.00856 26.4875 4.96891C26.8953 4.91605 27.0066 5.32574 26.6265 5.52397C26.2465 5.73542 26.4041 5.97331 26.9602 6.0526C27.3402 6.10547 27.5905 6.25084 27.9705 6.62088C28.3876 7.03057 28.5544 7.10986 28.9437 7.10986C29.6388 7.10986 29.7871 7.00414 29.9632 6.43586C30.0559 6.15833 30.232 5.82793 30.3525 5.70899C30.6305 5.45789 30.9735 4.41385 30.8993 4.03059C30.7788 3.35659 31.1866 3.10549 31.8725 3.42267C32.3359 3.64734 32.5862 4.03059 32.892 4.99534C33.0403 5.45789 33.2164 5.89401 33.2813 5.94688C33.4945 6.14511 34.2174 6.0526 34.4862 5.81472C35.0794 5.24644 35.1628 4.66495 34.7365 3.97773C34.5882 3.73985 34.4584 3.4491 34.4584 3.34337C34.4584 3.07906 34.1618 2.88082 33.7447 2.88082C33.5408 2.88082 33.2442 2.73545 33.0218 2.55043C32.7715 2.32576 32.512 2.22003 32.2247 2.22003C31.9374 2.22003 31.7149 2.14074 31.5759 1.98215C31.2886 1.63854 31.3905 1.29493 31.7891 1.29493C31.9559 1.28171 32.1969 1.20242 32.3267 1.09669C32.6974 0.792732 32.8828 0.858811 33.0033 1.29493L33.1145 1.6914L33.9208 1.61211C34.6809 1.53281 34.7457 1.54603 35.1443 1.87642C35.6633 2.31254 36.0711 2.31254 36.7755 1.88964C37.1277 1.67819 37.4151 1.58568 37.5819 1.63854C37.7858 1.6914 37.9248 1.61211 38.2029 1.30815C38.3975 1.08348 38.6385 0.898458 38.7219 0.898458C38.9536 0.898458 39.1205 0.568064 39.0463 0.224454C38.9907 -0.0266452 38.9444 -0.0398607 38.6385 0.0526495C38.277 0.171591 37.1555 0.171591 32.855 0.0922966C31.3257 0.0658655 30.0652 0.0922966 30.0373 0.14516Z" fill="#C6C6C6"/>
<path d="M47.0166 6.42314C46.7849 6.66102 46.8776 6.79318 47.4151 7.01785C47.8229 7.17644 47.9898 7.13679 47.9898 6.84604C47.9898 6.40992 47.3039 6.11918 47.0166 6.42314Z" fill="#C6C6C6"/>
<path d="M72.164 1.41088C72.0898 1.47696 71.8859 1.54304 71.7191 1.54304C71.4688 1.54304 71.3298 1.66198 71.0054 2.16418L70.6069 2.79853L69.4483 2.75889C68.5029 2.71924 68.2342 2.75889 67.9839 2.93069C67.7244 3.12893 67.6039 3.14214 66.9922 2.99677C66.3156 2.83818 66.3063 2.83818 66.0561 3.18179C65.8614 3.44611 65.7131 3.5254 65.3795 3.5254C65.1385 3.5254 64.8326 3.59148 64.6843 3.67077C64.5453 3.75007 64.2394 3.80293 64.0077 3.80293C63.3682 3.80293 63.2662 3.89544 63.0253 4.67517L62.8028 5.40204L62.4414 5.30953C61.9409 5.19059 61.5516 5.49455 61.4126 6.10247C61.3477 6.36679 61.3199 6.64432 61.3477 6.73683C61.4496 7.10687 61.2179 7.51656 60.7174 7.82052C60.3374 8.07162 60.2076 8.21699 60.2076 8.42845C60.2076 8.66633 60.254 8.69276 60.5599 8.65311C60.8472 8.61347 60.9028 8.65311 60.9306 8.891C60.9491 9.11567 60.875 9.22139 60.5784 9.3932C60.3745 9.51214 60.1057 9.60465 59.9852 9.60465C59.7535 9.60465 59.4662 9.97469 59.4662 10.2919C59.4662 10.3976 59.5496 10.6487 59.6608 10.8469C60.013 11.4813 59.7998 11.7985 58.9564 11.8778C58.632 11.9174 58.5857 11.9571 58.5579 12.2742C58.5208 12.7236 58.8081 13.0143 59.4476 13.1597C59.772 13.2258 60.0223 13.3976 60.254 13.6751C60.4394 13.913 60.6247 14.098 60.6803 14.098C60.736 14.098 60.8935 13.913 61.0325 13.7015C61.3569 13.1861 61.5052 13.2654 61.876 14.1112L62.154 14.772L62.877 14.7456C63.3033 14.7191 63.6741 14.772 63.8038 14.8777C63.9336 14.9835 64.1653 15.0099 64.4155 14.957C64.7029 14.891 64.8975 14.9306 65.1199 15.0892C65.2868 15.2081 65.639 15.3403 65.917 15.3799C66.3805 15.446 66.4175 15.4328 66.4175 15.1817C66.4175 14.7324 65.9912 14.3623 65.4536 14.3623C64.8419 14.3623 64.7585 14.283 63.4053 12.4196C62.6267 11.3491 62.5618 11.0584 62.9418 10.424C63.1272 10.1068 63.1458 10.0143 63.0345 9.94826C62.8584 9.85575 62.8584 9.28747 63.0345 9.07602C63.1087 8.98351 63.2755 8.95708 63.4423 9.00994C63.6648 9.07602 63.7389 9.03637 63.8872 8.73241C63.9799 8.54739 64.2116 8.15091 64.4063 7.87338C64.5916 7.59585 64.7492 7.29189 64.7492 7.18616C64.7492 7.09365 64.8419 6.8822 64.9624 6.72361C65.1292 6.49895 65.296 6.43287 65.6668 6.43287C66.1209 6.43287 66.1765 6.39322 66.4917 5.89102C66.9736 5.13772 67.4093 4.86019 68.4381 4.66195C68.9386 4.56944 69.4669 4.39764 69.6244 4.2787C69.782 4.15976 70.1713 4.00117 70.4771 3.93509C70.7923 3.86901 71.1352 3.73685 71.2557 3.64434C71.3669 3.56505 71.8118 3.43289 72.2289 3.38003C73.2762 3.22144 73.9899 2.69281 73.9065 2.11131C73.8879 1.96594 73.6655 1.78092 73.2762 1.58268C72.6089 1.25229 72.3772 1.21264 72.164 1.41088Z" fill="#C6C6C6"/>
<path d="M20.5944 7.52148C20.3998 7.7858 20.2422 8.0369 20.2422 8.08976C20.2422 8.12941 20.3719 8.11619 20.5388 8.05011C20.8632 7.90474 21.2617 7.42897 21.2617 7.16466C21.2617 6.86069 20.9466 7.01928 20.5944 7.52148Z" fill="#C6C6C6"/>
<path d="M62.7562 24.0291C62.7025 24.1118 62.5503 24.3602 62.425 24.5731C62.1028 25.0936 61.8253 25.0581 61.7626 24.4785C61.7268 24.171 61.6731 24.0527 61.5209 24.0291C61.2971 23.9817 60.957 24.4194 60.957 24.7505C60.957 25.0817 60.4557 25.685 60.223 25.6376C59.8112 25.5667 59.9634 24.6914 60.4289 24.443C60.5273 24.3957 60.5184 24.3366 60.3752 24.1828C60.2409 24.0409 60.044 24.0054 59.6143 24.0291C59.0504 24.0645 59.0325 24.0764 58.8713 24.4903C58.5312 25.3419 57.7524 25.6258 56.8036 25.2473C56.1501 24.9871 55.9711 25.0108 55.81 25.4247C55.7026 25.6968 55.6131 25.7796 55.3982 25.7796C55.2013 25.7796 55.1118 25.8505 55.0491 26.0753C54.9507 26.4301 54.6553 26.4656 54.4046 26.1699C54.2614 25.9925 54.1809 25.9925 53.8318 26.1108C53.6169 26.1936 53.3663 26.2527 53.2768 26.2527C53.1873 26.2527 53.0172 26.4065 52.8829 26.6075C52.7307 26.8441 52.5607 26.9624 52.3906 26.9742C52.2563 26.9742 51.8625 27.128 51.5134 27.3054C50.8062 27.6602 50.5645 28.0151 50.3408 29.0441C50.1617 29.8602 50.0454 29.9785 49.3203 29.9785C48.64 29.9785 48.4252 30.1322 48.4252 30.6409C48.4252 31.0312 48.3625 31.114 47.4226 32.0129C46.7334 32.6516 46.7244 32.6752 46.7244 33.1839C46.7244 33.657 46.6976 33.7043 46.4827 33.7634C46.3395 33.8107 46.1694 33.8817 46.0978 33.929C45.9188 34.0591 45.8203 34.7096 45.883 35.3365C45.9457 35.9279 45.8203 36.1881 45.4623 36.1881C45.0326 36.1881 44.7551 36.401 44.6209 36.8268C44.5314 37.1107 44.406 37.2763 44.1823 37.3709C44.0211 37.4419 43.8063 37.6075 43.7257 37.7258C43.6362 37.8559 43.4662 37.9623 43.3498 37.9623C43.2334 37.9623 43.0454 38.0924 42.9291 38.258C42.8127 38.4236 42.6695 38.5537 42.6158 38.5537C42.5531 38.5537 42.4636 38.7075 42.4189 38.9086C42.3651 39.0978 42.2756 39.2634 42.2219 39.2752C42.1593 39.287 41.8907 39.2989 41.6222 39.3107L41.1299 39.3225L41.1567 39.8075C41.1836 40.4462 41.0672 40.5526 40.3153 40.6354C39.644 40.7182 39.3396 40.8956 39.2501 41.2623C39.2232 41.3924 38.9547 41.7118 38.6504 41.9838C38.1938 42.386 38.0417 42.4569 37.6389 42.4569C36.9675 42.4569 36.9138 42.587 36.8422 44.2548C36.7885 45.7214 36.7974 45.7687 37.2182 45.8279C37.4598 45.8634 37.7731 46.2655 37.7731 46.5612C37.7731 46.8096 37.5493 47.33 37.3345 47.5902C37.0749 47.8978 37.1018 48.0752 37.424 48.3827L37.7105 48.6429L37.6568 49.6483L37.6031 50.6418L37.9522 50.5709C38.2655 50.5117 38.3371 50.5472 38.7041 50.973C39.3754 51.73 39.9035 51.7418 41.4879 51.0203C42.2219 50.6892 42.4547 50.5117 42.7859 50.0859C43.0275 49.7666 43.314 49.53 43.4841 49.4827C43.7884 49.3999 43.8153 49.3408 44.1196 48.3354C44.2449 47.9096 44.415 47.9333 44.7104 48.3945C44.9879 48.8558 45.1311 49.0569 45.3817 49.3644C45.4891 49.5064 45.5608 49.7429 45.5608 49.9677C45.5608 50.4526 45.8382 50.9257 46.1873 51.0085C46.4827 51.0913 46.4827 51.0795 46.8676 52.6881C47.0825 53.587 47.1988 53.8472 47.5569 54.3203C48.0045 54.9235 48.0403 55.0536 47.8791 55.5031C47.7986 55.7515 47.8165 55.8698 48.0224 56.2719C48.1566 56.5321 48.282 56.9698 48.3088 57.2418C48.3357 57.5139 48.4162 57.7622 48.4968 57.7977C48.5684 57.8332 48.8369 57.7859 49.0876 57.6676C49.3472 57.5612 49.6425 57.4784 49.75 57.4784C49.8574 57.4784 49.9469 57.4429 49.9558 57.3837C49.9558 57.3364 49.9648 57.0999 49.9827 56.8633C50.0364 55.9526 50.4661 55.5504 51.1106 55.8106C51.5939 55.9999 51.773 55.9762 51.9878 55.6687C52.2205 55.3375 52.4533 54.5096 52.4533 53.9773C52.4533 53.7644 52.498 53.4451 52.5517 53.2558C52.6054 53.0784 52.686 52.3569 52.7128 51.659C52.7845 50.2752 52.8829 49.9795 53.3484 49.8494C53.4827 49.8139 53.6706 49.672 53.7601 49.5418C53.9392 49.2816 54.154 49.2461 54.3241 49.459C54.4852 49.6838 54.6911 49.2698 54.6911 48.7021C54.6911 48.3591 54.7448 48.2171 54.9149 48.0634C55.4072 47.6376 55.4072 47.1408 54.9149 47.0225C54.6911 46.9634 54.5389 46.8096 54.3509 46.4429C54.1092 45.958 54.0824 45.9462 53.6169 45.9462C53.1694 45.9462 53.1157 45.9225 53.0082 45.615C52.9187 45.3784 52.9098 45.1537 52.9635 44.8462C53.0261 44.5268 53.0172 44.3139 52.9098 44.03C52.7934 43.687 52.7934 43.6279 52.9187 43.4386C52.9993 43.3204 53.0888 43.0365 53.1246 42.8118C53.232 42.1612 53.42 41.7591 53.7064 41.5935C53.8497 41.5225 54.0645 41.2623 54.1719 41.0376C54.2972 40.7892 54.4942 40.5881 54.6732 40.5172C54.8343 40.458 55.1834 40.1623 55.4519 39.843C55.7205 39.5354 56.0606 39.2516 56.2038 39.2043C56.356 39.1688 56.6514 38.8967 56.8662 38.6247C57.0721 38.3408 57.3138 38.0924 57.3854 38.0569C57.4928 38.0096 57.4928 37.9387 57.3854 37.5957C57.09 36.5903 57.2064 36.2 57.9225 35.8688C58.3343 35.6795 58.3701 35.6322 58.3253 35.3602C58.3074 35.1946 58.3164 34.9935 58.3522 34.9107C58.5312 34.5204 59.6949 34.4258 60.6884 34.7096C61.0107 34.8043 61.3956 34.8752 61.5567 34.8871C61.8521 34.8871 62.1028 35.2419 61.9774 35.4903C61.9506 35.5613 62.0132 35.7742 62.1207 35.9752C62.3892 36.4602 62.3086 36.6376 61.7984 36.6849C61.3956 36.7204 61.3598 36.7559 61.136 37.2526C61.0017 37.5483 60.778 37.8677 60.6258 37.9623C60.4647 38.0569 60.2498 38.3172 60.1335 38.5419C59.9992 38.8139 59.8202 38.9914 59.6143 39.0623C59.4442 39.1215 59.1757 39.3225 59.0146 39.5118C58.8445 39.701 58.6207 39.8548 58.5133 39.8548C58.2716 39.8548 57.5555 40.9075 57.5555 41.2741C57.5555 41.6171 57.7882 42.1967 58.1463 42.729C58.4954 43.2376 58.5043 43.2612 58.2985 43.8171C58.1552 44.2193 58.1552 44.2784 58.3074 44.858C58.4954 45.5795 58.6028 45.7687 58.7908 45.7687C58.8713 45.7687 59.0504 45.9107 59.1846 46.0881C59.3995 46.3601 59.5248 46.4193 59.9365 46.4193C60.3841 46.4193 60.4468 46.4548 60.7422 46.8569C61.2434 47.5666 61.7447 47.6021 62.604 46.987C62.9173 46.7623 63.2575 46.644 63.6871 46.5849C64.0362 46.5494 64.6002 46.4193 64.9403 46.3247C65.2894 46.2182 65.9429 46.1236 66.3994 46.1236C66.9991 46.1236 67.2856 46.0763 67.4467 45.9343C67.6973 45.7214 67.9838 45.8515 68.0733 46.2419C68.1359 46.5021 68.2075 46.5257 69.1295 46.7031C69.783 46.8333 70.1052 47.0343 70.2663 47.4246C70.4185 47.8031 70.141 47.8505 69.6935 47.5311C69.3354 47.2827 69.2727 47.2709 68.9147 47.4128C68.6999 47.4956 68.2791 47.7677 67.9838 48.016C67.026 48.8322 66.6858 48.9031 66.0055 48.4064C65.3342 47.9214 64.2242 47.9569 62.5682 48.5483C61.512 48.915 61.503 49.1515 62.4787 50.3935C63.1322 51.2451 63.3738 51.7418 63.2485 52.0139C63.2217 52.073 63.2396 52.2977 63.2843 52.5225C63.4096 53.0784 63.338 53.2795 62.8815 53.6225C62.246 54.1192 62.0222 54.0483 61.3687 53.1612C60.7153 52.2623 60.5542 52.215 59.8918 52.759C59.5337 53.0547 59.3816 53.2913 59.122 53.9418L58.7997 54.758L59.0325 55.444C59.3458 56.3311 59.4084 57.2773 59.1936 57.8332C59.0146 58.2945 58.5222 58.7794 58.2358 58.7794C57.9762 58.7794 57.824 58.9923 57.824 59.3708C57.824 59.8913 57.5107 60.1278 56.4724 60.3999C56.1412 60.4827 55.8906 60.2698 55.8279 59.844C55.7473 59.359 55.4161 59.1934 54.888 59.3708C54.6821 59.4418 54.2614 59.5009 53.966 59.5009C53.4468 59.5128 53.411 59.5364 53.241 59.9149C53.0351 60.388 52.8919 60.459 52.0594 60.4827C51.4955 60.4945 51.3612 60.5536 50.9763 60.8848C50.3318 61.4525 49.9827 61.4052 49.0965 60.6719C48.5505 60.2106 48.3088 60.0805 48.0224 60.0805C47.4405 60.0805 46.9661 60.3052 46.6707 60.7429C46.2948 61.2751 45.9815 61.287 45.7398 60.7665C45.6145 60.4945 45.4265 60.3171 45.0058 60.116C44.406 59.8203 44.3076 59.702 44.3076 59.2762C44.3076 59.0751 44.2539 59.016 44.0927 59.016C43.8153 59.016 43.5915 58.7203 43.5915 58.3655C43.5915 58.2117 43.5467 57.9397 43.4841 57.7622C43.3856 57.4902 43.3945 57.4311 43.5557 57.2536C43.6631 57.1472 43.8511 56.8397 43.9764 56.5676C44.1465 56.2128 44.2897 56.059 44.5045 55.9999C45.0416 55.8461 45.2027 55.4558 44.8088 55.2192C44.4866 55.0182 44.3792 54.6042 44.4956 54.001C44.5672 53.5988 44.5672 53.4096 44.4508 53.0666C44.3792 52.8182 44.2539 52.6289 44.1823 52.6289C44.1017 52.6289 43.9137 52.8537 43.7615 53.1257L43.493 53.6343L42.768 53.6934C42.1235 53.7526 42.025 53.7999 41.837 54.0838C41.5506 54.5214 41.3178 55.6096 41.3984 56.1536C41.4253 56.402 41.5685 56.816 41.7207 57.0881C41.8639 57.3601 42.0071 57.7622 42.0429 57.9751C42.0698 58.188 42.2667 58.8149 42.4815 59.3472C43.0007 60.6483 42.9917 60.9085 42.4547 61.5708C42.213 61.8547 41.9892 62.0913 41.9444 62.0913C41.8907 62.0913 41.7475 61.9611 41.6222 61.7956C41.3805 61.488 41.2104 61.4407 40.6644 61.4762C40.4406 61.4999 40.3601 61.559 40.3153 61.7837C40.2526 62.1504 40.0736 62.245 39.7872 62.0676C39.4649 61.8784 38.9905 62.0913 38.1849 62.8128C37.7015 63.2504 37.3882 63.4396 37.1107 63.4751C36.7527 63.5343 36.7079 63.5697 36.6632 63.9128C36.6274 64.1138 36.4662 64.5751 36.2962 64.93C35.9471 65.6396 35.9202 65.9472 36.1261 66.5267C36.3857 67.26 36.3051 67.3547 35.4458 67.3192C34.7028 67.2837 34.667 67.2837 34.3269 67.6504C34.0225 67.9697 33.933 68.0052 33.6376 67.9461C33.1453 67.8278 32.8857 68.088 32.832 68.7385C32.7694 69.4482 32.465 70.3116 32.1875 70.5482C32.0622 70.6547 31.8026 70.7729 31.5967 70.8084L31.2387 70.8794L31.2566 71.4826L31.2834 72.0858L31.0149 72.0504C30.8717 72.0267 30.3973 72.0267 29.9587 72.0267L29.1799 72.0504L28.7592 71.5063C28.3295 70.9385 28.2042 70.8794 27.9357 71.0805C27.6761 71.2579 27.6403 71.5536 27.8282 71.9557C28.0699 72.4762 28.2042 73.1977 28.1057 73.446C28.052 73.588 27.864 73.6708 27.4791 73.7181C27.0047 73.7891 26.8705 73.7536 26.4945 73.5052C25.9395 73.1385 25.8858 73.1385 25.4561 73.5288C25.1518 73.8245 25.0265 73.86 24.4178 73.86C24.0418 73.86 23.7017 73.8955 23.6659 73.9546C23.6301 74.002 23.7017 74.1912 23.827 74.3686C24.006 74.6052 24.0508 74.7708 24.015 75.0192C23.9434 75.5159 24.0956 75.6579 24.8206 75.7288C25.7873 75.8235 26.1991 76.0127 26.5124 76.5331C26.7093 76.8525 26.8705 76.9944 27.0674 77.0181C27.327 77.0536 27.3449 77.089 27.3717 77.5858C27.4075 78.2127 27.6671 78.6385 28.249 79.0052C28.7413 79.3009 28.7681 79.4428 28.7681 81.489C28.7771 82.9557 28.7502 83.1568 28.5264 83.9729C28.3832 84.4578 28.2311 85.0729 28.1863 85.3331C28.0162 86.232 27.6671 86.5159 26.5661 86.6105C25.8679 86.6696 25.7694 86.6578 25.5546 86.4331C25.3219 86.1965 25.3129 86.1965 24.9459 86.4094C24.3641 86.7643 23.5316 86.717 22.8692 86.2912C22.35 85.96 22.2874 85.9481 20.9357 85.9363C19.7542 85.9245 19.4946 85.889 19.226 85.6998C18.7964 85.3922 18.4831 85.5105 18.3488 86.0309C18.2325 86.5159 18.134 86.575 17.4895 86.575C16.6123 86.575 16.3706 87.3557 16.9614 88.3256C17.1314 88.6094 17.2926 88.9406 17.3194 89.0707C17.3552 89.189 17.2836 89.6621 17.1762 90.1234L16.9703 90.9632L17.2568 91.318C17.4179 91.5191 17.5432 91.732 17.5432 91.803C17.5432 92.2169 17.1404 93.589 16.8719 94.0857C16.6749 94.4642 16.5586 94.8072 16.5586 95.0438C16.5586 95.2804 16.4601 95.5761 16.29 95.8599C16.0483 96.2621 16.0215 96.3922 16.0215 97.1255C16.0215 97.9535 16.0215 97.9535 16.2453 97.8825C16.4243 97.8234 16.5228 97.8825 16.7018 98.1309C16.9256 98.4502 16.9345 98.4857 16.8987 99.9406L16.8719 101.419L17.4716 101.585C18.0624 101.75 18.0713 101.738 18.4741 101.431C18.9575 101.064 19.4409 101.029 19.8526 101.36C20.0048 101.49 20.148 101.632 20.148 101.679C20.157 101.738 20.1749 102.01 20.1838 102.282C20.2107 102.732 20.2733 102.886 20.712 103.442C20.9805 103.796 21.2311 104.08 21.2669 104.08C21.2938 104.08 21.4728 103.867 21.6518 103.595C22.1173 102.921 22.7171 102.756 25.107 102.673L26.9868 102.602L27.1479 101.928C27.3628 101.029 27.6671 100.733 28.4369 100.674C28.7413 100.638 29.0367 100.556 29.0904 100.473C29.1351 100.402 29.2157 99.9997 29.2515 99.5975C29.341 98.7696 29.4305 98.6395 29.9139 98.6395C30.1735 98.6395 30.3167 98.5449 30.5584 98.2255C30.7374 98.0008 30.9343 97.8115 31.006 97.8115C31.2118 97.8115 31.3551 97.3857 31.2387 97.1019C31.185 96.9718 31.0865 96.8653 31.0149 96.8653C30.9433 96.8653 30.8001 96.7588 30.6927 96.6169C30.4241 96.2621 30.4778 95.8954 31.1223 93.3642C31.2834 92.7019 31.6057 92.347 32.4203 91.8976C32.7962 91.6965 33.2796 91.3535 33.4855 91.1524C34.1389 90.4901 34.3179 90.36 34.5686 90.36C35.0698 90.36 35.3742 89.4965 35.1325 88.7395C34.9177 88.0772 34.9624 87.3675 35.222 86.9535C35.401 86.6696 35.589 86.5514 36.0992 86.3976C36.9496 86.1374 37.5852 86.232 37.979 86.6815C38.3371 87.0954 38.7578 87.2847 39.3038 87.2847C39.6708 87.2847 39.823 87.2019 40.3422 86.7288C40.9508 86.1729 41.658 85.7471 41.9623 85.7471C42.2398 85.7471 42.5173 85.2503 42.5173 84.7654C42.5173 84.2686 42.7321 84.0438 43.1171 84.1621C43.8869 84.3869 45.0774 84.9783 45.2564 85.2385C45.3638 85.3922 45.6234 85.96 45.8382 86.4922C46.0441 87.0245 46.3843 87.6987 46.5902 87.9944C46.805 88.2901 47.0019 88.6922 47.0288 88.9051C47.1093 89.3782 47.2257 89.5083 47.6196 89.5557C47.8702 89.5793 47.9597 89.6739 48.085 89.9933C48.2014 90.3126 48.4252 90.5255 49.1413 91.0223C49.9379 91.5901 50.108 91.661 50.5735 91.661C51.0121 91.661 51.1195 91.7083 51.2359 91.9212C51.3164 92.0632 51.3791 92.2997 51.3791 92.4417C51.3791 92.8793 51.6924 93.1277 52.3816 93.2105C53.0261 93.2814 53.2052 93.4352 53.1157 93.8137C53.0351 94.1685 53.1604 94.4524 53.4827 94.6535C53.8855 94.9019 54.4852 95.6352 54.6553 96.0728C54.8791 96.6287 54.9596 97.5631 54.8074 97.7642C54.7358 97.8588 54.6284 97.9298 54.5568 97.9298C54.4136 97.9298 54.3599 98.1191 54.2793 98.8524C54.2256 99.4438 54.3599 99.8223 54.6463 99.8223C54.7537 99.8223 55.2819 98.8051 55.6936 97.8234C55.7831 97.6105 55.9174 97.4567 56.0248 97.4567C56.4366 97.4567 56.6246 96.7115 56.3471 96.1911C56.2665 96.0373 56.0427 95.8599 55.8458 95.7771C55.2282 95.5406 55.0849 94.9255 55.4967 94.3223C55.5862 94.1922 55.6757 93.9556 55.6936 93.8019C55.7473 93.2814 55.9711 93.2341 56.5709 93.6126C57.099 93.9438 57.1437 94.0148 57.2153 94.6771C57.287 95.2922 57.9135 94.8546 57.9135 94.1922C57.9135 93.8374 57.8688 93.7664 57.4839 93.5062C57.2422 93.3406 56.6067 92.8675 56.0785 92.4298C55.5325 92.004 54.9507 91.6255 54.7537 91.5782C54.2525 91.4718 54.154 91.3062 54.2704 90.7148C54.4136 90.0051 54.2883 89.8987 53.1515 89.7804C51.8804 89.6384 51.7103 89.5083 51.3254 88.3729C50.9852 87.3557 50.9136 87.1782 50.4661 86.161C49.9916 85.1084 49.75 84.8008 49.374 84.8008C48.9175 84.8008 48.4789 84.2686 48.4878 83.7245C48.5057 82.6718 48.5684 81.5363 48.6311 81.4181C48.6669 81.3353 48.8369 81.2406 49.007 81.2052C49.1771 81.1578 49.3561 81.0159 49.4098 80.8976C49.5709 80.4955 49.8216 80.389 50.1259 80.6019C50.4213 80.803 50.484 81.0396 50.4571 81.8557C50.4303 82.5535 50.5824 82.7901 51.03 82.7901C51.3164 82.7901 51.406 82.8492 51.4865 83.0858C51.6118 83.4525 51.6924 83.4525 51.8804 83.0858C52.1221 82.6008 52.4174 82.7901 52.3011 83.3697C52.2742 83.5116 52.3369 83.7482 52.4443 83.9611C52.5517 84.1503 52.6323 84.4105 52.6323 84.5406C52.6323 84.9664 52.9903 85.3686 54.0197 86.0901C54.7895 86.6342 55.1386 86.8116 55.4161 86.8116C55.9174 86.8116 56.0606 86.9417 56.4455 87.7578C56.7588 88.4438 57.0721 88.8223 57.3049 88.8223C57.3675 88.8223 57.6987 88.9997 58.0478 89.2245C58.388 89.4492 58.8266 89.7094 59.0056 89.804C59.5695 90.1116 59.6053 90.289 59.5248 92.3707L59.4532 94.204L59.7575 94.5352C59.9723 94.7836 60.0619 94.9728 60.0619 95.2094C60.0619 95.8244 60.214 96.1556 60.4826 96.1556C60.8317 96.1675 61.0734 96.4513 61.4225 97.2674C61.7357 98.0008 61.7537 98.0244 62.3892 98.3911C62.7114 98.5685 62.8994 98.604 63.2843 98.533C63.9109 98.4384 64.7613 98.5803 65.1104 98.8524C65.2894 98.9943 65.4058 99.1836 65.4326 99.4201C65.4774 99.7277 65.5132 99.7631 65.7996 99.7631C66.0145 99.775 66.2203 99.8814 66.4083 100.094C66.7306 100.449 66.8648 100.485 67.026 100.272C67.3214 99.8814 67.0618 99.2664 66.3904 98.7105C66.0592 98.4384 66.1398 98.3556 66.6858 98.3911C67.0528 98.4148 67.1334 98.3793 67.1334 98.2255C67.1334 98.0363 66.7216 97.4567 66.5784 97.4567C66.5336 97.4567 66.3815 97.3384 66.2383 97.2083C66.0055 96.9836 65.9518 96.9718 65.7101 97.1019C65.4774 97.2201 65.3968 97.2201 65.2089 97.0545C64.9582 96.8416 64.9135 96.4986 65.1193 96.2739C65.3163 96.061 65.2984 96.0019 64.806 95.3632C64.3764 94.8072 64.3674 94.7718 64.3495 94.0503C64.3316 93.518 64.3674 93.2578 64.4659 93.1277C64.5823 92.9621 64.6628 93.0212 65.1462 93.6599L65.7012 94.3814L66.0682 94.1212C66.3994 93.8965 66.4262 93.8492 66.3815 93.5062C66.3188 93.0685 66.5426 92.6546 66.9185 92.5363C67.2408 92.4298 68.1717 92.4298 68.6909 92.5481C69.0579 92.6309 69.1564 92.7019 69.3085 93.0567L69.4876 93.4589L70.0246 93.3879C70.6244 93.3051 71.2778 92.9621 71.609 92.5481C71.8149 92.2997 71.9313 92.2642 72.8622 92.2288C73.8827 92.1814 73.8916 92.1814 73.8916 91.8976C73.8916 91.6492 73.8379 91.5901 73.5157 91.5191C72.6742 91.3298 72.0566 90.6202 72.0566 89.8277C72.0566 89.603 71.9581 89.3546 71.7701 89.0944L71.4837 88.704L71.5911 87.8879C71.7343 86.7643 71.8418 86.5041 72.2446 86.2912C72.6742 86.0664 72.7458 85.6643 72.5937 84.3159C72.4684 83.1568 72.5668 82.8492 73.1039 82.731C73.9364 82.5535 73.9095 82.5654 73.9722 82.1041C73.999 81.8675 74.0259 81.4772 74.0259 81.2525C74.0259 80.7439 74.0885 80.6256 74.4287 80.389C74.5809 80.2944 74.7599 80.0815 74.8225 79.9159C74.8852 79.7503 75.0553 79.5019 75.1985 79.3718C75.3417 79.2299 75.4581 79.017 75.4581 78.9105C75.4581 78.4019 75.9415 78.2482 76.2189 78.6503C76.3085 78.7804 76.4338 78.8869 76.4964 78.8869C76.5591 78.8869 76.7292 79.017 76.8724 79.1708C77.1588 79.5019 77.8033 79.8331 78.1435 79.8331C78.2688 79.8331 78.591 79.7503 78.8596 79.6557C79.4504 79.4428 79.6652 79.5138 79.6652 79.8923C79.6652 80.1288 79.5399 80.2589 78.9491 80.6729C78.2598 81.146 77.9555 81.5127 78.1345 81.6546C78.1793 81.7019 78.4747 81.7611 78.779 81.8084C79.4862 81.903 79.7547 82.1987 79.7547 82.8729C79.7547 83.5234 79.9695 83.8783 80.3186 83.8309C80.5514 83.8073 80.6319 83.7127 80.7662 83.3578C80.9273 82.8847 81.1243 82.7901 81.4734 83.0385C81.6434 83.1568 81.7061 83.1094 82.0462 82.6008L82.4222 82.0213L82.816 82.2933C83.3173 82.6363 83.738 82.6363 83.8813 82.3051C84.0871 81.7847 83.568 81.56 82.6191 81.7729C82.279 81.8557 82.1716 81.8202 81.903 81.5836C81.7329 81.4299 81.4823 81.0869 81.348 80.8148C81.2048 80.531 80.981 80.2707 80.8199 80.1998C80.4529 80.0342 80.5245 79.8213 81.0437 79.5729C81.2943 79.4546 81.6076 79.1826 81.7956 78.9105L82.1268 78.4492L83.1741 78.3901L84.2304 78.331L84.5795 77.9052C84.9554 77.4557 85.5014 77.231 85.7431 77.432C85.958 77.6095 85.958 78.0471 85.761 79.1589C85.6536 79.703 85.5731 80.4009 85.5731 80.6966C85.5731 81.3707 85.3135 81.8439 84.9375 81.8439C84.3288 81.8439 84.8927 82.6482 85.7342 82.9912C86.0117 83.0976 86.3518 83.3105 86.4861 83.4525C86.6203 83.6062 86.9515 83.8073 87.229 83.9019C87.5334 84.0202 87.7572 84.1858 87.8198 84.3395C87.8735 84.4815 88.1242 84.8955 88.3748 85.274C88.6344 85.6406 88.9656 86.1374 89.1088 86.3739C89.4848 86.9417 90.0845 87.0836 90.5858 86.7051C91.0065 86.3976 92.1075 86.3621 92.6267 86.6342C93.0384 86.8707 93.5666 87.5331 93.8619 88.2073C94.1663 88.8815 94.4259 88.9997 94.9988 88.7514C95.867 88.3729 96.7353 88.7159 97.4604 89.7449L97.9348 90.4073L99.0268 90.5019C101.274 90.6911 101.82 90.7739 102.115 90.9868C102.482 91.247 103.252 91.389 103.332 91.2116C103.386 91.0933 103.189 90.7148 102.249 89.2008C102.079 88.9169 101.739 88.5266 101.497 88.3256C100.942 87.8761 100.88 87.7223 100.88 86.7761C100.88 86.1374 100.835 85.9481 100.62 85.4987C100.191 84.6589 100.011 84.446 99.6892 84.446C99.1074 84.446 99.0447 84.0084 99.4386 82.8611C99.5818 82.4471 99.725 81.8793 99.7608 81.6191C99.8235 81.1224 100.003 80.8976 100.316 80.8976C100.62 80.8976 101.551 80.2234 101.757 79.8449C101.873 79.6439 101.936 79.4191 101.909 79.36C101.847 79.2299 102.008 79.0998 102.303 79.0406C104.12 78.7331 104.102 78.7449 104.102 78.2127C104.102 77.8815 104.424 77.5858 104.774 77.5858C104.917 77.5976 105.266 77.7159 105.534 77.8815C105.803 78.0353 106.045 78.1417 106.063 78.1181C106.08 78.0826 105.964 77.8105 105.812 77.4912C105.66 77.1718 105.552 76.8288 105.579 76.7224C105.615 76.6278 105.534 76.2256 105.409 75.8235C105.275 75.4095 105.176 74.8772 105.176 74.5697C105.176 73.8955 105.033 73.5288 104.505 72.8546C104.263 72.5471 103.986 72.0149 103.834 71.6009C103.699 71.1987 103.502 70.7611 103.413 70.6428C103.216 70.3826 103.028 69.7557 103.028 69.3536C103.028 68.9869 103.377 68.8568 104.192 68.9278C104.711 68.9633 104.997 68.9278 105.481 68.7267C105.812 68.5966 106.206 68.4783 106.349 68.4783C106.546 68.4783 106.626 68.3955 106.752 68.0643C106.895 67.6622 106.895 67.6385 106.618 67.0117C106.313 66.2902 106.304 66.3138 107.047 65.817C107.486 65.5332 107.611 65.4977 108.22 65.545C108.909 65.6041 109.348 65.8052 110.458 66.6332C110.843 66.917 113.197 68.2418 113.322 68.2418C113.349 68.2418 113.662 67.9342 114.002 67.5439C114.602 66.8816 114.629 66.8224 114.745 66.1009C114.808 65.6869 114.897 65.273 114.951 65.202C115.005 65.1192 115.014 64.9536 114.978 64.8472C114.862 64.4332 114.575 61.9493 114.575 61.287C114.575 60.3644 114.432 59.7493 114.119 59.3354L113.859 58.9923L113.161 59.9267C112.212 61.216 111.568 61.4999 110.601 61.0741C110.01 60.802 109.196 59.7848 108.846 58.8741C108.309 57.4429 108.533 57.0171 110.144 56.3547C111.46 55.8106 111.657 55.5859 111.603 54.7461C111.541 53.9773 111.102 52.8182 110.386 51.5762L109.804 50.5709L109.733 49.0214C109.697 48.1462 109.607 47.2827 109.536 47.0107C109.455 46.7505 109.267 45.7333 109.115 44.7634C108.3 39.6301 107.414 35.8688 106.779 34.7806C106.68 34.6269 106.609 34.3193 106.609 34.0946C106.609 33.3968 107.459 32.415 109.33 30.9602C109.634 30.7236 109.742 30.5699 109.742 30.357C109.742 30.014 109.392 29.0914 108.99 28.3581C108.721 27.8968 108.614 27.7903 108.22 27.6839C107.969 27.6129 107.575 27.4355 107.343 27.2936C107.101 27.1516 106.618 27.0097 106.206 26.9505C105.812 26.9032 105.329 26.785 105.132 26.6903C104.899 26.5721 104.317 26.5011 103.476 26.4774L102.178 26.4301V26.7258C102.178 26.9387 102.258 27.0688 102.482 27.2108C103.073 27.5774 103.225 28.3344 102.786 28.7011C102.643 28.8075 102.446 29.0204 102.33 29.1742C102.214 29.3279 102.052 29.4462 101.954 29.4462C101.793 29.4462 101.372 28.843 101.157 28.2871C101.032 27.9796 100.862 27.9559 100.692 28.228C100.378 28.7247 99.8593 28.8667 98.2749 28.914L96.7532 28.9613L96.4578 29.3871C96.1266 29.8484 95.8491 29.9075 95.509 29.6C95.2225 29.3398 95.1688 29.2452 95.0525 28.7011C94.9182 28.0387 94.6497 27.9204 94.1573 28.2989C93.9425 28.4527 93.5845 28.6301 93.3786 28.6656C93.1637 28.7129 92.7967 28.8785 92.573 29.0323C92.3402 29.1978 92.0448 29.3279 91.9195 29.3279C91.5525 29.3279 90.9528 29.6473 90.3441 30.1677C89.9413 30.5107 89.6459 30.6763 89.3147 30.7355C88.8492 30.8064 88.8313 30.8183 88.6165 31.3978C88.4643 31.8 88.2853 32.0602 88.0615 32.2258L87.7303 32.4623L86.8531 32.1785C85.5014 31.7527 85.403 31.6699 85.5193 31.043C85.591 30.6527 85.9759 30.4161 86.4503 30.4871C86.7994 30.5344 86.8262 30.5107 86.8262 30.2505C86.8262 29.8366 86.6741 29.6355 86.0654 29.2215C85.4656 28.8075 84.9733 28.6656 83.8007 28.5473C82.8071 28.4527 82.7086 28.5828 83.371 29.1387C83.6396 29.3634 83.8813 29.6591 83.9171 29.8011C83.9529 29.9312 83.9081 30.3452 83.8186 30.7118C83.6664 31.3269 83.6664 31.3742 83.8096 31.5161C83.8992 31.5989 84.1319 31.7054 84.3467 31.7408C85.0181 31.8828 85.3314 32.3796 84.9912 32.758C84.8301 32.9355 84.8211 33.2666 84.9554 33.5978C85.0718 33.8935 84.9196 34.1774 84.66 34.1774C84.5616 34.1774 84.1856 34.0355 83.8096 33.8699C83.4426 33.7043 82.7892 33.5269 82.3685 33.4677C81.715 33.3968 81.5718 33.3376 81.4555 33.1129C81.3838 32.9709 81.1332 32.5806 80.9094 32.2376C80.6588 31.8591 80.4708 31.4451 80.435 31.1849C80.3723 30.7355 80.3186 30.7 79.7099 30.5699C79.513 30.5226 79.146 30.3097 78.8954 30.0849C78.3583 29.6 77.9913 29.4462 77.4184 29.4462C76.8992 29.4462 76.577 29.2925 75.8251 28.7247C75.3954 28.3817 75.1358 28.2634 74.8583 28.2634C74.6435 28.2634 74.0975 28.0978 73.641 27.9086C73.1666 27.7075 72.6026 27.5538 72.352 27.5538C72.1013 27.5538 71.8328 27.4828 71.7343 27.3764C71.5106 27.1516 71.2957 27.1516 70.8303 27.3882C70.3111 27.6484 70.0425 27.5419 69.8188 26.9742C69.6845 26.6075 69.5592 26.4774 69.228 26.3237C68.6641 26.0753 68.5119 26.0871 67.9927 26.4301C67.4825 26.7731 67.2587 26.785 66.65 26.5484C66.4083 26.4538 66.0592 26.371 65.8802 26.371C65.5132 26.371 65.2178 26.0516 65.2715 25.6968C65.2984 25.5194 65.3968 25.4839 65.925 25.4721C66.5963 25.4602 66.9544 25.3538 66.9544 25.1882C66.9544 25.1172 66.8469 25.0462 66.7127 25.0108C66.5694 24.9753 66.2203 24.8334 65.925 24.7032C65.2626 24.4194 64.9135 24.4194 64.3495 24.6796C63.8304 24.928 63.6245 24.8215 63.5529 24.2893C63.5171 23.9936 63.4633 23.9463 63.1769 23.9108C62.9889 23.8871 62.8099 23.9344 62.7562 24.0291ZM57.2422 71.4353C57.3049 71.5772 57.1348 71.5772 56.8841 71.4353C56.723 71.3407 56.732 71.3288 56.9468 71.3288C57.0811 71.317 57.2153 71.3643 57.2422 71.4353Z" fill="#C6C6C6"/>
<path d="M58.8546 14.9137L58.4932 15.0722L58.7434 15.2441C59.0771 15.4555 59.4942 15.4423 59.6332 15.2044C59.8834 14.7683 59.522 14.6361 58.8546 14.9137Z" fill="#C6C6C6"/>
<path d="M102.546 16.0633C102.472 16.2616 102.491 16.3805 102.639 16.592C102.741 16.7373 102.917 16.8563 103.037 16.8563C103.149 16.8563 103.538 17.0016 103.89 17.1867C104.548 17.5038 104.724 17.4774 104.659 17.0413C104.641 16.8827 104.511 16.7638 104.261 16.6977C104.057 16.6316 103.825 16.473 103.751 16.3409C103.408 15.7594 102.722 15.6008 102.546 16.0633Z" fill="#C6C6C6"/>
<path d="M55.762 7.35209C55.345 7.94679 55.6879 8.5415 56.4664 8.5415C57.106 8.5415 57.8011 8.30362 57.8011 8.07895C57.8011 7.82785 57.625 7.66926 56.9948 7.3653C56.2718 7.02169 55.9938 7.02169 55.762 7.35209Z" fill="#C6C6C6"/>
<path d="M50.1331 19.0502C49.8829 19.222 49.6141 19.4599 49.5307 19.5656C49.2804 19.9225 50.0312 19.8167 50.337 19.4467C50.4761 19.2881 50.7263 19.0502 50.8746 18.9313L51.1527 18.7198H50.8746C50.7263 18.7198 50.3927 18.8652 50.1331 19.0502Z" fill="#C6C6C6"/>
<path d="M50.7446 19.5788C50.5129 20.0017 50.5871 20.2925 50.9207 20.2925C51.2451 20.2925 51.4768 19.9885 51.4768 19.5524C51.4768 19.0898 51.0042 19.1031 50.7446 19.5788Z" fill="#C6C6C6"/>
<path d="M40.1359 7.28635L39.8115 7.4978L40.1081 7.62996C40.451 7.77533 40.9237 7.60353 40.9237 7.31278C40.9237 7.04847 40.5159 7.03525 40.1359 7.28635Z" fill="#C6C6C6"/>
<path d="M10.2139 25.1823C10.1583 25.4202 10.0378 25.6052 9.92654 25.6316C9.36116 25.8034 9.19433 25.8563 8.97189 25.9224C8.84213 25.9752 8.64749 25.9488 8.53627 25.8695C8.32309 25.7241 7.60015 25.5788 6.94209 25.5391C6.58989 25.5127 6.57135 25.5259 6.52501 25.9752C6.48793 26.2396 6.43232 26.5171 6.39525 26.6096C6.28403 26.8739 5.95036 26.7946 5.69085 26.4378C5.56109 26.266 5.32011 26.0678 5.15327 26.0281C4.88449 25.9488 4.85668 25.9752 4.85668 26.266C4.85668 26.6889 4.69912 26.9532 4.28204 27.2307C3.81861 27.5347 3.65178 27.429 3.65178 26.8475C3.65178 26.0942 3.48495 25.7506 3.02152 25.5127C2.48395 25.2616 2.36346 25.2616 2.15029 25.5259C2.0576 25.6581 1.77028 25.8034 1.51076 25.8563C1.2049 25.9224 0.945385 26.0942 0.750747 26.3321C0.583914 26.5303 0.352202 26.7946 0.222443 26.9136L0 27.125L0.259517 27.3629C0.481961 27.5743 0.54684 27.5876 0.713673 27.429C1.23271 26.9532 1.59418 26.7682 1.99272 26.7682C2.53029 26.7682 2.74347 27.0193 2.7064 27.614C2.68786 27.9312 2.60444 28.0765 2.35419 28.2484C2.07614 28.4466 1.93711 28.4598 1.3532 28.3276C0.834163 28.2219 0.658062 28.2219 0.54684 28.3541C0.315128 28.6184 0.380008 29.0016 0.66733 29.0942C1.45515 29.332 1.94638 29.9796 1.8537 30.6404C1.82589 30.8519 1.84443 31.1294 1.89077 31.2615C2.02053 31.6052 2.66932 31.7109 3.2347 31.4598C3.86496 31.1955 4.01325 31.2087 4.60643 31.6052L5.12547 31.9355L5.87621 31.5919C6.61769 31.2615 6.68257 31.2615 9.10164 31.288C10.4641 31.3012 11.6597 31.2748 11.7617 31.2219C12.0305 31.0897 12.2715 30.4554 12.2715 29.8871C12.2715 29.3056 12.6978 28.5655 13.152 28.3541C13.43 28.2219 13.4764 28.1426 13.4764 27.7726C13.4764 27.2307 13.3373 27.0325 12.9573 27.0325C12.6422 27.0325 12.3641 26.6625 12.3641 26.2396C12.3641 26.1206 12.2622 25.8827 12.1324 25.7109C11.9285 25.4334 11.8637 25.4202 11.5671 25.5523C11.1592 25.7241 11.0573 25.6713 10.7978 25.1823C10.5383 24.6801 10.3436 24.6801 10.2139 25.1823Z" fill="#C6C6C6"/>
<path d="M21.3727 35.0677C21.5581 35.6888 21.6879 35.821 21.9566 35.6491C22.383 35.3716 22.2162 34.9223 21.6137 34.7901C21.2708 34.7108 21.2708 34.724 21.3727 35.0677Z" fill="#C6C6C6"/>
<path d="M28.9089 39.0062C28.8254 39.1252 28.7791 39.3102 28.8069 39.4159C28.8347 39.5216 28.8625 39.6274 28.8625 39.6538C28.8625 39.6934 28.9459 39.7727 29.0479 39.852C29.1777 39.9577 29.3167 39.9445 29.5577 39.7992C29.8913 39.5877 29.984 39.2573 29.7708 38.9534C29.6133 38.7287 29.085 38.7551 28.9089 39.0062Z" fill="#C6C6C6"/>
<path d="M58.0204 39.6536C57.8165 39.8782 57.8814 40.2483 58.1317 40.2483C58.3634 40.2483 58.558 39.9179 58.4839 39.6536C58.419 39.4025 58.2522 39.4025 58.0204 39.6536Z" fill="#C6C6C6"/>
<path d="M26.8509 42.3628C26.6285 42.495 26.5543 42.8782 26.7582 42.9047C26.9529 42.9311 27.2216 42.865 27.4626 42.7329C27.6943 42.6139 27.6943 42.6007 27.5275 42.4157C27.3236 42.2042 27.1475 42.191 26.8509 42.3628Z" fill="#C6C6C6"/>
<path d="M61.8576 42.7593C61.5425 43.1029 61.6908 43.4729 62.1728 43.5258C62.7752 43.6051 62.9976 43.05 62.5064 42.6932C62.1635 42.4421 62.1357 42.4421 61.8576 42.7593Z" fill="#C6C6C6"/>
<path d="M62.9703 43.9618C62.8405 44.0411 62.4141 44.1468 62.0156 44.2129C61.6171 44.279 61.2556 44.3715 61.2092 44.4111C61.1629 44.4508 61.2092 44.7415 61.3205 45.0719C61.5707 45.812 61.821 45.8516 62.34 45.2173C62.5439 44.9662 62.8312 44.7151 62.9703 44.6754C63.2854 44.5697 63.4708 44.2922 63.3966 44.0147C63.341 43.79 63.2947 43.7768 62.9703 43.9618Z" fill="#C6C6C6"/>
<path d="M23.7267 50.7105C23.585 51.5494 23.2662 51.9038 22.4247 52.1047C22.0173 52.211 21.973 51.9983 22.3096 51.573C22.6284 51.1713 22.593 50.5805 22.2476 50.5333C21.911 50.4742 21.3353 50.935 21.1493 51.4076C20.9456 51.9156 21.0696 52.3646 21.4416 52.4237C21.6807 52.4591 21.6896 52.4946 21.6896 53.0499V53.6406L22.0793 53.6524C22.4779 53.6642 22.6196 53.8178 22.6196 54.2432C22.6196 54.3731 22.7347 54.5976 22.8853 54.7394C23.1333 54.9875 23.151 55.0466 23.1244 55.7437L23.1067 56.4762L23.3902 56.4407C23.8684 56.3698 24.0102 56.4998 24.1607 57.126C24.3556 57.9176 24.3556 57.9294 23.9393 58.4374C23.5053 58.9691 23.5053 59.2881 23.9216 59.3472C24.3379 59.4063 24.9047 59.1582 25.1173 58.8273C25.4628 58.3075 25.6488 58.5083 25.755 59.5362C25.7993 60.0206 25.8702 60.186 26.2068 60.5996C26.6673 61.1785 26.7382 61.6511 26.4105 62.0646C25.9942 62.5727 25.197 62.7262 24.7807 62.36C24.453 62.0764 24.391 62.2773 24.391 63.636C24.391 64.8647 24.3822 64.9002 23.8419 65.2664C23.5142 65.4791 23.275 65.9753 23.3547 66.2589C23.399 66.4125 23.5319 66.4597 23.9393 66.4597C24.7187 66.4597 25.8348 66.6842 25.9765 66.8733C26.0828 67.0032 26.0828 67.0978 26.003 67.3459C25.9145 67.6058 25.8436 67.6412 25.4539 67.6412C24.9225 67.6412 24.639 67.8066 23.8419 68.551C23.2307 69.1299 22.6727 69.9451 22.7347 70.1696C22.8056 70.4296 23.4167 70.2523 23.8242 69.8624C24.1873 69.5198 24.2405 69.4962 24.515 69.6261C25.0376 69.8861 25.2236 69.8034 25.7196 69.1654C26.2156 68.5155 26.313 68.4919 26.9331 68.8345C27.1988 68.9763 27.2608 68.9645 27.8454 68.551L28.4742 68.1138H29.8117C30.9985 68.1138 31.2022 68.0902 31.5477 67.8657C32.0348 67.5467 32.0791 67.3931 31.7957 67.015C31.6717 66.8378 31.5654 66.6606 31.5654 66.6015C31.5654 66.3534 31.902 65.9517 32.4068 65.5973L32.9383 65.2192L32.9117 64.6284C32.8674 63.766 32.7877 63.6242 32.3183 63.6478C31.8311 63.6833 31.5654 63.3997 31.5654 62.8444C31.5654 62.5963 31.5034 62.3954 31.3882 62.2891C31.2997 62.2064 31.1668 61.9228 31.1048 61.6747C31.0162 61.3203 30.9277 61.2021 30.6797 61.0958C30.4848 61.0131 30.3608 60.8831 30.3431 60.7295C30.2722 60.0679 30.2191 59.9497 29.8559 59.7135C29.4397 59.4181 28.9171 58.9337 28.7576 58.6737C28.6956 58.5792 28.6691 58.3902 28.6956 58.2366C28.7576 57.9058 28.5628 57.4096 28.1554 56.8897C27.8365 56.4762 27.8365 56.4762 27.1102 56.5116C26.4725 56.5471 26.3573 56.5116 26.1802 56.299C25.9233 55.9681 25.9588 55.8145 26.3662 55.5546C26.5433 55.4483 26.6939 55.2947 26.6939 55.2356C26.6939 55.0111 27.0482 54.6449 27.2519 54.6449C27.5885 54.6449 27.7568 54.2668 27.8542 53.3452C27.9605 52.3646 27.9162 51.9747 27.6859 51.9038C27.5973 51.8684 27.2165 51.9747 26.8268 52.1165C26.0208 52.4473 25.6133 52.4709 25.4539 52.2228C25.3122 51.9983 25.5248 51.5376 25.8879 51.2894C26.1979 51.0768 26.3042 50.7578 26.1359 50.5451C26.0473 50.427 25.9588 50.4151 25.7816 50.4978C25.6488 50.5687 25.4362 50.6042 25.3033 50.5687C25.1616 50.5451 24.763 50.486 24.4176 50.4506L23.771 50.3915L23.7267 50.7105Z" fill="#C6C6C6"/>
<path d="M56.5098 46.3275C56.1576 46.6315 56.1205 46.9619 56.3893 47.2923C56.4912 47.4112 56.5746 47.6623 56.5746 47.8606C56.5746 48.3099 56.8898 48.2438 56.9268 47.7813C56.9454 47.5962 57.0844 47.2659 57.2327 47.0148C57.381 46.7769 57.5015 46.4597 57.5015 46.3275C57.5015 46.1161 57.4366 46.0632 57.1586 46.0632C56.9639 46.0632 56.6673 46.1822 56.5098 46.3275Z" fill="#C6C6C6"/>
<path d="M54.3127 48.997C54.2385 49.3803 54.2107 49.7503 54.2478 49.8032C54.4054 50.0279 54.6927 49.6314 54.7946 49.0763C54.9059 48.4552 54.8781 48.3098 54.6278 48.3098C54.498 48.3098 54.4239 48.4816 54.3127 48.997Z" fill="#C6C6C6"/>
<path d="M22.1141 49.4596C22.1327 49.5918 22.2068 49.6975 22.281 49.6975C22.4849 49.6975 22.4478 49.3143 22.2532 49.2614C22.1234 49.2217 22.0863 49.2746 22.1141 49.4596Z" fill="#C6C6C6"/>
<path d="M47.0113 56.493C46.8924 56.6846 46.746 56.7326 46.3528 56.7326C45.484 56.7326 45.548 57.3194 46.4717 57.99L47.0387 58.4092L47.1393 58.0858C47.1942 57.8942 47.3222 57.499 47.4228 57.1876C47.5325 56.8882 47.5874 56.5409 47.56 56.4451C47.4777 56.1817 47.2033 56.2056 47.0113 56.493Z" fill="#C6C6C6"/>
<path d="M22.3735 51.0192C22.3086 51.1381 22.2808 51.2571 22.3086 51.2967C22.3364 51.3363 22.4013 51.2438 22.4662 51.0985C22.5866 50.7681 22.5403 50.7416 22.3735 51.0192Z" fill="#C6C6C6"/>
<path d="M19.6771 58.1669C18.9547 58.3927 18.5031 58.7255 18.5031 59.0345C18.5031 59.1059 18.6295 59.2604 18.7831 59.3673C19.0088 59.5456 19.054 59.6407 19.0269 59.9616C19.0088 60.2469 18.9366 60.3895 18.756 60.5084C18.476 60.6748 18.2954 60.6035 17.8349 60.0924C17.6362 59.8784 17.4917 59.819 17.2117 59.8428C16.5615 59.9022 16.5164 60.5797 17.1395 60.8174C17.3833 60.9125 17.4285 60.9838 17.4014 61.2334C17.3743 61.5187 17.1666 61.7327 16.7692 61.8872C16.4712 62.006 16.697 62.2556 17.2659 62.4339C17.6542 62.5528 17.8349 62.6717 17.8529 62.8143C17.889 63.0758 17.2298 63.9435 16.7873 64.1931C16.4532 64.3951 15.7939 65.2985 15.7939 65.5599C15.7939 65.6313 15.9655 65.9284 16.1732 66.2018C16.5345 66.6891 16.5796 66.7129 17.0582 66.7129C17.6723 66.701 18.9908 66.2256 19.2527 65.9046C19.65 65.4292 20.0654 65.239 20.7246 65.2153C21.0768 65.2034 21.4471 65.1677 21.5464 65.1202C21.9257 64.9656 22.3321 62.8499 22.2328 61.5781C22.1695 60.7818 22.305 60.4133 22.8017 60.033C22.9733 59.9022 23.1087 59.7596 23.1087 59.712C23.1087 59.6645 22.892 59.2485 22.6301 58.7968C22.2779 58.2144 22.0973 57.9886 21.9709 58.0123C21.718 58.0718 21.2213 58.0599 20.8059 57.9886C20.5982 57.9529 20.1196 58.0242 19.6771 58.1669Z" fill="#C6C6C6"/>
<path d="M52.3484 52.6843C52.2835 52.8428 52.4874 53.0939 52.6079 52.9882C52.645 52.9486 52.6821 52.8296 52.6821 52.7239C52.6821 52.4992 52.4411 52.4728 52.3484 52.6843Z" fill="#C6C6C6"/>
<path d="M46.8428 53.6358C46.8428 53.7415 46.954 53.8605 47.1023 53.9133C47.2413 53.953 47.4545 54.0323 47.5657 54.0719C47.7604 54.1512 47.7789 54.1248 47.7511 53.8472C47.7233 53.5697 47.6677 53.5301 47.2877 53.4904C46.954 53.464 46.8428 53.4904 46.8428 53.6358Z" fill="#C6C6C6"/>
<path d="M44.1734 87.9389C44.1076 88.0765 43.9104 88.2829 43.7131 88.3976C43.159 88.7073 43.0463 89.6018 43.5253 89.8541C43.7038 89.9459 43.7319 90.0491 43.7131 90.3817C43.6944 90.6798 43.7319 90.8174 43.8352 90.8748C44.3237 91.1042 44.6806 90.1408 44.5773 88.8564C44.5397 88.432 44.4646 87.9962 44.3988 87.8816C44.2955 87.7095 44.2767 87.7095 44.1734 87.9389Z" fill="#C6C6C6"/>
<path d="M43.8984 92.1926C43.5903 92.4021 43.3909 92.4603 43.11 92.4254C42.7384 92.3788 42.5391 92.4952 42.5391 92.7629C42.5391 92.8327 42.6206 92.9258 42.7294 92.9608C42.8925 93.019 42.9106 93.0888 42.8562 93.4845C42.8109 93.8802 42.8291 93.9617 43.0194 94.1247C43.2006 94.276 43.2459 94.4273 43.2822 94.9859C43.3184 95.4399 43.2912 95.7658 43.2006 95.9869C43.0737 96.3128 43.1643 96.7667 43.3547 96.7667C43.4 96.7667 43.4634 96.8947 43.4996 97.0577C43.5812 97.4883 43.9346 97.4418 44.2881 96.9413C44.4512 96.7318 44.6958 96.4874 44.8318 96.4175C45.0674 96.3128 45.0855 96.2662 45.0221 95.9171C44.9858 95.7192 44.9586 94.9627 44.9677 94.2527C44.9949 92.9026 44.9315 92.5068 44.6234 92.1111C44.4059 91.8318 44.4149 91.8318 43.8984 92.1926Z" fill="#C6C6C6"/>
<path d="M34.1921 95.445C34.0195 95.684 34.0296 95.7092 34.3546 95.9481C34.7913 96.2877 35.2179 96.2877 35.3601 95.9733C35.4921 95.6588 35.4921 95.6337 35.2992 95.4073C35.0757 95.118 34.4156 95.1432 34.1921 95.445Z" fill="#C6C6C6"/>
<path d="M32.3897 96.8466C32.0849 96.9847 32.3287 97.6377 32.6741 97.6377C32.9381 97.6377 33.0397 97.1354 32.8061 96.9219C32.6131 96.7461 32.5826 96.7461 32.3897 96.8466Z" fill="#C6C6C6"/>
<path d="M53.2078 98.9515C52.9122 99.2504 52.2405 99.3699 51.7121 99.2265C51.1299 99.0711 49.6611 99.1069 49.5088 99.2743C49.3386 99.4536 49.3655 100.135 49.5536 100.35C49.6342 100.458 49.8044 100.577 49.9297 100.625C50.0551 100.673 50.2611 100.852 50.3955 101.02C50.6104 101.283 50.6731 101.306 50.8702 101.187C51.2015 100.984 51.2463 101.008 51.3448 101.39C51.4165 101.653 51.4792 101.725 51.6135 101.677C51.7389 101.641 51.8464 101.725 51.9718 101.976C52.124 102.239 52.2584 102.346 52.5719 102.394C52.7958 102.442 53.1003 102.562 53.2525 102.657C53.5033 102.837 53.5481 102.837 53.7451 102.657C54.0765 102.37 54.0317 101.904 53.6466 101.689C53.1719 101.426 53.1451 101.043 53.5481 100.446C53.8974 99.9318 53.9243 99.7405 53.772 99.1428C53.6645 98.7364 53.4854 98.6766 53.2078 98.9515Z" fill="#C6C6C6"/>
<path d="M63.2117 99.4668C62.8725 99.5971 62.6137 99.9525 62.6583 100.249C62.6673 100.367 62.8547 100.569 63.0689 100.699C63.3366 100.865 63.4616 101.019 63.4973 101.232C63.5241 101.398 63.5865 101.73 63.6312 101.99C63.7204 102.44 63.7294 102.44 64.0685 102.369C64.363 102.31 64.4344 102.334 64.5951 102.606C64.729 102.82 64.8271 102.891 64.9521 102.831C65.086 102.784 65.202 102.843 65.3627 103.056C65.4876 103.222 65.6126 103.365 65.6304 103.365C65.7107 103.365 65.5501 101.967 65.4341 101.67C65.2734 101.232 65.3359 100.995 65.6304 100.995C65.7554 100.995 65.8535 100.96 65.8535 100.924C65.8535 100.877 65.7107 100.604 65.5322 100.332C65.3091 99.9525 65.1484 99.8104 64.9789 99.8104C64.845 99.8104 64.5594 99.7037 64.3452 99.5734C63.9346 99.3246 63.658 99.2891 63.2117 99.4668Z" fill="#C6C6C6"/>
<path d="M69.5508 99.0189C69.5508 99.085 69.7362 99.2436 69.9679 99.4021C70.2923 99.6136 70.3849 99.64 70.3849 99.4947C70.3849 99.3889 70.2366 99.2171 70.0605 99.1114C69.7083 98.8999 69.5508 98.8735 69.5508 99.0189Z" fill="#C6C6C6"/>
<path d="M69.8099 101.992C69.5597 102.111 69.4484 102.362 69.6431 102.362C69.7914 102.362 70.1992 102.058 70.1992 101.939C70.1992 101.807 70.1343 101.82 69.8099 101.992Z" fill="#C6C6C6"/>
<path d="M68.4106 105.534C68.3179 105.732 68.2901 105.931 68.3365 106.116C68.4013 106.34 68.5589 106.433 69.2262 106.618C69.7638 106.776 70.1902 106.988 70.4682 107.239C70.6999 107.45 71.0614 107.675 71.2653 107.728C71.4692 107.768 71.7102 107.873 71.8029 107.939C72.2756 108.283 72.4146 107.08 71.9697 106.459L71.7009 106.076L70.7648 106.155L69.8287 106.235L69.4301 105.825C68.8648 105.257 68.5867 105.177 68.4106 105.534Z" fill="#C6C6C6"/>
</svg>
