<svg width="115" height="108" viewBox="0 0 115 108" fill="none" xmlns="http://www.w3.org/2000/svg">
<path d="M105.925 0.115311C105.117 0.172077 104.542 0.27142 104.407 0.384954C104.236 0.541065 104.102 0.541065 103.733 0.41334C103.392 0.285612 103.033 0.285612 102.287 0.399147C101.748 0.484299 100.885 0.555258 100.382 0.555258C99.5556 0.555258 99.4388 0.583641 99.1333 0.924246C98.8099 1.26485 98.7829 1.26485 98.5493 1.05197C98.172 0.697176 97.8755 0.768135 97.6599 1.25066C97.4263 1.76156 97.3364 1.77576 96.7974 1.32162C96.2493 0.867477 96.1235 0.88167 95.9079 1.43515C95.6833 2.00283 95.4677 2.07379 95.1353 1.69061C94.9286 1.44934 94.8478 1.42096 94.713 1.54869C94.5782 1.69061 94.4974 1.66222 94.2817 1.40677C94.0302 1.12293 93.9763 1.10874 92.7634 1.23647C91.6403 1.36419 91.4157 1.43515 90.6521 1.90348C89.8524 2.38601 89.7267 2.42858 88.7204 2.45697C87.5524 2.48535 86.5552 2.7408 86.4833 3.02464C86.4653 3.12398 86.5013 3.37944 86.5732 3.59231C86.645 3.80519 86.6989 3.98969 86.6989 4.01807C86.6989 4.1316 85.8454 4.37287 85.4771 4.37287C84.911 4.37287 82.2696 4.94054 82.1798 5.08246C82.1349 5.13923 82.1259 5.32372 82.1618 5.47983C82.2157 5.76367 82.2786 5.77786 83.5903 5.76367C84.336 5.74948 85.0099 5.79205 85.0817 5.86301C85.1626 5.94816 84.929 6.09008 84.381 6.30296C83.6263 6.60099 83.5185 6.61518 83.186 6.43069C82.7099 6.16104 82.2786 6.28876 82.3146 6.70033C82.3415 6.95578 82.3954 6.99836 82.7189 6.95578C83.1052 6.89902 83.1052 6.89902 83.0513 7.32477C82.9974 7.72214 83.0153 7.73633 83.3747 7.83568C83.6532 7.90664 83.8149 7.86406 83.9677 7.70795C84.2552 7.42411 84.6864 7.43831 84.8122 7.73633C84.8931 7.9634 84.92 7.94921 85.1267 7.56603C85.3333 7.18285 85.3692 7.16866 85.4501 7.38154C85.5669 7.72214 85.8095 7.70795 86.097 7.35316C86.3755 7.01255 86.5372 6.98417 86.5013 7.29639C86.4743 7.49507 86.5732 7.53765 87.0673 7.55184C87.4806 7.56603 87.7232 7.63699 87.831 7.7931C87.9298 7.92083 88.1185 8.06275 88.2532 8.11951C88.4509 8.19047 88.4958 8.28982 88.4778 8.53108C88.4599 8.77234 88.5048 8.85749 88.6845 8.88588C88.8821 8.92845 88.9271 9.02779 89.0259 9.73739C89.1607 10.6882 89.0528 11.5965 88.7114 12.5474C88.397 13.3847 88.4239 13.6401 88.7923 13.5266C88.945 13.484 89.1876 13.3705 89.3134 13.2995C89.5021 13.186 89.6189 13.2286 89.9603 13.555C90.4364 14.0091 90.5083 14.1794 90.3376 14.5342C90.2298 14.7755 90.2028 14.7755 89.8794 14.5484C89.4212 14.2362 88.7204 14.1652 88.7204 14.4349C88.7204 14.5484 88.8911 14.7045 89.1247 14.7897C90.1669 15.2154 90.5083 15.7689 90.2478 16.5637C90.104 17.0178 90.104 17.0178 89.5829 16.9185C89.0888 16.8333 89.0528 16.8475 88.7743 17.2733C88.6216 17.5145 88.4509 17.7132 88.406 17.7132C88.37 17.7132 88.2083 17.8835 88.0556 18.0822C87.7142 18.5221 87.6603 19.2601 87.9567 19.3737C88.1544 19.4588 88.1993 19.7001 88.0196 19.7001C87.8579 19.7001 87.5974 20.1684 87.5974 20.4522C87.5974 20.58 87.7052 20.8354 87.8399 21.0341C88.0825 21.3889 88.0825 21.4031 87.9837 22.3398C87.8579 23.4467 87.9657 24.057 88.3521 24.4543C88.5407 24.653 88.5587 24.7382 88.4689 24.9511C88.388 25.1781 88.397 25.2917 88.5497 25.6181C88.6575 25.8309 88.7833 26.2567 88.8462 26.5547C88.9091 26.8386 89.0349 27.1508 89.1247 27.2217C89.3763 27.4346 90.1669 27.3921 90.2837 27.165C90.3735 26.9947 90.4454 27.0089 90.7419 27.2785C91.0114 27.5056 91.1103 27.6901 91.1552 28.0307C91.2181 28.5416 91.2899 28.6126 91.4607 28.2861C91.5505 28.1158 91.6763 28.0875 91.9458 28.1442C92.3052 28.2294 92.3232 28.2152 92.7364 27.4062C92.97 26.9521 93.2575 26.4412 93.3564 26.2709C93.5091 26.0296 93.545 25.8593 93.5001 25.462C93.4462 24.9511 93.6259 24.4827 93.7517 24.8091C93.8505 25.0504 93.9673 24.9652 94.111 24.5253C94.1919 24.284 94.3177 24.0995 94.4075 24.0995C94.6501 24.0995 94.9646 23.688 94.9646 23.3758C94.9646 23.2055 94.9017 23.1061 94.7849 23.1061C94.5064 23.1061 94.5692 22.8223 94.8657 22.7371C95.1083 22.652 95.1263 22.6094 95.0814 22.1694C95.0274 21.6869 95.0274 21.6869 95.3958 21.6869C95.6114 21.6869 95.7732 21.616 95.8001 21.4882C95.8271 21.3747 96.0696 21.2612 96.411 21.2044C97.0939 21.0767 97.2825 20.9348 97.3185 20.5232C97.3364 20.3387 97.4173 20.1826 97.5071 20.1542C97.6419 20.1116 97.6689 20.1542 97.6149 20.4097C97.561 20.6935 97.579 20.7077 98.0372 20.6651C98.3876 20.6367 98.5134 20.5658 98.5134 20.4097C98.5134 20.2535 98.6212 20.1968 98.8997 20.1684C99.3579 20.14 99.5466 19.9697 100.193 18.9337C100.517 18.4228 100.777 18.139 100.948 18.1106C101.173 18.0822 101.209 17.997 101.236 17.5997C101.272 17.0462 101.308 17.0462 101.622 17.5145C101.865 17.8835 101.865 17.8835 102.341 17.6564C102.61 17.5429 103.176 17.3868 103.608 17.3016C104.111 17.2165 104.542 17.032 104.82 16.8191C105.207 16.5069 105.89 16.067 107.12 15.3716C107.561 15.1303 107.642 14.96 107.399 14.8181C107.138 14.662 105.171 14.9032 104.955 15.1161C104.838 15.2296 104.677 15.2864 104.605 15.2438C104.38 15.1019 104.722 14.6194 105.108 14.52C105.692 14.3639 105.836 14.2078 105.836 13.7395C105.836 13.3137 105.854 13.2995 106.168 13.3421C106.429 13.3705 106.527 13.4698 106.644 13.8104C106.77 14.1652 106.851 14.2362 107.147 14.2504C107.336 14.2504 107.57 14.3072 107.65 14.3639C107.974 14.591 108.127 14.4065 108.118 13.8104C108.109 13.3137 108.082 13.2428 107.911 13.2853C107.776 13.3137 107.722 13.257 107.722 13.0441C107.722 12.7177 107.561 12.519 107.336 12.5758C107.246 12.6041 107.075 12.5332 106.968 12.4055C106.752 12.1926 106.411 11.2275 106.5 11.0856C106.545 11.0005 106.896 11.1566 107.803 11.6817C108.046 11.8236 108.234 11.852 108.279 11.781C108.333 11.6959 108.333 11.6107 108.27 11.5539C107.956 11.2417 108.513 10.4896 109.07 10.4612C109.241 10.4612 109.564 10.3476 109.789 10.1915C110.139 9.96446 110.193 9.8935 110.166 9.55289L110.139 9.16971L110.624 9.26905C111.002 9.34001 111.127 9.31163 111.217 9.14133C111.361 8.85749 111.271 8.63042 111.011 8.63042C110.894 8.63042 110.75 8.53108 110.687 8.40335C110.588 8.21886 110.597 8.17628 110.75 8.11951C110.894 8.06275 110.93 7.93502 110.921 7.52346C110.912 7.08351 110.948 6.99836 111.118 6.95578C111.253 6.9274 111.316 6.82806 111.298 6.67195C111.28 6.48745 111.154 6.41649 110.84 6.38811C110.606 6.35973 110.418 6.28876 110.418 6.20362C110.418 6.13266 110.454 6.07589 110.499 6.07589C110.552 6.07589 110.777 5.82043 111.002 5.50821C111.226 5.19599 111.478 4.94054 111.55 4.94054C111.729 4.94054 111.702 4.6567 111.487 4.28771C111.262 3.90454 111.343 3.60651 111.64 3.70585C111.756 3.73423 111.9 3.67747 111.954 3.57812C112.008 3.46459 112.152 3.37944 112.268 3.37944C112.376 3.37944 112.538 3.28009 112.61 3.15237C112.709 2.99626 112.834 2.95368 113.014 3.02464C113.203 3.08141 113.329 3.02464 113.526 2.76919C113.706 2.52793 113.958 2.4002 114.326 2.32924C114.919 2.2299 115.152 2.01702 114.811 1.90348C113.688 1.53449 113.077 1.49192 112.61 1.73318C112.367 1.84672 111.9 1.97444 111.577 2.00283C111.163 2.03121 110.93 2.13055 110.822 2.28666C110.741 2.41439 110.606 2.52793 110.517 2.52793C110.436 2.52793 110.148 2.65565 109.879 2.79757C109.609 2.95368 109.358 3.03883 109.322 3.01045C109.178 2.86853 109.259 2.69823 109.591 2.45697C109.897 2.2157 110.049 2.00283 110.058 1.81833C110.058 1.77576 109.672 1.76156 109.205 1.78995C108.369 1.84672 108.199 1.76156 108.468 1.42096C108.531 1.33581 108.989 1.23647 109.474 1.22227C110.049 1.19389 110.373 1.12293 110.391 1.0094C110.418 0.910053 110.274 0.810711 109.995 0.753942C109.079 0.569448 108.378 0.370764 108.001 0.172077C107.776 0.0585423 107.516 -0.0124168 107.417 0.00177574C107.309 0.0159664 106.644 0.0585423 105.925 0.115311Z" fill="#C6C6C6"/>
<path d="M83.6174 0.49856C83.5725 0.555328 82.7369 0.612095 81.7486 0.626287L79.9518 0.654671L79.7361 1.02366C79.5115 1.40684 79.2061 1.50618 79.1072 1.25073C79.0354 1.06623 78.2447 1.19396 77.7955 1.46361C77.5799 1.59133 76.96 1.67648 76.0166 1.70487C75.226 1.71906 74.5701 1.77583 74.5701 1.83259C74.5701 1.88936 74.6959 2.11643 74.8396 2.3435L75.1092 2.75506L76.6904 2.78345C77.5619 2.81183 78.3166 2.85441 78.3615 2.89698C78.4064 2.93956 78.3975 3.06729 78.3346 3.18082C78.2088 3.42208 76.8072 3.46466 76.5287 3.2234C76.385 3.09567 76.3041 3.13825 76.1064 3.42208C75.9807 3.60658 75.7561 3.81945 75.6033 3.86203C75.3428 3.96137 75.3428 3.96137 75.5045 3.67754C75.6752 3.37951 75.6482 2.95375 75.4506 2.95375C75.3967 2.95375 75.2529 3.09567 75.1361 3.26597L74.9205 3.57819L74.8666 3.26597C74.8307 3.02471 74.7498 2.95375 74.5162 2.95375C74.2736 2.95375 74.1928 2.88279 74.1209 2.61315C74.076 2.40027 73.9232 2.20158 73.7346 2.11643C73.465 1.97451 73.3213 2.0029 72.6564 2.37188C72.2342 2.59895 71.8119 2.85441 71.7131 2.93956C71.6143 3.02471 71.3896 3.09567 71.2189 3.09567C70.7967 3.09567 70.4463 3.54981 70.5811 3.9046C70.7158 4.24521 71.6053 4.4297 72.1174 4.23102C72.324 4.16006 72.5666 4.0891 72.6564 4.0891C72.8002 4.0891 72.8002 4.10329 72.6654 4.31617C72.5576 4.48647 72.333 4.55743 71.7939 4.57162C71.165 4.58581 71.0662 4.6142 71.0662 4.82708C71.0662 5.22445 71.4256 5.46571 72.1533 5.56505C72.7643 5.6502 72.8451 5.62182 72.9979 5.36637C73.0877 5.21026 73.2494 5.08253 73.3482 5.08253C73.4561 5.08253 73.8334 4.9548 74.1928 4.79869C74.5432 4.64258 75.0104 4.51485 75.226 4.51485C75.774 4.51485 76.1783 4.2594 76.2412 3.89041C76.2861 3.60658 76.3221 3.63496 76.7354 4.2594C76.9779 4.64258 77.1756 4.9548 77.1756 4.98319C77.1756 4.99738 76.5916 4.99738 75.8729 4.96899L74.5791 4.91223L74.3635 5.28121C74.2287 5.50828 74.049 5.6502 73.8873 5.6502C73.5729 5.6502 73.4471 5.77793 73.3662 6.14692C73.3303 6.37399 73.2314 6.44495 72.9799 6.45914C72.5037 6.50171 71.6592 6.99843 71.6232 7.26807C71.5783 7.62287 71.8478 7.69383 72.5936 7.50934C73.1057 7.36742 73.3393 7.36742 73.474 7.48095C73.6088 7.59449 73.7346 7.58029 73.9951 7.40999C74.2736 7.2255 74.3994 7.21131 74.6779 7.33903C74.9475 7.46676 75.1092 7.46676 75.4506 7.29646C75.9268 7.08358 76.2322 7.19711 76.0256 7.52353C75.9717 7.60868 75.9178 7.77898 75.9178 7.89252C75.9178 8.10539 75.9537 8.10539 76.8162 7.70802C77.0857 7.58029 77.535 7.43838 77.8045 7.38161C78.2447 7.29646 78.2986 7.23969 78.3256 6.92747C78.3705 6.47333 78.5053 6.21788 78.7029 6.21788C78.7838 6.21788 78.9275 6.09015 79.0264 5.91985C79.1342 5.73535 79.2689 5.6502 79.4037 5.69278C79.5295 5.73535 79.7541 5.70697 79.9068 5.6502C80.0596 5.57924 80.2932 5.49409 80.4369 5.45152C80.5986 5.39475 80.6795 5.26702 80.6795 5.08253C80.6795 4.92642 80.7783 4.69935 80.8951 4.58581C81.0119 4.45809 81.2186 4.10329 81.3443 3.80526C81.6318 3.12405 81.9104 3.06729 82.5482 3.57819C82.8896 3.84784 83.0604 3.9046 83.4646 3.84784C83.7521 3.80526 84.0307 3.66334 84.1385 3.52142C84.2643 3.35112 84.5248 3.25178 84.9471 3.2092C85.3424 3.16663 85.7197 3.02471 85.9533 2.82602C86.16 2.66991 86.4564 2.528 86.6002 2.528C86.9865 2.528 87.1482 2.40027 87.1482 2.08805C87.1482 1.8184 87.2201 1.80421 88.5049 1.83259C89.3494 1.84679 89.8975 1.79002 89.9514 1.70487C90.1311 1.42103 89.9514 1.123 89.5561 1.05204C89.3404 1.00947 88.8283 0.910124 88.4061 0.810781C87.9838 0.72563 86.8338 0.626287 85.8455 0.612095C84.8572 0.597903 83.9678 0.541136 83.8689 0.484368C83.7701 0.427601 83.6533 0.427601 83.6174 0.49856Z" fill="#C6C6C6"/>
<path d="M64.984 4.5999C64.8223 4.88374 64.6875 5.18177 64.6875 5.23854C64.6875 5.46561 65.0918 5.52237 65.6309 5.39465C66.2418 5.23854 66.4574 5.35207 66.5383 5.86298C66.5652 6.06166 66.6012 6.21777 66.6191 6.21777C66.691 6.21777 67.4816 5.46561 67.5266 5.35207C67.5535 5.26692 67.5176 5.06823 67.4547 4.91212C67.3109 4.57152 66.6012 4.24511 65.7656 4.14576C65.2895 4.0748 65.2625 4.089 64.984 4.5999Z" fill="#C6C6C6"/>
<path d="M61.2555 4.71346C61.1656 4.8128 61.0938 4.9831 61.0938 5.09664C61.0938 5.25275 61.2465 5.29532 61.7945 5.28113C62.7559 5.25275 62.7289 5.26694 62.693 4.89795C62.666 4.61411 62.6121 4.58573 62.0371 4.55735C61.6148 4.52896 61.3543 4.58573 61.2555 4.71346Z" fill="#C6C6C6"/>
<path d="M68.4605 5.01155C68.2539 5.39473 68.5145 5.6218 69.2062 5.66437C70.2754 5.72114 70.2574 5.03993 69.1793 4.86963C68.6852 4.78448 68.5684 4.81286 68.4605 5.01155Z" fill="#C6C6C6"/>
<path d="M59.3688 5.46568C59.2789 5.49406 59.207 5.65017 59.207 5.80628C59.207 6.00497 59.2699 6.07593 59.4316 6.07593C59.7012 6.07593 60.1953 5.70694 60.1953 5.50825C60.1953 5.36634 59.6652 5.33795 59.3688 5.46568Z" fill="#C6C6C6"/>
<path d="M61.3633 5.50814C61.2914 5.57909 61.0219 5.65005 60.7793 5.65005C60.3211 5.65005 59.9258 5.93389 59.9258 6.2745C59.9258 6.51576 60.977 6.40222 61.2465 6.13258C61.3543 6.01904 61.552 5.93389 61.6777 5.93389C61.9293 5.93389 61.9922 5.59329 61.7586 5.45137C61.5699 5.33783 61.525 5.35202 61.3633 5.50814Z" fill="#C6C6C6"/>
<path d="M63.3753 6.00493C63.2585 6.27457 63.2495 6.4023 63.3304 6.55841C63.546 6.96997 63.8695 6.53003 63.8784 5.82043C63.8784 5.50821 63.528 5.63594 63.3753 6.00493Z" fill="#C6C6C6"/>
<path d="M57.1406 6.06158C57.0148 6.13254 56.6555 6.26027 56.341 6.34542C55.8559 6.50153 55.757 6.48734 55.6223 6.30284C55.4156 6.00481 55.2898 6.019 55.1461 6.33123C55.0473 6.5441 53.448 7.35304 52.7832 7.52334C52.6754 7.55172 52.6035 7.67945 52.6035 7.83556C52.6035 8.06263 52.6934 8.10521 53.2684 8.14778C53.7535 8.19036 53.9871 8.14778 54.1398 7.99167C54.2566 7.87814 54.4543 7.77879 54.5891 7.77879C54.7238 7.77879 54.9844 7.70783 55.173 7.62268C55.4426 7.49496 55.5504 7.49496 55.6492 7.62268C55.766 7.77879 55.8379 7.75041 56.0535 7.50915C56.1973 7.33885 56.4309 7.21112 56.5746 7.21112C56.7094 7.21112 56.952 7.08339 57.0957 6.92728C57.2484 6.77117 57.4551 6.64345 57.5629 6.64345C57.8324 6.64345 57.9223 6.35961 57.7246 6.11835C57.5359 5.90547 57.4641 5.90547 57.1406 6.06158Z" fill="#C6C6C6"/>
<path d="M68.8203 6.13251C68.8203 6.40216 69.027 6.48731 69.6559 6.47312C70.0871 6.47312 70.168 6.43054 70.15 6.23186C70.1141 5.90544 68.8203 5.8061 68.8203 6.13251Z" fill="#C6C6C6"/>
<path d="M71.3532 6.09001C70.9669 6.27451 71.0298 6.58673 71.4341 6.54415C71.9372 6.47319 72.1438 6.35966 72.1438 6.14678C72.1438 5.90552 71.8204 5.87714 71.3532 6.09001Z" fill="#C6C6C6"/>
<path d="M67.724 6.88469C67.4455 6.99822 67.5533 7.33883 67.9127 7.49494C68.1103 7.58009 68.4877 7.60847 68.7482 7.5517C69.1435 7.48074 69.2513 7.50913 69.3592 7.70781C69.4939 7.96327 69.5029 7.96327 68.9009 8.64448C68.6224 8.9567 68.7302 9.33988 69.0986 9.33988C69.2603 9.33988 69.467 9.45341 69.5568 9.58114C69.7095 9.79402 69.7455 9.79402 70.042 9.58114C70.4732 9.25473 70.6439 9.26892 70.572 9.62371C70.5002 9.97851 70.6619 9.9927 71.3806 9.6521C72.1084 9.31149 73.5369 9.32569 73.8783 9.69467C74.1927 10.0211 75.3248 9.93594 75.6572 9.58114C75.774 9.43922 75.9357 9.33988 76.0256 9.33988C76.1334 9.33988 76.1873 9.22634 76.1873 9.01346C76.1873 8.14776 75.3517 7.79297 74.0939 8.13357C73.6627 8.2471 73.1955 8.34645 73.0517 8.34645C72.899 8.34645 72.7552 8.40321 72.7283 8.48837C72.6474 8.70124 72.1084 8.65867 71.9107 8.41741C71.6861 8.14776 71.4256 8.14776 71.183 8.41741C71.0123 8.61609 70.9943 8.6019 70.9584 8.27549C70.9314 8.09099 70.9674 7.84973 71.0392 7.7362C71.147 7.5659 71.1111 7.50913 70.8056 7.28206C70.599 7.14014 70.3384 7.06918 70.2037 7.11176C70.0689 7.15433 69.7724 7.09756 69.5478 6.98403C69.1615 6.79954 68.0654 6.74277 67.724 6.88469Z" fill="#C6C6C6"/>
<path d="M59.818 7.15451C59.5305 7.39577 59.5305 7.40997 59.6743 7.76476C59.827 8.14794 59.7013 8.48855 59.4138 8.48855C58.9825 8.47435 58.2907 8.11956 58.1649 7.84991C57.9942 7.48092 56.6915 7.36739 56.377 7.6938C56.2602 7.82153 56.0805 7.92087 55.9907 7.92087C55.9009 7.92087 55.7302 8.03441 55.6313 8.19052C55.5235 8.33244 55.3438 8.41759 55.236 8.3892C54.9845 8.31824 54.4184 8.85753 54.4723 9.0988C54.4903 9.19814 54.5712 9.24071 54.6341 9.21233C54.7059 9.16976 54.8766 9.14137 55.0114 9.14137C55.1462 9.12718 55.2899 9.05622 55.3259 8.97107C55.3618 8.88592 55.6852 8.81496 56.0446 8.80077C56.5477 8.78658 56.6915 8.82915 56.6915 8.98526C56.6915 9.22652 56.395 9.36844 56.0626 9.31167C55.9188 9.28329 55.838 9.35425 55.811 9.51036C55.7661 9.85096 56.1884 9.99288 56.6645 9.7942C56.8802 9.69485 57.1677 9.62389 57.3024 9.62389C57.4372 9.62389 57.8325 9.49617 58.1739 9.34006C58.6141 9.14137 59.0723 9.05622 59.6833 9.05622C61.1477 9.05622 62.118 8.46016 61.7048 7.80734C61.552 7.56608 61.3903 7.59446 61.0938 7.94926C60.7434 8.36082 60.5548 8.13375 60.7794 7.59446C60.8602 7.38158 60.9052 7.15451 60.8692 7.06936C60.7884 6.85648 60.0966 6.89906 59.818 7.15451Z" fill="#C6C6C6"/>
<path d="M64.8757 7.22538C64.4175 7.50922 64.0761 8.31815 64.3187 8.54522C64.3636 8.5878 64.3816 8.74391 64.3636 8.88583C64.3277 9.08451 64.3905 9.12709 64.8128 9.16966C65.2081 9.19805 65.4058 9.12709 65.837 8.77229C66.439 8.28977 66.8433 7.75048 66.8433 7.42407C66.8433 7.09765 66.6187 7.0125 66.3671 7.26796C66.1695 7.48083 66.1335 7.48083 66.0347 7.28215C65.9089 7.04089 65.2261 6.99831 64.8757 7.22538Z" fill="#C6C6C6"/>
<path d="M62.8906 7.42421C62.8906 7.55193 62.9535 7.67966 63.0254 7.72224C63.0973 7.779 63.1602 7.93511 63.1602 8.07703C63.1602 8.43183 63.3578 8.55956 63.6004 8.36087C63.7801 8.20476 63.807 7.75062 63.6633 7.38163C63.5645 7.12618 62.8906 7.15456 62.8906 7.42421Z" fill="#C6C6C6"/>
<path d="M61.8304 8.65875C61.6147 8.99936 61.7046 9.24062 62.01 9.14127C62.3065 9.05612 62.5311 8.81486 62.5311 8.61618C62.5311 8.43168 61.9561 8.46007 61.8304 8.65875Z" fill="#C6C6C6"/>
<path d="M66.6455 8.78654C66.4299 8.98523 66.4388 9.29745 66.6724 9.49614C66.933 9.70901 67.6607 9.5671 67.7865 9.28326C67.8494 9.15553 67.9662 9.05619 68.056 9.05619C68.1818 9.05619 68.1908 9.01361 68.101 8.84331C67.9662 8.58786 66.897 8.54528 66.6455 8.78654Z" fill="#C6C6C6"/>
<path d="M49.6023 9.89344C49.5035 10.0495 49.4137 10.3192 49.4137 10.4611C49.4137 10.6598 49.3148 10.7875 49.0812 10.9011C48.8926 11.0004 48.4254 11.3552 48.048 11.6958C47.6617 12.0506 47.2215 12.3628 47.0777 12.4196C46.7183 12.5189 46.6734 12.6892 46.898 12.9873C46.9969 13.1292 47.0777 13.3421 47.0777 13.4698C47.0777 13.9949 47.3203 14.08 47.8773 13.7536C48.1648 13.5975 48.5781 13.4556 48.8027 13.4556C49.0992 13.4556 49.2519 13.3704 49.3777 13.1576C49.6113 12.746 50.0066 12.448 50.1683 12.5473C50.2492 12.5899 50.5008 12.448 50.7344 12.2067C50.9769 11.9796 51.3453 11.7384 51.5699 11.6816C51.7945 11.639 52.1539 11.5113 52.3785 11.3978C52.6031 11.2984 53.0074 11.1707 53.2769 11.1139C54.1035 10.972 54.2113 10.6456 53.6004 10.1205C53.3219 9.87924 53.232 9.86505 52.8726 10.0212C52.3336 10.2482 52.1 10.234 51.8574 9.9644C51.7226 9.82248 51.3543 9.72313 50.7254 9.66637C49.8629 9.59541 49.782 9.6096 49.6023 9.89344Z" fill="#C6C6C6"/>
<path d="M66.9332 10.3334C66.6546 10.3901 66.3492 10.5037 66.2414 10.5888C66.1335 10.6882 65.9449 10.7591 65.8191 10.7591C65.6753 10.7591 65.5855 10.8443 65.5855 10.9578C65.5855 11.0713 65.4867 11.1991 65.3609 11.2416C65.0644 11.3552 64.8578 12.3628 65.0554 12.675C65.2351 12.9588 65.7472 12.7318 65.9898 12.2634C66.2054 11.8519 66.3222 11.8093 66.7894 11.9654C67.1039 12.0648 67.2296 12.008 67.8226 11.5397C68.2 11.2416 68.6043 10.9294 68.73 10.8443C68.8558 10.7449 68.9546 10.5888 68.9546 10.4753C68.9546 10.305 68.8019 10.2624 68.191 10.2482C67.7687 10.2482 67.2027 10.2766 66.9332 10.3334Z" fill="#C6C6C6"/>
<path d="M70.9764 10.4753C70.8506 10.5321 70.2846 10.8301 69.7186 11.1139C68.7663 11.5823 68.6495 11.6816 68.1643 12.4054C67.6432 13.2143 67.5893 13.4556 67.9577 13.4556C68.2092 13.4556 68.7393 13.7252 68.8651 13.9239C68.928 14.0091 68.7213 14.0233 68.2811 13.9665C67.76 13.8955 67.5624 13.9239 67.4276 14.08C67.2569 14.2787 67.2569 14.2929 67.4725 14.5767C67.6432 14.7896 67.8229 14.8606 68.2452 14.8748C68.5417 14.8748 68.8202 14.9315 68.8741 15.0025C68.919 15.0735 69.2604 15.1586 69.6288 15.2012C69.9971 15.2296 70.6081 15.3431 70.9764 15.4566C71.3448 15.5702 71.9108 15.6411 72.2342 15.6411C72.8991 15.6128 73.51 15.2721 73.4381 14.9599C73.4112 14.8464 73.4381 14.7187 73.492 14.6619C73.5549 14.6051 73.7526 14.8322 73.9772 15.2438C74.1838 15.6128 74.4983 15.9959 74.669 16.0953L74.9745 16.2656L74.6959 16.2798C74.3545 16.294 73.9772 16.7339 74.0491 17.0177C74.112 17.2874 74.8307 17.2022 74.9026 16.9184C74.9565 16.6913 75.1721 16.6488 75.217 16.8616C75.235 16.9326 75.4237 17.1455 75.6483 17.33C76.0436 17.6564 76.0526 17.6848 76.0526 18.366C76.0526 18.9195 76.0256 19.0614 75.8999 19.0614C75.819 19.0614 75.6752 19.1749 75.5854 19.3168C75.4866 19.4446 75.3069 19.5581 75.1811 19.5581C75.0553 19.5581 74.9295 19.6432 74.9026 19.7568C74.8756 19.8703 74.7049 20.0406 74.5342 20.14C74.2108 20.3244 74.1209 20.6367 74.3096 20.9347C74.4534 21.1618 74.3276 21.2327 73.5819 21.403C73.0608 21.5166 72.8631 21.5024 72.5397 21.3321C72.0186 21.0624 71.9377 21.0624 71.7491 21.3888C71.6592 21.5449 71.4616 21.6869 71.2999 21.7153C71.0573 21.7578 71.0124 21.8146 70.9764 22.2545C70.8776 23.1912 71.0124 23.2764 71.9377 22.879C72.2252 22.7654 72.8362 22.6519 73.2854 22.6377C74.0131 22.6093 74.112 22.6377 74.076 22.8364C74.0221 23.1061 74.1928 23.3757 74.5342 23.5176C74.8487 23.6453 74.9116 23.915 74.642 23.9859C74.5163 24.0143 74.4264 24.1421 74.4084 24.3266C74.3905 24.5678 74.4354 24.6246 74.678 24.6246C75.2081 24.653 75.5495 24.8233 75.6034 25.1071C75.6663 25.3909 75.7831 25.4477 76.4569 25.5754C76.6725 25.6038 76.8971 25.7457 76.96 25.8593C77.0858 26.1289 77.4452 26.1573 77.6608 25.9018C77.8135 25.7174 77.8135 25.689 77.6788 25.2632C77.5979 25.0078 77.4901 24.8091 77.4452 24.8091C77.2924 24.8091 76.5467 23.9008 76.5467 23.7163C76.5467 23.5034 76.7803 23.4608 76.8612 23.6737C76.8881 23.7447 77.0319 23.8156 77.1667 23.8156C77.3553 23.8156 77.4901 23.9434 77.6608 24.2982C77.8225 24.6388 77.9393 24.7665 78.0651 24.7097C78.1819 24.6672 78.2717 24.7381 78.3436 24.9652L78.4604 25.2916L78.5862 24.9084C78.6491 24.6955 78.7479 24.5252 78.7928 24.5252C78.8467 24.5252 78.8827 24.3975 78.8827 24.2414C78.8827 24.0569 78.9456 23.9576 79.0624 23.9576C79.3049 23.9576 79.3858 23.6028 79.242 23.177C79.1792 22.9925 79.1522 22.7371 79.1881 22.5951C79.26 22.2971 79.0893 21.9707 78.8647 21.9707C78.6491 21.9707 78.1639 21.1902 78.1639 20.8495C78.1729 20.5373 78.5682 19.8419 78.7569 19.8419C79.0803 19.8419 79.5924 20.4522 79.7721 21.0624C79.9338 21.5875 79.9877 21.6585 80.3112 21.7153C80.7424 21.772 80.8592 21.7294 80.8592 21.474C80.8592 21.1476 81.1108 20.9205 81.3264 21.0766C81.4881 21.1902 81.578 21.1334 81.8206 20.7502C81.9823 20.4948 82.117 20.2109 82.117 20.14C82.117 20.069 82.2249 20.0122 82.3506 20.0264C82.6471 20.0548 82.8358 19.6716 82.692 19.3026C82.6202 19.1323 82.4045 19.0188 81.9553 18.9336C81.3893 18.8201 81.3084 18.7633 81.3084 18.5079C81.3084 17.9686 81.1557 17.7841 80.7065 17.7699C80.4729 17.7557 80.0776 17.6422 79.844 17.5003C79.1073 17.0745 79.1881 16.5352 79.9518 16.663C80.1854 16.7055 80.419 16.6771 80.4819 16.6062C80.6436 16.4359 80.5178 16.0101 80.2842 15.9959C80.0956 15.9959 80.0956 15.9959 80.3022 15.8682C80.5448 15.7121 80.5538 15.3715 80.3292 14.7896C80.1854 14.4206 80.0866 14.3355 79.6913 14.2645C79.3229 14.1936 79.1522 14.0658 78.8647 13.6543C78.5053 13.1434 78.4514 13.1292 77.9213 13.3846C77.7596 13.4698 77.6877 13.3846 77.4991 12.9021C77.1936 12.1499 76.9151 11.8803 76.4928 11.9229C76.2952 11.9371 75.9717 11.8945 75.7651 11.8377C75.4237 11.7384 75.3788 11.7668 75.244 12.0932C75.0823 12.4764 74.7678 12.5757 74.5971 12.3061C74.5252 12.1925 74.3905 12.2351 74.1209 12.4622C73.8694 12.675 73.7526 12.7034 73.7795 12.5757C73.7975 12.4764 73.9682 12.2777 74.1479 12.1357C74.3276 11.9938 74.4803 11.8235 74.4803 11.781C74.4803 11.7242 74.3995 11.4829 74.3096 11.2417C74.076 10.6314 73.5909 10.5179 72.8811 10.8869C72.5936 11.043 72.2612 11.1281 72.1444 11.0856C72.0096 11.0288 71.9198 11.0714 71.8569 11.2275C71.8209 11.3552 71.6413 11.4971 71.4795 11.5397C71.2729 11.6107 71.0752 11.8377 70.8506 12.2493C70.5002 12.9163 70.4463 13.1718 70.653 13.1718C70.8417 13.1718 70.9225 13.4414 70.7967 13.6685C70.7159 13.8246 70.644 13.8246 70.4733 13.711C70.1319 13.4556 70.1139 12.9873 70.4104 12.2209C70.635 11.6532 70.7428 11.5255 71.1202 11.3552C71.803 11.043 71.9647 10.9294 71.9647 10.7024C71.9647 10.603 71.8389 10.4753 71.6862 10.4185C71.3448 10.3192 71.2639 10.3192 70.9764 10.4753Z" fill="#C6C6C6"/>
<path d="M59.5211 10.603C59.4313 10.7307 59.4852 11.0146 59.6379 11.3268C59.7907 11.6248 59.8176 11.6248 60.3118 11.4545C60.6891 11.3126 60.8239 11.1991 60.8239 11.0146C60.8239 10.8868 60.77 10.7307 60.7161 10.6598C60.5903 10.5462 59.584 10.4895 59.5211 10.603Z" fill="#C6C6C6"/>
<path d="M63.5194 10.6315C62.8007 10.6741 62.1897 10.7309 62.1538 10.7451C61.9831 10.7876 62.1089 11.0289 62.3604 11.1708C62.7198 11.3695 62.6569 11.6391 62.2257 11.8094C61.9561 11.923 61.8303 11.8946 61.5878 11.6959C61.3542 11.4972 61.2553 11.4688 61.1026 11.6108C60.8421 11.8236 60.896 12.0365 61.3182 12.4197C61.5159 12.59 61.7135 12.9164 61.7764 13.1719C61.8932 13.5834 61.9292 13.626 62.1897 13.5409C62.3514 13.4983 62.7378 13.4131 63.0522 13.328C63.9417 13.1293 64.6874 12.1075 64.1842 11.7953C64.0495 11.7101 64.0495 11.6817 64.2022 11.5114C64.2921 11.4121 64.4628 11.3269 64.5885 11.3269C64.903 11.3269 65.0737 11.1282 65.0288 10.8302C64.9928 10.5038 65.0557 10.5038 63.5194 10.6315Z" fill="#C6C6C6"/>
<path d="M74.5076 10.7734C74.3369 11.0573 74.3639 11.2985 74.6064 11.5398C74.7951 11.7385 74.8849 11.7385 75.2174 11.5965C75.451 11.4972 75.8463 11.4688 76.2146 11.5256C76.7627 11.6107 76.8166 11.5965 76.8166 11.3411C76.8166 10.8444 76.574 10.7166 75.5767 10.6457C74.867 10.6031 74.5885 10.6315 74.5076 10.7734Z" fill="#C6C6C6"/>
<path d="M57.8863 11.639C57.7336 11.8945 57.5898 12.2919 57.5719 12.5331C57.5359 13.044 57.1227 13.484 56.952 13.2143C56.8711 13.0866 56.8801 12.9589 56.9969 12.6892C57.1945 12.1925 57.1766 11.9654 56.916 11.7809C56.6106 11.5539 56.4668 11.5681 56.332 11.8235C56.2602 11.9512 56.0715 12.0364 55.8379 12.0364C55.5773 12.0364 55.4336 11.9654 55.3977 11.8235C55.3258 11.5255 55.0203 11.5539 54.5621 11.9087C54.1219 12.2493 53.9781 12.1783 54.2207 11.7526C54.4543 11.341 54.3195 11.2417 53.8344 11.4545C53.6008 11.5539 52.9898 11.7951 52.4688 11.9654C51.9477 12.1499 51.2918 12.4622 51.0133 12.675C50.4473 13.0866 50.3215 13.4556 50.7438 13.4556C50.9773 13.4556 51.2109 13.6685 51.2109 13.8955C51.2109 13.9523 50.9684 14.0233 50.6719 14.0516C50.0789 14.1226 49.9981 14.1936 50.0789 14.52C50.1328 14.7612 50.1777 14.7612 52.343 14.5058C52.8641 14.449 53.0168 14.4916 53.1336 14.6761C53.3852 15.0593 53.2504 15.2296 52.7293 15.2154C52.4598 15.2012 51.6871 15.2154 51.0043 15.258C49.9981 15.3147 49.7465 15.3715 49.7106 15.556C49.6027 15.9675 49.9531 16.1662 50.6898 16.1237C51.0672 16.1095 51.4086 16.1378 51.4445 16.1946C51.4805 16.2514 51.4176 16.4643 51.2918 16.6629C51.1121 16.961 51.1031 17.0461 51.2109 17.1597C51.3906 17.3442 52.3699 17.2306 53.0977 16.9326C53.4211 16.8049 54.068 16.6488 54.5352 16.592C55.0563 16.5352 55.5055 16.3933 55.6852 16.2372C55.9637 16.0101 55.9996 16.0101 56.1793 16.2088C56.2871 16.3365 56.4578 16.521 56.5566 16.6346C56.7004 16.8049 56.8981 16.8191 57.6348 16.6913C58.7578 16.521 58.8117 16.4926 58.668 16.223C58.4613 15.8398 58.7129 15.5844 59.2969 15.5844C60.0066 15.5844 60.0606 15.3005 59.4496 14.8606C59.1981 14.6761 58.9106 14.52 58.8117 14.52C58.5242 14.52 58.5063 13.8246 58.7848 13.5265C58.9645 13.3421 59.0184 13.1434 59.0633 12.4338C59.1441 11.412 59.0363 11.1849 58.4883 11.1849C58.2367 11.1849 58.102 11.2984 57.8863 11.639Z" fill="#C6C6C6"/>
<path d="M64.373 13.1292C64.2742 13.1718 64.1215 13.2995 64.0406 13.4273C63.9508 13.5408 63.8789 13.5834 63.8789 13.5124C63.8789 13.4414 63.6992 13.6969 63.4746 14.0801C63.259 14.4633 62.9895 14.8464 62.8816 14.9316C62.5941 15.1587 62.6391 15.3431 63.0344 15.5844C63.5645 15.9108 63.6363 15.996 63.5105 16.2372C63.4566 16.3508 63.3219 16.4359 63.2141 16.4359C62.9625 16.4359 62.7648 16.6488 62.8367 16.8475C62.8727 16.9326 62.9984 17.0036 63.1242 17.0036C63.241 17.0036 63.3398 17.0604 63.3398 17.1455C63.3398 17.2165 63.223 17.2874 63.0793 17.2874C62.9355 17.2874 62.7738 17.3868 62.7109 17.5003C62.648 17.6138 62.4773 17.7132 62.3246 17.7132C62.1719 17.7132 61.9203 17.7841 61.7496 17.8835C61.525 18.0112 61.4711 18.1106 61.498 18.3376C61.5609 18.735 61.4262 19.033 61.2195 18.9621C60.959 18.8911 60.959 18.437 61.2375 17.9828C61.507 17.5429 61.507 17.5287 60.8242 17.3016C60.375 17.1455 60.1773 17.2732 59.7371 18.0254C59.4945 18.4512 59.4945 18.4512 59.0004 18.2667C58.6141 18.1389 58.3805 18.1389 57.9852 18.2667C57.491 18.4228 57.4461 18.4086 57.1227 18.068C56.8801 17.8125 56.7184 17.7274 56.5477 17.7983C56.2871 17.8977 55.8648 17.3868 55.9457 17.0604C56.0176 16.7481 55.5594 16.663 55.0473 16.9043C54.7867 17.032 54.3914 17.1739 54.1578 17.2307C53.8613 17.2874 53.7266 17.3868 53.7266 17.5287C53.7266 17.7416 54.068 17.7416 55.0742 17.5287C55.3707 17.4719 55.2449 17.7983 54.9215 17.8977C54.0859 18.1957 53.8523 18.3376 53.6187 18.735L53.3672 19.1608L53.0168 18.5505L52.6754 17.9403L52.2352 18.0964C51.768 18.2809 49.5488 18.3944 49.459 18.2525C49.423 18.1957 49.423 18.0254 49.459 17.8693C49.5039 17.6138 49.5848 17.5713 49.9891 17.5713C50.591 17.5713 50.7797 17.3158 50.4922 16.8617C50.3215 16.592 50.2316 16.5637 49.7914 16.6488C49.441 16.7056 49.1086 16.663 48.7402 16.4927C48.4437 16.365 48.0305 16.2089 47.8238 16.1379C47.6172 16.0811 47.2938 15.8966 47.1051 15.7263C46.6379 15.3431 46.1887 15.3573 45.7754 15.8115C45.407 16.1947 45.1914 16.1805 45.1914 15.7547C45.1914 15.5986 45.1285 15.3999 45.0566 15.3006C44.9398 15.1445 44.868 15.187 44.6164 15.5702C44.4098 15.8824 44.248 16.0244 44.1043 15.9818C43.9246 15.9534 43.8887 15.8399 43.8617 15.329C43.8258 14.6194 43.6461 14.5342 43.2418 15.0735C42.9633 15.4425 42.559 15.6696 41.9391 15.8115C41.7055 15.8541 41.382 16.0527 41.2293 16.2372C40.9867 16.5069 40.825 16.5778 40.3668 16.5778C39.8727 16.5778 39.7648 16.6346 39.5672 16.9468C39.2797 17.3868 38.9562 17.3584 38.9203 16.8901C38.8934 16.663 38.9383 16.5778 39.0551 16.5778C39.1449 16.5778 39.4234 16.4217 39.666 16.223C39.9715 15.996 40.268 15.8824 40.5914 15.8682C41.0406 15.8682 41.7773 15.3999 41.7773 15.1161C41.7773 14.9742 40.798 15.1587 40.4656 15.3715C40.1422 15.5844 39.5492 15.7547 39.0371 15.7973C38.2555 15.8682 37.7164 16.1095 37.4918 16.5069C37.2941 16.8333 37.2133 16.8759 36.9348 16.8049C36.7551 16.7623 36.3687 16.5353 36.0812 16.294C35.7129 15.996 35.4254 15.8682 35.1199 15.8682C34.7965 15.8682 34.6258 15.7831 34.4281 15.5135C34.1137 15.1019 33.9969 15.0735 33.6105 15.3857C33.35 15.5844 33.2871 15.5844 32.9008 15.3857C32.2359 15.0451 30.493 14.6903 29.9 14.7755C29.4418 14.8322 29.343 14.8039 29.1992 14.5626C29.0555 14.3213 28.9566 14.2788 28.6242 14.3497C28.3008 14.4207 28.184 14.3781 27.9953 14.151C27.6359 13.7111 27.1148 13.6401 26.8004 13.9949C26.5938 14.222 26.3691 14.2788 25.5605 14.3355C24.725 14.3781 24.5184 14.4349 24.1949 14.7329C23.8535 15.0309 23.7816 15.0451 23.593 14.8748C23.3504 14.6761 23.1078 14.7471 22.1734 15.2864C21.8859 15.4567 21.5535 15.5844 21.4187 15.5844C21.284 15.5844 21.0504 15.7689 20.8707 16.0102C20.6551 16.3224 20.4754 16.4359 20.2328 16.4359C20.0441 16.4359 19.7477 16.5637 19.559 16.7198C19.3523 16.9043 19.0469 17.0036 18.7594 17.0036C18.4809 17.0178 18.2113 17.1029 18.1125 17.2165C18.0137 17.33 17.8609 17.4294 17.7711 17.4294C17.5375 17.4294 17.5734 17.699 17.834 17.8551C18.1395 18.0396 18.2922 18.5789 18.1574 18.9763C18.0586 19.2459 18.0766 19.2743 18.3281 19.2743C18.6426 19.2743 18.6695 19.4446 18.4359 20.0548C18.2922 20.4238 18.2113 20.4806 17.8699 20.4806C17.6543 20.4948 17.4027 20.5516 17.3219 20.6083C17.2051 20.6935 17.1602 20.6651 17.1602 20.509C17.1602 20.3813 17.241 20.2393 17.3398 20.1968C17.7082 20.0123 17.5016 19.842 16.9176 19.842C16.4504 19.842 16.2348 19.9129 15.9922 20.1542C15.8215 20.3245 15.516 20.4806 15.3184 20.4948C15.0039 20.5374 13.8 21.1334 13.6832 21.3179C13.5754 21.4882 13.782 21.6869 14.0875 21.7011C14.3301 21.7153 14.366 21.7437 14.1953 21.7862C14.0785 21.8288 13.8809 21.9707 13.7641 22.1127C13.5844 22.3539 13.5754 22.3823 13.7102 22.51C13.8898 22.6661 15.8844 22.5526 16.109 22.3681C16.2437 22.2546 16.2617 22.283 16.2078 22.6378C16.118 23.248 16.091 23.2764 15.7137 23.1771C15.3812 23.0919 15.3543 23.1061 15.2375 23.5318C15.0488 24.2698 14.0695 24.7382 13.3598 24.4543C13.1531 24.3692 13.0184 24.4401 12.632 24.8659C12.3715 25.1497 12.057 25.3768 11.9313 25.3768C11.7965 25.3768 11.5359 25.5897 11.3203 25.8735C11.0777 26.1999 10.8531 26.3702 10.6824 26.3702C10.368 26.3702 10.2691 26.6683 10.4129 27.165C10.4938 27.463 10.4848 27.534 10.35 27.5907C9.91875 27.8036 9.81992 28.0732 9.92773 28.7403C9.99062 29.1376 10.0805 29.1376 10.8891 28.7686C11.1227 28.6693 11.3473 28.6267 11.3742 28.6835C11.4551 28.8112 11.0598 29.4924 10.898 29.4924C10.8352 29.4924 10.7363 29.6485 10.6914 29.8472C10.6465 30.0317 10.4848 30.2872 10.332 30.4149C10.1883 30.5284 10.0625 30.6703 10.0625 30.7129C10.0625 30.8265 11.1586 30.6136 11.3383 30.4717C11.6078 30.2446 11.9313 30.4717 11.9672 30.8832L11.9941 31.2664L12.2727 30.7981C12.5152 30.3865 12.5691 30.3581 12.8117 30.4859C13.0004 30.5852 13.1621 30.5994 13.3238 30.5C13.5215 30.3723 13.5664 30.3865 13.5664 30.5568C13.5664 30.6987 13.4676 30.7697 13.2699 30.7697C13.0363 30.7697 12.9465 30.8548 12.8656 31.1245C12.8027 31.3232 12.6859 31.4793 12.5871 31.4793C12.4883 31.4793 12.3355 31.6354 12.2367 31.8341C12.093 32.1179 11.9762 32.1889 11.6887 32.1889C11.2754 32.1889 10.916 32.4301 10.6555 32.8843C10.5566 33.0546 10.377 33.1823 10.2152 33.1823C10.0625 33.1823 9.73906 33.3384 9.4875 33.5229C8.78672 34.0338 8.44531 34.2041 7.90625 34.3035C7.63672 34.3602 7.32227 34.4738 7.21445 34.5731C7.10664 34.6725 6.90898 34.7434 6.77422 34.7434C6.54062 34.7434 5.66914 35.5523 5.66016 35.7652C5.66016 35.9497 6.0375 36.0491 6.27109 35.9071C6.40586 35.822 6.63047 35.7226 6.77422 35.6659C6.90898 35.6233 7.13359 35.4672 7.25937 35.3395C7.39414 35.1975 7.69062 35.084 7.95117 35.084C8.55312 35.0556 8.99336 34.8995 9.18203 34.6441C9.28086 34.5022 9.42461 34.4596 9.6043 34.5305C9.82891 34.6015 9.92773 34.5447 10.2152 34.1332C10.5117 33.7074 10.6375 33.6223 11.1855 33.5371C11.9043 33.4094 12.2727 33.1681 12.3535 32.7566C12.3805 32.6004 12.4793 32.4727 12.5602 32.4727C12.65 32.4727 12.8117 32.3734 12.9195 32.2456C13.0363 32.1179 13.2789 32.0186 13.4586 32.0044C13.6383 32.0044 13.8539 31.9192 13.9348 31.8057C14.0156 31.6922 14.2941 31.5644 14.5457 31.4935C14.8602 31.4225 15.0938 31.2522 15.2645 30.9968C15.3992 30.7839 15.6598 30.5852 15.8395 30.5284C16.118 30.4575 16.1629 30.4007 16.1898 30.0033C16.2168 29.5208 16.2887 29.464 17.1871 29.1944C17.5285 29.0951 17.807 28.9106 17.9957 28.6551C18.382 28.13 18.8043 27.7894 19.0918 27.7894C19.2266 27.7894 19.4602 27.6333 19.6129 27.4488C19.9543 27.0372 20.5293 26.8953 20.5293 27.2217C20.5293 27.3636 20.4035 27.463 20.116 27.5056C19.8824 27.5481 19.523 27.7752 19.2625 28.0307C19.0199 28.2719 18.7055 28.5132 18.5617 28.5558C18.409 28.6125 18.1664 28.8396 18.0047 29.0667C17.843 29.2795 17.6633 29.4924 17.6004 29.5208C17.5375 29.5492 17.5105 29.6769 17.5465 29.8188C17.6273 30.1736 18.0676 30.1169 18.5617 29.7053C18.8402 29.4782 19.1277 29.3505 19.3973 29.3505C19.7027 29.3505 19.8555 29.2795 19.9723 29.0667C20.0891 28.8538 20.2418 28.7828 20.5922 28.7686C21.4008 28.7403 21.5176 28.6409 21.5176 28.0023C21.5176 27.5198 21.5445 27.4346 21.7332 27.392C22.0656 27.3069 22.3262 27.4772 22.6047 27.9171C22.8742 28.3571 23.5391 28.8254 23.8535 28.8112C23.9523 28.797 24.177 28.7544 24.3477 28.7119C24.716 28.6125 25.7762 29.1518 26.0816 29.5918C26.1895 29.7479 26.3422 29.9182 26.432 29.9608C26.5129 30.0033 26.6027 30.2304 26.6387 30.4575C26.6746 30.7697 26.7824 30.94 27.052 31.1245C27.4473 31.4083 27.4473 31.5219 27.034 31.5077C26.7914 31.4935 26.7645 31.5361 26.8184 31.8057C26.9082 32.2598 26.8992 32.4727 26.7375 33.1681C26.6477 33.5087 26.6027 33.8777 26.6297 33.9912C26.7105 34.2893 27.1238 33.8919 27.4473 33.1965C27.627 32.8133 27.7887 32.6146 27.9234 32.6146C28.0762 32.6146 28.166 32.4727 28.2648 32.1037C28.3906 31.6354 28.3906 31.5644 28.2469 31.3232C28.1031 31.0677 28.1031 31.0535 28.3008 31.0535C28.4895 31.0535 28.4984 31.0961 28.4445 31.6922C28.3996 32.1605 28.4176 32.4159 28.5164 32.643C28.759 33.1823 28.7051 34.0906 28.3906 34.6441C28.157 35.0698 28.148 35.1408 28.2648 35.3253C28.3367 35.453 28.4176 35.8646 28.4445 36.2477C28.4984 36.9148 28.4805 36.9857 28.2469 37.2696C27.7078 37.9082 27.6719 38.0075 27.8516 38.4333C27.9324 38.6178 27.9684 38.5894 28.1301 38.3056C28.3906 37.7947 28.5523 38.1211 28.3367 38.7029L28.166 39.1571L28.4625 39.5119C28.7949 39.9376 28.8398 40.2782 28.5523 40.2782C28.3996 40.2782 28.3008 40.4343 28.184 40.8601C27.9684 41.5839 28.0312 41.8393 28.4266 41.8393C28.6512 41.8393 28.75 41.9103 28.7949 42.109C28.8219 42.2651 29.0105 42.478 29.1992 42.6057C29.5227 42.8044 29.5586 42.8753 29.5586 43.3295C29.5586 43.6843 29.6125 43.883 29.7742 44.0391C29.918 44.1952 29.9988 44.4364 30.0348 44.8622C30.0797 45.3731 30.0527 45.515 29.8551 45.8414C29.6395 46.1962 29.6035 46.2104 29.4328 46.0259C29.2172 45.7847 28.8758 45.7421 28.7949 45.955C28.6961 46.1962 28.4086 46.1111 28.3457 45.8131C28.3188 45.6569 28.2109 45.5292 28.1121 45.5292C27.9773 45.5292 27.9414 45.6428 27.9234 46.1253C27.9055 46.9342 27.9055 46.9626 27.9863 47.4025C28.0402 47.729 28.0043 47.8567 27.7707 48.1973C27.6 48.4385 27.4832 48.765 27.4562 49.0488C27.4383 49.3326 27.2855 49.73 27.052 50.1416C26.8543 50.4822 26.6836 50.837 26.6836 50.9079C26.6836 51.0924 26.0008 52.4123 25.5875 53.0083C25.2191 53.5618 25.1203 53.8456 24.8867 55.0378C24.716 55.9177 24.5363 56.4995 24.3656 56.7975C24.1141 57.2091 24.0961 57.3226 24.0602 58.6851C24.0242 59.8346 24.0422 60.1752 24.15 60.3313C24.2937 60.5584 24.3207 61.4809 24.2129 62.2472C24.159 62.6588 24.168 62.7297 24.3387 62.8007C24.6262 62.9142 24.5723 63.638 24.2848 63.5954C24.159 63.5671 24.0781 63.638 24.0781 63.7516C24.0781 64.1347 24.4465 65.2559 24.6262 65.3978C24.7609 65.5255 24.7969 65.6816 24.7789 66.15L24.752 66.746L25.1293 66.7035C25.4348 66.6609 25.5066 66.7035 25.5605 66.9305C25.5875 67.0866 25.7043 67.2569 25.8121 67.2995C25.9199 67.3421 26.1625 67.6685 26.3512 68.0233C26.6746 68.6335 26.7016 68.7329 26.7285 69.7689C26.7465 70.365 26.8184 71.2307 26.8992 71.6848C26.9801 72.1389 27.043 72.7918 27.043 73.1324C27.043 73.6291 27.0969 73.8703 27.3125 74.2393C27.4652 74.509 27.582 74.8212 27.582 74.9347C27.582 75.0483 27.6629 75.2611 27.7617 75.4031C28.0043 75.7437 27.9863 75.9849 27.7078 76.4107C27.5191 76.7087 27.4293 76.7655 27.1777 76.6945C26.7824 76.5668 26.6746 76.8506 26.9711 77.248C27.0879 77.4041 27.2137 77.6454 27.2496 77.7873C27.3125 78.0569 27.8875 78.4827 28.0582 78.3692C28.1211 78.3408 28.3457 78.5537 28.5613 78.8659C28.9477 79.4335 28.9477 79.4477 28.8937 80.1857C28.8219 81.1791 28.9746 81.8178 29.4598 82.5558C29.7832 83.0525 29.8371 83.2086 29.8012 83.535C29.7023 84.2872 30.0348 84.4858 30.493 83.9466C30.6637 83.7479 30.6637 83.6911 30.5469 83.1234C30.3941 82.3713 30.2324 82.0307 29.9719 81.9739C29.7742 81.9313 29.7383 81.7042 29.5945 79.4619C29.5676 79.0362 29.4598 78.4969 29.3699 78.2556C29.2801 78.0144 29.1992 77.7163 29.1992 77.5886C29.1992 77.4609 29.1363 77.2764 29.0645 77.177C28.9836 77.0635 28.9297 76.7513 28.9297 76.3397C28.9297 75.9282 28.8578 75.5024 28.741 75.2044C28.5973 74.8212 28.5793 74.6935 28.6781 74.5941C28.768 74.4948 28.759 74.4238 28.6152 74.2677C28.0941 73.6433 28.1031 73.6858 28.157 72.5221C28.184 71.9261 28.2109 71.2449 28.2109 71.0178L28.2199 70.6062L28.4266 70.9184C28.5793 71.1455 28.7051 71.2165 28.8309 71.1455C28.9566 71.0887 29.0375 71.1313 29.0734 71.2732C29.1004 71.401 29.2082 71.5003 29.298 71.5003C29.4508 71.5003 29.4688 71.6138 29.4688 72.437C29.4688 73.104 29.5496 73.7426 29.7293 74.6083C29.873 75.2753 30.0078 75.9849 30.0258 76.1836C30.0437 76.4533 30.1246 76.5526 30.3941 76.6519C30.6996 76.7655 30.7266 76.8222 30.7266 77.2764C30.7266 77.6596 30.7984 77.8866 31.05 78.284C31.3645 78.7807 31.3734 78.8091 31.2297 79.1781C31.1488 79.391 31.0859 79.6748 31.0859 79.8309C31.0859 79.9728 31.4992 80.7534 32.0203 81.5623C32.5414 82.3855 32.9816 83.2086 33.0176 83.3931C33.0445 83.5918 33.1973 84.0317 33.35 84.3581C33.5566 84.8123 33.6105 85.0677 33.5746 85.3657C33.5477 85.6212 33.5926 85.9476 33.7184 86.3024L33.916 86.8559L33.6914 87.1113C33.4758 87.3668 33.4758 87.3952 33.6285 87.5655C33.7812 87.75 33.7723 87.7784 33.5566 88.2467C33.2691 88.8569 33.2691 89.0272 33.5926 89.5381C33.7453 89.7652 33.8891 90.0774 33.916 90.2335C33.952 90.3897 34.0508 90.5174 34.1496 90.5174C34.2754 90.5174 34.3742 90.6877 34.4641 91.0283C34.5719 91.4257 34.6348 91.525 34.7785 91.4682C34.8773 91.4257 35.093 91.5108 35.2457 91.6527C35.4074 91.7947 35.7129 91.9508 35.9195 92.0075C36.1352 92.0643 36.3777 92.2346 36.4586 92.3907C36.7551 92.93 37.5457 93.7815 37.7613 93.7815C37.8781 93.7815 38.1297 93.9376 38.3184 94.1505C39.1539 95.0446 40.223 95.5555 40.7711 95.3142C40.9598 95.2433 41.2113 94.9878 41.3461 94.7608C41.5348 94.4485 41.6695 94.3492 41.9301 94.3492C42.2805 94.3492 42.6758 94.6614 42.6758 94.9311C42.6758 95.2291 43.2508 96.4354 43.8078 97.2869C44.3469 98.1242 44.4098 98.181 44.7961 98.181C45.0656 98.181 45.3262 98.2945 45.5238 98.479C45.6855 98.6493 46.0719 98.8906 46.3773 99.0467C46.9254 99.3021 46.9434 99.3021 47.2398 99.0325C47.6172 98.6635 47.6441 98.6777 47.5992 99.1035C47.5633 99.3873 47.6621 99.6569 48.0934 100.423C48.8391 101.757 48.884 101.899 48.902 102.822C48.9109 103.503 48.9469 103.687 49.1445 103.957C49.2703 104.127 49.441 104.283 49.5398 104.283C49.6746 104.283 49.6926 104.213 49.6477 103.914C49.5668 103.404 49.7465 103.616 49.9082 104.227C49.9801 104.496 50.1328 104.766 50.2586 104.851C50.4473 104.965 50.4832 105.092 50.5102 105.66L50.5371 106.341L51.184 106.299C51.9027 106.256 52.1633 106.398 52.2891 106.923C52.343 107.136 52.4418 107.264 52.5586 107.264C52.6754 107.264 52.7742 107.406 52.8281 107.619C52.927 108.044 53.1785 108.073 53.466 107.704L53.6816 107.434L53.484 107.093C53.2324 106.668 53.2234 106.554 53.448 106.554C53.5469 106.554 53.6457 106.426 53.6816 106.285C53.7625 105.845 54.0859 105.277 54.2477 105.277C54.3195 105.277 54.5801 105.49 54.8227 105.745C55.227 106.171 55.3617 106.568 55.1641 106.767C55.0293 106.895 55.0562 107.207 55.218 107.462C55.3438 107.675 55.3797 107.675 55.6133 107.448C55.8559 107.235 56.0625 106.739 56.0625 106.384C56.0625 106.057 55.3168 104.681 55.0383 104.496C54.8855 104.397 54.5711 104.269 54.3465 104.213C53.9602 104.127 53.9062 104.156 53.6457 104.553C53.484 104.794 53.2684 104.993 53.1426 104.993C53.0258 104.993 52.7832 105.107 52.6125 105.234C52.1992 105.532 51.8398 105.334 51.8398 104.78C51.8398 104.567 51.759 104.34 51.6242 104.198C51.4984 104.085 51.3906 103.872 51.3727 103.744C51.3547 103.616 51.2648 103.503 51.175 103.503C51.0402 103.503 50.9773 103.29 50.8336 102.467L50.6629 101.417L50.8875 100.409C51.0492 99.6427 51.0941 99.217 51.0582 98.7061C51.0133 98.1526 51.0402 97.9397 51.184 97.6275C51.2828 97.4146 51.3996 96.9889 51.4266 96.6767C51.4984 96.038 51.3547 95.74 50.9234 95.5697C50.7527 95.5129 50.6719 95.3852 50.6719 95.2007C50.6719 94.7891 50.1957 94.5337 49.5488 94.5904C49.0367 94.6472 48.5875 94.6472 47.8238 94.6188C47.6352 94.6188 47.3387 94.6614 47.159 94.704C46.6559 94.8459 46.6289 94.5479 47.0691 93.9092C47.3656 93.4693 47.4375 93.2706 47.4375 92.859C47.4375 92.5752 47.5004 92.1494 47.5812 91.9082C47.6621 91.6669 47.707 91.3689 47.6801 91.227C47.6621 91.0993 47.6801 90.8722 47.725 90.7303C47.7969 90.5316 47.8328 90.5174 47.8957 90.6735C47.9316 90.7728 47.9945 90.8296 48.0215 90.7728C48.1113 90.6309 48.2371 89.6659 48.2461 89.1408C48.2461 88.8286 48.3 88.6299 48.4348 88.5305C48.5336 88.4312 48.6773 88.1473 48.7492 87.8919C48.8211 87.6222 48.9559 87.3384 49.0637 87.2533C49.2074 87.1255 49.2344 87.012 49.1895 86.714C49.0996 86.1463 48.9648 85.9618 48.7492 86.0611C48.6414 86.1179 48.4527 86.1605 48.318 86.1463C48.1832 86.1321 47.8687 86.2456 47.6172 86.4017C47.3656 86.5579 47.0422 86.6856 46.8984 86.6856C46.3055 86.6856 46 87.2675 46 88.4028C46 88.6583 45.9461 88.8002 45.8203 88.8569C45.7215 88.8995 45.6137 89.0414 45.5867 89.1975C45.4609 89.7936 45.3441 90.0632 45.2273 89.9923C45.0207 89.8646 44.823 90.2194 44.8859 90.6025C44.9309 90.8722 44.9039 90.9431 44.7602 90.9431C44.6613 90.9431 44.5266 90.8012 44.4547 90.6309C44.3199 90.3187 44.3199 90.3187 43.8977 90.5742C43.6641 90.7161 43.2238 90.9148 42.9184 91.0141C42.3703 91.1986 42.3613 91.1986 42.1187 90.8438C41.984 90.6309 41.7234 90.4322 41.5348 90.3897C41.2023 90.3045 41.1934 90.2761 41.1215 89.5949C41.0766 89.1975 41.0227 88.7434 41.0047 88.5731C40.9867 88.4028 40.8699 88.1048 40.7621 87.9345C40.6184 87.7216 40.4836 87.1681 40.3488 86.3308L40.1512 85.0535L40.3309 84.1311C40.4207 83.6201 40.5285 82.9247 40.5645 82.57C40.6453 81.8178 40.7891 81.3211 41.2023 80.427C41.4539 79.8735 41.5078 79.6322 41.5078 79.0362C41.5078 78.6246 41.4449 78.1137 41.373 77.8724C41.2383 77.4609 41.2383 77.4467 41.5617 76.9926C41.7414 76.7513 41.984 76.4533 42.1098 76.3539C42.2266 76.2546 42.3613 76.0133 42.4062 75.8146C42.4781 75.5308 42.55 75.474 42.8375 75.474C43.107 75.474 43.2418 75.3747 43.4484 75.0341C43.5922 74.7928 43.8078 74.5374 43.9246 74.4664C44.0414 74.3954 44.1133 74.2819 44.0773 74.2393C44.0234 74.14 44.9398 73.6291 45.1734 73.6291C45.2363 73.6291 45.407 73.771 45.5508 73.9413C45.8113 74.2393 45.8203 74.2393 46.1258 73.9839C46.3863 73.7568 46.4582 73.7426 46.575 73.8987C46.6559 74.0123 46.7188 74.2535 46.7188 74.438C46.7188 74.7644 46.7457 74.7928 47.0602 74.7077C47.8957 74.4948 48.0664 74.509 48.1652 74.7786C48.2102 74.9347 48.3539 75.0483 48.4797 75.0483C48.6953 75.0483 48.7133 75.0057 48.6594 74.5941C48.6234 74.3387 48.5875 74.0123 48.5785 73.8703C48.5605 73.7426 48.4707 73.5297 48.3719 73.4304C48.1023 73.1182 48.327 72.8911 49.0277 72.7492C49.5309 72.664 49.6566 72.6782 49.7375 72.8485C49.8273 73.033 49.9082 73.033 50.2766 72.9053C50.7887 72.7208 51.5434 72.8911 51.4984 73.1891C51.4535 73.5439 51.6781 73.771 52.0645 73.771C52.298 73.771 52.4867 73.6858 52.5586 73.5439C52.7473 73.2033 53.1156 73.3594 53.2773 73.842C53.3492 74.069 53.484 74.3529 53.5738 74.4806C53.6996 74.6509 53.7445 74.9489 53.7625 75.9424C53.7715 76.6236 53.7535 77.2196 53.7086 77.2622C53.5828 77.3899 53.6277 77.8015 53.8164 78.1705C53.9152 78.3692 53.9961 78.6246 53.9961 78.7523C53.9961 78.8801 54.0949 79.2207 54.2207 79.5045C54.3465 79.7883 54.4453 80.1857 54.4453 80.3702C54.4453 80.7534 54.5352 80.8244 54.9484 80.7534C55.1551 80.7108 55.2539 80.6257 55.2539 80.4554C55.2539 80.3276 55.3168 79.9445 55.3977 79.5897C55.6402 78.4969 55.6492 76.4675 55.4246 74.8354C55.1461 72.7918 55.173 72.1815 55.5863 71.2165C55.9816 70.3082 56.5656 69.3715 56.7363 69.3715C56.7992 69.3715 56.9789 69.2154 57.1227 69.0167C57.2754 68.818 57.473 68.6619 57.5809 68.6619C57.7066 68.6619 57.7695 68.5768 57.7695 68.3923C57.7695 67.9807 58.2547 67.2427 58.5152 67.2427C58.659 67.2427 58.9105 67.0157 59.1531 66.6893C59.3777 66.377 59.6383 66.0932 59.7371 66.0364C59.8359 65.9939 59.9887 65.6958 60.0695 65.3836C60.2043 64.9011 60.2672 64.8301 60.5187 64.8301C60.8242 64.8301 61.0488 64.5321 60.977 64.2057C60.95 64.1063 60.968 63.7516 61.0219 63.4251C61.0848 63.0278 61.0848 62.7865 61.0219 62.6588C60.959 62.5452 60.959 62.2614 61.0039 61.8498C61.0488 61.495 61.0848 60.97 61.0938 60.6719C61.0938 59.9481 61.3992 59.0115 61.6328 59.0115C61.8574 59.0115 61.8574 59.0966 61.5879 59.7778C61.4352 60.1752 61.3902 60.459 61.4262 60.7429C61.4531 60.9841 61.4172 61.268 61.3273 61.495C61.1836 61.8498 61.1297 62.6162 61.2555 62.5311C61.2914 62.5027 61.5789 62.0485 61.8934 61.5234C62.4863 60.5016 62.5223 60.2887 62.3066 59.3947C62.2437 59.1676 62.2707 59.1392 62.5492 59.2244C62.8187 59.3095 62.9176 59.2527 63.1871 58.8837C63.3578 58.6283 63.5824 58.1458 63.6723 57.8052L63.834 57.1665H64.3012C64.6965 57.1665 64.8043 57.1098 65.002 56.7834C65.1277 56.5705 65.2266 56.3576 65.2266 56.3008C65.2266 56.2583 65.3883 56.0738 65.5949 55.9035C65.9273 55.6054 65.9992 55.5912 66.5203 55.7332C67.266 55.946 67.248 55.946 67.3648 55.5203C67.4457 55.2648 67.4457 55.0803 67.3738 54.8816C67.284 54.612 67.266 54.612 67.1223 54.8107C67.0055 54.981 66.9426 54.9952 66.8617 54.8675C66.709 54.6262 66.727 54.2288 66.8887 54.1295C66.9605 54.0869 67.0234 53.9308 67.0234 53.7747C67.0234 53.6186 67.2121 53.207 67.4547 52.8522C67.7781 52.3555 67.9488 52.1994 68.1645 52.1994C68.5598 52.1994 68.9102 51.9723 68.9102 51.7027C68.9102 51.5466 69.009 51.4898 69.2516 51.4898C69.4402 51.4898 69.6738 51.3904 69.7727 51.2769C69.8625 51.1634 70.0871 51.0073 70.2668 50.9221C70.4555 50.837 70.6172 50.6667 70.6441 50.5106C70.6711 50.3403 70.7699 50.2551 70.9496 50.2409C71.0934 50.2409 71.4258 50.099 71.6953 49.9429C72.2793 49.5881 72.2344 49.6023 72.2344 49.8435C72.2344 50.0564 71.7223 50.5815 71.3809 50.7234C71.2551 50.766 71.1562 50.8795 71.1562 50.9505C71.1562 51.0357 71.0574 51.2485 70.9316 51.433C70.734 51.7169 70.725 51.802 70.8059 52.1852C70.9855 52.9799 71.5066 52.8664 72.2074 51.9014C72.3691 51.6885 72.6477 51.4614 72.8363 51.4046C73.016 51.3479 73.2945 51.1918 73.4383 51.064C73.591 50.9221 73.8965 50.766 74.1031 50.7234C74.5883 50.6099 75.1992 50.1274 75.1992 49.8719C75.1992 49.5171 74.9746 49.3752 74.2559 49.2759C73.573 49.1765 73.043 48.8217 72.8453 48.325C72.7195 48.0128 72.7645 46.9484 72.9082 46.8633C73.0609 46.7639 73.0879 46.2956 72.9441 46.1679C72.8992 46.1111 72.7375 46.1537 72.5848 46.2388C72.3781 46.3807 72.2973 46.3807 72.1895 46.2388C71.9648 45.9408 72.1805 45.7563 72.7195 45.7989C73.1508 45.8272 73.2496 45.7705 73.5102 45.4015C73.7707 45.0325 73.7977 44.9474 73.7168 44.5926C73.573 43.9681 73.3215 43.8404 72.6477 44.0675C71.5516 44.4223 71.0664 44.6635 70.7789 45.0041C70.3207 45.5434 69.548 46.0259 69.4312 45.8414C69.3594 45.7279 69.4672 45.586 69.8176 45.3163C70.0871 45.1177 70.4375 44.8054 70.6082 44.6068C70.7879 44.3939 71.0305 44.252 71.2191 44.252C71.4617 44.252 71.6144 44.11 72.0367 43.4572L72.5488 42.6625L75.0824 42.7334C77.5082 42.7902 77.625 42.7902 77.7777 42.5205C77.8586 42.3644 78.182 41.9671 78.4875 41.6265C78.9008 41.1581 79.1703 40.9594 79.5656 40.8601C80.1586 40.704 81.075 39.9802 81.2547 39.5261C81.4703 38.9868 81.5062 38.2062 81.3535 37.7237C81.2367 37.3831 81.1559 37.2979 80.9133 37.2979C80.6527 37.2979 80.6078 37.2412 80.5629 36.9148C80.5359 36.7019 80.5629 36.4181 80.6258 36.2761C80.7066 36.0491 80.6887 35.9639 80.5539 35.7936C80.4551 35.6801 80.2664 35.5949 80.1316 35.5949C79.9609 35.5949 79.8621 35.5098 79.8262 35.3111C79.7812 35.0982 79.6914 35.0273 79.4219 35.0273C79.1074 35.0273 79.0715 34.9847 79.0445 34.6441C79.0266 34.3602 78.9367 34.1899 78.748 34.0622C78.2629 33.7216 78.209 33.6506 78.182 33.2817C78.1551 32.9694 78.191 32.9127 78.4066 32.8701C78.6492 32.8275 78.6582 32.7991 78.6223 32.1179C78.6043 31.7347 78.5414 31.2806 78.4695 31.1245C78.3977 30.9826 78.3438 30.7129 78.3438 30.5568C78.3438 30.4007 78.2629 30.0175 78.1641 29.7053C78.0652 29.3931 77.9844 28.9248 77.9844 28.6409C77.9844 28.1442 77.8586 27.7894 77.6789 27.7894C77.5621 27.7894 76.8164 29.0667 76.8164 29.2795C76.8164 29.4924 76.1875 30.202 75.9809 30.202C75.9 30.202 75.6754 30.3297 75.4777 30.5C75.0914 30.8123 74.9387 30.7555 74.6332 30.2304C74.5344 30.0601 74.3996 29.975 74.2918 30.0175C74.1391 30.0885 74.1211 30.0175 74.1211 29.4499C74.1211 28.797 74.3816 27.9597 74.7141 27.5765C74.7949 27.4914 74.8488 27.2927 74.8219 27.1366C74.7949 26.9095 74.7051 26.8669 74.2289 26.8244C73.7887 26.796 73.6629 26.7392 73.7078 26.5831C73.7348 26.4696 73.6359 26.2709 73.4652 26.1006C73.3035 25.9445 73.0699 25.6748 72.9352 25.5045C72.7016 25.2065 72.6566 25.1923 72.1895 25.3626C71.848 25.4903 71.3809 25.5045 70.716 25.4477C69.7906 25.3484 69.7277 25.3626 69.6379 25.6322C69.584 25.7884 69.5391 26.1432 69.5391 26.3986C69.5391 26.6683 69.4402 27.094 69.3145 27.392C69.1887 27.6759 69.0898 28.1016 69.0898 28.3287C69.0898 28.7403 68.7215 29.2654 67.9488 29.9891C67.5984 30.3156 67.5715 30.8123 67.8949 30.8832C68.3621 30.9968 68.5328 32.2456 68.1824 32.9552C68.0656 33.1965 68.0117 33.4661 68.0387 33.679C68.0656 33.9629 68.0387 34.0338 67.8859 34.0338C67.6793 34.0338 67.3918 34.3035 67.0234 34.8286C66.7988 35.155 66.3496 35.453 65.5859 35.7936C64.8312 36.1342 64.7773 36.2194 64.7773 37.0993C64.7773 37.525 64.7145 38.1069 64.6336 38.4049C64.5617 38.6887 64.4809 39.1003 64.4629 39.3132C64.4359 39.668 64.0496 40.633 63.843 40.8743C63.798 40.9169 63.7082 40.9311 63.6453 40.8885C63.5734 40.8459 63.4566 40.9169 63.3848 41.0446C63.2051 41.3142 62.9445 41.3426 62.8277 41.0872C62.7379 40.9027 62.5312 40.0937 62.3785 39.3274C62.2977 38.9442 62.3336 38.6887 62.6391 37.4824C62.8367 36.7161 63.0344 36.0065 63.0883 35.9213C63.3129 35.4956 63.1062 35.3537 62.1629 35.3395C61.6598 35.3253 61.2195 35.2685 61.1926 35.2259C61.1656 35.1834 61.1387 34.9705 61.1387 34.7718C61.1387 34.3886 61.1297 34.3886 60.5816 34.4312C60.0336 34.488 60.0156 34.4738 59.9168 34.0764C59.7281 33.31 59.6832 33.2533 59.216 33.1397C58.9105 33.0546 58.7309 32.9269 58.668 32.7424C58.5512 32.4159 57.9043 32.3592 57.6258 32.6714C57.4191 32.8985 57.1047 33.012 57.0687 32.8559C57.0598 32.7991 57.1137 32.6004 57.1945 32.4018C57.2844 32.1747 57.3203 31.9192 57.2844 31.6922C57.2484 31.4935 57.2664 31.2096 57.3203 31.0393C57.482 30.5568 57.3473 30.2162 56.952 30.1169C56.5027 30.0033 56.4848 29.606 56.925 29.237C57.0328 29.1518 57.1406 28.8822 57.1676 28.6551C57.2215 28.2435 57.5629 27.7752 58.2098 27.2359C58.3355 27.1366 58.5422 26.8953 58.668 26.725C58.7938 26.5547 58.9645 26.3702 59.0543 26.3276C59.1352 26.2709 59.207 26.1573 59.207 26.058C59.207 25.9587 59.5125 25.689 59.8809 25.4619C60.5098 25.0788 60.5547 25.0362 60.5547 24.6388C60.5547 24.2556 60.5816 24.2131 60.7793 24.2982C60.9051 24.3408 61.1027 24.4259 61.2285 24.4685C61.6508 24.6388 61.8934 23.986 61.525 23.7021C61.3453 23.5744 61.3723 23.546 61.7676 23.5318C62.0191 23.5318 62.3156 23.5177 62.4414 23.5177C62.5582 23.5035 62.7109 23.4041 62.7648 23.2764C62.8367 23.1061 63.0164 23.0351 63.3129 23.0209C63.5465 23.0068 63.8699 22.95 64.0137 22.8932C64.391 22.7371 65.3793 21.6018 65.4332 21.2612C65.4602 21.0909 65.559 20.9773 65.6578 20.9773C65.7656 20.9773 65.8645 20.9205 65.8914 20.8496C65.9184 20.7786 66.0891 20.6793 66.2687 20.6367C66.5473 20.5516 66.5832 20.4948 66.5562 20.1542C66.5293 19.7994 66.5562 19.771 66.8977 19.7284C67.1492 19.7001 67.3199 19.7568 67.4098 19.8987C67.4906 20.0265 67.6703 20.1258 67.823 20.1258C68.0387 20.1258 68.1016 20.069 68.1016 19.8562C68.1016 19.4446 68.2453 19.3736 68.5418 19.6433C68.7754 19.8562 68.8473 19.8704 69.2246 19.7001C69.566 19.5439 70.141 19.0046 70.5273 18.4654C70.5543 18.4228 70.5004 18.3234 70.4105 18.2241C70.0602 17.8125 70.3477 16.7623 70.707 17.1171C70.9137 17.3158 71.1203 17.2165 71.1832 16.8901C71.2102 16.7623 71.2551 16.5353 71.291 16.3933C71.3449 16.2089 71.309 16.1521 71.1383 16.1521C71.0125 16.1521 70.8418 16.0244 70.7609 15.8824C70.5812 15.5702 69.9164 15.4283 69.4762 15.6128C69.2426 15.7121 69.1617 15.8399 69.0809 16.3082C68.973 16.8475 68.7574 17.0887 68.4789 16.9752C68.416 16.9468 68.3172 17.0887 68.2543 17.2732C68.1914 17.4861 67.9668 17.7274 67.6523 17.9119C67.3828 18.0822 67.0594 18.3234 66.9336 18.4512C66.6371 18.7918 66.3316 18.7776 66.2148 18.4086C66.0441 17.9119 66.143 17.5429 66.4844 17.3584C66.7449 17.2165 66.7988 17.1171 66.7988 16.7765C66.7988 16.4075 66.7629 16.365 66.4664 16.3224C66.2328 16.294 66.107 16.3508 66.0172 16.5353C65.8645 16.8759 65.4062 17.33 65.3344 17.2307C65.2445 17.0746 65.577 16.1521 65.7297 16.1521C65.8105 16.1521 65.8555 16.0527 65.8375 15.8966C65.8016 15.6412 65.4961 15.5844 65.2086 15.7973C65.0828 15.8682 65.0469 15.8257 65.0469 15.5986C65.0469 15.3715 65.1187 15.2722 65.2984 15.2154C65.55 15.1303 65.559 15.1019 65.559 14.293C65.568 13.4982 65.55 13.4273 65.3074 13.2428C65.0559 13.0299 64.7234 13.0015 64.373 13.1292Z" fill="#C6C6C6"/>
<path d="M88.3336 14.9743C88.0821 15.0452 88.0102 15.3149 88.0821 15.7974C88.145 16.1664 88.145 16.1664 88.8997 16.0954C89.7532 16.0245 89.879 15.9535 89.7622 15.6271C89.6274 15.2297 88.7649 14.8323 88.3336 14.9743Z" fill="#C6C6C6"/>
<path d="M60.9767 15.8681C60.788 16.1236 60.5634 16.2939 60.4107 16.2939C60.1052 16.2939 59.8537 16.5068 59.9525 16.6771C59.9974 16.7338 60.1771 16.7906 60.3568 16.8048C60.5365 16.819 60.9587 16.8758 61.2822 16.9325C62.0099 17.0603 62.2884 16.89 62.2435 16.3223C62.2255 16.0526 62.1537 15.9249 62.0189 15.8965C61.9111 15.8681 61.7763 15.7546 61.7224 15.6411C61.5517 15.3289 61.3091 15.3998 60.9767 15.8681Z" fill="#C6C6C6"/>
<path d="M73.1774 16.0101C73.1504 16.081 72.9618 16.2087 72.7731 16.2939C72.3329 16.4784 72.2789 16.8616 72.6832 16.8616C72.9528 16.8616 73.402 16.3365 73.402 16.0101C73.402 15.8256 73.2493 15.8256 73.1774 16.0101Z" fill="#C6C6C6"/>
<path d="M73.7078 17.6139C73.3484 17.9404 72.9441 18.5648 72.998 18.7067C73.025 18.7777 73.2945 18.8486 73.591 18.8486C74.0672 18.8486 74.157 18.8061 74.4535 18.3803C74.8758 17.7559 74.8219 17.4294 74.2828 17.4294C74.0672 17.4436 73.8156 17.5146 73.7078 17.6139Z" fill="#C6C6C6"/>
<path d="M74.893 17.8409C74.8571 17.9261 74.92 18.1248 75.0188 18.2809C75.1715 18.5221 75.2344 18.5363 75.3872 18.4228C75.6567 18.1815 75.5669 17.7983 75.2255 17.7416C75.0727 17.7132 74.92 17.7558 74.893 17.8409Z" fill="#C6C6C6"/>
<path d="M66.4934 21.2044C66.2328 21.4599 65.9543 21.8005 65.8824 21.9566C65.8105 22.1269 65.7027 22.2546 65.6398 22.2546C65.577 22.2546 65.4781 22.4107 65.4242 22.6094C65.3434 22.8933 65.2535 22.9642 65.0109 22.9642C64.6965 22.9642 64.418 23.2622 64.418 23.5887C64.418 23.7022 64.5617 23.759 64.8492 23.759C65.2176 23.7448 65.2715 23.7873 65.2984 24.057C65.3344 24.4686 65.3883 24.4686 66.0172 23.9576C66.3137 23.7164 66.5922 23.5319 66.6461 23.5319C66.7 23.5319 66.8258 23.4042 66.9156 23.2481C67.0773 22.9642 67.0863 22.9642 67.293 23.319C67.5445 23.7448 68.0836 24.0002 68.425 23.8725C68.5777 23.8157 68.6855 23.8441 68.7395 23.9718C68.8383 24.2415 68.982 24.0002 69.0539 23.4325C69.1078 22.9926 69.0988 22.9784 68.7664 22.9358C68.4969 22.9074 68.407 22.8223 68.3891 22.6094C68.3352 22.1837 68.1016 21.8147 67.6793 21.5308C67.4008 21.3463 67.293 21.1902 67.293 20.9774C67.293 20.58 67.0684 20.6368 66.4934 21.2044Z" fill="#C6C6C6"/>
<path d="M70.8867 23.4752C70.8867 23.7022 71.0934 24.0996 71.2012 24.0996C71.3988 24.0996 71.3629 23.7022 71.1652 23.5319C70.9676 23.3758 70.8867 23.3474 70.8867 23.4752Z" fill="#C6C6C6"/>
<path d="M70.0963 23.9859C70.1143 24.1704 70.1951 24.3265 70.285 24.3548C70.4826 24.4116 70.5994 23.9717 70.4287 23.8014C70.2041 23.5743 70.0604 23.6594 70.0963 23.9859Z" fill="#C6C6C6"/>
<path d="M66.1521 24.8943C65.7658 25.2632 65.658 25.5755 65.8826 25.689C66.2869 25.9161 67.383 25.2632 67.383 24.8091C67.383 24.3692 66.6463 24.4259 66.1521 24.8943Z" fill="#C6C6C6"/>
<path d="M68.1641 25.5897C67.9934 25.7884 67.9844 26.3845 68.1462 26.4696C68.2719 26.5264 68.7301 25.831 68.7301 25.5897C68.7301 25.3201 68.3797 25.3201 68.1641 25.5897Z" fill="#C6C6C6"/>
<path d="M77.9574 26.1858C77.9215 26.2283 77.8945 26.3986 77.8945 26.5406C77.8945 26.9379 78.2 26.8102 78.2359 26.3986C78.2629 26.1006 78.0922 25.9587 77.9574 26.1858Z" fill="#C6C6C6"/>
<path d="M8.37338 28.1725C8.014 28.2434 7.93314 28.5131 8.14877 28.9105C8.35541 29.2936 8.42728 29.2795 8.80463 28.7827C9.06517 28.4279 9.09213 28.3428 8.98431 28.2151C8.91244 28.1441 8.81361 28.0873 8.7597 28.1015C8.71478 28.1157 8.53509 28.1441 8.37338 28.1725Z" fill="#C6C6C6"/>
<path d="M16.0371 30.8265C15.9383 30.9258 15.8215 31.0252 15.7676 31.0394C15.7227 31.0394 15.6777 31.1387 15.6777 31.2238C15.6777 31.3516 15.8035 31.3942 16.073 31.38C16.5492 31.3374 16.684 31.1813 16.4863 30.8549C16.3066 30.571 16.2617 30.571 16.0371 30.8265Z" fill="#C6C6C6"/>
<path d="M14.8237 31.9051C14.671 32.1464 14.662 32.2457 14.7339 32.487C14.8327 32.7566 14.8507 32.7708 15.0663 32.5295C15.2011 32.4018 15.4077 32.2457 15.5335 32.1889C15.9109 32.0328 15.821 31.6922 15.3898 31.6497C15.1023 31.6213 14.9675 31.678 14.8237 31.9051Z" fill="#C6C6C6"/>
<path d="M27.7973 33.097C27.5188 33.2957 27.3571 33.6647 27.4559 33.906C27.4829 33.9769 27.5727 33.9769 27.6716 33.8918C27.7614 33.8208 27.986 33.7498 28.1657 33.7498C28.5161 33.7498 28.6598 33.466 28.4802 33.1112C28.3454 32.8558 28.1657 32.8558 27.7973 33.097Z" fill="#C6C6C6"/>
<path d="M65.6756 33.7784C65.469 34.3177 65.5229 34.5164 65.8374 34.3886C66.2956 34.2042 66.4932 33.3243 66.0799 33.3243C65.9182 33.3243 65.8014 33.4662 65.6756 33.7784Z" fill="#C6C6C6"/>
<path d="M27.519 34.275C27.4562 34.3034 27.4022 34.4453 27.4022 34.573C27.4022 34.6866 27.3394 34.9136 27.2495 35.0555C27.1147 35.2968 27.1147 35.3252 27.2495 35.5665C27.3394 35.7084 27.4022 35.978 27.4022 36.1483C27.4022 36.6025 27.5999 36.4605 27.7796 35.8645C28.103 34.8143 28.139 34.6156 28.094 34.4027C28.0401 34.1898 27.7526 34.1189 27.519 34.275Z" fill="#C6C6C6"/>
<path d="M4.44685 35.8786C4.24919 36.0348 4.04255 36.1625 3.97966 36.1625C3.82693 36.1625 3.82693 36.716 3.98865 36.8153C4.05154 36.8579 4.24021 36.7585 4.41091 36.6024C4.58162 36.4463 4.86912 36.276 5.05779 36.2334C5.30935 36.1483 5.39021 36.0773 5.35427 35.9212C5.32732 35.8077 5.30037 35.68 5.30037 35.6516C5.30037 35.4813 4.75232 35.6232 4.44685 35.8786Z" fill="#C6C6C6"/>
<path d="M26.9531 36.0207C26.9531 36.0916 26.998 36.1626 27.043 36.1626C27.0969 36.1626 27.1328 36.0916 27.1328 36.0207C27.1328 35.9355 27.0969 35.8788 27.043 35.8788C26.998 35.8788 26.9531 35.9355 26.9531 36.0207Z" fill="#C6C6C6"/>
<path d="M1.49113 37.61C1.35636 37.8797 1.29347 38.121 1.34738 38.2061C1.45519 38.3764 1.81456 38.2061 2.07511 37.8797C2.2548 37.6526 2.26378 37.5817 2.16496 37.383C1.97628 37.0282 1.74269 37.1133 1.49113 37.61Z" fill="#C6C6C6"/>
<path d="M26.0546 37.4116C25.839 37.6954 25.83 37.6954 26.0007 37.9934C26.2343 38.405 26.5577 38.3766 26.7374 37.9367C26.8273 37.7096 26.971 37.5819 27.1148 37.5819C27.5101 37.5819 27.2136 37.298 26.7195 37.2129C26.3601 37.1419 26.2343 37.1845 26.0546 37.4116Z" fill="#C6C6C6"/>
<path d="M0.269277 38.0785C0.152481 38.2772 0.08959 38.4759 0.116543 38.5327C0.215371 38.6746 0.628653 38.3198 0.628653 38.0927C0.628653 37.7237 0.484902 37.7237 0.269277 38.0785Z" fill="#C6C6C6"/>
<path d="M62.693 38.3056C62.6031 38.3765 62.5312 38.5752 62.5312 38.7171C62.5312 38.9442 62.5941 39.001 62.8277 39.001C63.1781 39.001 63.5195 38.6604 63.3848 38.4475C63.241 38.2204 62.8547 38.1353 62.693 38.3056Z" fill="#C6C6C6"/>
<path d="M26.0818 38.5327C25.8392 38.6037 25.8302 38.7314 26.0459 39.5545C26.1447 39.9235 26.2345 40.1222 26.2705 40.0229C26.3064 39.9235 26.3154 39.8526 26.2885 39.8526C26.2615 39.8526 26.2974 39.5687 26.3603 39.2281C26.4771 38.6463 26.4681 38.405 26.3334 38.4476C26.3064 38.4618 26.1896 38.5044 26.0818 38.5327Z" fill="#C6C6C6"/>
<path d="M80.4188 40.8884C80.0414 41.0729 79.143 42.3786 78.6578 43.443C78.4332 43.9397 78.1727 44.3229 77.966 44.479C77.7414 44.6351 77.6246 44.8196 77.6246 44.9899C77.6246 45.4298 77.4539 45.813 77.2653 45.813C77.0227 45.813 76.8789 46.2671 77.0317 46.5936C77.1215 46.7922 77.2114 46.8206 77.409 46.7355C77.5528 46.6787 77.8223 46.6361 78.011 46.6503C78.9004 46.6929 79.2239 46.6929 79.4844 46.5936C79.6461 46.5368 79.8438 46.5368 79.9246 46.5794C80.0594 46.6645 80.0594 46.6929 79.9157 46.9484C79.8258 47.1045 79.6821 47.2322 79.5832 47.2322C79.3586 47.2322 79.3766 47.4735 79.6371 47.7289C79.9067 48.0127 80.1492 47.8566 80.3739 47.2322C80.5356 46.8206 80.9938 46.3949 81.1016 46.5794C81.1375 46.6219 81.0657 46.8632 80.9578 47.1045C80.7782 47.4876 80.7692 47.5728 80.877 47.7431C81.1914 48.2398 81.7574 48.2256 81.7574 47.7147C81.7574 47.6296 81.8203 47.4735 81.9012 47.3599C82.1168 47.0761 82.3235 46.3665 82.2336 46.2246C82.1797 46.1394 82.027 46.1536 81.8563 46.253C81.4789 46.4658 81.425 46.3523 81.6766 45.8272C81.8653 45.4298 81.8653 45.3731 81.7305 45.146C81.6137 44.9189 81.6047 44.8622 81.7215 44.6209C81.8922 44.2377 81.8832 43.9255 81.6676 43.5281C81.5239 43.2585 81.4789 43.2301 81.4071 43.3862C81.3621 43.4855 81.2813 43.5281 81.2274 43.4855C81.1735 43.4288 81.0657 43.4855 80.9848 43.6133C80.7692 43.9397 80.5535 43.812 80.4996 43.3294C80.4547 42.9604 80.4098 42.9037 80.2032 42.9463C80.0684 42.9604 79.9606 42.9179 79.9606 42.8327C79.9606 42.6624 80.4996 41.8251 80.841 41.4561C81.0836 41.2007 81.1106 40.7039 80.886 40.7181C80.7961 40.7323 80.5895 40.8033 80.4188 40.8884Z" fill="#C6C6C6"/>
<path d="M26.9885 42.1657C27.0244 42.407 27.1682 42.7902 27.3119 43.003C27.4646 43.2159 27.5814 43.4856 27.5814 43.6133C27.5814 43.7268 27.6803 43.8971 27.7881 43.9539C27.9049 44.0248 28.0486 44.2661 28.1115 44.5074C28.1924 44.8054 28.3541 45.0041 28.7135 45.2312C29.3154 45.6285 29.4682 45.5576 29.4682 44.8764C29.4682 44.4932 29.4232 44.3513 29.2885 44.2945C29.1717 44.2519 29.1088 44.0958 29.1088 43.8829C29.1088 43.2017 28.9381 42.8185 28.5068 42.5205C28.2643 42.3644 28.0037 42.1231 27.9139 42.0096C27.824 41.8819 27.5725 41.7683 27.3389 41.74L26.9346 41.7116L26.9885 42.1657Z" fill="#C6C6C6"/>
<path d="M74.0312 43.2726C74.0312 43.4287 74.1031 43.5991 74.193 43.6416C74.2738 43.6984 74.4355 43.8829 74.5434 44.0674C74.723 44.3654 74.8219 44.408 75.2621 44.3654C75.6754 44.337 75.7922 44.2661 75.8102 44.0816C75.8281 43.9113 75.7562 43.7694 75.5855 43.67C75.4508 43.5849 75.2172 43.4146 75.0645 43.3152C74.9207 43.2159 74.6242 43.1023 74.4176 43.0598C74.0852 43.0172 74.0312 43.0314 74.0312 43.2726Z" fill="#C6C6C6"/>
<path d="M75.2171 46.551C75.0913 46.7497 75.0733 47.0903 75.1991 47.0903C75.28 47.0903 75.4686 46.6504 75.4686 46.4659C75.4686 46.324 75.3339 46.3665 75.2171 46.551Z" fill="#C6C6C6"/>
<path d="M73.1329 47.5871C72.9622 47.9135 73.097 48.4954 73.3845 48.5947C73.5192 48.6515 73.7079 48.7792 73.8067 48.8785C74.0493 49.1482 74.247 49.1198 74.4356 48.7934C74.5255 48.6373 74.6602 48.5096 74.7231 48.5096C74.795 48.5096 74.8399 48.4244 74.813 48.3251C74.795 48.2257 74.6063 48.1548 74.3368 48.1548C73.7888 48.1406 73.3845 47.8851 73.4563 47.5871C73.5282 47.3033 73.2856 47.3033 73.1329 47.5871Z" fill="#C6C6C6"/>
<path d="M75.6482 47.7574C75.4775 47.9419 75.3068 48.2257 75.2708 48.3818C75.2349 48.5237 75.163 48.6515 75.1091 48.6515C74.9474 48.6515 75.0103 49.0488 75.2169 49.2759C75.4236 49.503 75.7919 49.5739 76.0435 49.4178C76.1962 49.3185 76.2411 48.6515 76.0974 48.6515C76.0525 48.6515 76.0075 48.5521 76.0075 48.4386C76.0075 48.3251 76.0435 48.2257 76.0884 48.2257C76.1872 48.2257 76.2591 47.8 76.2142 47.5445C76.1513 47.3032 76.0075 47.3458 75.6482 47.7574Z" fill="#C6C6C6"/>
<path d="M57.5355 78.8802C57.5266 79.4762 57.5625 79.7317 57.6344 79.7317C57.7961 79.7317 57.9398 79.4053 58.0027 78.8802C58.0566 78.5112 58.0297 78.3693 57.9039 78.2132C57.6074 77.8867 57.5445 78.0003 57.5355 78.8802Z" fill="#C6C6C6"/>
<path d="M58.1645 80.3702C58.0118 80.5547 58.0118 80.5689 58.1555 80.5831C58.2454 80.5831 58.3083 80.6967 58.3083 80.8812C58.3083 81.0798 58.3532 81.1508 58.461 81.1224C58.6317 81.0656 58.6946 80.5973 58.5598 80.3419C58.443 80.1006 58.3802 80.1148 58.1645 80.3702Z" fill="#C6C6C6"/>
<path d="M57.6432 80.6824C57.5444 80.8385 57.5893 81.0088 57.7241 81.0088C57.796 81.0088 57.8589 80.952 57.8589 80.8811C57.8589 80.6966 57.7151 80.5688 57.6432 80.6824Z" fill="#C6C6C6"/>
<path d="M56.6638 81.1083C56.547 81.2928 56.6009 81.832 56.7536 81.9172C56.9602 82.0449 57.1489 81.7185 57.086 81.3211C57.0321 81.0231 56.7895 80.8954 56.6638 81.1083Z" fill="#C6C6C6"/>
<path d="M56.7989 82.3145C56.8528 82.57 57.0504 82.6125 57.0504 82.3713C57.0504 82.2435 56.9875 82.1442 56.9067 82.1442C56.8258 82.1442 56.7809 82.2152 56.7989 82.3145Z" fill="#C6C6C6"/>
<path d="M59.0273 83.4781C59.0273 84.0174 59.1711 84.2871 59.2609 83.9323C59.3328 83.6342 59.234 82.9956 59.1172 82.9956C59.0633 82.9956 59.0273 83.2085 59.0273 83.4781Z" fill="#C6C6C6"/>
<path d="M52.4863 83.7906C52.1269 83.8899 51.7136 84.117 51.5699 84.2731C51.2824 84.5995 50.896 85.6781 51.0039 85.8484C51.1386 86.0471 51.5699 85.8058 51.5699 85.5361C51.5699 85.3233 51.6328 85.2665 51.9203 85.2665C52.1898 85.2665 52.2976 85.1955 52.4144 84.9117C52.5671 84.5427 53.0164 84.2873 53.3398 84.3866C53.5734 84.4576 53.6183 84.6988 53.4117 84.6988C53.223 84.6988 53.241 85.0678 53.4386 85.1955C53.5195 85.2523 53.8878 85.3233 54.2562 85.3658C54.8222 85.4368 54.8941 85.4794 54.7593 85.6355C54.5167 85.9193 54.6874 86.118 55.1726 86.118C55.7476 86.118 55.9722 86.3025 55.9722 86.7992C55.9722 87.2534 56.0531 87.452 56.2687 87.5798C56.3496 87.6365 56.4574 87.821 56.5113 88.0197C56.6191 88.5022 56.7718 88.5448 58.0925 88.5022C59.4132 88.4597 59.6109 88.3036 59.1886 87.6791C59.0718 87.5088 58.8742 87.3953 58.6855 87.3953C58.4609 87.3953 58.371 87.3243 58.3351 87.1114C58.3081 86.9553 58.2363 86.8276 58.1734 86.8276C58.1105 86.8276 58.0117 86.7425 57.9488 86.6289C57.8949 86.5154 57.796 86.4444 57.7242 86.487C57.5714 86.5863 57.221 86.2883 56.4843 85.4794C56.116 85.082 55.8015 84.8407 55.6398 84.8407C55.3433 84.8407 55.1546 84.6137 55.2265 84.344C55.2445 84.2305 55.1906 84.0886 55.1007 84.0034C54.948 83.8899 54.6785 83.8189 53.4566 83.6486C53.2859 83.6202 52.8456 83.6912 52.4863 83.7906Z" fill="#C6C6C6"/>
<path d="M59.8 84.6279C59.8359 84.8408 59.818 84.9827 59.7551 84.9827C59.7012 84.9827 59.6562 85.0394 59.6562 85.1246C59.6562 85.3517 60.0785 85.2807 60.1414 85.0394C60.2133 84.7414 60.2133 84.7556 60.0516 84.5002C59.8449 84.1737 59.7371 84.2305 59.8 84.6279Z" fill="#C6C6C6"/>
<path d="M52.0734 85.7774C51.8488 86.118 52.0465 86.4302 52.4598 86.3734C52.7383 86.3308 52.7832 86.2741 52.7832 85.976C52.7832 85.678 52.7383 85.6071 52.5047 85.5787C52.334 85.5503 52.1633 85.6212 52.0734 85.7774Z" fill="#C6C6C6"/>
<path d="M60.4469 88.6439C60.0247 88.6865 59.6833 89.0271 59.9348 89.1548C60.0067 89.1832 60.1864 89.2826 60.3301 89.3535C60.5368 89.4529 60.5907 89.5522 60.5727 89.7935C60.5547 89.9638 60.5907 90.205 60.6536 90.3186C60.8602 90.7301 60.6176 90.8579 60.0337 90.6734C59.3508 90.4321 59.0813 90.5031 59.0454 90.9004C59.0184 91.1559 59.0723 91.2269 59.3149 91.2836C59.4766 91.312 59.6922 91.3546 59.7911 91.3546C60.4739 91.3688 61.2735 91.5675 61.2735 91.7236C61.2735 91.9081 61.4622 92.0784 61.6868 92.0784C61.7497 92.0784 61.8665 91.8513 61.9383 91.5817C62.0821 91.0707 62.2348 90.9714 62.5493 91.241C62.693 91.3688 62.7649 91.3404 62.8997 91.0991L63.0794 90.8011L63.4297 91.0849C63.8969 91.4681 63.9329 91.4539 64.1126 90.8721C64.2922 90.2476 64.1754 89.9496 63.7442 89.9496C63.5645 89.9496 63.3938 89.8361 63.286 89.6516C63.1962 89.4955 62.9087 89.1974 62.6481 89.0129C62.1809 88.6581 61.4712 88.5446 60.4469 88.6439Z" fill="#C6C6C6"/>
<path d="M65.1363 90.7161C64.7231 91.369 65.6664 91.965 66.3313 91.4683C66.7625 91.1561 66.6098 90.9432 65.7832 90.7303C65.4149 90.631 65.1992 90.6168 65.1363 90.7161Z" fill="#C6C6C6"/>
<path d="M55.8828 91.0567C55.8828 91.1986 55.9816 91.4682 56.1074 91.6527C56.3051 91.9508 56.368 91.965 56.6375 91.8372C56.8082 91.7521 57.0418 91.7095 57.1586 91.7521C57.4281 91.8372 57.6527 91.4824 57.482 91.2696C57.3652 91.1418 56.332 90.8012 56.0266 90.8012C55.9457 90.8012 55.8828 90.9148 55.8828 91.0567Z" fill="#C6C6C6"/>
</svg>
