<svg width="112" height="109" viewBox="0 0 112 109" fill="none" xmlns="http://www.w3.org/2000/svg">
<path d="M47.0733 0.547684C46.9486 0.584822 46.6191 0.733375 46.3341 0.872643C45.9778 1.04905 45.7463 1.11403 45.586 1.0769C45.4613 1.03976 45.2297 1.05833 45.0694 1.11404C44.8289 1.1976 44.6954 1.17903 44.3213 1.02119C43.7691 0.798367 43.6889 0.78908 43.6889 0.97477C43.6889 1.16046 43.1635 1.16046 42.923 0.97477C42.7004 0.798364 42.5757 0.798364 42.4064 0.97477C42.3352 1.05833 42.0858 1.15118 41.8632 1.1976C41.6316 1.24402 41.4 1.32758 41.3466 1.38329C41.2308 1.50398 40.8389 1.52255 40.8389 1.40186C40.8389 1.35543 40.5629 1.26259 40.2244 1.20689C39.6633 1.09547 39.4139 1.10475 38.1938 1.27187C37.9444 1.29973 37.8108 1.28116 37.8108 1.21617C37.8108 1.04905 37.6505 1.09547 37.4189 1.34615C37.2141 1.55041 37.125 1.57826 36.4927 1.57826C35.2458 1.57826 34.1236 1.92179 33.5358 2.46957C33.1796 2.80382 33.0371 2.85953 32.9836 2.67384C32.9569 2.59028 32.8768 2.59955 32.7075 2.72025C32.5829 2.80381 32.378 2.87809 32.2533 2.87809C32.1286 2.87809 31.8614 3.02665 31.6299 3.24019C31.1668 3.65799 30.855 3.77869 30.1247 3.8344C29.6794 3.87153 29.5725 3.84368 29.3677 3.66727C29.1629 3.48158 29.1094 3.4723 28.8689 3.57443C28.6997 3.63942 28.1743 3.67656 27.5597 3.67656C26.5711 3.66727 26.5177 3.65799 26.206 3.40731C25.9744 3.23091 25.8764 3.07307 25.8764 2.90594C25.8764 2.68312 25.8675 2.67383 25.4668 2.73882C25.2352 2.76668 25.0036 2.82239 24.9502 2.84096C24.8878 2.86881 24.6919 3.25876 24.5049 3.72298C24.3178 4.18721 23.9883 4.80926 23.7746 5.09708C23.4005 5.60773 23.3382 5.66345 22.2872 6.12767C21.3521 6.53619 21.0938 6.7033 20.595 7.1861C20.1052 7.65032 19.9983 7.80816 19.9983 8.04028C19.9983 8.22597 19.8825 8.48593 19.6688 8.78304C19.3838 9.17298 19.3214 9.33082 19.2769 9.88789C19.2324 10.38 19.2413 10.5749 19.3393 10.6864C19.4105 10.7606 19.4639 10.8906 19.4639 10.9649C19.4639 11.132 18.3596 12.2554 17.656 12.8218C17.371 13.0446 16.9969 13.3417 16.8366 13.4717C16.605 13.6574 16.3646 13.7317 15.7233 13.8152C14.9396 13.9174 14.325 14.1588 14.3607 14.3537C14.3696 14.4002 14.3428 14.4744 14.2983 14.5301C14.2627 14.5766 14.1558 14.883 14.0757 15.1986C13.8975 15.8485 13.853 15.9042 13.1494 16.2942C12.7041 16.5449 12.6239 16.6377 12.3478 17.2226C12.1786 17.6033 12.0272 18.1047 11.9827 18.4203C11.9203 19.0053 11.9738 18.931 10.9228 19.8502C10.6735 20.073 10.4241 20.3422 10.3707 20.4536L10.2638 20.6579L10.4775 20.4722L10.6824 20.2865L10.4775 20.6115C10.2905 20.9179 10.1391 21.2428 9.77394 22.1249C9.69379 22.3291 9.54238 22.5241 9.4355 22.5705C9.31972 22.6076 9.17722 22.7655 9.10597 22.9048C8.94566 23.2297 8.73191 24.641 8.81207 24.8545C8.8655 24.9938 8.90113 24.9752 9.07925 24.7431L9.2841 24.4738L9.48004 24.8638C9.66707 25.2444 9.84519 25.3744 9.84519 25.133C9.8541 25.0773 9.92535 25.1702 10.0233 25.3466C10.2371 25.7551 10.2638 26.3864 10.0678 26.3122C9.98769 26.275 9.90754 26.3214 9.87191 26.4236C9.83629 26.5164 9.8541 26.6 9.91644 26.6278C9.98769 26.6464 9.98769 26.7207 9.91644 26.8878C9.82738 27.0735 9.84519 27.1478 10.0144 27.3242C10.2549 27.6027 10.335 27.8998 10.4152 28.7911C10.4775 29.4596 10.4686 29.5432 10.1569 30.3695C9.94316 30.9358 9.81847 31.4465 9.79175 31.8364C9.74722 32.5513 9.49785 33.0527 8.91004 33.5912C8.47363 33.9904 8.4291 34.074 8.65175 34.074C8.8566 34.074 9.39988 34.6682 9.39988 34.9003C9.39988 35.021 9.45332 35.0953 9.55129 35.0953C9.66707 35.0953 9.67597 35.1232 9.59582 35.2067C9.44441 35.3645 9.46222 35.4945 9.61363 35.4388C9.70269 35.4017 9.72941 35.4295 9.70269 35.5131C9.66707 35.5967 9.76504 35.7174 9.95207 35.8381C10.1747 35.9773 10.2014 36.0237 10.0768 36.0237C9.97879 36.0237 9.83629 35.9588 9.74722 35.8752C9.60472 35.7452 9.58691 35.7452 9.49785 35.9123C9.44441 36.0145 9.4266 36.1166 9.46222 36.1537C9.48894 36.1816 9.50675 36.4972 9.49785 36.8593C9.48004 37.4443 9.49785 37.5371 9.68488 37.695C9.80066 37.7971 9.93425 37.8714 9.97879 37.8806C10.0322 37.8806 10.0768 37.9735 10.0857 38.0756C10.0946 38.187 10.148 38.3263 10.2014 38.382C10.3083 38.4934 10.8961 38.5027 11.1277 38.3913C11.2613 38.3356 11.2791 38.3449 11.2257 38.4284C11.1455 38.577 11.3236 38.707 11.6264 38.7255C11.8135 38.7348 11.8224 38.7441 11.671 38.7812C11.573 38.8091 11.4394 38.8741 11.3771 38.9205C11.2524 39.0319 11.2346 39.2176 11.3593 39.134C11.4127 39.1062 11.4483 39.1433 11.4483 39.2269C11.4483 39.394 11.6532 39.6447 11.7957 39.6447C11.8402 39.6447 11.9114 39.7283 11.9382 39.8304C12.0094 40.0625 12.1519 40.0718 12.3033 39.849C12.4102 39.7097 12.4191 39.719 12.428 39.9511C12.428 40.1275 12.4636 40.1925 12.5349 40.1461C12.5972 40.1089 12.6061 40.1182 12.5705 40.1832C12.5349 40.2389 12.5794 40.3967 12.6596 40.5267C12.8199 40.7867 13.5502 41.353 13.8441 41.4552C13.9866 41.5016 14.0311 41.5759 14.0044 41.6873C13.9777 41.7894 14.0489 41.938 14.1647 42.0587C14.2805 42.1701 14.3963 42.3651 14.423 42.4858C14.4586 42.6065 14.521 42.7086 14.5744 42.7086C14.6278 42.7086 14.6189 42.7829 14.5566 42.9128C14.4675 43.08 14.4853 43.1357 14.6189 43.2471C14.7793 43.3678 14.7703 43.3771 14.5388 43.3214L14.2805 43.2564L14.4408 43.5349C14.521 43.6835 14.6902 43.8506 14.806 43.9063C14.9218 43.962 15.0108 44.0641 14.993 44.1384C14.9752 44.2127 15.0643 44.3612 15.18 44.4634C15.3849 44.649 15.3849 44.6583 15.2068 44.6583C14.9039 44.6583 14.895 44.8254 15.2068 44.8904C15.7144 45.0111 17.0503 45.726 17.2196 45.9767C17.2819 46.0696 17.4957 46.2274 17.6916 46.3295C17.8786 46.4317 18.0389 46.5616 18.0389 46.6174C18.0389 46.6638 18.226 46.7938 18.4486 46.8866C18.6802 46.998 19.1611 47.3787 19.5886 47.8058C20.1853 48.4 20.4793 48.6135 21.2096 48.9756C21.6905 49.217 22.1982 49.4677 22.3407 49.542C22.5633 49.672 22.6346 49.6627 23.3649 49.3841C23.7924 49.2263 24.1843 49.0592 24.2377 49.0128C24.4782 48.8085 25.2085 48.6321 26.2772 48.5021C27.435 48.3628 28.9936 48.3536 28.9936 48.4835C28.9936 48.53 29.1629 48.5578 29.3766 48.5578C29.5814 48.5671 29.911 48.6321 30.1069 48.7064C30.7393 48.957 30.7838 48.957 31.0421 48.7621C31.1757 48.6599 31.5319 48.5021 31.8258 48.4185C32.1286 48.3443 32.7075 48.1122 33.1083 47.9079C33.518 47.7036 33.9989 47.5087 34.186 47.4715C34.3641 47.4437 34.5155 47.388 34.5155 47.3415C34.5155 47.2394 34.2483 46.9795 34.1414 46.9795C34.088 46.9795 34.0613 46.9516 34.088 46.9237C34.1771 46.8309 34.4977 47.063 34.56 47.258C34.6313 47.4994 34.9163 47.4344 35.2013 47.1094C35.4774 46.803 36.368 46.5988 37.4902 46.5988C38.1493 46.5988 38.4432 46.5616 38.5946 46.4595C38.7104 46.376 38.8261 46.3388 38.8618 46.3667C38.8885 46.3945 38.8618 46.4224 38.8083 46.4224C38.746 46.4224 38.7014 46.4502 38.7014 46.4874C38.7014 46.5338 38.933 46.5616 39.218 46.5709C39.8682 46.5709 40.456 46.8959 40.7054 47.388C40.8033 47.5737 40.9369 47.7222 40.9993 47.7222C41.0616 47.7222 41.0883 47.7686 41.0616 47.8243C41.026 47.88 41.0794 47.945 41.1863 47.9729C41.3466 48.0193 41.3555 48.0472 41.2664 48.1679C41.1774 48.2793 41.1774 48.3164 41.2664 48.3443C41.3199 48.3721 41.3733 48.4743 41.3733 48.5671C41.3733 48.9756 41.8364 49.5884 42.2372 49.7091C42.3441 49.7462 42.451 49.7369 42.4777 49.6812C42.5044 49.6348 42.6113 49.6162 42.7093 49.6441C42.8072 49.672 43.0299 49.6627 43.208 49.6348C43.4663 49.5791 43.5019 49.542 43.4218 49.4306C43.2882 49.2727 43.4307 49.2542 43.5821 49.412C43.6622 49.4955 43.7157 49.4955 43.7958 49.412C43.9472 49.2542 44.1432 49.2727 44.0808 49.4398C44.0452 49.5141 44.0719 49.5791 44.1254 49.5791C44.1877 49.5791 44.25 49.5234 44.2768 49.4584C44.3035 49.3656 44.5172 49.3191 44.918 49.3099C45.2475 49.3006 45.5325 49.2542 45.5414 49.1984C45.5949 49.0592 45.7374 49.1056 45.7374 49.2542C45.7374 49.347 45.8264 49.3934 45.9868 49.3934C46.1738 49.3934 46.2629 49.4677 46.3608 49.6905C46.53 50.0712 47.0199 50.3869 47.198 50.2383C47.2871 50.164 47.3405 50.1547 47.385 50.229C47.4118 50.2754 47.3939 50.3219 47.3494 50.3219C47.1802 50.3219 47.2425 50.5633 47.5275 50.9718L47.8036 51.3617L47.67 52.0395C47.5988 52.4109 47.5632 52.8287 47.581 52.9587C47.6166 53.1165 47.5454 53.3486 47.3761 53.6364C47.0021 54.2771 46.9664 54.407 47.1179 54.4628C47.1891 54.4999 47.2514 54.6206 47.2514 54.7413C47.2514 54.8991 47.1891 54.9734 47.0288 55.0198L46.7972 55.0755L46.9932 55.4191C47.0911 55.6047 47.1268 55.6976 47.0644 55.6326C46.8685 55.4376 46.8328 55.5026 46.8418 56.0318C46.8418 56.4961 46.815 56.5796 46.5746 56.8117C46.3786 56.9974 46.2628 57.0531 46.1738 56.9974C46.1025 56.951 46.0224 56.9139 45.9779 56.9139C45.8977 56.9139 46.1382 57.5174 46.343 57.8423C46.4855 58.0651 46.5033 58.1116 46.53 58.3065C46.53 58.353 46.628 58.3994 46.7349 58.3994C46.8863 58.3994 46.9041 58.4272 46.8239 58.5108C46.6547 58.6872 46.6903 58.7615 47.011 58.91C47.1713 58.9843 47.2069 59.0214 47.0911 58.9936L46.8863 58.9379L47.1268 59.3278C47.3227 59.6342 47.4207 59.7085 47.581 59.6714C47.6878 59.6528 47.7591 59.6621 47.7413 59.7085C47.7146 59.7456 47.768 59.8013 47.8482 59.8199C47.9372 59.8385 47.9016 59.8478 47.7591 59.8385C47.4118 59.8199 47.4919 59.9592 48.0886 60.4234C48.3647 60.6462 48.81 61.1105 49.0683 61.4447C49.3355 61.7882 49.6918 62.2153 49.8788 62.3917C50.0569 62.5681 50.2796 62.8652 50.3597 63.0416C50.4488 63.218 50.6002 63.5244 50.7071 63.7194C50.8139 63.9144 50.8941 64.1836 50.8852 64.3229C50.8763 64.4622 51.0989 65.0842 51.375 65.7063C51.6511 66.3283 51.9183 66.9968 51.9629 67.1918C52.0163 67.3868 52.1766 67.7953 52.328 68.0924C52.6754 68.8073 52.6754 69.1044 52.328 69.3272C52.1855 69.4108 52.0608 69.5501 52.0608 69.6151C52.0608 69.8286 52.7911 71.6855 53.0227 72.0847C53.2364 72.4375 53.2364 72.484 53.1563 73.3474C53.0583 74.3873 52.8891 74.7215 52.3191 75.0186C52.1143 75.13 51.9718 75.2786 51.9718 75.3714C51.9718 75.4643 51.8293 75.6778 51.66 75.8542C51.4463 76.0678 51.3483 76.2535 51.3483 76.4392C51.3483 76.5784 51.3038 76.792 51.2414 76.9034C51.188 77.0148 51.1079 77.3119 51.0722 77.5719C50.9743 78.3332 50.6536 79.3359 50.4221 79.5959C50.235 79.8094 50.2172 79.8651 50.2974 80.3572C50.3419 80.6543 50.3597 80.9421 50.333 80.9978C50.3152 81.0536 50.2885 81.0257 50.2885 80.9329C50.2796 80.8493 50.235 80.775 50.1816 80.775C50.1193 80.775 50.1103 80.84 50.1549 80.9329C50.1905 81.0257 50.235 81.4992 50.2439 81.982C50.2529 82.7155 50.2974 82.9476 50.4844 83.3747C50.618 83.6625 50.8496 84.0153 51.001 84.1639C51.1524 84.3217 51.3661 84.6281 51.4819 84.8602C51.5977 85.0923 51.8293 85.5194 52.0074 85.8258C52.1766 86.1229 52.3904 86.5778 52.4705 86.8378C52.5507 87.0978 52.8 87.5806 53.0049 87.9055C53.2186 88.2305 53.3968 88.5461 53.3968 88.6111C53.3968 88.6761 53.5036 88.8247 53.6283 88.9547C53.753 89.0754 53.9311 89.2982 54.0202 89.456C54.2072 89.7717 54.3586 90.4866 54.225 90.403C54.1716 90.3659 54.1538 90.7373 54.1805 91.3872C54.2161 92.2321 54.2607 92.5106 54.4299 92.8542C54.5546 93.1141 54.6614 93.5876 54.7238 94.1076C54.8396 95.1938 54.9108 95.5467 55.0533 95.7788C55.1246 95.8809 55.1513 95.9923 55.1246 96.0294C55.0444 96.113 55.3918 97.0043 55.7302 97.6078C55.9707 98.0349 56.7455 98.8612 57.0216 98.9912C57.2175 99.0748 57.6094 99.7804 57.9033 100.56C58.3219 101.684 58.4911 102.027 59.0255 102.854C59.266 103.234 59.5243 103.68 59.5955 103.847C59.8538 104.488 59.6935 105.1 59.266 105.1C59.0255 105.1 59.0522 105.379 59.3194 105.648C59.4441 105.769 59.5421 105.908 59.5421 105.955C59.5421 106.001 59.6222 106.168 59.7291 106.317C59.8894 106.558 59.8983 106.632 59.8093 106.92C59.7469 107.097 59.7291 107.301 59.7558 107.375C59.8271 107.579 60.0497 107.542 60.1032 107.329C60.1655 107.078 60.4149 107.097 60.4505 107.347C60.4683 107.514 60.5485 107.57 60.7711 107.589C60.9314 107.607 61.0918 107.681 61.1185 107.756C61.2254 108.053 62.2941 108.313 62.4366 108.071C62.5791 107.83 63.3094 107.617 64.0041 107.617C64.6543 107.617 64.7611 107.589 65.0818 107.366C65.4113 107.124 65.5182 107.106 66.3464 107.078C67.8961 107.041 68.101 107.05 68.6086 107.189C69.045 107.301 69.1252 107.301 69.2499 107.189C69.3479 107.097 69.5794 107.05 69.9 107.05C70.3454 107.05 70.3988 107.032 70.4255 106.837C70.4522 106.651 70.4968 106.632 71.1202 106.623C71.708 106.623 71.8683 106.577 72.4116 106.289C73.2844 105.825 74.2463 105.082 75.0835 104.246C75.4754 103.856 76.0097 103.373 76.268 103.179C76.749 102.816 77.8266 101.387 78.1472 100.69C78.361 100.226 78.7618 99.799 79.4208 99.3254C79.9997 98.9169 80.1333 98.6941 80.2936 97.9049C80.356 97.5985 80.4807 97.1436 80.5786 96.8836C80.6766 96.6329 80.73 96.3544 80.7122 96.2708C80.6855 96.1873 80.6944 95.8345 80.73 95.5002C80.7835 94.9524 80.7746 94.8689 80.6232 94.7668C80.454 94.6553 80.454 94.6368 80.5965 94.349C80.8013 93.9404 81.0863 93.7733 82.3866 93.3184C83.1882 93.0306 83.5889 92.8356 83.8561 92.5849C84.3371 92.1578 84.6933 91.3501 84.3371 91.4893C84.2213 91.5358 84.2035 91.4893 84.2569 91.1551C84.2925 90.9323 84.3727 90.6352 84.4439 90.4866C84.5241 90.3102 84.5419 90.1895 84.4885 90.1524C84.435 90.1245 84.4083 89.8645 84.4172 89.5767C84.435 89.0382 84.3014 88.834 84.2035 89.2425C84.1768 89.3632 84.15 89.2239 84.159 88.9454C84.159 88.6111 84.0966 88.3047 83.9719 88.0634C83.8561 87.822 83.8027 87.5898 83.8294 87.3949C83.865 87.1442 83.8294 87.0421 83.5979 86.8192C83.3396 86.5685 83.3129 86.4943 83.3307 86.0765C83.3485 85.6772 83.3841 85.603 83.5266 85.603C83.6335 85.603 83.9719 85.3151 84.3371 84.9252C84.6933 84.5538 85.0941 84.2196 85.2544 84.1639C85.4414 84.0989 85.7532 83.8111 86.145 83.3283C86.4835 82.9197 86.911 82.4741 87.1069 82.3348C87.5166 82.047 88.6477 81.5456 89.1108 81.4621C89.28 81.4249 89.5205 81.3042 89.6452 81.1928C89.7699 81.0721 90.0371 80.8957 90.2508 80.7843C90.4646 80.6729 90.6605 80.5058 90.6872 80.4222C90.7674 80.2087 91.3641 79.3731 91.5957 79.1595C91.943 78.8346 92.1924 77.5719 91.9252 77.4697C91.854 77.4419 91.8183 77.349 91.845 77.2376C91.8718 77.1448 91.8539 77.0612 91.8094 77.0612C91.7738 77.0612 91.7293 76.6527 91.7204 76.1513C91.7025 75.4829 91.6669 75.26 91.5868 75.2786C91.5244 75.2972 91.5511 75.2229 91.6402 75.1208C91.7649 74.9815 91.7827 74.8979 91.7114 74.8144C91.6669 74.7494 91.5957 74.2944 91.56 73.8116C91.5155 73.1246 91.5333 72.8368 91.6402 72.5118C91.7114 72.2797 91.7382 72.0847 91.6936 72.0662C91.6491 72.0476 91.6402 71.9733 91.6669 71.899C91.7293 71.7226 91.4086 71.3698 90.9188 71.0634C90.705 70.9427 90.5358 70.822 90.5358 70.8128C90.5269 70.5157 90.331 69.6708 90.2508 69.5686C90.1885 69.4851 90.135 69.3737 90.135 69.318C90.1261 69.2622 90.0727 69.1044 90.0014 68.9651C89.9035 68.7516 89.9035 68.6216 90.0014 68.2131C90.0994 67.7674 90.0994 67.6839 89.9569 67.4703C89.8144 67.2382 89.8144 67.2104 89.9925 66.9133C90.0994 66.7369 90.1796 66.5419 90.1796 66.4769C90.1796 66.4119 89.9658 66.1334 89.6986 65.8548C89.4315 65.5763 89.191 65.2513 89.1643 65.1306C89.1286 65.0007 89.2088 64.6478 89.3691 64.23C89.5116 63.8587 89.663 63.4409 89.6897 63.3016C89.7254 63.1623 89.8322 63.0231 89.9302 62.9859C90.046 62.9488 90.2597 62.596 90.5536 61.9646C90.7941 61.4354 91.0346 60.9805 91.0791 60.9526C91.1236 60.9155 91.1593 60.7576 91.1593 60.5998C91.1593 60.2099 91.3641 59.9128 91.6758 59.8478C91.9697 59.7735 92.5664 59.2257 92.513 59.0679C92.4952 59.0029 92.5575 58.9565 92.6466 58.9565C92.8693 58.9565 93.0919 58.6965 93.5283 57.9352C93.9113 57.2667 95.5679 55.3912 96.7524 54.2956C97.2779 53.8128 97.8211 53.4136 98.4179 53.0886C99.2105 52.6616 99.4332 52.4759 100.466 51.3989C101.847 49.9505 102.372 49.347 102.586 48.9199C102.666 48.7435 102.996 48.2143 103.316 47.7408C103.628 47.2766 103.913 46.7845 103.94 46.6545C103.966 46.5245 104.002 46.3295 104.029 46.2088C104.047 46.0974 104.234 45.7446 104.43 45.4197C104.634 45.104 104.866 44.6583 104.955 44.4448C105.044 44.2312 105.187 43.9898 105.267 43.9156C105.356 43.8506 105.57 43.4885 105.739 43.1357C105.908 42.7736 106.122 42.3929 106.22 42.2908C106.318 42.1794 106.425 41.8266 106.487 41.4088C106.549 41.0281 106.656 40.6381 106.727 40.5453C106.897 40.341 107.021 39.3476 106.897 39.2547C106.834 39.2176 106.861 39.0412 106.959 38.7627C107.057 38.5027 107.093 38.2984 107.039 38.2427C106.995 38.1963 106.772 38.1313 106.531 38.1035C106.14 38.0478 106.095 38.0571 105.855 38.3263C105.721 38.4841 105.489 38.642 105.347 38.6698C105.213 38.6977 104.875 38.7905 104.608 38.8741C104.341 38.9576 103.86 39.0319 103.539 39.0319C103.218 39.0412 102.862 39.0969 102.746 39.1712C102.595 39.2547 102.372 39.2826 101.989 39.2362C101.482 39.1805 101.437 39.199 100.849 39.5611L100.235 39.9511L99.7004 39.7933L99.1749 39.6447L98.7029 39.9139C98.4535 40.0625 98.0527 40.2389 97.83 40.2946C97.4649 40.3875 97.358 40.3782 97.0196 40.2203C96.7969 40.1182 96.4852 39.8675 96.316 39.6447C96.1468 39.4312 95.9241 39.1433 95.8172 39.0134C95.648 38.7905 95.5679 38.7627 95.0958 38.7627C94.5169 38.7627 94.5258 38.7255 95.2383 38.3913C95.7727 38.1313 95.844 38.0106 95.7104 37.5835C95.6035 37.2586 95.2205 36.7572 95.1047 36.7758C94.9177 36.8129 94.8108 36.7572 94.8108 36.618C94.8108 36.5344 94.695 36.423 94.5436 36.3673C94.3744 36.3023 94.2675 36.1816 94.2319 36.0145C94.1696 35.7359 93.9113 35.4667 93.4927 35.2438C93.3413 35.1603 93.1097 34.9282 92.9939 34.7332C92.7 34.2504 92.3972 34.0183 91.9519 33.944C91.5511 33.879 91.0702 33.6469 91.0702 33.5262C91.0702 33.4891 90.99 33.3591 90.901 33.2477C90.803 33.127 90.705 32.9877 90.6872 32.932C90.6249 32.7277 90.4289 32.9877 90.4824 33.2291C90.518 33.4427 90.5091 33.4334 90.4022 33.1734C90.331 33.0156 90.2241 32.8484 90.1618 32.802C90.0014 32.6999 89.8233 32.1893 89.6897 31.4279C89.565 30.7223 89.5116 30.5737 89.0485 29.5432C88.8704 29.1439 88.6922 28.8747 88.6121 28.8747C88.5408 28.8747 88.2914 28.689 88.0599 28.4662C87.8283 28.2433 87.5522 28.0391 87.4454 28.0019C87.3385 27.9648 87.2138 27.8163 87.1604 27.6584C87.0357 27.287 86.8575 25.4951 86.911 25.133C86.9288 24.9566 86.9021 24.7895 86.8308 24.7152C86.6616 24.5388 86.6705 24.3624 86.8397 24.511C87.1069 24.7431 87.0713 24.5295 86.7952 24.1953C86.6171 23.991 86.4924 23.7218 86.4568 23.4711C86.4033 23.1462 86.3054 22.9883 85.9046 22.5984C85.6374 22.3384 85.2811 22.0506 85.1297 21.967C84.7735 21.7813 84.3905 21.0479 84.3905 20.5558C84.3905 20.2401 84.4083 20.2215 84.6132 20.2772C84.7379 20.3144 84.8358 20.3144 84.8358 20.2865C84.8358 20.268 84.6488 20.0637 84.4261 19.8502C84.1857 19.618 83.8918 19.2002 83.7314 18.8474C83.5711 18.5132 83.1971 17.8261 82.9032 17.3155C82.6004 16.8048 82.2708 16.1178 82.1639 15.7928C82.0571 15.4679 81.87 15.0594 81.7454 14.8829C81.5494 14.6137 81.5316 14.5487 81.6385 14.4744C81.7364 14.4094 81.6741 14.3073 81.3357 13.9731C81.1041 13.7317 80.8191 13.3789 80.6944 13.1839C80.5786 12.9889 80.4361 12.8032 80.3916 12.7754C80.3382 12.7382 80.3204 12.6547 80.3471 12.5804C80.3738 12.5061 80.3204 12.3019 80.2135 12.1347C80.0086 11.7912 79.973 11.4663 80.1155 11.3734C80.1689 11.3456 80.2046 11.392 80.2046 11.4848C80.2046 11.5777 80.3827 11.9026 80.6054 12.209C80.8458 12.5433 81.0061 12.8589 81.0061 13.0075C81.0061 13.1932 81.1575 13.4067 81.6207 13.8524C81.9502 14.1866 82.3064 14.4744 82.4133 14.5023C82.6716 14.5766 82.921 14.2609 82.9299 13.8431C82.9388 13.5274 83.0279 13.2025 83.4286 12.0883C83.5533 11.7541 83.58 11.5684 83.5177 11.4848C83.4643 11.4291 83.2505 10.9092 83.0279 10.3335L82.6271 9.29368L82.8408 9.08942C82.9566 8.97801 83.0546 8.84803 83.0546 8.80161C83.0546 8.66234 82.8141 8.72733 82.6449 8.9223C82.3154 9.30297 82.0036 9.40509 81.3535 9.3401C80.9705 9.29368 80.739 9.31225 80.6944 9.36796C80.6143 9.51651 80.1511 9.48865 80.0265 9.33082C79.973 9.25654 79.8305 9.17298 79.7325 9.13584C79.6257 9.10799 79.4832 9.02443 79.4119 8.96872C79.2872 8.86659 78.8597 8.82017 77.978 8.82017C77.025 8.82017 76.9093 8.83874 76.9093 9.02443C76.9093 9.15441 76.8558 9.20083 76.7044 9.17298C76.5975 9.1637 76.3838 9.23797 76.2413 9.3401C75.8405 9.63721 75.4219 9.84147 75.2349 9.84147C75.1369 9.84147 74.8875 9.75791 74.6738 9.65578C74.46 9.55365 74.1305 9.47009 73.9524 9.47009C73.7743 9.47009 73.5961 9.42367 73.5694 9.37724C73.5427 9.32154 73.3913 9.28439 73.2488 9.28439C73.1063 9.28439 72.8925 9.2194 72.7857 9.14513C72.6699 9.07085 72.2869 8.96872 71.9307 8.91302C71.5744 8.85731 71.1113 8.77375 70.8975 8.71804C70.6304 8.64376 70.4255 8.64376 70.1761 8.71804C69.6863 8.85731 69.6239 8.84803 69.5527 8.60663C69.428 8.17026 69.2588 8.07741 68.6086 8.07741C68.2702 8.07741 67.905 8.03099 67.7982 7.966C67.6913 7.91029 67.4063 7.81745 67.1569 7.76174C66.765 7.6689 66.7116 7.62247 66.6849 7.39964C66.6582 7.17682 66.5869 7.13039 65.91 6.90756C65.0729 6.63831 64.681 6.63831 63.7191 6.93542C62.9354 7.17681 62.3921 7.50177 62.1516 7.88244C61.9022 8.27239 61.8933 8.6252 62.1249 9.09871C62.3297 9.5258 62.2763 9.75791 61.8933 10.1293C61.4925 10.5192 61.0739 10.7049 60.7533 10.6399C60.6019 10.6028 60.2546 10.4171 59.9785 10.2128C59.3283 9.73934 58.0904 9.31225 57.0661 9.20084C56.5763 9.14513 56.1666 9.05229 56.0241 8.95016C55.7658 8.77375 55.5343 8.36523 55.5343 8.09598C55.5343 7.75245 55.2047 7.45535 54.7594 7.38107C54.5279 7.34394 54.1983 7.24181 54.0202 7.14896C53.851 7.0654 53.5125 6.95399 53.2632 6.91685C53.0227 6.87971 52.7466 6.81472 52.6575 6.75901C52.5507 6.7033 52.2924 6.7033 51.8916 6.78687C51.3038 6.88899 51.2593 6.889 50.7872 6.6476C50.2172 6.36906 49.9679 6.34121 49.8521 6.56404C49.7274 6.77758 49.478 6.6476 49.478 6.35978C49.478 6.1091 49.2019 5.91413 49.1396 6.1091C49.095 6.25765 48.8457 6.24837 48.8724 6.1091C48.8902 6.04411 48.8011 5.97912 48.6764 5.96055C48.1866 5.89556 47.8214 5.55203 47.9194 5.26421C47.9461 5.19921 48.1064 5.06923 48.2757 4.98567C48.4449 4.90211 48.6854 4.74428 48.81 4.62358C49.1396 4.33576 49.5849 3.63942 49.4869 3.58372C49.4513 3.55586 49.3889 3.40731 49.3622 3.25876C49.3177 3.0545 49.2108 2.92452 48.9436 2.78525C48.6497 2.62741 48.5874 2.55313 48.5874 2.32102C48.5874 2.16319 48.623 2.04249 48.6675 2.04249C48.8724 2.04249 49.2999 1.54112 49.3533 1.24402C49.38 1.06761 49.3889 0.891211 49.3533 0.863358C49.3266 0.835504 49.1485 0.909781 48.9704 1.03976C48.4983 1.35544 48.3202 1.42042 48.3202 1.24402C48.3202 1.16974 48.2579 1.08619 48.1777 1.04905C48.0797 1.01191 48.0708 0.974767 48.1421 0.928345C48.3291 0.807646 48.1332 0.631243 47.866 0.668381C47.7235 0.696234 47.6255 0.668386 47.6344 0.612679C47.6611 0.49198 47.3583 0.454839 47.0733 0.547684ZM10.8071 35.903C10.718 35.9216 10.5755 35.9216 10.4953 35.903C10.4063 35.8752 10.4775 35.8566 10.6468 35.8566C10.816 35.8566 10.8872 35.8752 10.8071 35.903ZM11.9827 38.252C11.9827 38.2984 11.9025 38.3449 11.7957 38.3449C11.6977 38.3449 11.6443 38.2984 11.671 38.252C11.6977 38.1963 11.7868 38.1592 11.858 38.1592C11.9293 38.1592 11.9827 38.1963 11.9827 38.252Z" fill="#C6C6C6"/>
<path d="M13.1672 12.664C12.9534 12.8497 12.9445 12.9054 13.0425 13.0354C13.2028 13.2304 13.2473 13.2211 13.5323 12.9518C13.9954 12.4969 13.657 12.2276 13.1672 12.664Z" fill="#C6C6C6"/>
<path d="M7.0301 13.1374C6.95885 13.3138 7.23494 13.7688 7.37744 13.7131C7.48432 13.6759 7.62682 13.1282 7.54666 13.0446C7.44869 12.9425 7.07463 13.0075 7.0301 13.1374Z" fill="#C6C6C6"/>
<path d="M12.6418 13.4811C12.5616 13.6482 12.3924 13.8989 12.2677 14.0381L12.0361 14.2981H12.2855C12.6774 14.2981 13.0425 14.0474 13.1227 13.7132C13.1672 13.5553 13.185 13.3604 13.1583 13.2954C13.0871 13.0725 12.7932 13.184 12.6418 13.4811Z" fill="#C6C6C6"/>
<path d="M9.35469 13.4995C9.25672 13.5645 9.04297 13.6573 8.89156 13.6945C8.73125 13.7223 8.59766 13.778 8.59766 13.8059C8.59766 13.973 8.98063 14.4651 9.07859 14.4279C9.26563 14.3537 9.86234 13.5645 9.8 13.4624C9.71984 13.3324 9.55953 13.3509 9.35469 13.4995Z" fill="#C6C6C6"/>
<path d="M8.06375 14.0659C7.93015 14.233 8.01921 14.3909 8.24187 14.3909C8.33093 14.3909 8.43781 14.3444 8.46453 14.298C8.52687 14.1959 8.35765 13.9266 8.24187 13.9266C8.20625 13.9266 8.12609 13.9916 8.06375 14.0659Z" fill="#C6C6C6"/>
<path d="M10.3084 14.1309C10.0145 14.4373 10.3618 14.9758 10.727 14.7716C10.9408 14.6509 10.9942 14.4837 10.9051 14.2238C10.825 14.001 10.4865 13.9452 10.3084 14.1309Z" fill="#C6C6C6"/>
<path d="M6.91444 14.5859C6.74522 14.6602 6.72741 14.6973 6.81647 14.8088C6.96788 15.0037 7.19944 14.9852 7.32413 14.7716C7.41319 14.6231 7.40429 14.5859 7.29741 14.5395C7.21725 14.5117 7.15491 14.4838 7.146 14.4931C7.1371 14.4931 7.03022 14.5395 6.91444 14.5859Z" fill="#C6C6C6"/>
<path d="M82.0742 14.8365C82.0742 14.8829 82.1366 14.9572 82.2167 14.9851C82.3058 15.0222 82.3414 14.9944 82.3236 14.9294C82.2791 14.7901 82.0742 14.7158 82.0742 14.8365Z" fill="#C6C6C6"/>
<path d="M0.163755 30.6945C0.065786 30.7409 -0.00546402 31.103 0.0835985 31.103C0.252817 31.103 0.671411 30.8709 0.644692 30.7874C0.609067 30.6759 0.332973 30.6202 0.163755 30.6945Z" fill="#C6C6C6"/>
<path d="M0.520142 31.075C0.342017 31.1493 0.386548 31.2886 0.582486 31.2886C0.680454 31.2886 0.760611 31.2236 0.760611 31.1493C0.760611 31.01 0.707173 30.9915 0.520142 31.075Z" fill="#C6C6C6"/>
<path d="M3.39648 31.0843C3.32523 31.205 3.48554 31.5671 3.61023 31.5671C3.73492 31.5671 3.71711 31.3536 3.58351 31.1493C3.49445 31.0379 3.44101 31.0194 3.39648 31.0843Z" fill="#C6C6C6"/>
<path d="M0.89439 31.2887C0.867671 31.3352 0.885483 31.3816 0.930015 31.3816C0.983452 31.3816 1.02798 31.3352 1.02798 31.2887C1.02798 31.233 1.01017 31.1959 0.992358 31.1959C0.96564 31.1959 0.921108 31.233 0.89439 31.2887Z" fill="#C6C6C6"/>
<path d="M1.44619 31.4371C1.3215 31.5671 1.49963 31.7157 1.74009 31.6785C2.06072 31.6321 2.08744 31.5207 1.81134 31.4371C1.55306 31.3721 1.51744 31.3721 1.44619 31.4371Z" fill="#C6C6C6"/>
<path d="M90.7141 32.0127C90.7141 32.0684 90.7586 32.1241 90.812 32.1427C90.8833 32.1706 90.8655 32.2356 90.7675 32.3377C90.6784 32.4212 90.6517 32.4955 90.7052 32.4955C90.7586 32.4955 90.7764 32.5605 90.7497 32.6348C90.6784 32.8112 90.8387 32.8112 90.9812 32.6348C91.0347 32.5605 91.0525 32.4491 91.0169 32.3841C90.9723 32.3191 90.9367 32.2077 90.9367 32.1334C90.9367 31.9849 90.7141 31.8735 90.7141 32.0127Z" fill="#C6C6C6"/>
<path d="M3.48563 32.18C3.37875 32.4771 3.67266 32.6163 3.86859 32.3657C3.95766 32.2542 3.93984 32.2078 3.79734 32.1335C3.56578 32.0036 3.54797 32.0036 3.48563 32.18Z" fill="#C6C6C6"/>
<path d="M91.2036 32.5885C91.1324 32.7092 91.1947 32.8114 91.3283 32.7649C91.3818 32.7371 91.3907 32.6721 91.3461 32.5978C91.2927 32.505 91.2571 32.505 91.2036 32.5885Z" fill="#C6C6C6"/>
<path d="M3.07617 33.6097C3.07617 33.7118 3.1207 33.7954 3.16523 33.7954C3.21867 33.7954 3.2543 33.7118 3.2543 33.6097C3.2543 33.5076 3.21867 33.424 3.16523 33.424C3.1207 33.424 3.07617 33.5076 3.07617 33.6097Z" fill="#C6C6C6"/>
<path d="M2.3366 33.5818C2.12285 33.7954 2.4791 34.2503 2.77301 34.1296C2.94223 34.0646 2.93332 33.9254 2.71957 33.7025C2.53254 33.5076 2.43457 33.4797 2.3366 33.5818Z" fill="#C6C6C6"/>
<path d="M94.6769 35.0025C94.6145 35.1139 94.6947 35.281 94.8194 35.281C94.9263 35.281 94.9263 35.0303 94.8194 34.956C94.7749 34.9282 94.7125 34.9468 94.6769 35.0025Z" fill="#C6C6C6"/>
<path d="M94.543 35.5595C94.543 35.6059 94.5786 35.6523 94.6231 35.6523C94.6766 35.6523 94.7389 35.6059 94.7656 35.5595C94.7923 35.5038 94.7567 35.4667 94.6855 35.4667C94.6053 35.4667 94.543 35.5038 94.543 35.5595Z" fill="#C6C6C6"/>
<path d="M110.04 37.0915C109.96 37.1844 109.987 37.2679 110.12 37.4072C110.361 37.6579 110.851 37.6579 111.376 37.4072C111.75 37.2308 111.759 37.2122 111.599 37.1101C111.332 36.9523 110.165 36.943 110.04 37.0915Z" fill="#C6C6C6"/>
<path d="M108.17 37.6856C108.17 37.7785 108.615 37.9178 108.686 37.8342C108.758 37.7692 108.695 37.7321 108.419 37.6578C108.277 37.6299 108.17 37.6392 108.17 37.6856Z" fill="#C6C6C6"/>
<path d="M109.506 37.7878C109.506 37.8342 109.55 37.8806 109.595 37.8806C109.648 37.8806 109.684 37.8342 109.684 37.7878C109.684 37.7321 109.648 37.6949 109.595 37.6949C109.55 37.6949 109.506 37.7321 109.506 37.7878Z" fill="#C6C6C6"/>
<path d="M9.96912 38.8277C9.92458 38.902 9.9513 38.9113 10.0493 38.8741C10.1383 38.837 10.2007 38.8556 10.2007 38.9113C10.2007 38.967 10.2541 38.9948 10.3254 38.967C10.3877 38.9391 10.4946 38.967 10.548 39.0227C10.6282 39.1063 10.6727 39.097 10.7351 38.9948C10.8597 38.7999 10.8419 38.7163 10.6905 38.7163C10.6193 38.7163 10.5569 38.7534 10.5569 38.8092C10.5569 38.8649 10.4768 38.8649 10.3254 38.8092C10.0404 38.6977 10.0493 38.6977 9.96912 38.8277Z" fill="#C6C6C6"/>
<path d="M10.9579 38.902C10.9312 38.9485 10.9401 38.9949 10.9936 38.9949C11.0381 38.9949 11.1094 38.9485 11.1361 38.902C11.1628 38.8463 11.1539 38.8092 11.1004 38.8092C11.0559 38.8092 10.9847 38.8463 10.9579 38.902Z" fill="#C6C6C6"/>
<path d="M10.246 39.1806C10.2192 39.227 10.237 39.2734 10.2816 39.2734C10.335 39.2734 10.3795 39.227 10.3795 39.1806C10.3795 39.1249 10.3617 39.0877 10.3439 39.0877C10.3172 39.0877 10.2727 39.1249 10.246 39.1806Z" fill="#C6C6C6"/>
<path d="M11.0027 39.1712C11.0027 39.2269 10.9493 39.2455 10.8958 39.2269C10.7177 39.1619 10.5485 39.3197 10.6108 39.4868C10.6732 39.654 10.8246 39.7004 10.8246 39.5518C10.8246 39.4961 10.7801 39.459 10.7266 39.459C10.6821 39.459 10.6643 39.4126 10.691 39.3661C10.7355 39.2919 10.789 39.2919 10.8691 39.3661C10.9493 39.4311 11.0116 39.4219 11.0829 39.329C11.1541 39.2362 11.163 39.1805 11.0918 39.134C11.0473 39.1062 11.0027 39.1155 11.0027 39.1712Z" fill="#C6C6C6"/>
<path d="M10.2186 39.4775C10.2632 39.6168 10.468 39.6446 10.4769 39.5054C10.4769 39.4497 10.4146 39.3939 10.3255 39.3847C10.2365 39.3568 10.1919 39.3939 10.2186 39.4775Z" fill="#C6C6C6"/>
<path d="M46.1196 50.2939C46.0572 50.3218 46.0038 50.3868 46.0038 50.4518C46.0038 50.5261 45.9147 50.6932 45.8079 50.8324C45.6208 51.0831 45.6208 51.0924 45.7811 51.2131C46.0483 51.4174 46.1641 51.3709 46.3601 50.981C46.5916 50.5075 46.4669 50.164 46.1196 50.2939Z" fill="#C6C6C6"/>
<path d="M44.1695 53.5808C44.1428 53.6365 44.1606 53.7293 44.214 53.785C44.2853 53.8593 44.312 53.8315 44.312 53.6829C44.312 53.4601 44.2675 53.4229 44.1695 53.5808Z" fill="#C6C6C6"/>
<path d="M90.3213 63.6637C90.3302 63.9144 90.3658 64.1001 90.3925 64.0815C90.4192 64.0722 90.4816 64.0629 90.5261 64.0629C90.6419 64.0629 90.7042 63.478 90.6063 63.3387C90.4103 63.0973 90.3034 63.2273 90.3213 63.6637Z" fill="#C6C6C6"/>
<path d="M89.6804 64.6572C89.6092 64.8522 89.6804 65.4092 89.7695 65.3814C89.814 65.3628 89.8853 65.4092 89.9298 65.4928C89.9744 65.5764 90.0456 65.6414 90.0812 65.6414C90.2326 65.6414 90.2683 65.335 90.1525 65.1864C90.0812 65.1029 90.0011 64.9265 89.9654 64.7779C89.9031 64.5086 89.7606 64.4437 89.6804 64.6572Z" fill="#C6C6C6"/>
<path d="M90.4291 67.6281C90.2866 67.7395 90.1797 67.8602 90.1797 67.8973C90.1797 68.0273 90.4202 67.9623 90.5716 67.7859C90.812 67.5074 90.7052 67.396 90.4291 67.6281Z" fill="#C6C6C6"/>
<path d="M100.065 70.4692C100.065 70.5156 100.11 70.562 100.154 70.562C100.208 70.562 100.244 70.5156 100.244 70.4692C100.244 70.4135 100.208 70.3763 100.154 70.3763C100.11 70.3763 100.065 70.4135 100.065 70.4692Z" fill="#C6C6C6"/>
<path d="M95.3985 73.0317C95.3006 73.2917 95.3451 73.5052 95.5232 73.6723C95.7993 73.9323 95.924 73.7466 95.7815 73.2638C95.6746 72.8739 95.4965 72.7717 95.3985 73.0317Z" fill="#C6C6C6"/>
<path d="M103.921 73.9695C103.832 74.248 103.61 74.4616 103.423 74.4616C103.253 74.4616 103.253 74.4709 103.387 74.6287C103.476 74.7215 103.538 74.8979 103.538 75.0279C103.538 75.3622 103.253 75.8728 103.031 75.9564C102.853 76.0214 102.826 76.0028 102.826 75.8078C102.826 75.6778 102.781 75.5757 102.737 75.5757C102.594 75.5757 102.505 75.8821 102.63 75.9285C102.755 75.9657 102.772 76.2813 102.657 76.3649C102.612 76.3927 102.55 76.3278 102.514 76.2256C102.487 76.1235 102.425 76.0399 102.381 76.0399C102.238 76.0399 102.006 76.4856 102.078 76.6156C102.122 76.6806 102.158 76.8477 102.167 76.987C102.176 77.1819 102.14 77.2469 102.015 77.2469C101.802 77.2469 101.73 77.3862 101.828 77.5904C101.926 77.7761 101.721 78.064 101.623 77.8968C101.526 77.7297 101.41 77.804 101.169 78.1754C101 78.4353 100.956 78.6117 100.991 78.7789C101.027 78.9088 101.009 79.011 100.956 79.011C100.911 79.011 100.866 78.9367 100.866 78.8439C100.866 78.5839 100.777 78.5375 100.519 78.6767C100.145 78.881 99.86 79.2524 99.9135 79.4752C99.9402 79.5773 99.9224 79.6423 99.8779 79.6052C99.8333 79.5773 99.7977 79.4938 99.7977 79.4195C99.7977 79.3174 99.7621 79.3081 99.6285 79.3824C99.5305 79.4288 99.3524 79.4752 99.2277 79.4752C99.103 79.4752 98.9694 79.5309 98.9338 79.5959C98.8358 79.763 98.4796 79.8559 98.435 79.7259C98.4172 79.6609 98.3015 79.698 98.15 79.828C97.9986 79.958 97.776 80.0323 97.58 80.0323C97.1704 80.0323 97.0368 80.1623 97.0368 80.5893C97.0368 80.8122 96.9388 81.0536 96.725 81.3692C96.4133 81.8335 96.4133 81.8335 96.4668 82.5762C96.5024 83.0126 96.6004 83.4768 96.6894 83.6718C96.7874 83.8668 96.8586 84.136 96.8586 84.2753C96.8586 84.4146 96.921 84.6188 97.0011 84.7209C97.0902 84.8509 97.1169 85.0088 97.0813 85.2409C97.0457 85.4358 97.0635 85.6123 97.1169 85.6401C97.1704 85.6772 97.1169 85.8351 96.9833 86.0393C96.8675 86.225 96.636 86.6521 96.4757 86.9956C96.3243 87.3392 96.1194 87.6548 96.0215 87.7013C95.9324 87.7477 95.7543 88.0355 95.6385 88.3419C95.3268 89.1218 95.3713 89.7439 95.8166 90.4773C96.0838 90.9137 96.1194 91.053 96.0393 91.2015C95.8879 91.4986 95.9947 92.3528 96.2174 92.5942C96.3243 92.7149 96.4133 92.8634 96.4133 92.9284C96.4133 93.1234 97.1258 93.7733 97.3307 93.7733C97.4375 93.7733 97.7136 93.8755 97.9452 94.0054C98.1768 94.1354 98.4172 94.2375 98.4796 94.2375C98.5508 94.2375 98.8804 94.0983 99.2188 93.9312C99.5661 93.7548 100.038 93.5876 100.279 93.5598C100.893 93.4669 101.089 93.2998 101.267 92.7335C101.356 92.4642 101.499 92.0835 101.588 91.8979C101.686 91.7029 101.873 91.0344 102.015 90.4123C102.158 89.781 102.407 88.9732 102.559 88.6204C102.71 88.2583 102.897 87.7105 102.968 87.3856C103.04 87.0606 103.182 86.5871 103.28 86.3179C103.387 86.0486 103.708 85.1109 103.993 84.2381C104.438 82.8826 104.518 82.5391 104.518 81.9913C104.518 81.4621 104.545 81.3228 104.687 81.2207C104.776 81.1557 104.901 80.9236 104.963 80.71C105.061 80.3665 105.061 80.2829 104.928 80.0787C104.848 79.9487 104.803 79.8002 104.83 79.7537C104.856 79.7073 104.83 79.5866 104.776 79.4938C104.669 79.3081 104.714 79.011 104.856 79.011C104.901 79.011 104.999 79.1781 105.079 79.3824C105.231 79.7816 105.471 79.9487 105.596 79.7444C105.64 79.6702 105.738 79.4102 105.818 79.1688C105.961 78.7232 105.961 78.7232 105.72 78.3611C105.542 78.1011 105.489 77.9154 105.507 77.6462C105.524 77.4512 105.507 77.2376 105.471 77.1819C105.435 77.1169 105.426 76.9684 105.453 76.8477C105.489 76.6991 105.444 76.4763 105.328 76.2442C105.222 76.0306 105.141 75.7428 105.141 75.585C105.141 75.4179 105.043 75.2136 104.874 75.0186C104.732 74.8515 104.607 74.6658 104.607 74.6008C104.607 74.5266 104.536 74.4151 104.438 74.3502C104.349 74.2852 104.26 74.1459 104.242 74.0531C104.197 73.8117 104.001 73.7559 103.921 73.9695Z" fill="#C6C6C6"/>
<path d="M97.064 73.9787C96.8057 74.0158 96.8057 74.1365 97.0551 74.3129C97.2955 74.4893 97.4648 74.3686 97.3401 74.1179C97.2866 74.0065 97.1887 73.9601 97.064 73.9787Z" fill="#C6C6C6"/>
<path d="M95.9688 74.2758C95.9688 74.3965 96.2181 74.5079 96.3072 74.4243C96.3339 74.3872 96.3072 74.3222 96.2359 74.2758C96.0578 74.1551 95.9688 74.1644 95.9688 74.2758Z" fill="#C6C6C6"/>
<path d="M98.043 75.065C98.043 75.2043 98.0875 75.2971 98.1587 75.2971C98.23 75.2971 98.2834 75.2321 98.2834 75.1579C98.2834 75.0836 98.3369 75.0186 98.3992 75.0186C98.4705 75.0186 98.4616 74.9814 98.3725 74.9257C98.1498 74.7772 98.043 74.8236 98.043 75.065Z" fill="#C6C6C6"/>
<path d="M105.017 81.0443C104.928 81.1464 104.874 81.3043 104.892 81.3971C104.919 81.5271 104.963 81.4992 105.088 81.2578C105.266 80.8865 105.239 80.7936 105.017 81.0443Z" fill="#C6C6C6"/>
<path d="M94.6766 81.425C94.7033 81.4714 94.7479 81.5178 94.7746 81.5178C94.7924 81.5178 94.8102 81.4714 94.8102 81.425C94.8102 81.3693 94.7657 81.3321 94.7122 81.3321C94.6677 81.3321 94.6499 81.3693 94.6766 81.425Z" fill="#C6C6C6"/>
<path d="M84.2119 88.2955C84.2119 88.3976 84.2564 88.4812 84.301 88.4812C84.3544 88.4812 84.39 88.3976 84.39 88.2955C84.39 88.1934 84.3544 88.1098 84.301 88.1098C84.2564 88.1098 84.2119 88.1934 84.2119 88.2955Z" fill="#C6C6C6"/>
</svg>
