<svg width="50" height="93" viewBox="0 0 50 93" fill="none" xmlns="http://www.w3.org/2000/svg">
<g filter="url(#filter0_d_601_68)">
<path d="M27.6504 86.29V23.29" stroke="#A3A3A3" stroke-width="0.75" stroke-linecap="square" stroke-linejoin="round"/>
</g>
<g filter="url(#filter1_d_601_68)">
<path d="M43.3294 30.4058C47.0067 21.4797 42.7516 11.2626 33.8255 7.58534C24.8993 3.90807 14.6822 8.1631 11.005 17.0893C7.32769 26.0154 11.5828 36.2325 20.5089 39.9098C29.4351 43.587 39.6521 39.332 43.3294 30.4058Z" fill="white"/>
</g>
<path style="mix-blend-mode:multiply" d="M27.6352 39.2577C36.2086 39.0093 42.9573 31.8577 42.7088 23.2844C42.4604 14.711 35.3088 7.9623 26.7354 8.21076C18.162 8.45923 11.4133 15.6107 11.6618 24.1841C11.9103 32.7575 19.0618 39.5062 27.6352 39.2577Z" fill="url(#paint0_linear_601_68)"/>
<path d="M27.1805 10.1499C34.7005 10.1499 40.8005 16.2499 40.8005 23.7699C40.8005 31.2899 34.7005 37.3899 27.1805 37.3899C19.6605 37.3899 13.5605 31.2899 13.5605 23.7699C13.5605 16.2499 19.6605 10.1499 27.1805 10.1499Z" fill="#32D2A0"/>
<path d="M28.6958 88.437C29.3363 87.7965 29.3363 86.7581 28.6958 86.1177C28.0553 85.4772 27.0169 85.4772 26.3765 86.1177C25.736 86.7581 25.736 87.7965 26.3765 88.437C27.0169 89.0774 28.0554 89.0774 28.6958 88.437Z" fill="#A3A3A3"/>
<path d="M25.5898 23.5205L20.7998 20.3205L23.0798 19.2305L27.6099 20.4305L27.3098 21.5505L23.1898 20.4605L23.1298 20.4905L26.2299 22.5605L25.5898 23.5205Z" fill="white"/>
<path d="M26.1194 31.7103L26.6394 26.2503L24.7994 27.1203L24.2994 26.0803L27.9695 24.3303L27.4495 29.7903L28.2494 29.4103L31.2494 22.7703L34.5695 21.1903C34.8195 21.0703 34.8594 20.8203 34.8694 20.7103C34.8894 20.4503 34.7795 20.2003 34.5895 20.0703C34.2995 19.8703 33.8194 19.9103 33.2494 20.1803L22.7694 25.1603L20.4795 23.4903L21.0995 24.7903L20.0594 25.2903L18.9395 22.9403L20.5995 22.1503L22.8994 23.8303L32.7594 19.1403C34.0594 18.5203 34.8794 18.8603 35.2494 19.1203C35.7794 19.4903 36.0794 20.1302 36.0294 20.8102C35.9794 21.4502 35.6195 21.9803 35.0695 22.2403L32.1294 23.6403L29.1294 30.2803L26.1095 31.7103H26.1194Z" fill="white"/>
<path d="M35.0698 22.24L34.5698 21.2C34.8198 21.08 34.8598 20.83 34.8698 20.72C34.8898 20.46 34.7798 20.21 34.5898 20.08C34.2998 19.88 33.8198 19.92 33.2498 20.19L29.2998 22.07L28.7998 21.03L32.7498 19.15C34.0498 18.53 34.8699 18.87 35.2399 19.13C35.7699 19.5 36.0698 20.14 36.0198 20.82C35.9698 21.46 35.6098 21.99 35.0598 22.25L35.0698 22.24Z" fill="white"/>
<path d="M21.6395 28.6303L20.3096 25.8403L21.3496 25.3403L22.1796 27.0903L23.7896 26.3203L24.2896 27.3703L21.6395 28.6303Z" fill="#009393"/>
<defs>
<filter id="filter0_d_601_68" x="25.2754" y="20.915" width="8.75" height="71.75" filterUnits="userSpaceOnUse" color-interpolation-filters="sRGB">
<feFlood flood-opacity="0" result="BackgroundImageFix"/>
<feColorMatrix in="SourceAlpha" type="matrix" values="0 0 0 0 0 0 0 0 0 0 0 0 0 0 0 0 0 0 127 0" result="hardAlpha"/>
<feOffset dx="2" dy="2"/>
<feGaussianBlur stdDeviation="2"/>
<feColorMatrix type="matrix" values="0 0 0 0 0.717647 0 0 0 0 0.345098 0 0 0 0 0.345098 0 0 0 0.2 0"/>
<feBlend mode="normal" in2="BackgroundImageFix" result="effect1_dropShadow_601_68"/>
<feBlend mode="normal" in="SourceGraphic" in2="effect1_dropShadow_601_68" result="shape"/>
</filter>
<filter id="filter1_d_601_68" x="0.682617" y="3.26318" width="48.9688" height="48.9688" filterUnits="userSpaceOnUse" color-interpolation-filters="sRGB">
<feFlood flood-opacity="0" result="BackgroundImageFix"/>
<feColorMatrix in="SourceAlpha" type="matrix" values="0 0 0 0 0 0 0 0 0 0 0 0 0 0 0 0 0 0 127 0" result="hardAlpha"/>
<feOffset dx="-2" dy="4"/>
<feGaussianBlur stdDeviation="3.5"/>
<feComposite in2="hardAlpha" operator="out"/>
<feColorMatrix type="matrix" values="0 0 0 0 0.203922 0 0 0 0 0.823529 0 0 0 0 0.631373 0 0 0 1 0"/>
<feBlend mode="normal" in2="BackgroundImageFix" result="effect1_dropShadow_601_68"/>
<feBlend mode="normal" in="SourceGraphic" in2="effect1_dropShadow_601_68" result="shape"/>
</filter>
<linearGradient id="paint0_linear_601_68" x1="74.2535" y1="-13.8938" x2="-2.55654" y2="47.5463" gradientUnits="userSpaceOnUse">
<stop stop-color="#9E9E9E"/>
<stop offset="0.03" stop-color="#A1A1A1" stop-opacity="0.96"/>
<stop offset="0.37" stop-color="#C9C9C9" stop-opacity="0.55"/>
<stop offset="0.66" stop-color="#E6E6E6" stop-opacity="0.25"/>
<stop offset="0.88" stop-color="#F8F8F8" stop-opacity="0.07"/>
<stop offset="1" stop-color="white" stop-opacity="0"/>
</linearGradient>
</defs>
</svg>
