<?xml version="1.0" encoding="utf-8"?>
<!-- Generator: Adobe Illustrator 23.0.4, SVG Export Plug-In . SVG Version: 6.00 Build 0)  -->
<svg version="1.1" id="Layer_1" xmlns="http://www.w3.org/2000/svg" xmlns:xlink="http://www.w3.org/1999/xlink" x="0px" y="0px"
	 viewBox="0 0 1000 1000" style="enable-background:new 0 0 1000 1000;" xml:space="preserve">
<style type="text/css">
	.st0{fill:#06A7E0;}
	.st1{fill:#2574BB;}
	.st2{fill:#55575A;}
</style>
<g>
	<polygon class="st0" points="172.5,364.5 172.5,436.3 100.7,436.3 166.8,364.5 	"/>
	<polygon class="st1" points="100.7,508.1 100.7,436.3 172.5,436.3 106.5,508.1 	"/>
	<g>
		<path class="st2" d="M229.2,539.1c-5.2,0-8.9,3.7-8.9,8.9c0,5.2,4.2,8.9,8.9,8.9c5.2,0,8.9-3.7,8.9-8.9
			C238.6,543.3,234.4,539.1,229.2,539.1"/>
	</g>
	<g>
		<path class="st2" d="M589.8,539.1c-5.2,0-8.9,3.7-8.9,8.9c0,5.2,4.2,8.9,8.9,8.9c5.2,0,8.9-3.7,8.9-8.9
			C598.8,543.3,594.6,539.1,589.8,539.1"/>
	</g>
	<g>
		<path class="st2" d="M737.2,602c-7.9,0-13.6-5.8-13.6-14.2s5.8-13.6,13.6-13.6c7.9,0,13.6,5.2,13.6,13.6
			C750.8,596.2,745,602,737.2,602 M737.2,561.6c-16.8,0-27.8,10.5-27.8,26.2c0,15.7,11,26.7,27.8,26.7c16.3,0,27.3-10.5,27.3-26.7
			C764.4,572.1,753.4,561.6,737.2,561.6"/>
	</g>
	<g>
		<path class="st2" d="M344.5,574.7V602c-3.1,0.5-6.8,0.5-11.5,0.5c-9.4,0-12.6-6.3-12.6-14.2c0-7.9,3.7-14.2,12.6-14.2
			C337.7,574.2,341.4,574.2,344.5,574.7 M306.2,587.8c0.5,16.3,8.9,26.2,24.6,26.2c10.5,0,16.3-1,27.8-2.1v-47.2
			c-11.5-1.6-17.3-2.1-27.8-2.1C315.1,562.1,306.8,572.6,306.2,587.8"/>
	</g>
	<g>
		<path class="st2" d="M555.8,574.7V602c-3.1,0.5-6.8,0.5-11.5,0.5c-9.4,0-12.6-6.3-12.6-14.2c0-7.9,3.7-14.2,12.6-14.2
			C549,574.2,552.6,574.2,555.8,574.7 M517.5,587.8c0.5,16.3,8.9,26.2,24.6,26.2c10.5,0,16.3-1,27.8-2.1v-47.2
			c-11.5-1.6-17.3-2.1-27.8-2.1C526.4,562.1,518,572.6,517.5,587.8"/>
	</g>
	<g>
		<path class="st2" d="M280.5,495.6h-35.6v-16.8l22.5-6.3c4.7-1,8.9-1.6,12.6-1.6c8.9,0,14.2,4.7,14.2,12.1
			C293.7,490.3,288.4,495.6,280.5,495.6 M280,457.8c-5.2,0-11.5,1-15.7,2.6l-19.4,5.8v-8.4H237l-6.3,6.8v35.1
			c0,12.1-6.8,18.9-18.3,18.9c-11.5,0-17.8-6.8-17.8-19.9c0-4.2,0.5-9.4,2.1-15.2l0.5-3.1l-6.8-1.6l-8.4,5.8
			c-1,4.7-1.6,9.4-1.6,14.7c0,19.4,13.1,32.5,32,32.5c4.2,0,8.4-0.5,12.6-2.1c10-3.1,16.8-11.5,18.9-21.5h0.5H280
			c16.3,0,27.3-10.5,27.3-25.7C307.8,468.3,296.8,457.8,280,457.8"/>
	</g>
	<g>
		<path class="st2" d="M372.3,524.4c0-4.7-3.7-8.4-8.4-8.4s-8.4,3.7-8.4,8.4s3.7,8.4,8.4,8.4S372.3,529.1,372.3,524.4"/>
	</g>
	<g>
		<path class="st2" d="M336.1,524.4c0,4.7,3.7,8.4,8.4,8.4s8.4-3.7,8.4-8.4s-3.7-8.4-8.4-8.4S336.1,519.7,336.1,524.4"/>
	</g>
	<g>
		<path class="st2" d="M259,456.2c4.7,0,8.4-3.7,8.4-8.4s-3.7-8.4-8.4-8.4c-4.7,0-8.4,3.7-8.4,8.4
			C250.1,452.6,254.3,456.2,259,456.2"/>
	</g>
	<g>
		<path class="st2" d="M886.6,495.6h-11c-11,0-12.6-7.3-12.6-11.5v-1c0-4.2,1.6-11.5,11.5-11.5c10,0.5,11.5,7.3,11.5,11.5v12.6
			L886.6,495.6z M784.9,495.6h-35.6v-16.8l22.5-6.3c4.7-1,8.9-1.6,12.6-1.6c8.9,0,14.2,4.7,14.2,12.1S793.3,495.6,784.9,495.6
			 M875,457.8C874.5,457.8,874.5,457.8,875,457.8c-15.2,0-25.7,9.4-26.2,23.6v1c0,4.7-1.6,13.1-12.6,13.1h-12.1
			c-10.5,0-12.6-8.4-12.6-13.1c0-15.2-11-24.1-27.8-24.1c-5.2,0-11.5,1-15.7,2.6l-19.4,5.8v-29.9h-7.9l-6.3,6.8v52.4h-28.8
			c-11,0-12.1-7.9-12.1-12.6v-46.7h-7.9l-6.3,6.8V484c0,15.2,10.5,25.2,25.7,25.2h79.7c8.4,0,15.2-2.6,19.9-7.3
			c4.7,4.7,11,7.3,18.9,7.3h13.6c7.9,0,14.2-2.6,18.3-6.8c4.7,4.2,11,6.8,18.9,6.8c13.1,0,25.7-3.1,25.7-3.1v-23.6
			C900.2,467.8,890.2,458.3,875,457.8"/>
	</g>
	<polygon class="st2" points="636.5,436.3 628.6,436.3 622.4,443.1 622.4,508.7 636.5,508.7 	"/>
	<g>
		<path class="st2" d="M456.7,481.9v-45.6h-7.9l-6.3,6.8v38.8c0,5.2-1.6,13.6-12.6,13.6h-5.8c-10.5,0-12.6-8.9-12.6-14.2v-23.1h-7.9
			l-6.3,6.8v43c0,1,0,2.1-0.5,3.1c-1.6,4.2-6.3,6.3-11,7.3l-4.2,1l1.6,6.8l8.9,5.2c11-2.6,17.8-11,19.4-22.5v-3.7
			c3.7,1.6,7.3,2.6,12.1,2.6h7.3C446.2,508.7,456.7,498.2,456.7,481.9"/>
	</g>
	<g>
		<path class="st2" d="M666.9,505.5v-47.2H659l-6.3,6.8v43c0,1,0,2.1-0.5,3.1c-1.6,4.2-6.3,6.3-11,7.3l-4.2,1l1.6,6.8l8.9,5.2
			C659.6,529.1,666.9,519.1,666.9,505.5"/>
	</g>
	<g>
		<path class="st2" d="M574.1,466.7c4.7,0,8.4-3.7,8.4-8.4c0-4.7-3.7-8.4-8.4-8.4s-8.4,3.7-8.4,8.4
			C565.7,463.1,569.4,466.7,574.1,466.7"/>
	</g>
	<g>
		<path class="st2" d="M555.2,466.7c4.7,0,8.4-3.7,8.4-8.4c0-4.7-3.7-8.4-8.4-8.4c-4.7,0-8.4,3.7-8.4,8.4
			C546.3,463.1,550,466.7,555.2,466.7"/>
	</g>
	<g>
		<path class="st2" d="M593.5,465.1v18.3c0,4.7-1.6,12.1-12.1,12.1h-37.2c-7.3,0-12.6-5.2-12.6-11.5c0-4.7,1.6-10.5,2.6-13.6l1-3.7
			l-6.8-1.6l-8.9,6.3c-1,4.2-2.1,8.4-2.1,12.1c0,15.7,11,25.2,27.8,25.2H582c15.2,0,25.7-10.5,25.7-25.7v-25.2h-7.9L593.5,465.1z"/>
	</g>
	<polygon class="st2" points="469.8,443.1 469.8,508.7 484,508.7 484,436.3 476.1,436.3 	"/>
	<g>
		<path class="st2" d="M342.4,508.7h14.7c15.2,0,25.7-10.5,25.7-26.2v-24.6h-7.9l-6.3,6.8v17.3c0,4.7-1.6,13.1-12.6,13.1h-13.1
			c-11,0-12.6-8.4-12.6-13.1v-46.1h-7.9l-6.3,6.8v39.8C317.2,498.2,327.2,508.7,342.4,508.7"/>
	</g>
	<g>
		<path class="st2" d="M186.7,564.2l-6.3,7.3V613h14.2v-36.2c5.8-0.5,11.5-0.5,17.3-0.5v-13.6c-5.2,0-11.5,0.5-17.3,1
			C191.9,563.7,189.3,564.2,186.7,564.2"/>
	</g>
	<g>
		<path class="st2" d="M616.1,564.2l-6.3,6.8v41.4h14.2v-35.6c5.8-0.5,11.5-0.5,17.3-0.5v-13.6c-5.2,0-11.5,0.5-17.3,1
			C621.3,563.7,618.7,564.2,616.1,564.2"/>
	</g>
	<g>
		<path class="st2" d="M781.2,564.2l-6.3,6.8v41.4h14.2v-35.6c5.8-0.5,11.5-0.5,17.3-0.5v-13.6c-5.2,0-11.5,0.5-17.3,1
			C786.4,563.7,783.8,564.2,781.2,564.2"/>
	</g>
	<polygon class="st2" points="222.4,571 222.4,612.5 236.5,612.5 236.5,563.7 228.6,563.7 	"/>
	<polygon class="st2" points="582.5,571 582.5,612.5 596.7,612.5 596.7,563.7 589.3,563.7 	"/>
	<g>
		<path class="st2" d="M838.3,601.5c-5.8,0-7.9-3.1-7.9-8.4v-16.8h15.2v-13.6h-15.2v-15.7h-7.9l-6.3,6.8v41.9
			c0.5,12.1,6.8,18.9,18.9,18.9c6.3,0,8.9-0.5,14.2-1.6l-1.6-11.5H838.3"/>
	</g>
	<polygon class="st2" points="287.4,563.7 285.8,566.9 273.7,593.1 258.5,563.7 252.8,563.7 245.9,571 245.9,571 265.9,609.3 
		253.3,636.1 269,636.1 298.9,573.7 299.9,571 293.7,563.7 	"/>
	<g>
		<path class="st2" d="M883.4,583.1c-7.3-1.6-12.6-1.6-12.6-5.2c0-2.6,2.6-4.2,6.8-4.2c8.4,0,18.9,3.7,18.9,3.7l1-4.2l-1-1.6
			l-3.7-6.8c0,0-2.6-0.5-3.1-1c-3.7-1-7.9-1.6-12.1-1.6c-13.1,0-21.5,5.8-21.5,16.3c0,8.4,5.8,12.6,16.8,14.7
			c6.3,1,13.1,1.6,13.1,5.8c0,2.6-3.7,3.7-8.4,3.7s-11.5-1-19.9-4.2l-2.6,11.5c8.4,3.1,16.3,4.2,22,4.2c13.1,0,22-5.2,22-16.3
			C900.7,588.9,895,585.7,883.4,583.1"/>
	</g>
	<g>
		<path class="st2" d="M463.5,562.1c-4.7,0-10,0.5-15.2,1v-23.1H441l-6.3,6.8v65.5h14.2v-36.2c4.2-0.5,7.9-1,11.5-1
			c5.8,0,9.4,3.7,9.4,10v27.3H484V581C484,570,475.6,562.1,463.5,562.1"/>
	</g>
	<g>
		<path class="st2" d="M406.9,602c-3.1,0.5-6.8,0.5-11.5,0.5c-9.4,0-12.6-6.3-12.6-14.2v-0.5c0-7.9,3.1-13.6,13.6-13.6
			c2.6,0,7.3,0.5,10.5,1V602z M406.9,547.5v16.3c-3.1-0.5-8.9-1-12.6-1c-16.8,0-25.7,10-25.7,25.7v0.5c0.5,15.7,8.9,25.7,24.6,25.7
			c10.5,0,16.3-1,27.8-2.1v-72.3h-7.9L406.9,547.5z"/>
	</g>
	<g>
		<path class="st2" d="M676.3,601.5c-3.1,0-6.3,0-12.6-1v-26.2c3.1-0.5,6.8-0.5,11.5-0.5c9.4,0,13.1,6.3,13.1,14.2
			S683.2,601.5,676.3,601.5 M677.4,562.1c-7.3,0-15.2,0.5-21.5,1.6l-6.3,6.8v65.5h14.2v-23.6c5.8,0.5,10,0.5,14.7,0.5
			c13.6,0,23.6-10,23.6-25.2C701.5,572.6,693.1,562.1,677.4,562.1"/>
	</g>
</g>
</svg>
